<svg width="2698.99mm" height="1377.29mm"  viewBox="0 0 2699 1377" xmlns="http://www.w3.org/2000/svg" xmlns:xlink="http://www.w3.org/1999/xlink" version="1.1"><rect x="0" y="0" width="2698.99" height="1377.29" style="stroke-width:1;" fill="#ffffff" stroke="#000000" stroke-linecap="square" stroke-linejoin="bevel" /><g  transform="matrix(1.000000000000000000,0.000000000000000000,0.000000000000000000,1.000000000000000000,-294.000000000000000000,78.296000000000049113)" ><rect x="294" y="-78.296" width="2698.99" height="1377.29" style="stroke-width:1;" fill="#ffffff" stroke-linecap="square" stroke-linejoin="bevel" /><path d="M679.37 -77.88L684.62 -76.12 693.37 -75.88 702.62 -69.12 715.37 -66.88 738.62 -57.12 764.62 -48.12 769.37 -47.88 812.62 -36.12 823.37 -34.88 850.62 -26.12 857.37 -25.88 881.37 -20.88 886.50 -17.00 885.12 -14.62 911.62 11.88 953.00 42.50 977.62 56.88 1003.62 69.88 1056.62 91.88 1086.62 101.88 1122.62 110.88 1129.37 111.12 1147.50 115.00 1155.37 115.12 1161.50 117.00 1190.50 117.00 1197.50 119.00 1203.38 118.88 1209.50 117.00 1220.50 117.00 1226.62 115.12 1234.50 115.00 1245.38 112.88 1258.62 109.12 1263.38 108.88 1277.62 102.12 1282.38 101.88 1321.00 80.50 1337.62 67.12 1354.38 61.88 1392.38 42.88 1405.50 35.00 1498.50 35.00 1505.50 37.00 1562.50 37.00 1569.50 35.00 1662.50 35.00 1669.50 33.00 1692.50 31.00 1789.50 31.00 1796.50 29.00 1815.50 29.00 1822.50 27.00 1927.50 27.00 1934.50 25.00 1999.50 25.00 2006.50 23.00 2035.50 23.00 2042.50 21.00 2063.50 21.00 2070.50 19.00 2133.50 19.00 2139.62 17.12 2149.50 17.00 2156.50 15.00 2303.50 15.00 2310.50 17.00 2347.50 17.00 2354.50 15.00 2371.50 15.00 2378.50 13.00 2393.50 13.00 2400.50 11.00 2434.92 11.00 2435.26 9.70 2440.38 9.58 2446.50 7.70 2472.39 7.70 2471.07 11.00 2473.50 11.00 2479.62 9.12 2491.50 9.00 2498.50 7.00 2557.50 7.00 2569.62 3.12 2579.69 3.00 2581.47 -0.30 2663.50 1.00 2670.50 3.00 2693.50 3.00 2700.50 5.00 2719.50 5.00 2722.50 6.00 2732.50 5.00 2771.91 5.00 2772.08 3.70 2803.50 3.70 2806.50 4.70 2817.50 4.70 2820.50 3.70 2869.50 3.70 2872.37 4.83 2874.87 9.07 2868.99 34.42 2867.99 34.51 2867.12 37.62 2862.99 58.50 2862.99 61.23 2864.99 59.84 2864.12 89.08 2869.87 106.33 2870.12 108.08 2869.12 108.38 2879.12 129.38 2887.87 138.62 2901.87 157.62 2912.12 190.38 2921.49 209.00 2926.49 215.00 2934.87 228.62 2939.12 249.38 2943.87 260.62 2948.87 278.62 2947.24 280.50 2951.12 296.38 2954.87 305.62 2956.99 316.50 2957.12 324.38 2960.87 337.62 2961.12 342.38 2964.87 351.62 2967.12 372.38 2970.87 379.62 2971.12 384.38 2975.87 399.62 2977.12 408.38 2983.87 427.62 2988.87 449.62 2988.99 460.50 2990.99 467.50 2988.99 475.50 2988.99 494.50 2992.99 513.50 2992.99 524.50 2989.12 538.62 2988.87 547.37 2984.99 557.50 2984.99 578.50 2982.99 585.50 2982.99 606.50 2981.99 609.50 2981.99 629.50 2984.74 635.50 2981.87 648.37 2956.49 694.99 2946.12 705.62 2923.87 734.37 2911.49 746.99 2904.12 758.62 2899.87 769.37 2894.12 777.62 2892.49 781.99 2883.87 793.37 2870.12 806.62 2858.12 828.62 2852.99 852.50 2852.99 879.50 2854.99 886.50 2855.12 900.38 2858.87 909.62 2858.99 923.50 2862.99 942.50 2862.87 962.37 2860.49 967.99 2856.37 970.87 2843.62 967.87 2833.50 963.99 2827.62 964.12 2826.99 969.50 2827.62 970.88 2835.62 974.88 2844.37 976.12 2865.62 983.88 2872.37 985.12 2879.62 988.88 2886.37 989.12 2888.99 990.50 2895.49 1006.00 2911.99 1025.99 2915.48 1022.63 2921.98 1022.95 2929.49 1026.73 2933.42 1030.64 2937.14 1037.01 2936.64 1040.76 2932.88 1042.37 2930.40 1041.06 2924.53 1033.07 2918.57 1030.55 2916.19 1033.69 2920.21 1042.53 2923.85 1042.77 2926.01 1045.47 2925.80 1047.93 2923.97 1049.92 2927.87 1057.62 2932.99 1076.50 2932.99 1093.50 2931.87 1096.37 2923.99 1104.49 2916.06 1108.46 2916.38 1111.06 2914.57 1113.62 2905.83 1113.66 2890.62 1122.12 2888.12 1125.62 2887.99 1133.50 2890.12 1137.38 2898.62 1145.88 2907.37 1152.12 2914.62 1159.88 2925.25 1164.85 2926.47 1167.38 2926.12 1171.38 2939.87 1184.62 2942.87 1189.62 2946.99 1210.50 2946.99 1227.50 2950.99 1246.50 2950.99 1290.50 2949.87 1293.37 2946.37 1295.87 2933.62 1297.12 2927.50 1298.99 2872.50 1298.99 2853.62 1294.87 2840.62 1288.87 2830.62 1281.87 2800.12 1251.37 2793.88 1240.62 2741.38 1188.12 2735.12 1188.62 2734.87 1196.37 2733.49 1198.99 2719.49 1213.99 2693.87 1255.37 2683.37 1262.87 2677.50 1264.99 2667.62 1264.87 2664.12 1262.37 2662.88 1255.62 2658.12 1246.37 2647.12 1218.37 2646.88 1207.62 2641.88 1192.62 2635.88 1182.62 2630.38 1179.12 2625.50 1177.99 2614.62 1178.12 2549.37 1210.87 2536.37 1215.87 2524.37 1218.87 2514.50 1218.99 2496.62 1213.87 2470.00 1198.49 2448.00 1177.49 2430.00 1166.49 2422.00 1159.49 2412.62 1153.87 2382.12 1123.37 2373.50 1111.99 2368.12 1103.37 2365.88 1094.62 2360.88 1083.62 2354.50 1071.99 2351.00 1068.49 2347.50 1066.99 2270.50 1066.99 2256.00 1062.49 2251.12 1057.37 2246.12 1047.37 2239.88 1029.62 2220.12 991.37 2217.88 984.62 2206.88 962.62 2204.38 960.12 2195.62 960.12 2192.62 962.12 2126.44 1027.83 2113.50 1030.99 2078.50 1030.99 2066.62 1027.87 2044.62 1016.87 2017.38 999.12 1995.38 988.12 1976.38 980.12 1962.38 977.12 1945.62 977.12 1918.37 986.87 1887.50 994.99 1873.50 994.99 1865.38 991.12 1853.62 990.87 1848.62 987.87 1837.38 976.12 1825.38 969.12 1799.38 958.12 1789.62 955.87 1739.62 935.87 1705.62 918.87 1682.59 903.08 1676.43 914.24 1673.96 915.57 1671.54 915.14 1669.68 913.03 1669.56 910.57 1675.50 897.99 1671.44 901.90 1668.67 901.48 1666.93 899.53 1665.62 900.12 1656.87 911.37 1644.49 923.99 1630.87 945.37 1623.37 949.87 1618.50 950.99 1606.62 951.12 1597.37 953.87 1589.50 953.99 1567.50 957.99 1558.62 956.87 1554.62 954.87 1544.38 946.12 1537.62 946.12 1509.12 974.62 1496.37 991.87 1481.62 1002.12 1467.12 1016.62 1460.37 1025.87 1445.62 1036.12 1424.99 1058.49 1412.99 1065.49 1394.99 1079.49 1390.49 1083.99 1376.87 1105.37 1370.37 1110.87 1365.62 1111.87 1359.00 1108.49 1347.62 1099.87 1335.12 1085.37 1326.12 1072.37 1324.88 1063.62 1318.50 1055.99 1313.88 1046.62 1309.12 1040.37 1309.12 1037.62 1316.50 1029.00 1339.88 989.38 1341.88 984.38 1342.00 976.50 1334.88 953.62 1326.12 938.37 1326.88 923.62 1319.88 889.62 1316.00 877.50 1316.00 842.50 1314.00 835.50 1313.88 825.62 1312.00 819.50 1312.00 805.50 1310.88 802.62 1308.38 801.12 1290.62 801.12 1274.99 809.49 1247.62 830.12 1236.37 841.87 1230.99 845.49 1191.99 882.49 1173.62 891.12 1152.37 903.87 1148.50 904.99 1136.62 905.12 1125.99 909.49 1118.49 915.99 1114.87 921.37 1094.37 941.87 1081.58 952.16 1074.37 959.87 1059.37 970.88 1031.37 983.87 1006.50 988.01 980.62 986.87 970.62 983.87 947.38 974.12 934.62 971.01 921.62 971.87 919.00 970.49 915.38 966.12 904.62 965.87 888.00 961.49 884.00 955.50 884.00 925.52 883.00 922.52 885.88 915.39 886.12 908.64 892.12 882.64 895.12 877.64 912.88 860.39 923.50 847.02 949.50 813.02 958.50 799.02 971.53 782.97 983.50 765.02 994.88 743.38 998.88 731.38 1000.00 726.50 1000.00 716.50 998.50 712.99 992.50 709.99 983.50 709.99 976.50 711.99 965.50 711.99 959.38 710.12 952.62 709.87 932.62 701.87 923.12 694.37 913.12 677.37 911.88 668.62 908.12 659.37 907.88 642.62 906.12 637.37 905.88 630.62 902.50 619.99 884.38 608.12 867.62 599.87 839.00 582.49 835.12 577.37 835.88 574.62 830.12 557.37 825.00 534.50 825.12 528.62 829.88 519.38 831.00 508.50 830.38 503.12 827.50 501.99 805.50 501.99 774.62 507.87 769.62 504.87 764.38 499.12 756.00 494.49 750.88 487.62 731.12 468.37 727.12 462.37 724.88 450.62 717.12 437.37 713.88 427.62 706.12 416.37 704.88 410.62 697.88 396.62 690.50 387.99 685.50 377.99 665.12 353.37 664.12 349.62 665.50 347.00 676.88 339.38 676.38 333.12 665.38 329.12 657.50 328.99 640.62 325.87 599.38 298.12 590.62 295.87 580.38 289.12 569.00 284.50 564.25 280.50 568.75 279.50 565.38 277.12 561.38 275.12 554.62 274.87 537.00 263.50 511.00 242.50 501.00 237.50 491.62 230.87 477.00 216.50 466.38 211.12 455.62 208.87 440.38 199.12 428.62 195.87 419.38 191.12 409.38 188.12 400.62 187.87 381.38 182.12 374.62 181.87 349.38 176.12 342.62 175.87 336.50 173.99 326.62 173.87 312.62 170.87 309.50 168.00 305.88 158.62 296.50 146.00 294.12 140.37 294.00 135.50 303.50 122.00 306.00 115.50 306.00 94.50 312.00 67.50 312.00 30.50 310.00 23.50 310.00 16.50 312.12 7.62 316.88 0.38 323.12 -14.38 326.50 -17.00 335.12 -32.38 344.88 -41.62 351.12 -50.38 355.62 -53.88 364.62 -57.88 371.50 -59.00 386.37 -56.88 427.00 -33.50 452.00 -17.50 452.75 -16.50 451.62 -15.12 464.62 -7.12 505.62 13.88 511.37 15.12 523.62 21.88 531.37 23.12 540.62 26.88 564.50 27.00 582.38 21.88 592.38 15.88 602.88 5.38 609.12 -3.38 620.88 -14.62 619.25 -16.50 626.88 -23.62 637.50 -41.00 644.50 -48.00 649.50 -57.00 661.12 -70.38 667.00 -75.50 671.62 -77.88 679.37 -77.88 zM2841.01 851.85L2846.89 824.38 2858.21 802.81 2874.59 785.23 2882.41 775.11 2893.84 752.43 2902.29 739.30 2916.54 723.98 2936.91 697.93 2946.54 687.98 2970.37 644.29 2971.83 636.55 2970.04 630.57 2969.99 609.50 2970.99 604.15 2971.01 584.85 2972.99 576.15 2973.01 556.85 2976.99 544.15 2977.24 536.90 2980.99 522.15 2980.99 515.84 2977.04 495.57 2977.01 474.85 2978.42 468.04 2974.99 442.84 2965.44 411.15 2958.99 382.84 2955.44 375.15 2952.99 354.84 2949.44 345.15 2945.44 327.15 2942.99 308.84 2936.44 287.15 2934.10 270.14 2927.74 253.18 2922.99 232.31 2910.85 214.59 2901.11 195.16 2894.74 177.18 2891.53 163.98 2880.57 149.04 2869.82 137.10 2861.11 120.16 2854.77 104.28 2847.95 102.59 2845.32 94.42 2844.79 86.41 2846.51 79.15 2850.99 71.73 2851.11 56.78 2855.30 35.60 2826.22 36.66 2808.21 34.65 2793.21 30.38 2786.93 27.30 2781.55 23.56 2775.77 17.00 2721.88 17.98 2717.15 17.00 2699.88 16.98 2691.15 15.00 2669.88 14.98 2661.15 13.00 2624.03 13.00 2620.46 20.08 2614.55 25.11 2605.96 29.58 2596.87 32.29 2589.55 33.03 2583.31 32.21 2578.54 29.94 2575.85 26.45 2574.72 20.50 2575.30 15.00 2572.84 15.00 2558.57 18.95 2500.84 19.00 2474.57 22.95 2463.59 23.00 2456.96 29.82 2451.57 33.12 2441.25 35.31 2437.44 33.97 2434.79 31.27 2432.75 23.00 2402.84 23.00 2394.57 24.95 2380.84 25.00 2372.57 26.95 2356.84 27.00 2347.50 29.00 2309.88 28.98 2301.15 27.00 2158.84 27.00 2134.57 30.95 2072.84 31.00 2064.57 32.95 2044.85 33.00 2035.50 35.00 2008.85 35.00 1999.50 37.00 1936.85 37.00 1927.50 39.00 1824.85 39.00 1816.57 40.95 1798.85 41.00 1789.50 43.00 1694.85 43.00 1671.85 45.00 1662.50 47.00 1571.85 47.00 1562.50 49.00 1504.88 48.98 1496.15 47.00 1407.85 47.00 1398.55 53.16 1359.16 72.88 1343.87 77.60 1327.17 90.79 1287.16 112.88 1280.85 114.00 1267.16 120.26 1248.13 124.56 1222.20 128.88 1211.85 129.00 1204.20 130.88 1197.50 131.00 1188.15 129.00 1159.81 128.88 1120.93 122.75 1083.40 113.43 1052.38 103.10 998.39 80.67 971.46 67.17 946.84 52.80 903.98 21.12 876.67 -6.10 874.06 -10.00 847.40 -14.57 819.92 -23.11 809.40 -24.57 761.40 -36.57 711.92 -55.11 698.39 -57.90 689.52 -64.00 676.15 -66.00 674.04 -65.58 662.45 -53.98 654.36 -41.16 647.45 -33.98 636.74 -16.79 632.67 -12.47 630.08 -6.93 600.86 24.36 595.17 28.79 587.16 32.88 568.13 38.55 539.81 38.88 518.39 32.67 508.14 26.98 500.39 24.68 458.46 3.17 444.78 -5.26 440.44 -10.31 390.08 -41.49 382.29 -45.38 374.15 -47.00 367.85 -46.00 362.05 -43.58 344.41 -24.23 330.51 -2.09 328.68 3.60 323.83 11.53 322.00 21.15 324.00 30.50 323.98 68.13 318.00 96.85 317.88 117.20 314.17 127.55 306.36 138.19 316.17 152.46 319.31 159.99 351.10 164.24 365.85 167.99 384.60 170.56 403.85 175.99 412.60 176.56 445.61 188.32 453.21 192.23 459.88 197.41 470.62 199.89 483.21 206.23 502.01 223.54 517.84 232.63 544.01 253.54 558.82 262.99 564.60 263.56 571.59 266.85 577.29 271.07 580.28 276.18 586.57 278.84 593.86 284.01 605.57 287.84 646.31 314.99 668.60 317.56 681.40 322.22 684.90 324.67 688.56 330.88 688.75 341.07 685.71 347.69 679.79 352.62 695.21 370.95 700.42 380.95 708.18 390.47 715.88 405.84 717.83 412.47 724.18 421.47 728.62 433.20 735.88 445.84 738.71 457.70 740.37 460.18 759.40 479.18 763.92 485.04 771.26 489.29 776.93 494.70 804.43 490.04 828.16 490.01 836.36 492.71 840.86 496.96 843.00 504.50 841.88 520.20 837.00 532.15 841.88 553.85 847.81 573.43 873.91 589.48 903.09 605.58 909.06 602.49 921.75 598.59 935.40 597.37 948.31 599.30 959.58 604.23 966.82 611.26 970.37 620.96 972.22 648.18 975.72 660.20 983.44 669.42 1002.20 681.21 1008.90 686.93 1013.49 694.56 1014.53 703.38 1011.72 713.77 1011.88 728.20 1005.59 748.77 1017.88 754.61 1025.42 761.98 1031.86 771.65 1043.84 801.29 1056.86 843.32 1060.92 853.22 1065.28 860.92 1071.12 867.94 1078.57 873.85 1111.84 891.53 1116.68 896.10 1118.76 899.93 1129.85 894.44 1148.20 892.37 1167.44 880.83 1184.95 872.57 1240.08 820.78 1269.44 798.83 1285.82 790.12 1290.43 789.04 1310.10 789.24 1316.36 791.72 1319.40 794.18 1322.88 799.84 1323.88 803.81 1324.00 817.15 1327.95 841.43 1328.00 875.15 1337.76 915.93 1339.00 924.50 1338.70 936.31 1346.27 949.84 1354.00 976.50 1353.88 985.20 1351.67 992.61 1323.62 1039.57 1328.42 1048.95 1335.88 1058.83 1339.42 1070.95 1352.36 1087.18 1366.18 1098.63 1369.54 1094.98 1380.63 1077.15 1386.51 1071.01 1405.91 1055.81 1417.95 1048.57 1424.63 1040.14 1437.14 1027.63 1451.88 1016.83 1458.63 1008.14 1473.14 993.63 1488.19 982.62 1500.63 966.14 1530.94 936.15 1537.43 934.04 1547.39 934.50 1551.26 936.29 1561.82 944.99 1568.99 945.69 1586.90 942.24 1594.16 941.99 1604.90 939.24 1619.86 938.11 1623.54 934.98 1637.91 912.93 1657.14 891.63 1664.82 886.74 1673.58 885.99 1678.57 884.01 1682.58 885.84 1684.09 888.82 1691.01 894.54 1711.91 908.48 1722.81 914.39 1772.70 936.37 1793.07 944.10 1803.62 946.89 1828.61 957.32 1844.26 966.29 1857.31 978.99 1868.60 979.56 1875.82 982.99 1885.16 982.99 1917.40 974.34 1942.85 965.44 1964.10 965.24 1980.62 968.89 2000.61 977.32 2023.57 988.84 2051.86 1007.01 2070.70 1016.37 2080.84 1018.99 2111.16 1018.99 2120.68 1016.99 2185.08 952.78 2193.90 948.24 2207.63 948.57 2212.69 951.28 2217.18 956.47 2250.88 1024.84 2257.65 1043.40 2262.88 1052.41 2272.84 1054.99 2348.16 1055.01 2357.21 1058.23 2364.80 1065.84 2374.88 1084.84 2379.62 1099.20 2393.03 1116.88 2423.01 1146.54 2455.69 1168.29 2477.01 1188.54 2499.86 1202.01 2516.84 1206.99 2521.16 1206.99 2532.86 1204.11 2546.21 1198.97 2610.82 1166.74 2626.16 1166.01 2633.60 1167.56 2644.40 1174.18 2648.80 1179.84 2652.88 1187.84 2658.56 1204.88 2659.65 1217.40 2669.65 1242.40 2675.16 1252.99 2682.95 1248.57 2686.54 1244.98 2694.22 1230.80 2709.64 1207.15 2719.45 1196.34 2718.09 1188.69 2718.78 1179.30 2722.57 1168.24 2728.99 1158.66 2736.86 1152.89 2744.45 1151.61 2748.39 1153.66 2750.78 1157.85 2751.57 1164.06 2748.92 1178.69 2802.40 1232.18 2809.36 1243.18 2841.01 1274.54 2854.70 1282.37 2874.84 1286.99 2925.16 1286.99 2932.78 1285.11 2938.99 1284.99 2938.99 1248.84 2935.11 1229.22 2934.99 1212.84 2930.99 1193.31 2900.40 1162.60 2880.57 1153.02 2871.90 1145.89 2868.56 1141.18 2866.82 1135.78 2866.99 1129.49 2869.27 1123.29 2874.28 1116.53 2880.22 1111.86 2886.82 1108.58 2895.37 1106.24 2916.95 1094.57 2920.99 1090.69 2920.99 1078.84 2915.97 1060.79 2914.22 1057.38 2900.77 1055.10 2893.01 1050.66 2892.72 1047.43 2896.37 1043.58 2904.78 1038.45 2901.53 1031.98 2885.23 1012.21 2880.41 1001.00 2840.92 987.89 2830.39 985.67 2819.97 980.12 2815.44 973.15 2815.80 960.64 2818.63 956.14 2822.82 953.12 2835.22 952.11 2850.99 957.05 2850.99 944.84 2847.11 925.22 2846.99 912.84 2843.24 902.10 2842.99 888.84 2841.04 880.57 2841.01 851.85 zM2874.90 1131.05L2874.82 1134.93 2877.70 1140.30 2876.11 1135.22 2875.99 1128.15 2874.90 1131.05 zM2771.84 1112.80L2774.58 1114.02 2775.70 1116.89 2774.44 1119.71 2771.55 1120.79 2768.68 1119.42 2767.70 1116.59 2769.10 1113.74 2771.84 1112.80 zM2058.81 947.49L2065.42 950.42 2069.08 955.10 2069.87 961.40 2067.12 967.46 2060.96 972.55 2052.84 975.82 2045.75 976.32 2040.88 972.81 2036.92 966.27 2036.92 958.48 2041.47 951.76 2045.28 949.26 2054.53 946.98 2058.81 947.49 zM1668.23 788.04L1671.23 789.56 1672.06 792.53 1670.50 797.82 1666.82 799.31 1664.16 797.74 1663.40 794.75 1664.88 789.63 1668.23 788.04 zM1975.39 709.54L1978.26 710.91 1979.24 713.74 1977.91 716.52 1975.09 717.53 1972.29 716.24 1971.24 713.44 1972.50 710.62 1975.39 709.54 zM2888.11 706.90L2890.91 708.20 2891.96 711.10 2890.63 713.88 2887.81 714.90 2885.01 713.60 2883.96 710.80 2885.29 707.92 2888.11 706.90 zM1045.93 341.63L1048.77 343.05 1069.14 367.39 1069.84 370.11 1068.31 372.84 1065.63 373.67 1063.07 372.54 1042.42 347.90 1042.13 343.82 1045.93 341.63 zM2742.35 342.65L2745.22 344.02 2747.08 347.66 2746.38 350.57 2743.67 352.21 2740.38 351.17 2738.23 347.14 2739.32 343.88 2742.35 342.65 zM977.61 280.54L980.55 282.36 985.63 292.48 985.28 295.60 983.13 297.40 980.67 297.47 978.64 296.08 973.35 285.67 974.11 281.96 977.61 280.54 zM2668.64 219.77L2671.38 220.99 2672.49 223.96 2671.31 226.61 2668.35 227.76 2665.61 226.54 2664.49 223.76 2665.68 220.92 2668.64 219.77 zM2221.90 184.34L2224.77 185.71 2225.75 188.53 2224.42 191.32 2221.60 192.33 2218.80 191.04 2217.75 188.24 2219.01 185.42 2221.90 184.34 zM2148.29 158.69L2151.09 159.98 2152.14 162.88 2150.81 165.67 2147.99 166.68 2145.19 165.39 2144.14 162.49 2145.47 159.70 2148.29 158.69 zM1975.22 157.44L1978.09 158.81 1979.07 161.64 1977.74 164.42 1974.92 165.44 1972.12 164.14 1971.07 161.34 1972.40 158.46 1975.22 157.44 zM1298.20 131.10L1300.94 132.33 1302.06 135.10 1300.80 138.02 1297.91 139.10 1295.17 137.88 1294.06 134.90 1295.24 132.25 1298.20 131.10 zM1269.20 124.81L1272.07 126.18 1273.05 129.01 1271.72 131.79 1268.90 132.81 1266.10 131.51 1265.05 128.71 1266.38 125.83 1269.20 124.81 z" style="stroke-width:1;" fill="#0000ff" stroke-linecap="square" stroke-linejoin="bevel" id="mergeda-0-4" class="merged qa layer-0 level-4" fill-rule="evenodd" data-area="142634.10" /><path d="M2491.34 979.54L2509.84 981.88 2527.42 985.71 2548.98 992.13 2570.04 1000.00 2605.42 1016.34 2681.54 1056.64 2722.60 1074.28 2775.20 1090.31 2856.06 1108.37 2877.17 1114.20 2869.58 1122.65 2866.99 1129.49 2866.92 1136.49 2871.13 1145.04 2880.57 1153.02 2900.40 1162.60 2930.99 1193.31 2934.99 1212.84 2935.11 1229.22 2938.99 1248.84 2938.99 1284.99 2932.78 1285.11 2925.16 1286.99 2874.84 1286.99 2854.70 1282.37 2841.01 1274.54 2809.36 1243.18 2802.40 1232.18 2748.92 1178.69 2751.57 1164.06 2750.78 1157.85 2748.39 1153.66 2744.45 1151.61 2736.86 1152.89 2728.99 1158.66 2722.57 1168.24 2718.78 1179.30 2718.09 1188.69 2719.45 1196.34 2709.64 1207.15 2694.22 1230.80 2686.54 1244.98 2682.95 1248.57 2675.16 1252.99 2669.65 1242.40 2659.65 1217.40 2658.56 1204.88 2652.88 1187.84 2648.80 1179.84 2644.40 1174.18 2633.60 1167.56 2626.16 1166.01 2610.82 1166.74 2546.21 1198.97 2532.86 1204.11 2521.16 1206.99 2516.84 1206.99 2505.07 1204.10 2496.90 1200.48 2477.01 1188.54 2459.11 1170.95 2437.01 1156.54 2419.03 1142.88 2391.36 1115.18 2383.42 1104.95 2379.62 1099.20 2374.88 1084.84 2365.17 1066.46 2357.84 1058.63 2348.16 1055.01 2303.06 1054.99 2320.68 1037.50 2345.62 1018.41 2374.16 1001.77 2402.98 989.32 2429.43 982.01 2443.98 979.90 2475.66 978.58 2491.34 979.54 zM2875.99 1133.50L2877.70 1140.30 2874.82 1134.93 2875.99 1128.15 2875.99 1133.50 zM2771.65 1112.79L2768.68 1114.16 2767.70 1116.99 2769.10 1119.84 2771.84 1120.79 2774.58 1119.57 2775.70 1116.69 2774.44 1113.88 2771.65 1112.79 zM2895.27 1119.33L2894.53 1119.77 2895.27 1119.33 zM1322.12 902.37L1327.00 924.50 1326.88 934.38 1323.03 943.10 1322.00 937.52 1323.88 931.39 1324.00 923.52 1322.00 916.52 1322.00 901.50 1322.12 902.37 zM1427.51 638.19L1454.96 642.49 1467.72 646.29 1487.67 655.96 1503.09 669.64 1510.20 680.19 1514.62 691.57 1516.39 703.96 1515.49 716.95 1511.82 730.73 1504.75 747.54 1493.48 768.94 1483.54 784.18 1462.48 808.54 1437.97 831.78 1416.06 849.63 1363.60 888.79 1345.34 904.81 1337.30 913.97 1328.00 875.15 1327.95 841.43 1324.00 817.15 1323.76 802.93 1320.85 795.95 1316.36 791.72 1309.22 789.11 1290.43 789.04 1285.82 790.12 1276.44 794.83 1261.92 803.80 1240.08 820.78 1213.81 845.62 1207.83 823.88 1213.83 770.58 1218.13 752.92 1224.35 736.79 1235.54 717.33 1251.00 698.17 1265.95 684.32 1285.46 671.14 1299.40 663.61 1329.71 651.28 1346.34 646.35 1378.05 640.19 1395.70 638.46 1427.51 638.19 zM374.38 -46.90L382.29 -45.38 390.08 -41.49 440.44 -10.31 444.78 -5.26 458.46 3.17 500.39 24.68 508.14 26.98 519.38 33.10 541.50 39.00 566.20 38.88 586.16 33.26 609.79 68.31 671.60 153.11 707.50 199.35 731.88 225.99 774.00 265.20 791.05 283.15 799.01 295.94 805.76 313.27 809.47 328.63 811.27 344.07 811.13 359.54 809.07 375.33 804.86 392.13 798.71 408.89 790.90 424.96 781.66 439.81 772.08 451.89 764.06 459.69 739.46 459.02 735.88 445.84 728.62 433.20 724.18 421.47 717.83 412.47 715.88 405.84 708.18 390.47 700.42 380.95 695.21 370.95 679.79 352.62 686.36 346.84 688.88 340.20 688.26 329.84 683.26 323.29 668.60 317.56 646.31 314.99 605.57 287.84 593.86 284.01 586.57 278.84 580.28 276.18 577.29 271.07 571.59 266.85 564.60 263.56 558.82 262.99 544.01 253.54 517.84 232.63 502.01 223.54 483.21 206.23 470.62 199.89 459.88 197.41 453.21 192.23 445.61 188.32 412.60 176.56 403.85 175.99 384.60 170.56 365.85 167.99 351.10 164.24 319.31 159.99 316.17 152.46 306.36 138.19 314.17 127.55 317.88 117.20 318.00 96.85 323.98 68.13 324.00 30.50 322.00 21.15 323.83 11.53 328.68 3.60 330.51 -2.09 344.41 -24.23 362.05 -43.58 367.85 -46.00 374.38 -46.90 zM677.00 338.50L675.00 341.50 666.00 346.50 664.29 349.35 664.12 346.33 666.00 343.20 674.38 339.58 677.00 337.20 677.00 338.50 zM489.08 228.25L485.62 226.57 478.38 218.82 469.69 212.89 480.38 219.12 489.08 228.25 zM440.38 199.12L445.29 201.66 440.38 199.12 zM435.38 197.12L436.33 197.69 433.66 196.99 435.38 197.12 zM306.00 115.50L303.88 121.38 295.05 133.85 303.88 120.08 306.00 114.20 306.00 115.50 zM310.00 79.50L306.00 94.50 308.12 82.33 310.00 78.20 310.00 79.50 zM312.00 67.50L310.00 74.50 312.00 66.70 312.00 67.50 zM377.37 -59.17L386.37 -57.17 396.37 -52.17 453.62 -16.42 502.62 8.58 517.62 14.58 540.62 21.58 562.50 21.70 575.20 18.75 578.17 23.00 564.50 27.00 541.50 27.00 531.37 23.12 523.62 21.88 511.37 15.12 505.62 13.88 464.62 -7.12 451.62 -15.12 452.50 -17.00 449.00 -19.50 396.37 -51.88 386.37 -56.88 377.37 -58.88 364.62 -57.88 351.62 -50.88 344.88 -41.62 335.12 -32.38 326.10 -16.60 335.12 -32.67 344.88 -41.92 351.62 -51.17 364.62 -58.17 377.37 -59.17 z" style="stroke-width:1;" fill="#00ffff" stroke-linecap="square" stroke-linejoin="bevel" id="mergeda-0-3" class="merged qa layer-0 level-3" fill-rule="evenodd" data-area="236455.90" /><path d="M2041.06 799.35L2045.44 804.71 2046.53 813.13 2214.87 824.73 2346.26 827.45 2403.18 829.93 2450.39 834.04 2481.35 832.71 2537.37 834.09 2587.09 839.44 2628.82 847.25 2683.28 854.29 2840.99 872.33 2841.11 881.22 2842.99 888.84 2843.11 901.22 2846.99 912.84 2847.11 925.22 2850.99 944.84 2850.99 957.05 2835.22 952.11 2822.82 953.12 2818.63 956.14 2815.80 960.64 2814.99 965.50 2815.74 974.18 2819.97 980.12 2831.38 986.10 2840.92 987.89 2880.41 1001.00 2885.23 1012.21 2901.53 1031.98 2904.78 1038.45 2896.37 1043.58 2892.72 1047.43 2893.01 1050.66 2900.77 1055.10 2914.22 1057.38 2920.99 1078.84 2920.99 1090.69 2916.95 1094.57 2895.37 1106.24 2886.82 1108.58 2877.17 1114.20 2856.06 1108.37 2775.20 1090.31 2745.95 1082.11 2702.59 1066.29 2681.54 1056.64 2605.42 1016.34 2570.04 1000.00 2548.98 992.13 2509.84 981.88 2475.66 978.58 2443.98 979.90 2429.43 982.01 2402.98 989.32 2374.16 1001.77 2345.62 1018.41 2320.68 1037.50 2303.06 1054.99 2272.84 1054.99 2262.88 1052.41 2261.42 1050.95 2250.88 1024.84 2217.18 956.47 2212.69 951.28 2207.63 948.57 2193.90 948.24 2185.08 952.78 2120.68 1016.99 2111.16 1018.99 2080.84 1018.99 2070.70 1016.37 2051.86 1007.01 2023.57 988.84 2000.61 977.32 1980.62 968.89 1964.10 965.24 1942.85 965.44 1917.40 974.34 1885.16 982.99 1875.82 982.99 1868.60 979.56 1857.31 978.99 1844.26 966.29 1828.61 957.32 1803.62 946.89 1793.07 944.10 1772.70 936.37 1722.81 914.39 1711.91 908.48 1691.01 894.54 1684.09 888.82 1682.58 885.84 1678.21 884.00 1673.58 885.99 1664.82 886.74 1657.14 891.63 1637.91 912.93 1623.54 934.98 1619.86 938.11 1604.90 939.24 1594.16 941.99 1586.90 942.24 1568.99 945.69 1561.82 944.99 1551.26 936.29 1547.39 934.50 1537.43 934.04 1530.94 936.15 1500.63 966.14 1488.19 982.62 1473.14 993.63 1458.63 1008.14 1451.88 1016.83 1437.14 1027.63 1424.63 1040.14 1417.95 1048.57 1405.91 1055.81 1386.51 1071.01 1380.63 1077.15 1369.54 1094.98 1366.18 1098.63 1352.36 1087.18 1339.42 1070.95 1335.88 1058.83 1328.42 1048.95 1323.62 1039.57 1350.16 995.55 1353.88 985.20 1353.95 975.43 1352.27 967.84 1345.88 948.84 1338.70 936.31 1338.95 923.43 1337.30 913.97 1345.34 904.81 1363.60 888.79 1416.06 849.63 1437.97 831.78 1450.18 820.20 1480.43 817.37 1740.96 816.75 1820.76 814.82 1887.09 810.78 2017.61 811.44 2016.44 807.47 2018.23 802.84 2021.17 800.45 2025.31 798.58 2034.55 797.40 2041.06 799.35 zM2162.39 998.54L2160.13 1011.95 2159.49 1025.92 2163.31 1061.22 2161.98 1064.06 2159.01 1065.07 2156.73 1064.13 2155.43 1062.04 2152.50 1041.80 2151.49 1026.21 2152.14 1011.35 2154.12 1000.62 2164.96 990.00 2162.39 998.54 zM1313.88 1046.62L1313.88 1046.62 zM2049.80 947.61L2041.47 951.76 2038.67 954.87 2036.32 962.36 2036.92 966.27 2040.88 972.81 2045.83 976.34 2052.84 975.82 2060.96 972.55 2067.12 967.46 2069.87 961.40 2069.08 955.10 2065.42 950.42 2058.81 947.49 2049.80 947.61 zM1128.40 686.86L1131.24 688.29 1165.24 728.88 1166.15 731.88 1164.62 734.62 1161.94 735.45 1159.38 734.31 1124.89 693.14 1124.77 688.75 1128.40 686.86 zM676.38 -65.90L689.52 -64.00 698.39 -57.90 711.92 -55.11 761.40 -36.57 809.40 -24.57 819.92 -23.11 847.40 -14.57 874.06 -10.00 876.67 -6.10 903.98 21.12 946.84 52.80 971.46 67.17 998.39 80.67 1052.38 103.10 1062.14 105.98 1056.68 121.39 1046.91 137.82 1032.96 156.23 980.78 213.41 958.41 239.97 942.84 261.15 929.90 282.03 920.05 301.40 912.22 320.98 889.24 397.17 876.51 433.81 865.63 459.69 764.06 459.69 772.08 451.89 781.66 439.81 790.90 424.96 798.71 408.89 804.86 392.13 809.07 375.33 811.13 359.54 811.27 344.07 809.47 328.63 805.76 313.27 799.01 295.94 791.05 283.15 774.00 265.20 731.88 225.99 707.50 199.35 671.60 153.11 585.47 33.46 596.07 28.20 611.36 13.86 618.41 4.77 630.74 -7.79 632.67 -12.47 636.74 -16.79 647.45 -33.98 654.36 -41.16 662.45 -53.98 674.04 -65.58 676.38 -65.90 zM2704.08 381.04L2707.20 383.16 2707.17 386.94 2694.60 405.18 2692.06 406.35 2689.66 405.77 2687.94 403.56 2688.25 400.44 2700.58 382.47 2704.08 381.04 zM2710.16 399.92L2707.91 400.92 2705.50 400.41 2703.84 398.58 2703.66 395.78 2714.84 368.77 2716.60 367.05 2719.39 366.75 2721.87 368.67 2722.30 371.43 2715.91 387.06 2731.07 381.30 2734.22 382.73 2735.08 386.08 2733.00 388.85 2714.67 396.17 2732.64 393.54 2735.57 395.38 2736.06 398.47 2733.18 401.38 2714.74 404.24 2711.78 403.20 2710.16 399.92 zM2711.64 397.38L2711.64 397.38 zM1305.57 320.78L1323.61 325.41 1325.72 327.73 1325.51 330.86 1323.77 332.61 1321.34 333.00 1303.65 328.41 1301.84 326.74 1301.40 323.97 1302.89 321.60 1305.57 320.78 zM1039.28 84.67L1047.37 84.83 1059.56 89.70 1062.29 93.67 1038.37 84.12 1039.28 84.67 zM679.37 -78.17L684.62 -76.42 693.37 -76.17 702.62 -69.42 715.37 -67.17 738.62 -57.42 764.62 -48.42 769.37 -48.17 812.62 -36.42 823.37 -35.17 850.62 -26.42 857.37 -26.17 881.37 -21.17 885.00 -18.80 903.62 0.58 941.00 31.20 981.62 55.58 1022.37 74.83 1026.41 79.75 977.62 56.88 953.00 42.50 911.62 11.88 885.12 -14.62 886.50 -17.00 881.37 -20.88 857.37 -25.88 850.62 -26.12 823.37 -34.88 812.62 -36.12 797.37 -40.88 788.62 -42.12 769.37 -47.88 764.62 -48.12 738.62 -57.12 715.37 -66.88 702.62 -69.12 693.37 -75.88 684.62 -76.12 678.50 -78.00 671.62 -77.88 667.00 -75.50 661.12 -70.38 649.50 -57.00 644.50 -48.00 637.50 -41.00 626.88 -23.62 619.25 -16.50 620.88 -14.62 609.12 -3.38 602.88 5.38 592.38 15.88 588.38 18.88 578.17 23.00 574.62 18.83 593.00 11.20 612.88 -7.92 619.12 -16.67 626.88 -23.92 637.50 -41.30 644.50 -48.30 649.50 -57.30 661.62 -71.17 671.62 -78.17 679.37 -78.17 z" style="stroke-width:1;" fill="#00ff00" stroke-linecap="square" stroke-linejoin="bevel" id="mergeda-0-2" class="merged qa layer-0 level-2" fill-rule="evenodd" data-area="372405.72" /><path d="" style="stroke-width:1;" fill="#ffff00" stroke-linecap="square" stroke-linejoin="bevel" id="mergeda-0-1" class="merged qa layer-0 level-1" data-area="0.00" /><path d="M1313.50 1045.99L1311.12 1043.37 1313.50 1045.99 zM1446.99 1035.49L1449.62 1033.12 1446.99 1035.49 zM2126.99 1027.49L2128.62 1026.12 2126.99 1027.49 zM2661.38 13.10L2669.88 14.98 2691.15 15.00 2699.88 16.98 2717.15 17.00 2721.88 17.98 2775.77 17.00 2781.55 23.56 2786.93 27.30 2793.21 30.38 2808.21 34.65 2826.22 36.66 2855.30 35.60 2851.11 56.78 2850.99 71.73 2846.51 79.15 2844.79 86.41 2845.32 94.42 2847.95 102.59 2854.77 104.28 2861.11 120.16 2869.82 137.10 2880.57 149.04 2891.53 163.98 2894.74 177.18 2901.11 195.16 2910.85 214.59 2922.99 232.31 2927.74 253.18 2934.10 270.14 2936.44 287.15 2942.99 308.84 2945.44 327.15 2949.44 345.15 2952.99 354.84 2955.44 375.15 2958.99 382.84 2965.44 411.15 2974.99 442.84 2978.42 468.04 2977.01 474.85 2977.04 495.57 2980.99 515.84 2980.99 522.15 2977.24 536.90 2976.99 544.15 2973.01 556.85 2972.99 576.15 2971.01 584.85 2970.99 604.15 2969.99 609.50 2970.04 630.57 2971.83 636.55 2970.37 644.29 2946.54 687.98 2936.91 697.93 2916.54 723.98 2902.29 739.30 2893.84 752.43 2882.41 775.11 2857.84 803.43 2845.56 828.40 2841.11 850.78 2840.99 872.33 2683.28 854.29 2628.82 847.25 2587.09 839.44 2537.37 834.09 2481.35 832.71 2450.39 834.04 2403.18 829.93 2346.26 827.45 2214.87 824.73 2046.53 813.13 2045.44 804.71 2043.66 801.74 2041.06 799.35 2034.55 797.40 2025.31 798.58 2018.23 802.84 2016.44 807.47 2017.61 811.44 1887.09 810.78 1820.76 814.82 1740.96 816.75 1480.43 817.37 1450.18 820.20 1462.48 808.54 1483.54 784.18 1493.48 768.94 1504.75 747.54 1511.82 730.73 1515.49 716.95 1516.39 703.96 1514.62 691.57 1510.20 680.19 1503.09 669.64 1495.90 662.27 1478.46 650.75 1454.96 642.49 1441.11 639.72 1412.93 637.77 1395.70 638.46 1362.11 642.76 1329.71 651.28 1299.40 663.61 1285.46 671.14 1265.95 684.32 1251.00 698.17 1235.54 717.33 1224.35 736.79 1218.13 752.92 1213.83 770.58 1207.83 823.88 1213.81 845.62 1184.95 872.57 1167.44 880.83 1148.20 892.37 1129.85 894.44 1118.76 899.93 1116.68 896.10 1111.84 891.53 1078.57 873.85 1071.12 867.94 1065.28 860.92 1060.92 853.22 1056.86 843.32 1043.84 801.29 1031.86 771.65 1025.42 761.98 1017.88 754.61 1005.59 748.77 1011.88 728.20 1011.72 713.77 1014.53 703.38 1013.49 694.56 1008.90 686.93 1002.20 681.21 983.44 669.42 975.72 660.20 972.22 648.18 970.37 620.96 966.82 611.26 963.75 607.51 959.58 604.23 948.31 599.30 935.40 597.37 921.75 598.59 909.06 602.49 903.09 605.58 853.91 577.48 847.81 573.43 838.00 538.15 837.00 531.82 841.43 522.60 842.98 509.13 842.56 500.88 839.40 495.18 833.61 491.32 827.50 489.99 804.43 490.04 776.93 494.70 771.26 489.29 763.92 485.04 740.01 459.69 865.63 459.69 876.51 433.81 889.24 397.17 912.22 320.98 920.05 301.40 929.90 282.03 942.84 261.15 958.41 239.97 980.78 213.41 1032.96 156.23 1046.91 137.82 1056.68 121.39 1061.94 105.90 1083.40 113.43 1119.40 122.43 1159.81 128.88 1188.15 129.00 1195.81 130.88 1202.50 131.00 1211.85 129.00 1221.57 128.95 1229.85 127.00 1237.07 126.75 1266.13 120.56 1280.85 114.00 1287.16 112.88 1327.17 90.79 1343.87 77.60 1359.16 72.88 1398.55 53.16 1407.85 47.00 1496.15 47.00 1505.50 49.00 1562.50 49.00 1571.85 47.00 1662.50 47.00 1671.85 45.00 1694.85 43.00 1789.50 43.00 1798.85 41.00 1816.57 40.95 1824.85 39.00 1927.50 39.00 1936.85 37.00 1999.50 37.00 2008.85 35.00 2035.50 35.00 2044.85 33.00 2064.57 32.95 2072.84 31.00 2134.57 30.95 2158.84 27.00 2301.15 27.00 2309.88 28.98 2347.50 29.00 2356.84 27.00 2372.57 26.95 2380.84 25.00 2394.57 24.95 2402.84 23.00 2432.75 23.00 2434.79 31.27 2437.44 33.97 2441.25 35.31 2451.57 33.12 2456.96 29.82 2463.59 23.00 2474.57 22.95 2500.84 19.00 2558.57 18.95 2572.84 15.00 2575.30 15.00 2574.72 20.50 2575.85 26.45 2578.54 29.94 2583.31 32.21 2589.55 33.03 2596.87 32.29 2605.96 29.58 2614.55 25.11 2620.46 20.08 2624.03 13.00 2661.38 13.10 zM1668.04 788.03L1664.77 789.79 1663.37 795.05 1664.28 797.90 1667.01 799.33 1670.68 797.58 1672.07 792.43 1670.97 789.26 1668.04 788.03 zM1127.69 686.89L1124.45 689.39 1124.89 693.14 1159.38 734.31 1161.94 735.45 1164.62 734.62 1166.15 731.88 1165.24 728.88 1131.24 688.29 1127.69 686.89 zM1975.19 709.54L1972.29 710.83 1971.24 713.64 1972.50 716.45 1975.29 717.54 1978.26 716.17 1979.24 713.34 1977.91 710.56 1975.19 709.54 zM2887.91 706.90L2885.01 708.20 2883.96 711.00 2885.22 713.81 2888.01 714.90 2890.91 713.60 2891.96 710.70 2890.63 707.92 2887.91 706.90 zM2703.36 381.03L2700.58 382.47 2688.25 400.44 2687.94 403.56 2689.97 405.94 2692.76 406.23 2694.84 404.91 2707.17 386.94 2707.02 382.85 2703.36 381.03 zM2717.97 366.65L2714.69 369.10 2703.66 395.78 2703.84 398.58 2706.84 400.88 2710.55 399.50 2711.30 402.67 2714.02 404.22 2733.86 401.14 2736.18 397.41 2735.36 395.09 2733.34 393.68 2714.67 396.17 2733.00 388.85 2735.13 385.73 2733.98 382.46 2730.71 381.32 2715.91 387.06 2722.36 371.08 2721.23 367.81 2717.97 366.65 zM2711.64 397.43L2711.64 397.43 zM1045.22 341.65L1042.13 343.82 1042.42 347.90 1063.07 372.54 1065.63 373.67 1068.31 372.84 1069.84 370.11 1069.14 367.39 1048.50 342.76 1045.22 341.65 zM2742.15 342.65L2739.12 344.10 2738.26 347.34 2740.53 351.30 2743.86 352.18 2746.44 350.49 2747.05 347.46 2745.01 343.81 2742.15 342.65 zM1304.86 320.80L1302.62 321.83 1301.40 323.97 1301.84 326.74 1303.65 328.41 1321.34 333.00 1323.77 332.61 1325.51 330.86 1325.72 327.73 1323.61 325.41 1304.86 320.80 zM976.89 280.53L973.70 282.55 973.47 286.00 978.87 296.35 983.13 297.40 985.44 295.28 985.51 292.14 980.34 282.07 976.89 280.53 zM2668.45 219.76L2665.61 220.99 2664.49 223.76 2665.68 226.61 2668.54 227.76 2671.38 226.54 2672.49 223.57 2671.31 220.92 2668.45 219.76 zM439.71 199.02L438.62 198.87 439.71 199.02 zM2221.70 184.33L2218.80 185.63 2217.75 188.43 2219.01 191.25 2221.80 192.33 2224.77 190.96 2225.75 188.14 2224.42 185.35 2221.70 184.33 zM2148.09 158.69L2145.19 159.98 2144.14 162.88 2145.47 165.67 2148.19 166.69 2151.09 165.39 2152.14 162.49 2150.81 159.70 2148.09 158.69 zM1975.02 157.44L1972.12 158.74 1971.07 161.54 1972.33 164.35 1975.12 165.44 1978.09 164.07 1979.07 161.24 1977.74 158.46 1975.02 157.44 zM1298.01 131.10L1295.17 132.33 1294.06 135.30 1295.24 137.95 1298.11 139.10 1300.94 137.88 1302.06 135.10 1300.87 132.25 1298.01 131.10 zM295.05 133.85L295.05 133.85 zM1269.00 124.81L1266.10 126.11 1265.05 128.91 1266.31 131.73 1269.10 132.81 1272.07 131.44 1273.05 128.61 1271.72 125.83 1269.00 124.81 zM1026.60 79.86L1026.60 79.86 zM1309.50 1040.99L1310.88 1042.62 1309.50 1040.99 zM1451.99 1031.49L1450.37 1032.87 1451.99 1031.49 zM1454.99 1029.49L1453.37 1030.87 1454.99 1029.49 zM1458.99 1026.49L1456.37 1028.87 1458.99 1026.49 zM489.08 228.24L489.08 228.24 z" style="stroke-width:1;" fill="#ff0000" stroke-linecap="square" stroke-linejoin="bevel" id="mergeda-0-0" class="merged qa layer-0 level-0" fill-rule="evenodd" data-area="1500558.21" /><defs><pattern id="pattern-fdiag-ffffff7f"  x="0" y="0" width="10" height="10" patternUnits="userSpaceOnUse" ><g style="fill:none;stroke-width:1;" ><line x1="0" y1="0" x2="10" y2="10"  stroke="#ffffff7f"  /></g></pattern></defs><path d="M679.37 -77.88L684.62 -76.12 693.37 -75.88 702.62 -69.12 715.37 -66.88 738.62 -57.12 764.62 -48.12 769.37 -47.88 812.62 -36.12 823.37 -34.88 850.62 -26.12 857.37 -25.88 881.37 -20.88 886.50 -17.00 885.12 -14.62 911.62 11.88 953.00 42.50 977.62 56.88 1003.62 69.88 1056.62 91.88 1086.62 101.88 1122.62 110.88 1129.37 111.12 1147.50 115.00 1155.37 115.12 1161.50 117.00 1190.50 117.00 1197.50 119.00 1203.38 118.88 1209.50 117.00 1220.50 117.00 1226.62 115.12 1234.50 115.00 1245.38 112.88 1258.62 109.12 1263.38 108.88 1277.62 102.12 1282.38 101.88 1321.00 80.50 1337.62 67.12 1354.38 61.88 1392.38 42.88 1405.50 35.00 1498.50 35.00 1505.50 37.00 1562.50 37.00 1569.50 35.00 1662.50 35.00 1669.50 33.00 1692.50 31.00 1789.50 31.00 1796.50 29.00 1815.50 29.00 1822.50 27.00 1927.50 27.00 1934.50 25.00 1999.50 25.00 2006.50 23.00 2035.50 23.00 2042.50 21.00 2063.50 21.00 2070.50 19.00 2133.50 19.00 2139.62 17.12 2149.50 17.00 2156.50 15.00 2303.50 15.00 2310.50 17.00 2347.50 17.00 2354.50 15.00 2371.50 15.00 2378.50 13.00 2393.50 13.00 2400.50 11.00 2473.50 11.00 2479.62 9.12 2491.50 9.00 2498.50 7.00 2557.50 7.00 2569.62 3.12 2585.50 3.00 2592.50 1.00 2663.50 1.00 2670.50 3.00 2693.50 3.00 2700.50 5.00 2719.50 5.00 2722.50 6.00 2732.50 5.00 2787.50 5.00 2794.50 7.00 2827.50 7.00 2834.50 5.00 2853.50 5.00 2859.62 6.88 2868.50 7.00 2871.37 8.12 2872.87 10.62 2872.87 14.37 2862.99 58.50 2863.12 88.38 2867.12 104.38 2879.12 129.38 2887.87 138.62 2901.87 157.62 2912.12 190.38 2921.49 209.00 2926.49 215.00 2934.87 228.62 2939.12 249.38 2943.87 260.62 2948.87 278.62 2947.24 280.50 2951.12 296.38 2954.87 305.62 2956.99 316.50 2957.12 324.38 2960.87 337.62 2961.12 342.38 2964.87 351.62 2967.12 372.38 2970.87 379.62 2971.12 384.38 2975.87 399.62 2977.12 408.38 2983.87 427.62 2988.87 449.62 2988.99 460.50 2990.99 467.50 2988.99 475.50 2988.99 494.50 2992.99 513.50 2992.99 524.50 2989.12 538.62 2988.87 547.37 2984.99 557.50 2984.99 578.50 2982.99 585.50 2982.99 606.50 2981.99 609.50 2981.99 629.50 2984.74 635.50 2981.87 648.37 2956.49 694.99 2946.12 705.62 2923.87 734.37 2911.49 746.99 2904.12 758.62 2899.87 769.37 2894.12 777.62 2892.49 781.99 2883.87 793.37 2870.12 806.62 2858.12 828.62 2852.99 852.50 2852.99 879.50 2854.99 886.50 2855.12 900.38 2858.87 909.62 2858.99 923.50 2862.99 942.50 2862.87 962.37 2860.49 967.99 2856.37 970.87 2843.62 967.87 2833.50 963.99 2827.62 964.12 2826.99 969.50 2827.62 970.88 2835.62 974.88 2844.37 976.12 2865.62 983.88 2872.37 985.12 2879.62 988.88 2886.37 989.12 2888.99 990.50 2895.49 1006.00 2911.87 1025.62 2927.87 1057.62 2932.99 1076.50 2932.99 1093.50 2931.87 1096.37 2923.99 1104.49 2890.62 1122.12 2888.12 1125.62 2887.99 1133.50 2890.12 1137.38 2898.62 1145.88 2907.37 1152.12 2939.87 1184.62 2942.87 1189.62 2946.99 1210.50 2946.99 1227.50 2950.99 1246.50 2950.99 1290.50 2949.87 1293.37 2946.37 1295.87 2933.62 1297.12 2927.50 1298.99 2872.50 1298.99 2853.62 1294.87 2840.62 1288.87 2830.62 1281.87 2800.12 1251.37 2793.88 1240.62 2741.38 1188.12 2735.12 1188.62 2734.87 1196.37 2733.49 1198.99 2719.49 1213.99 2693.87 1255.37 2683.37 1262.87 2677.50 1264.99 2667.62 1264.87 2664.12 1262.37 2662.88 1255.62 2658.12 1246.37 2647.12 1218.37 2646.88 1207.62 2641.88 1192.62 2635.88 1182.62 2630.38 1179.12 2625.50 1177.99 2614.62 1178.12 2549.37 1210.87 2536.37 1215.87 2524.37 1218.87 2514.50 1218.99 2496.62 1213.87 2470.00 1198.49 2448.00 1177.49 2430.00 1166.49 2422.00 1159.49 2412.62 1153.87 2382.12 1123.37 2373.50 1111.99 2368.12 1103.37 2365.88 1094.62 2360.88 1083.62 2354.50 1071.99 2351.00 1068.49 2347.50 1066.99 2270.50 1066.99 2256.00 1062.49 2251.12 1057.37 2246.12 1047.37 2239.88 1029.62 2220.12 991.37 2217.88 984.62 2206.88 962.62 2204.38 960.12 2195.62 960.12 2192.62 962.12 2126.37 1027.87 2113.50 1030.99 2078.50 1030.99 2066.62 1027.87 2044.62 1016.87 2017.38 999.12 1995.38 988.12 1976.38 980.12 1962.38 977.12 1945.62 977.12 1918.37 986.87 1887.50 994.99 1873.50 994.99 1865.38 991.12 1853.62 990.87 1848.62 987.87 1837.38 976.12 1825.38 969.12 1799.38 958.12 1789.62 955.87 1739.62 935.87 1705.62 918.87 1675.50 897.99 1668.62 898.12 1665.62 900.12 1656.87 911.37 1644.49 923.99 1630.87 945.37 1623.37 949.87 1618.50 950.99 1606.62 951.12 1597.37 953.87 1589.50 953.99 1567.50 957.99 1558.62 956.87 1554.62 954.87 1544.38 946.12 1537.62 946.12 1509.12 974.62 1496.37 991.87 1481.62 1002.12 1467.12 1016.62 1460.37 1025.87 1445.62 1036.12 1424.99 1058.49 1412.99 1065.49 1394.99 1079.49 1390.49 1083.99 1376.87 1105.37 1370.37 1110.87 1365.62 1111.87 1359.00 1108.49 1347.62 1099.87 1335.12 1085.37 1326.12 1072.37 1324.88 1063.62 1318.50 1055.99 1313.88 1046.62 1309.12 1040.37 1309.12 1037.62 1316.50 1029.00 1339.88 989.38 1341.88 984.38 1342.00 976.50 1334.88 953.62 1326.12 938.37 1326.88 923.62 1319.88 889.62 1316.00 877.50 1316.00 842.50 1314.00 835.50 1313.88 825.62 1312.00 819.50 1312.00 805.50 1310.88 802.62 1308.38 801.12 1290.62 801.12 1274.99 809.49 1247.62 830.12 1236.37 841.87 1230.99 845.49 1191.99 882.49 1173.62 891.12 1152.37 903.87 1148.50 904.99 1136.62 905.12 1125.99 909.49 1118.49 915.99 1114.87 921.37 1094.37 941.87 1085.62 948.12 1074.37 959.87 1057.37 971.87 1031.37 983.87 1014.50 986.99 980.62 986.87 970.62 983.87 947.38 974.12 934.50 970.99 921.62 971.87 919.00 970.49 915.38 966.12 904.62 965.87 888.00 961.49 884.00 955.50 884.00 932.50 885.00 929.50 885.00 918.50 887.88 910.38 889.12 896.62 892.88 888.38 893.12 884.62 901.12 872.62 922.88 851.38 941.50 824.00 949.50 816.00 964.50 792.00 970.50 784.00 978.50 777.00 988.88 757.38 998.88 731.38 1000.00 726.50 1000.00 716.50 998.50 712.99 992.50 709.99 983.50 709.99 976.50 711.99 965.50 711.99 959.38 710.12 952.62 709.87 932.62 701.87 923.12 694.37 913.12 677.37 911.88 668.62 908.12 659.37 907.88 642.62 906.12 637.37 905.88 630.62 902.50 619.99 884.38 608.12 867.62 599.87 839.00 582.49 835.12 577.37 835.88 574.62 830.12 557.37 825.00 534.50 825.12 528.62 829.88 519.38 831.00 508.50 830.38 503.12 827.50 501.99 805.50 501.99 774.62 507.87 769.62 504.87 764.38 499.12 756.00 494.49 750.88 487.62 731.12 468.37 727.12 462.37 724.88 450.62 717.12 437.37 713.88 427.62 706.12 416.37 704.88 410.62 697.88 396.62 690.50 387.99 685.50 377.99 665.12 353.37 664.12 349.62 665.50 347.00 676.88 339.38 676.38 333.12 665.38 329.12 657.50 328.99 640.62 325.87 599.38 298.12 590.62 295.87 580.38 289.12 569.00 284.50 564.25 280.50 568.75 279.50 565.38 277.12 561.38 275.12 554.62 274.87 537.00 263.50 511.00 242.50 501.00 237.50 491.62 230.87 477.00 216.50 466.38 211.12 455.62 208.87 440.38 199.12 428.62 195.87 419.38 191.12 409.38 188.12 400.62 187.87 381.38 182.12 374.62 181.87 349.38 176.12 342.62 175.87 336.50 173.99 326.62 173.87 312.62 170.87 309.50 168.00 305.88 158.62 296.50 146.00 294.12 140.37 294.00 135.50 303.50 122.00 306.00 115.50 306.00 94.50 312.00 67.50 312.00 30.50 310.00 23.50 310.00 16.50 312.12 7.62 316.88 0.38 323.12 -14.38 326.50 -17.00 335.12 -32.38 344.88 -41.62 351.12 -50.38 355.62 -53.88 364.62 -57.88 371.50 -59.00 386.37 -56.88 427.00 -33.50 452.00 -17.50 452.75 -16.50 451.62 -15.12 464.62 -7.12 505.62 13.88 511.37 15.12 523.62 21.88 531.37 23.12 540.62 26.88 564.50 27.00 582.38 21.88 592.38 15.88 602.88 5.38 609.12 -3.38 620.88 -14.62 619.25 -16.50 626.88 -23.62 637.50 -41.00 644.50 -48.00 649.50 -57.00 661.12 -70.38 667.00 -75.50 671.62 -77.88 679.37 -77.88 z" style="stroke-width:1;" fill="url(#pattern-fdiag-ffffff7f)" stroke="rgba(255,255,255,0.50)" stroke-linecap="square" stroke-linejoin="bevel" id="mergeda-1-0" class="merged qa layer-1 level-0" data-area="2248779.22" /><defs><pattern id="pattern-bdiag-ffffff7f"  x="0" y="0" width="10" height="10" patternUnits="userSpaceOnUse" ><g style="fill:none;stroke-width:1;" ><line x1="10" y1="0" x2="0" y2="10"  stroke="#ffffff7f"  /></g></pattern></defs><path d="M679.37 -77.88L684.62 -76.12 693.37 -75.88 702.62 -69.12 715.37 -66.88 738.62 -57.12 764.62 -48.12 769.37 -47.88 812.62 -36.12 823.37 -34.88 850.62 -26.12 857.37 -25.88 881.37 -20.88 886.50 -17.00 885.12 -14.62 911.62 11.88 953.00 42.50 977.62 56.88 1003.62 69.88 1056.62 91.88 1086.62 101.88 1122.62 110.88 1129.37 111.12 1147.50 115.00 1155.37 115.12 1161.50 117.00 1190.50 117.00 1197.50 119.00 1203.38 118.88 1209.50 117.00 1220.50 117.00 1226.62 115.12 1234.50 115.00 1245.38 112.88 1258.62 109.12 1263.38 108.88 1277.62 102.12 1282.38 101.88 1321.00 80.50 1337.62 67.12 1354.38 61.88 1392.38 42.88 1405.50 35.00 1498.50 35.00 1505.50 37.00 1562.50 37.00 1569.50 35.00 1662.50 35.00 1669.50 33.00 1692.50 31.00 1789.50 31.00 1796.50 29.00 1815.50 29.00 1822.50 27.00 1927.50 27.00 1934.50 25.00 1999.50 25.00 2006.50 23.00 2035.50 23.00 2042.50 21.00 2063.50 21.00 2070.50 19.00 2133.50 19.00 2139.62 17.12 2149.50 17.00 2156.50 15.00 2303.50 15.00 2310.50 17.00 2347.50 17.00 2354.50 15.00 2371.50 15.00 2378.50 13.00 2393.50 13.00 2400.50 11.00 2473.50 11.00 2479.62 9.12 2491.50 9.00 2498.50 7.00 2557.50 7.00 2569.62 3.12 2585.50 3.00 2592.50 1.00 2663.50 1.00 2670.50 3.00 2693.50 3.00 2700.50 5.00 2719.50 5.00 2722.50 6.00 2732.50 5.00 2787.50 5.00 2794.50 7.00 2827.50 7.00 2834.50 5.00 2853.50 5.00 2859.62 6.88 2868.50 7.00 2871.37 8.12 2872.87 10.62 2872.87 14.37 2862.99 58.50 2863.12 88.38 2867.12 104.38 2879.12 129.38 2887.87 138.62 2901.87 157.62 2912.12 190.38 2921.49 209.00 2926.49 215.00 2934.87 228.62 2939.12 249.38 2943.87 260.62 2948.87 278.62 2947.24 280.50 2951.12 296.38 2954.87 305.62 2956.99 316.50 2957.12 324.38 2960.87 337.62 2961.12 342.38 2964.87 351.62 2967.12 372.38 2970.87 379.62 2971.12 384.38 2975.87 399.62 2977.12 408.38 2983.87 427.62 2988.87 449.62 2988.99 460.50 2990.99 467.50 2988.99 475.50 2988.99 494.50 2992.99 513.50 2992.99 524.50 2989.12 538.62 2988.87 547.37 2984.99 557.50 2984.99 578.50 2982.99 585.50 2982.99 606.50 2981.99 609.50 2981.99 629.50 2984.74 635.50 2981.87 648.37 2956.49 694.99 2946.12 705.62 2923.87 734.37 2911.49 746.99 2904.12 758.62 2899.87 769.37 2894.12 777.62 2892.49 781.99 2883.87 793.37 2870.12 806.62 2858.12 828.62 2852.99 852.50 2852.99 879.50 2854.99 886.50 2855.12 900.38 2858.87 909.62 2858.99 923.50 2862.99 942.50 2862.87 962.37 2860.49 967.99 2856.37 970.87 2843.62 967.87 2833.50 963.99 2827.62 964.12 2826.99 969.50 2827.62 970.88 2835.62 974.88 2844.37 976.12 2865.62 983.88 2872.37 985.12 2879.62 988.88 2886.37 989.12 2888.99 990.50 2895.49 1006.00 2911.87 1025.62 2927.87 1057.62 2932.99 1076.50 2932.99 1093.50 2931.87 1096.37 2923.99 1104.49 2890.62 1122.12 2888.12 1125.62 2887.99 1133.50 2890.12 1137.38 2898.62 1145.88 2907.37 1152.12 2939.87 1184.62 2942.87 1189.62 2946.99 1210.50 2946.99 1227.50 2950.99 1246.50 2950.99 1290.50 2949.87 1293.37 2946.37 1295.87 2933.62 1297.12 2927.50 1298.99 2872.50 1298.99 2853.62 1294.87 2840.62 1288.87 2830.62 1281.87 2800.12 1251.37 2793.88 1240.62 2741.38 1188.12 2735.12 1188.62 2734.87 1196.37 2733.49 1198.99 2719.49 1213.99 2693.87 1255.37 2683.37 1262.87 2677.50 1264.99 2667.62 1264.87 2664.12 1262.37 2662.88 1255.62 2658.12 1246.37 2647.12 1218.37 2646.88 1207.62 2641.88 1192.62 2635.88 1182.62 2630.38 1179.12 2625.50 1177.99 2614.62 1178.12 2549.37 1210.87 2536.37 1215.87 2524.37 1218.87 2514.50 1218.99 2496.62 1213.87 2470.00 1198.49 2448.00 1177.49 2430.00 1166.49 2422.00 1159.49 2412.62 1153.87 2382.12 1123.37 2373.50 1111.99 2368.12 1103.37 2365.88 1094.62 2360.88 1083.62 2354.50 1071.99 2351.00 1068.49 2347.50 1066.99 2270.50 1066.99 2256.00 1062.49 2251.12 1057.37 2246.12 1047.37 2239.88 1029.62 2220.12 991.37 2217.88 984.62 2206.88 962.62 2204.38 960.12 2195.62 960.12 2192.62 962.12 2126.37 1027.87 2113.50 1030.99 2078.50 1030.99 2066.62 1027.87 2044.62 1016.87 2017.38 999.12 1995.38 988.12 1976.38 980.12 1962.38 977.12 1945.62 977.12 1918.37 986.87 1887.50 994.99 1873.50 994.99 1865.38 991.12 1853.62 990.87 1848.62 987.87 1837.38 976.12 1825.38 969.12 1799.38 958.12 1789.62 955.87 1739.62 935.87 1705.62 918.87 1675.50 897.99 1668.62 898.12 1665.62 900.12 1656.87 911.37 1644.49 923.99 1630.87 945.37 1623.37 949.87 1618.50 950.99 1606.62 951.12 1597.37 953.87 1589.50 953.99 1567.50 957.99 1558.62 956.87 1554.62 954.87 1544.38 946.12 1537.62 946.12 1509.12 974.62 1496.37 991.87 1481.62 1002.12 1467.12 1016.62 1460.37 1025.87 1445.62 1036.12 1424.99 1058.49 1412.99 1065.49 1394.99 1079.49 1390.49 1083.99 1376.87 1105.37 1370.37 1110.87 1365.62 1111.87 1359.00 1108.49 1347.62 1099.87 1335.12 1085.37 1326.12 1072.37 1324.88 1063.62 1318.50 1055.99 1313.88 1046.62 1309.12 1040.37 1309.12 1037.62 1316.50 1029.00 1339.88 989.38 1341.88 984.38 1342.00 976.50 1334.88 953.62 1326.12 938.37 1326.88 923.62 1319.88 889.62 1316.00 877.50 1316.00 842.50 1314.00 835.50 1313.88 825.62 1312.00 819.50 1312.00 805.50 1310.88 802.62 1308.38 801.12 1290.62 801.12 1274.99 809.49 1247.62 830.12 1236.37 841.87 1230.99 845.49 1191.99 882.49 1173.62 891.12 1152.37 903.87 1148.50 904.99 1136.62 905.12 1125.99 909.49 1118.49 915.99 1114.87 921.37 1094.37 941.87 1085.62 948.12 1074.37 959.87 1057.37 971.87 1031.37 983.87 1014.50 986.99 980.62 986.87 970.62 983.87 947.38 974.12 934.50 970.99 921.62 971.87 919.00 970.49 915.38 966.12 904.62 965.87 888.00 961.49 884.00 955.50 884.00 932.50 885.00 929.50 885.00 918.50 887.88 910.38 889.12 896.62 892.88 888.38 893.12 884.62 901.12 872.62 922.88 851.38 941.50 824.00 949.50 816.00 964.50 792.00 970.50 784.00 978.50 777.00 988.88 757.38 998.88 731.38 1000.00 726.50 1000.00 716.50 998.50 712.99 992.50 709.99 983.50 709.99 976.50 711.99 965.50 711.99 959.38 710.12 952.62 709.87 932.62 701.87 923.12 694.37 913.12 677.37 911.88 668.62 908.12 659.37 907.88 642.62 906.12 637.37 905.88 630.62 902.50 619.99 884.38 608.12 867.62 599.87 839.00 582.49 835.12 577.37 835.88 574.62 830.12 557.37 825.00 534.50 825.12 528.62 829.88 519.38 831.00 508.50 830.38 503.12 827.50 501.99 805.50 501.99 774.62 507.87 769.62 504.87 764.38 499.12 756.00 494.49 750.88 487.62 731.12 468.37 727.12 462.37 724.88 450.62 717.12 437.37 713.88 427.62 706.12 416.37 704.88 410.62 697.88 396.62 690.50 387.99 685.50 377.99 665.12 353.37 664.12 349.62 665.50 347.00 676.88 339.38 676.38 333.12 665.38 329.12 657.50 328.99 640.62 325.87 599.38 298.12 590.62 295.87 580.38 289.12 569.00 284.50 564.25 280.50 568.75 279.50 565.38 277.12 561.38 275.12 554.62 274.87 537.00 263.50 511.00 242.50 501.00 237.50 491.62 230.87 477.00 216.50 466.38 211.12 455.62 208.87 440.38 199.12 428.62 195.87 419.38 191.12 409.38 188.12 400.62 187.87 381.38 182.12 374.62 181.87 349.38 176.12 342.62 175.87 336.50 173.99 326.62 173.87 312.62 170.87 309.50 168.00 305.88 158.62 296.50 146.00 294.12 140.37 294.00 135.50 303.50 122.00 306.00 115.50 306.00 94.50 312.00 67.50 312.00 30.50 310.00 23.50 310.00 16.50 312.12 7.62 316.88 0.38 323.12 -14.38 326.50 -17.00 335.12 -32.38 344.88 -41.62 351.12 -50.38 355.62 -53.88 364.62 -57.88 371.50 -59.00 386.37 -56.88 427.00 -33.50 452.00 -17.50 452.75 -16.50 451.62 -15.12 464.62 -7.12 505.62 13.88 511.37 15.12 523.62 21.88 531.37 23.12 540.62 26.88 564.50 27.00 582.38 21.88 592.38 15.88 602.88 5.38 609.12 -3.38 620.88 -14.62 619.25 -16.50 626.88 -23.62 637.50 -41.00 644.50 -48.00 649.50 -57.00 661.12 -70.38 667.00 -75.50 671.62 -77.88 679.37 -77.88 z" style="stroke-width:1;" fill="url(#pattern-bdiag-ffffff7f)" stroke="rgba(255,255,255,0.50)" stroke-linecap="square" stroke-linejoin="bevel" id="mergeda-2-0" class="merged qa layer-2 level-0" data-area="2248779.22" /><path d="M679.37 -77.88L684.62 -76.12 693.37 -75.88 702.62 -69.12 715.37 -66.88 738.62 -57.12 764.62 -48.12 769.37 -47.88 812.62 -36.12 823.37 -34.88 850.62 -26.12 857.37 -25.88 881.37 -20.88 886.50 -17.00 885.12 -14.62 911.62 11.88 953.00 42.50 977.62 56.88 1003.62 69.88 1056.62 91.88 1086.62 101.88 1122.62 110.88 1129.37 111.12 1147.50 115.00 1155.37 115.12 1161.50 117.00 1190.50 117.00 1197.50 119.00 1203.38 118.88 1209.50 117.00 1220.50 117.00 1226.62 115.12 1234.50 115.00 1245.38 112.88 1258.62 109.12 1263.38 108.88 1277.62 102.12 1282.38 101.88 1321.00 80.50 1337.62 67.12 1354.38 61.88 1392.38 42.88 1405.50 35.00 1498.50 35.00 1505.50 37.00 1562.50 37.00 1569.50 35.00 1662.50 35.00 1669.50 33.00 1692.50 31.00 1789.50 31.00 1796.50 29.00 1815.50 29.00 1822.50 27.00 1927.50 27.00 1934.50 25.00 1999.50 25.00 2006.50 23.00 2035.50 23.00 2042.50 21.00 2063.50 21.00 2070.50 19.00 2133.50 19.00 2139.62 17.12 2149.50 17.00 2156.50 15.00 2303.50 15.00 2310.50 17.00 2347.50 17.00 2354.50 15.00 2371.50 15.00 2378.50 13.00 2393.50 13.00 2400.50 11.00 2434.92 11.00 2435.26 9.70 2440.38 9.58 2446.50 7.70 2472.39 7.70 2471.07 11.00 2473.50 11.00 2479.62 9.12 2491.50 9.00 2498.50 7.00 2557.50 7.00 2569.62 3.12 2579.69 3.00 2581.47 -0.30 2663.50 1.00 2670.50 3.00 2693.50 3.00 2700.50 5.00 2719.50 5.00 2722.50 6.00 2732.50 5.00 2771.91 5.00 2772.08 3.70 2803.50 3.70 2806.50 4.70 2817.50 4.70 2820.50 3.70 2869.50 3.70 2872.37 4.83 2874.87 9.07 2868.99 34.42 2867.99 34.51 2867.12 37.62 2862.99 58.50 2862.99 61.23 2864.99 59.84 2864.12 89.08 2869.87 106.33 2870.12 108.08 2869.12 108.38 2879.12 129.38 2887.87 138.62 2901.87 157.62 2912.12 190.38 2921.49 209.00 2926.49 215.00 2934.87 228.62 2939.12 249.38 2943.87 260.62 2948.87 278.62 2947.24 280.50 2951.12 296.38 2954.87 305.62 2956.99 316.50 2957.12 324.38 2960.87 337.62 2961.12 342.38 2964.87 351.62 2967.12 372.38 2970.87 379.62 2971.12 384.38 2975.87 399.62 2977.12 408.38 2983.87 427.62 2988.87 449.62 2988.99 460.50 2990.99 467.50 2988.99 475.50 2988.99 494.50 2992.99 513.50 2992.99 524.50 2989.12 538.62 2988.87 547.37 2984.99 557.50 2984.99 578.50 2982.99 585.50 2982.99 606.50 2981.99 609.50 2981.99 629.50 2984.74 635.50 2981.87 648.37 2956.49 694.99 2946.12 705.62 2923.87 734.37 2911.49 746.99 2904.12 758.62 2899.87 769.37 2894.12 777.62 2892.49 781.99 2883.87 793.37 2870.12 806.62 2858.12 828.62 2852.99 852.50 2852.99 879.50 2854.99 886.50 2855.12 900.38 2858.87 909.62 2858.99 923.50 2862.99 942.50 2862.87 962.37 2860.49 967.99 2856.37 970.87 2843.62 967.87 2833.50 963.99 2827.62 964.12 2826.99 969.50 2827.62 970.88 2835.62 974.88 2844.37 976.12 2865.62 983.88 2872.37 985.12 2879.62 988.88 2886.37 989.12 2888.99 990.50 2895.49 1006.00 2911.99 1025.99 2915.48 1022.63 2921.98 1022.95 2929.49 1026.73 2933.42 1030.64 2937.14 1037.01 2936.64 1040.76 2932.88 1042.37 2930.40 1041.06 2924.53 1033.07 2918.57 1030.55 2916.19 1033.69 2920.21 1042.53 2923.85 1042.77 2926.01 1045.47 2925.80 1047.93 2923.97 1049.92 2927.87 1057.62 2932.99 1076.50 2932.99 1093.50 2931.87 1096.37 2923.99 1104.49 2916.06 1108.46 2916.38 1111.06 2914.57 1113.62 2905.83 1113.66 2890.62 1122.12 2888.12 1125.62 2887.99 1133.50 2890.12 1137.38 2898.62 1145.88 2907.37 1152.12 2914.62 1159.88 2925.25 1164.85 2926.47 1167.38 2926.12 1171.38 2939.87 1184.62 2942.87 1189.62 2946.99 1210.50 2946.99 1227.50 2950.99 1246.50 2950.99 1290.50 2949.87 1293.37 2946.37 1295.87 2933.62 1297.12 2927.50 1298.99 2872.50 1298.99 2853.62 1294.87 2840.62 1288.87 2830.62 1281.87 2800.12 1251.37 2793.88 1240.62 2741.38 1188.12 2735.12 1188.62 2734.87 1196.37 2733.49 1198.99 2719.49 1213.99 2693.87 1255.37 2683.37 1262.87 2677.50 1264.99 2667.62 1264.87 2664.12 1262.37 2662.88 1255.62 2658.12 1246.37 2647.12 1218.37 2646.88 1207.62 2641.88 1192.62 2635.88 1182.62 2630.38 1179.12 2625.50 1177.99 2614.62 1178.12 2549.37 1210.87 2536.37 1215.87 2524.37 1218.87 2514.50 1218.99 2496.62 1213.87 2470.00 1198.49 2448.00 1177.49 2430.00 1166.49 2422.00 1159.49 2412.62 1153.87 2382.12 1123.37 2373.50 1111.99 2368.12 1103.37 2365.88 1094.62 2360.88 1083.62 2354.50 1071.99 2351.00 1068.49 2347.50 1066.99 2270.50 1066.99 2256.00 1062.49 2251.12 1057.37 2246.12 1047.37 2239.88 1029.62 2220.12 991.37 2217.88 984.62 2206.88 962.62 2204.38 960.12 2195.62 960.12 2192.62 962.12 2126.44 1027.83 2113.50 1030.99 2078.50 1030.99 2066.62 1027.87 2044.62 1016.87 2017.38 999.12 1995.38 988.12 1976.38 980.12 1962.38 977.12 1945.62 977.12 1918.37 986.87 1887.50 994.99 1873.50 994.99 1865.38 991.12 1853.62 990.87 1848.62 987.87 1837.38 976.12 1825.38 969.12 1799.38 958.12 1789.62 955.87 1739.62 935.87 1705.62 918.87 1682.59 903.08 1676.43 914.24 1673.96 915.57 1671.54 915.14 1669.68 913.03 1669.56 910.57 1675.50 897.99 1671.44 901.90 1668.67 901.48 1666.93 899.53 1665.62 900.12 1656.87 911.37 1644.49 923.99 1630.87 945.37 1623.37 949.87 1618.50 950.99 1606.62 951.12 1597.37 953.87 1589.50 953.99 1567.50 957.99 1558.62 956.87 1554.62 954.87 1544.38 946.12 1537.62 946.12 1509.12 974.62 1496.37 991.87 1481.62 1002.12 1467.12 1016.62 1460.37 1025.87 1445.62 1036.12 1424.99 1058.49 1412.99 1065.49 1394.99 1079.49 1390.49 1083.99 1376.87 1105.37 1370.37 1110.87 1365.62 1111.87 1359.00 1108.49 1347.62 1099.87 1335.12 1085.37 1326.12 1072.37 1324.88 1063.62 1318.50 1055.99 1313.88 1046.62 1309.12 1040.37 1309.12 1037.62 1316.50 1029.00 1339.88 989.38 1341.88 984.38 1342.00 976.50 1334.88 953.62 1326.12 938.37 1326.88 923.62 1319.88 889.62 1316.00 877.50 1316.00 842.50 1314.00 835.50 1313.88 825.62 1312.00 819.50 1312.00 805.50 1310.88 802.62 1308.38 801.12 1290.62 801.12 1274.99 809.49 1247.62 830.12 1236.37 841.87 1230.99 845.49 1191.99 882.49 1173.62 891.12 1152.37 903.87 1148.50 904.99 1136.62 905.12 1125.99 909.49 1118.49 915.99 1114.87 921.37 1094.37 941.87 1081.58 952.16 1074.37 959.87 1059.37 970.88 1031.37 983.87 1006.50 988.01 980.62 986.87 970.62 983.87 947.38 974.12 934.62 971.01 921.62 971.87 919.00 970.49 915.38 966.12 904.62 965.87 888.00 961.49 884.00 955.50 884.00 925.52 883.00 922.52 885.88 915.39 886.12 908.64 892.12 882.64 895.12 877.64 912.88 860.39 923.50 847.02 949.50 813.02 958.50 799.02 971.53 782.97 983.50 765.02 994.88 743.38 998.88 731.38 1000.00 726.50 1000.00 716.50 998.50 712.99 992.50 709.99 983.50 709.99 976.50 711.99 965.50 711.99 959.38 710.12 952.62 709.87 932.62 701.87 923.12 694.37 913.12 677.37 911.88 668.62 908.12 659.37 907.88 642.62 906.12 637.37 905.88 630.62 902.50 619.99 884.38 608.12 867.62 599.87 839.00 582.49 835.12 577.37 835.88 574.62 830.12 557.37 825.00 534.50 825.12 528.62 829.88 519.38 831.00 508.50 830.38 503.12 827.50 501.99 805.50 501.99 774.62 507.87 769.62 504.87 764.38 499.12 756.00 494.49 750.88 487.62 731.12 468.37 727.12 462.37 724.88 450.62 717.12 437.37 713.88 427.62 706.12 416.37 704.88 410.62 697.88 396.62 690.50 387.99 685.50 377.99 665.12 353.37 664.12 349.62 665.50 347.00 676.88 339.38 676.38 333.12 665.38 329.12 657.50 328.99 640.62 325.87 599.38 298.12 590.62 295.87 580.38 289.12 569.00 284.50 564.25 280.50 568.75 279.50 565.38 277.12 561.38 275.12 554.62 274.87 537.00 263.50 511.00 242.50 501.00 237.50 491.62 230.87 477.00 216.50 466.38 211.12 455.62 208.87 440.38 199.12 428.62 195.87 419.38 191.12 409.38 188.12 400.62 187.87 381.38 182.12 374.62 181.87 349.38 176.12 342.62 175.87 336.50 173.99 326.62 173.87 312.62 170.87 309.50 168.00 305.88 158.62 296.50 146.00 294.12 140.37 294.00 135.50 303.50 122.00 306.00 115.50 306.00 94.50 312.00 67.50 312.00 30.50 310.00 23.50 310.00 16.50 312.12 7.62 316.88 0.38 323.12 -14.38 326.50 -17.00 335.12 -32.38 344.88 -41.62 351.12 -50.38 355.62 -53.88 364.62 -57.88 371.50 -59.00 386.37 -56.88 427.00 -33.50 452.00 -17.50 452.75 -16.50 451.62 -15.12 464.62 -7.12 505.62 13.88 511.37 15.12 523.62 21.88 531.37 23.12 540.62 26.88 564.50 27.00 582.38 21.88 592.38 15.88 602.88 5.38 609.12 -3.38 620.88 -14.62 619.25 -16.50 626.88 -23.62 637.50 -41.00 644.50 -48.00 649.50 -57.00 661.12 -70.38 667.00 -75.50 671.62 -77.88 679.37 -77.88 zM2841.01 851.85L2846.89 824.38 2858.21 802.81 2874.59 785.23 2882.41 775.11 2893.84 752.43 2902.29 739.30 2916.54 723.98 2936.91 697.93 2946.54 687.98 2970.37 644.29 2971.83 636.55 2970.04 630.57 2969.99 609.50 2970.99 604.15 2971.01 584.85 2972.99 576.15 2973.01 556.85 2976.99 544.15 2977.24 536.90 2980.99 522.15 2980.99 515.84 2977.04 495.57 2977.01 474.85 2978.42 468.04 2974.99 442.84 2965.44 411.15 2958.99 382.84 2955.44 375.15 2952.99 354.84 2949.44 345.15 2945.44 327.15 2942.99 308.84 2936.44 287.15 2934.10 270.14 2927.74 253.18 2922.99 232.31 2910.85 214.59 2901.11 195.16 2894.74 177.18 2891.53 163.98 2880.57 149.04 2869.82 137.10 2861.11 120.16 2854.77 104.28 2847.95 102.59 2845.32 94.42 2844.79 86.41 2846.51 79.15 2850.99 71.73 2851.11 56.78 2855.30 35.60 2826.22 36.66 2808.21 34.65 2793.21 30.38 2786.93 27.30 2781.55 23.56 2775.77 17.00 2721.88 17.98 2717.15 17.00 2699.88 16.98 2691.15 15.00 2669.88 14.98 2661.15 13.00 2624.03 13.00 2620.46 20.08 2614.55 25.11 2605.96 29.58 2596.87 32.29 2589.55 33.03 2583.31 32.21 2578.54 29.94 2575.85 26.45 2574.72 20.50 2575.30 15.00 2572.84 15.00 2558.57 18.95 2500.84 19.00 2474.57 22.95 2463.59 23.00 2456.96 29.82 2451.57 33.12 2441.25 35.31 2437.44 33.97 2434.79 31.27 2432.75 23.00 2402.84 23.00 2394.57 24.95 2380.84 25.00 2372.57 26.95 2356.84 27.00 2347.50 29.00 2309.88 28.98 2301.15 27.00 2158.84 27.00 2134.57 30.95 2072.84 31.00 2064.57 32.95 2044.85 33.00 2035.50 35.00 2008.85 35.00 1999.50 37.00 1936.85 37.00 1927.50 39.00 1824.85 39.00 1816.57 40.95 1798.85 41.00 1789.50 43.00 1694.85 43.00 1671.85 45.00 1662.50 47.00 1571.85 47.00 1562.50 49.00 1504.88 48.98 1496.15 47.00 1407.85 47.00 1398.55 53.16 1359.16 72.88 1343.87 77.60 1327.17 90.79 1287.16 112.88 1280.85 114.00 1267.16 120.26 1248.13 124.56 1222.20 128.88 1211.85 129.00 1204.20 130.88 1197.50 131.00 1188.15 129.00 1159.81 128.88 1120.93 122.75 1083.40 113.43 1052.38 103.10 998.39 80.67 971.46 67.17 946.84 52.80 903.98 21.12 876.67 -6.10 874.06 -10.00 847.40 -14.57 819.92 -23.11 809.40 -24.57 761.40 -36.57 711.92 -55.11 698.39 -57.90 689.52 -64.00 676.15 -66.00 674.04 -65.58 662.45 -53.98 654.36 -41.16 647.45 -33.98 636.74 -16.79 632.67 -12.47 630.08 -6.93 600.86 24.36 595.17 28.79 587.16 32.88 568.13 38.55 539.81 38.88 518.39 32.67 508.14 26.98 500.39 24.68 458.46 3.17 444.78 -5.26 440.44 -10.31 390.08 -41.49 382.29 -45.38 374.15 -47.00 367.85 -46.00 362.05 -43.58 344.41 -24.23 330.51 -2.09 328.68 3.60 323.83 11.53 322.00 21.15 324.00 30.50 323.98 68.13 318.00 96.85 317.88 117.20 314.17 127.55 306.36 138.19 316.17 152.46 319.31 159.99 351.10 164.24 365.85 167.99 384.60 170.56 403.85 175.99 412.60 176.56 445.61 188.32 453.21 192.23 459.88 197.41 470.62 199.89 483.21 206.23 502.01 223.54 517.84 232.63 544.01 253.54 558.82 262.99 564.60 263.56 571.59 266.85 577.29 271.07 580.28 276.18 586.57 278.84 593.86 284.01 605.57 287.84 646.31 314.99 668.60 317.56 681.40 322.22 684.90 324.67 688.56 330.88 688.75 341.07 685.71 347.69 679.79 352.62 695.21 370.95 700.42 380.95 708.18 390.47 715.88 405.84 717.83 412.47 724.18 421.47 728.62 433.20 735.88 445.84 738.71 457.70 740.37 460.18 759.40 479.18 763.92 485.04 771.26 489.29 776.93 494.70 804.43 490.04 828.16 490.01 836.36 492.71 840.86 496.96 843.00 504.50 841.88 520.20 837.00 532.15 841.88 553.85 847.81 573.43 873.91 589.48 903.09 605.58 909.06 602.49 921.75 598.59 935.40 597.37 948.31 599.30 959.58 604.23 966.82 611.26 970.37 620.96 972.22 648.18 975.72 660.20 983.44 669.42 1002.20 681.21 1008.90 686.93 1013.49 694.56 1014.53 703.38 1011.72 713.77 1011.88 728.20 1005.59 748.77 1017.88 754.61 1025.42 761.98 1031.86 771.65 1043.84 801.29 1056.86 843.32 1060.92 853.22 1065.28 860.92 1071.12 867.94 1078.57 873.85 1111.84 891.53 1116.68 896.10 1118.76 899.93 1129.85 894.44 1148.20 892.37 1167.44 880.83 1184.95 872.57 1240.08 820.78 1269.44 798.83 1285.82 790.12 1290.43 789.04 1310.10 789.24 1316.36 791.72 1319.40 794.18 1322.88 799.84 1323.88 803.81 1324.00 817.15 1327.95 841.43 1328.00 875.15 1337.76 915.93 1339.00 924.50 1338.70 936.31 1346.27 949.84 1354.00 976.50 1353.88 985.20 1351.67 992.61 1323.62 1039.57 1328.42 1048.95 1335.88 1058.83 1339.42 1070.95 1352.36 1087.18 1366.18 1098.63 1369.54 1094.98 1380.63 1077.15 1386.51 1071.01 1405.91 1055.81 1417.95 1048.57 1424.63 1040.14 1437.14 1027.63 1451.88 1016.83 1458.63 1008.14 1473.14 993.63 1488.19 982.62 1500.63 966.14 1530.94 936.15 1537.43 934.04 1547.39 934.50 1551.26 936.29 1561.82 944.99 1568.99 945.69 1586.90 942.24 1594.16 941.99 1604.90 939.24 1619.86 938.11 1623.54 934.98 1637.91 912.93 1657.14 891.63 1664.82 886.74 1673.58 885.99 1678.57 884.01 1682.58 885.84 1684.09 888.82 1691.01 894.54 1711.91 908.48 1722.81 914.39 1772.70 936.37 1793.07 944.10 1803.62 946.89 1828.61 957.32 1844.26 966.29 1857.31 978.99 1868.60 979.56 1875.82 982.99 1885.16 982.99 1917.40 974.34 1942.85 965.44 1964.10 965.24 1980.62 968.89 2000.61 977.32 2023.57 988.84 2051.86 1007.01 2070.70 1016.37 2080.84 1018.99 2111.16 1018.99 2120.68 1016.99 2185.08 952.78 2193.90 948.24 2207.63 948.57 2212.69 951.28 2217.18 956.47 2250.88 1024.84 2257.65 1043.40 2262.88 1052.41 2272.84 1054.99 2348.16 1055.01 2357.21 1058.23 2364.80 1065.84 2374.88 1084.84 2379.62 1099.20 2393.03 1116.88 2423.01 1146.54 2455.69 1168.29 2477.01 1188.54 2499.86 1202.01 2516.84 1206.99 2521.16 1206.99 2532.86 1204.11 2546.21 1198.97 2610.82 1166.74 2626.16 1166.01 2633.60 1167.56 2644.40 1174.18 2648.80 1179.84 2652.88 1187.84 2658.56 1204.88 2659.65 1217.40 2669.65 1242.40 2675.16 1252.99 2682.95 1248.57 2686.54 1244.98 2694.22 1230.80 2709.64 1207.15 2719.45 1196.34 2718.09 1188.69 2718.78 1179.30 2722.57 1168.24 2728.99 1158.66 2736.86 1152.89 2744.45 1151.61 2748.39 1153.66 2750.78 1157.85 2751.57 1164.06 2748.92 1178.69 2802.40 1232.18 2809.36 1243.18 2841.01 1274.54 2854.70 1282.37 2874.84 1286.99 2925.16 1286.99 2932.78 1285.11 2938.99 1284.99 2938.99 1248.84 2935.11 1229.22 2934.99 1212.84 2930.99 1193.31 2900.40 1162.60 2880.57 1153.02 2871.90 1145.89 2868.56 1141.18 2866.82 1135.78 2866.99 1129.49 2869.27 1123.29 2874.28 1116.53 2880.22 1111.86 2886.82 1108.58 2895.37 1106.24 2916.95 1094.57 2920.99 1090.69 2920.99 1078.84 2915.97 1060.79 2914.22 1057.38 2900.77 1055.10 2893.01 1050.66 2892.72 1047.43 2896.37 1043.58 2904.78 1038.45 2901.53 1031.98 2885.23 1012.21 2880.41 1001.00 2840.92 987.89 2830.39 985.67 2819.97 980.12 2815.44 973.15 2815.80 960.64 2818.63 956.14 2822.82 953.12 2835.22 952.11 2850.99 957.05 2850.99 944.84 2847.11 925.22 2846.99 912.84 2843.24 902.10 2842.99 888.84 2841.04 880.57 2841.01 851.85 zM2874.90 1131.05L2874.82 1134.93 2877.70 1140.30 2876.11 1135.22 2875.99 1128.15 2874.90 1131.05 zM2771.84 1112.80L2774.58 1114.02 2775.70 1116.89 2774.44 1119.71 2771.55 1120.79 2768.68 1119.42 2767.70 1116.59 2769.10 1113.74 2771.84 1112.80 zM2058.81 947.49L2065.42 950.42 2069.08 955.10 2069.87 961.40 2067.12 967.46 2060.96 972.55 2052.84 975.82 2045.75 976.32 2040.88 972.81 2036.92 966.27 2036.92 958.48 2041.47 951.76 2045.28 949.26 2054.53 946.98 2058.81 947.49 zM1668.23 788.04L1671.23 789.56 1672.06 792.53 1670.50 797.82 1666.82 799.31 1664.16 797.74 1663.40 794.75 1664.88 789.63 1668.23 788.04 zM1975.39 709.54L1978.26 710.91 1979.24 713.74 1977.91 716.52 1975.09 717.53 1972.29 716.24 1971.24 713.44 1972.50 710.62 1975.39 709.54 zM2888.11 706.90L2890.91 708.20 2891.96 711.10 2890.63 713.88 2887.81 714.90 2885.01 713.60 2883.96 710.80 2885.29 707.92 2888.11 706.90 zM1045.93 341.63L1048.77 343.05 1069.14 367.39 1069.84 370.11 1068.31 372.84 1065.63 373.67 1063.07 372.54 1042.42 347.90 1042.13 343.82 1045.93 341.63 zM2742.35 342.65L2745.22 344.02 2747.08 347.66 2746.38 350.57 2743.67 352.21 2740.38 351.17 2738.23 347.14 2739.32 343.88 2742.35 342.65 zM977.61 280.54L980.55 282.36 985.63 292.48 985.28 295.60 983.13 297.40 980.67 297.47 978.64 296.08 973.35 285.67 974.11 281.96 977.61 280.54 zM2668.64 219.77L2671.38 220.99 2672.49 223.96 2671.31 226.61 2668.35 227.76 2665.61 226.54 2664.49 223.76 2665.68 220.92 2668.64 219.77 zM2221.90 184.34L2224.77 185.71 2225.75 188.53 2224.42 191.32 2221.60 192.33 2218.80 191.04 2217.75 188.24 2219.01 185.42 2221.90 184.34 zM2148.29 158.69L2151.09 159.98 2152.14 162.88 2150.81 165.67 2147.99 166.68 2145.19 165.39 2144.14 162.49 2145.47 159.70 2148.29 158.69 zM1975.22 157.44L1978.09 158.81 1979.07 161.64 1977.74 164.42 1974.92 165.44 1972.12 164.14 1971.07 161.34 1972.40 158.46 1975.22 157.44 zM1298.20 131.10L1300.94 132.33 1302.06 135.10 1300.80 138.02 1297.91 139.10 1295.17 137.88 1294.06 134.90 1295.24 132.25 1298.20 131.10 zM1269.20 124.81L1272.07 126.18 1273.05 129.01 1271.72 131.79 1268.90 132.81 1266.10 131.51 1265.05 128.71 1266.38 125.83 1269.20 124.81 z" style="stroke-width:1;visibility:hidden;" fill="#0000ff" stroke-linecap="square" stroke-linejoin="bevel" id="a-0-4" class="qa layer-0 level-4" fill-rule="evenodd" data-area="142634.10" /><path d="M2491.34 979.54L2509.84 981.88 2527.42 985.71 2548.98 992.13 2570.04 1000.00 2605.42 1016.34 2681.54 1056.64 2722.60 1074.28 2775.20 1090.31 2856.06 1108.37 2877.17 1114.20 2869.58 1122.65 2866.99 1129.49 2866.92 1136.49 2871.13 1145.04 2880.57 1153.02 2900.40 1162.60 2930.99 1193.31 2934.99 1212.84 2935.11 1229.22 2938.99 1248.84 2938.99 1284.99 2932.78 1285.11 2925.16 1286.99 2874.84 1286.99 2854.70 1282.37 2841.01 1274.54 2809.36 1243.18 2802.40 1232.18 2748.92 1178.69 2751.57 1164.06 2750.78 1157.85 2748.39 1153.66 2744.45 1151.61 2736.86 1152.89 2728.99 1158.66 2722.57 1168.24 2718.78 1179.30 2718.09 1188.69 2719.45 1196.34 2709.64 1207.15 2694.22 1230.80 2686.54 1244.98 2682.95 1248.57 2675.16 1252.99 2669.65 1242.40 2659.65 1217.40 2658.56 1204.88 2652.88 1187.84 2648.80 1179.84 2644.40 1174.18 2633.60 1167.56 2626.16 1166.01 2610.82 1166.74 2546.21 1198.97 2532.86 1204.11 2521.16 1206.99 2516.84 1206.99 2505.07 1204.10 2496.90 1200.48 2477.01 1188.54 2459.11 1170.95 2437.01 1156.54 2419.03 1142.88 2391.36 1115.18 2383.42 1104.95 2379.62 1099.20 2374.88 1084.84 2365.17 1066.46 2357.84 1058.63 2348.16 1055.01 2303.06 1054.99 2320.68 1037.50 2345.62 1018.41 2374.16 1001.77 2402.98 989.32 2429.43 982.01 2443.98 979.90 2475.66 978.58 2491.34 979.54 zM2875.99 1133.50L2877.70 1140.30 2874.82 1134.93 2875.99 1128.15 2875.99 1133.50 zM2771.65 1112.79L2768.68 1114.16 2767.70 1116.99 2769.10 1119.84 2771.84 1120.79 2774.58 1119.57 2775.70 1116.69 2774.44 1113.88 2771.65 1112.79 zM2895.27 1119.33L2894.53 1119.77 2895.27 1119.33 zM1322.12 902.37L1327.00 924.50 1326.88 934.38 1323.03 943.10 1322.00 937.52 1323.88 931.39 1324.00 923.52 1322.00 916.52 1322.00 901.50 1322.12 902.37 zM1427.51 638.19L1454.96 642.49 1467.72 646.29 1487.67 655.96 1503.09 669.64 1510.20 680.19 1514.62 691.57 1516.39 703.96 1515.49 716.95 1511.82 730.73 1504.75 747.54 1493.48 768.94 1483.54 784.18 1462.48 808.54 1437.97 831.78 1416.06 849.63 1363.60 888.79 1345.34 904.81 1337.30 913.97 1328.00 875.15 1327.95 841.43 1324.00 817.15 1323.76 802.93 1320.85 795.95 1316.36 791.72 1309.22 789.11 1290.43 789.04 1285.82 790.12 1276.44 794.83 1261.92 803.80 1240.08 820.78 1213.81 845.62 1207.83 823.88 1213.83 770.58 1218.13 752.92 1224.35 736.79 1235.54 717.33 1251.00 698.17 1265.95 684.32 1285.46 671.14 1299.40 663.61 1329.71 651.28 1346.34 646.35 1378.05 640.19 1395.70 638.46 1427.51 638.19 zM374.38 -46.90L382.29 -45.38 390.08 -41.49 440.44 -10.31 444.78 -5.26 458.46 3.17 500.39 24.68 508.14 26.98 519.38 33.10 541.50 39.00 566.20 38.88 586.16 33.26 609.79 68.31 671.60 153.11 707.50 199.35 731.88 225.99 774.00 265.20 791.05 283.15 799.01 295.94 805.76 313.27 809.47 328.63 811.27 344.07 811.13 359.54 809.07 375.33 804.86 392.13 798.71 408.89 790.90 424.96 781.66 439.81 772.08 451.89 764.06 459.69 739.46 459.02 735.88 445.84 728.62 433.20 724.18 421.47 717.83 412.47 715.88 405.84 708.18 390.47 700.42 380.95 695.21 370.95 679.79 352.62 686.36 346.84 688.88 340.20 688.26 329.84 683.26 323.29 668.60 317.56 646.31 314.99 605.57 287.84 593.86 284.01 586.57 278.84 580.28 276.18 577.29 271.07 571.59 266.85 564.60 263.56 558.82 262.99 544.01 253.54 517.84 232.63 502.01 223.54 483.21 206.23 470.62 199.89 459.88 197.41 453.21 192.23 445.61 188.32 412.60 176.56 403.85 175.99 384.60 170.56 365.85 167.99 351.10 164.24 319.31 159.99 316.17 152.46 306.36 138.19 314.17 127.55 317.88 117.20 318.00 96.85 323.98 68.13 324.00 30.50 322.00 21.15 323.83 11.53 328.68 3.60 330.51 -2.09 344.41 -24.23 362.05 -43.58 367.85 -46.00 374.38 -46.90 zM677.00 338.50L675.00 341.50 666.00 346.50 664.29 349.35 664.12 346.33 666.00 343.20 674.38 339.58 677.00 337.20 677.00 338.50 zM489.08 228.25L485.62 226.57 478.38 218.82 469.69 212.89 480.38 219.12 489.08 228.25 zM440.38 199.12L445.29 201.66 440.38 199.12 zM435.38 197.12L436.33 197.69 433.66 196.99 435.38 197.12 zM306.00 115.50L303.88 121.38 295.05 133.85 303.88 120.08 306.00 114.20 306.00 115.50 zM310.00 79.50L306.00 94.50 308.12 82.33 310.00 78.20 310.00 79.50 zM312.00 67.50L310.00 74.50 312.00 66.70 312.00 67.50 zM377.37 -59.17L386.37 -57.17 396.37 -52.17 453.62 -16.42 502.62 8.58 517.62 14.58 540.62 21.58 562.50 21.70 575.20 18.75 578.17 23.00 564.50 27.00 541.50 27.00 531.37 23.12 523.62 21.88 511.37 15.12 505.62 13.88 464.62 -7.12 451.62 -15.12 452.50 -17.00 449.00 -19.50 396.37 -51.88 386.37 -56.88 377.37 -58.88 364.62 -57.88 351.62 -50.88 344.88 -41.62 335.12 -32.38 326.10 -16.60 335.12 -32.67 344.88 -41.92 351.62 -51.17 364.62 -58.17 377.37 -59.17 z" style="stroke-width:1;visibility:hidden;" fill="#00ffff" stroke-linecap="square" stroke-linejoin="bevel" id="a-0-3" class="qa layer-0 level-3" fill-rule="evenodd" data-area="236455.90" /><path d="M2041.06 799.35L2045.44 804.71 2046.53 813.13 2214.87 824.73 2346.26 827.45 2403.18 829.93 2450.39 834.04 2481.35 832.71 2537.37 834.09 2587.09 839.44 2628.82 847.25 2683.28 854.29 2840.99 872.33 2841.11 881.22 2842.99 888.84 2843.11 901.22 2846.99 912.84 2847.11 925.22 2850.99 944.84 2850.99 957.05 2835.22 952.11 2822.82 953.12 2818.63 956.14 2815.80 960.64 2814.99 965.50 2815.74 974.18 2819.97 980.12 2831.38 986.10 2840.92 987.89 2880.41 1001.00 2885.23 1012.21 2901.53 1031.98 2904.78 1038.45 2896.37 1043.58 2892.72 1047.43 2893.01 1050.66 2900.77 1055.10 2914.22 1057.38 2920.99 1078.84 2920.99 1090.69 2916.95 1094.57 2895.37 1106.24 2886.82 1108.58 2877.17 1114.20 2856.06 1108.37 2775.20 1090.31 2745.95 1082.11 2702.59 1066.29 2681.54 1056.64 2605.42 1016.34 2570.04 1000.00 2548.98 992.13 2509.84 981.88 2475.66 978.58 2443.98 979.90 2429.43 982.01 2402.98 989.32 2374.16 1001.77 2345.62 1018.41 2320.68 1037.50 2303.06 1054.99 2272.84 1054.99 2262.88 1052.41 2261.42 1050.95 2250.88 1024.84 2217.18 956.47 2212.69 951.28 2207.63 948.57 2193.90 948.24 2185.08 952.78 2120.68 1016.99 2111.16 1018.99 2080.84 1018.99 2070.70 1016.37 2051.86 1007.01 2023.57 988.84 2000.61 977.32 1980.62 968.89 1964.10 965.24 1942.85 965.44 1917.40 974.34 1885.16 982.99 1875.82 982.99 1868.60 979.56 1857.31 978.99 1844.26 966.29 1828.61 957.32 1803.62 946.89 1793.07 944.10 1772.70 936.37 1722.81 914.39 1711.91 908.48 1691.01 894.54 1684.09 888.82 1682.58 885.84 1678.21 884.00 1673.58 885.99 1664.82 886.74 1657.14 891.63 1637.91 912.93 1623.54 934.98 1619.86 938.11 1604.90 939.24 1594.16 941.99 1586.90 942.24 1568.99 945.69 1561.82 944.99 1551.26 936.29 1547.39 934.50 1537.43 934.04 1530.94 936.15 1500.63 966.14 1488.19 982.62 1473.14 993.63 1458.63 1008.14 1451.88 1016.83 1437.14 1027.63 1424.63 1040.14 1417.95 1048.57 1405.91 1055.81 1386.51 1071.01 1380.63 1077.15 1369.54 1094.98 1366.18 1098.63 1352.36 1087.18 1339.42 1070.95 1335.88 1058.83 1328.42 1048.95 1323.62 1039.57 1350.16 995.55 1353.88 985.20 1353.95 975.43 1352.27 967.84 1345.88 948.84 1338.70 936.31 1338.95 923.43 1337.30 913.97 1345.34 904.81 1363.60 888.79 1416.06 849.63 1437.97 831.78 1450.18 820.20 1480.43 817.37 1740.96 816.75 1820.76 814.82 1887.09 810.78 2017.61 811.44 2016.44 807.47 2018.23 802.84 2021.17 800.45 2025.31 798.58 2034.55 797.40 2041.06 799.35 zM2162.39 998.54L2160.13 1011.95 2159.49 1025.92 2163.31 1061.22 2161.98 1064.06 2159.01 1065.07 2156.73 1064.13 2155.43 1062.04 2152.50 1041.80 2151.49 1026.21 2152.14 1011.35 2154.12 1000.62 2164.96 990.00 2162.39 998.54 zM1313.88 1046.62L1313.88 1046.62 zM2049.80 947.61L2041.47 951.76 2038.67 954.87 2036.32 962.36 2036.92 966.27 2040.88 972.81 2045.83 976.34 2052.84 975.82 2060.96 972.55 2067.12 967.46 2069.87 961.40 2069.08 955.10 2065.42 950.42 2058.81 947.49 2049.80 947.61 zM1128.40 686.86L1131.24 688.29 1165.24 728.88 1166.15 731.88 1164.62 734.62 1161.94 735.45 1159.38 734.31 1124.89 693.14 1124.77 688.75 1128.40 686.86 zM676.38 -65.90L689.52 -64.00 698.39 -57.90 711.92 -55.11 761.40 -36.57 809.40 -24.57 819.92 -23.11 847.40 -14.57 874.06 -10.00 876.67 -6.10 903.98 21.12 946.84 52.80 971.46 67.17 998.39 80.67 1052.38 103.10 1062.14 105.98 1056.68 121.39 1046.91 137.82 1032.96 156.23 980.78 213.41 958.41 239.97 942.84 261.15 929.90 282.03 920.05 301.40 912.22 320.98 889.24 397.17 876.51 433.81 865.63 459.69 764.06 459.69 772.08 451.89 781.66 439.81 790.90 424.96 798.71 408.89 804.86 392.13 809.07 375.33 811.13 359.54 811.27 344.07 809.47 328.63 805.76 313.27 799.01 295.94 791.05 283.15 774.00 265.20 731.88 225.99 707.50 199.35 671.60 153.11 585.47 33.46 596.07 28.20 611.36 13.86 618.41 4.77 630.74 -7.79 632.67 -12.47 636.74 -16.79 647.45 -33.98 654.36 -41.16 662.45 -53.98 674.04 -65.58 676.38 -65.90 zM2704.08 381.04L2707.20 383.16 2707.17 386.94 2694.60 405.18 2692.06 406.35 2689.66 405.77 2687.94 403.56 2688.25 400.44 2700.58 382.47 2704.08 381.04 zM2710.16 399.92L2707.91 400.92 2705.50 400.41 2703.84 398.58 2703.66 395.78 2714.84 368.77 2716.60 367.05 2719.39 366.75 2721.87 368.67 2722.30 371.43 2715.91 387.06 2731.07 381.30 2734.22 382.73 2735.08 386.08 2733.00 388.85 2714.67 396.17 2732.64 393.54 2735.57 395.38 2736.06 398.47 2733.18 401.38 2714.74 404.24 2711.78 403.20 2710.16 399.92 zM2711.64 397.38L2711.64 397.38 zM1305.57 320.78L1323.61 325.41 1325.72 327.73 1325.51 330.86 1323.77 332.61 1321.34 333.00 1303.65 328.41 1301.84 326.74 1301.40 323.97 1302.89 321.60 1305.57 320.78 zM1039.28 84.67L1047.37 84.83 1059.56 89.70 1062.29 93.67 1038.37 84.12 1039.28 84.67 zM679.37 -78.17L684.62 -76.42 693.37 -76.17 702.62 -69.42 715.37 -67.17 738.62 -57.42 764.62 -48.42 769.37 -48.17 812.62 -36.42 823.37 -35.17 850.62 -26.42 857.37 -26.17 881.37 -21.17 885.00 -18.80 903.62 0.58 941.00 31.20 981.62 55.58 1022.37 74.83 1026.41 79.75 977.62 56.88 953.00 42.50 911.62 11.88 885.12 -14.62 886.50 -17.00 881.37 -20.88 857.37 -25.88 850.62 -26.12 823.37 -34.88 812.62 -36.12 797.37 -40.88 788.62 -42.12 769.37 -47.88 764.62 -48.12 738.62 -57.12 715.37 -66.88 702.62 -69.12 693.37 -75.88 684.62 -76.12 678.50 -78.00 671.62 -77.88 667.00 -75.50 661.12 -70.38 649.50 -57.00 644.50 -48.00 637.50 -41.00 626.88 -23.62 619.25 -16.50 620.88 -14.62 609.12 -3.38 602.88 5.38 592.38 15.88 588.38 18.88 578.17 23.00 574.62 18.83 593.00 11.20 612.88 -7.92 619.12 -16.67 626.88 -23.92 637.50 -41.30 644.50 -48.30 649.50 -57.30 661.62 -71.17 671.62 -78.17 679.37 -78.17 z" style="stroke-width:1;visibility:hidden;" fill="#00ff00" stroke-linecap="square" stroke-linejoin="bevel" id="a-0-2" class="qa layer-0 level-2" fill-rule="evenodd" data-area="372405.72" /><path d="" style="stroke-width:1;visibility:hidden;" fill="#ffff00" stroke-linecap="square" stroke-linejoin="bevel" id="a-0-1" class="qa layer-0 level-1" data-area="0.00" /><path d="M1313.50 1045.99L1311.12 1043.37 1313.50 1045.99 zM1446.99 1035.49L1449.62 1033.12 1446.99 1035.49 zM2126.99 1027.49L2128.62 1026.12 2126.99 1027.49 zM2661.38 13.10L2669.88 14.98 2691.15 15.00 2699.88 16.98 2717.15 17.00 2721.88 17.98 2775.77 17.00 2781.55 23.56 2786.93 27.30 2793.21 30.38 2808.21 34.65 2826.22 36.66 2855.30 35.60 2851.11 56.78 2850.99 71.73 2846.51 79.15 2844.79 86.41 2845.32 94.42 2847.95 102.59 2854.77 104.28 2861.11 120.16 2869.82 137.10 2880.57 149.04 2891.53 163.98 2894.74 177.18 2901.11 195.16 2910.85 214.59 2922.99 232.31 2927.74 253.18 2934.10 270.14 2936.44 287.15 2942.99 308.84 2945.44 327.15 2949.44 345.15 2952.99 354.84 2955.44 375.15 2958.99 382.84 2965.44 411.15 2974.99 442.84 2978.42 468.04 2977.01 474.85 2977.04 495.57 2980.99 515.84 2980.99 522.15 2977.24 536.90 2976.99 544.15 2973.01 556.85 2972.99 576.15 2971.01 584.85 2970.99 604.15 2969.99 609.50 2970.04 630.57 2971.83 636.55 2970.37 644.29 2946.54 687.98 2936.91 697.93 2916.54 723.98 2902.29 739.30 2893.84 752.43 2882.41 775.11 2857.84 803.43 2845.56 828.40 2841.11 850.78 2840.99 872.33 2683.28 854.29 2628.82 847.25 2587.09 839.44 2537.37 834.09 2481.35 832.71 2450.39 834.04 2403.18 829.93 2346.26 827.45 2214.87 824.73 2046.53 813.13 2045.44 804.71 2043.66 801.74 2041.06 799.35 2034.55 797.40 2025.31 798.58 2018.23 802.84 2016.44 807.47 2017.61 811.44 1887.09 810.78 1820.76 814.82 1740.96 816.75 1480.43 817.37 1450.18 820.20 1462.48 808.54 1483.54 784.18 1493.48 768.94 1504.75 747.54 1511.82 730.73 1515.49 716.95 1516.39 703.96 1514.62 691.57 1510.20 680.19 1503.09 669.64 1495.90 662.27 1478.46 650.75 1454.96 642.49 1441.11 639.72 1412.93 637.77 1395.70 638.46 1362.11 642.76 1329.71 651.28 1299.40 663.61 1285.46 671.14 1265.95 684.32 1251.00 698.17 1235.54 717.33 1224.35 736.79 1218.13 752.92 1213.83 770.58 1207.83 823.88 1213.81 845.62 1184.95 872.57 1167.44 880.83 1148.20 892.37 1129.85 894.44 1118.76 899.93 1116.68 896.10 1111.84 891.53 1078.57 873.85 1071.12 867.94 1065.28 860.92 1060.92 853.22 1056.86 843.32 1043.84 801.29 1031.86 771.65 1025.42 761.98 1017.88 754.61 1005.59 748.77 1011.88 728.20 1011.72 713.77 1014.53 703.38 1013.49 694.56 1008.90 686.93 1002.20 681.21 983.44 669.42 975.72 660.20 972.22 648.18 970.37 620.96 966.82 611.26 963.75 607.51 959.58 604.23 948.31 599.30 935.40 597.37 921.75 598.59 909.06 602.49 903.09 605.58 853.91 577.48 847.81 573.43 838.00 538.15 837.00 531.82 841.43 522.60 842.98 509.13 842.56 500.88 839.40 495.18 833.61 491.32 827.50 489.99 804.43 490.04 776.93 494.70 771.26 489.29 763.92 485.04 740.01 459.69 865.63 459.69 876.51 433.81 889.24 397.17 912.22 320.98 920.05 301.40 929.90 282.03 942.84 261.15 958.41 239.97 980.78 213.41 1032.96 156.23 1046.91 137.82 1056.68 121.39 1061.94 105.90 1083.40 113.43 1119.40 122.43 1159.81 128.88 1188.15 129.00 1195.81 130.88 1202.50 131.00 1211.85 129.00 1221.57 128.95 1229.85 127.00 1237.07 126.75 1266.13 120.56 1280.85 114.00 1287.16 112.88 1327.17 90.79 1343.87 77.60 1359.16 72.88 1398.55 53.16 1407.85 47.00 1496.15 47.00 1505.50 49.00 1562.50 49.00 1571.85 47.00 1662.50 47.00 1671.85 45.00 1694.85 43.00 1789.50 43.00 1798.85 41.00 1816.57 40.95 1824.85 39.00 1927.50 39.00 1936.85 37.00 1999.50 37.00 2008.85 35.00 2035.50 35.00 2044.85 33.00 2064.57 32.95 2072.84 31.00 2134.57 30.95 2158.84 27.00 2301.15 27.00 2309.88 28.98 2347.50 29.00 2356.84 27.00 2372.57 26.95 2380.84 25.00 2394.57 24.95 2402.84 23.00 2432.75 23.00 2434.79 31.27 2437.44 33.97 2441.25 35.31 2451.57 33.12 2456.96 29.82 2463.59 23.00 2474.57 22.95 2500.84 19.00 2558.57 18.95 2572.84 15.00 2575.30 15.00 2574.72 20.50 2575.85 26.45 2578.54 29.94 2583.31 32.21 2589.55 33.03 2596.87 32.29 2605.96 29.58 2614.55 25.11 2620.46 20.08 2624.03 13.00 2661.38 13.10 zM1668.04 788.03L1664.77 789.79 1663.37 795.05 1664.28 797.90 1667.01 799.33 1670.68 797.58 1672.07 792.43 1670.97 789.26 1668.04 788.03 zM1127.69 686.89L1124.45 689.39 1124.89 693.14 1159.38 734.31 1161.94 735.45 1164.62 734.62 1166.15 731.88 1165.24 728.88 1131.24 688.29 1127.69 686.89 zM1975.19 709.54L1972.29 710.83 1971.24 713.64 1972.50 716.45 1975.29 717.54 1978.26 716.17 1979.24 713.34 1977.91 710.56 1975.19 709.54 zM2887.91 706.90L2885.01 708.20 2883.96 711.00 2885.22 713.81 2888.01 714.90 2890.91 713.60 2891.96 710.70 2890.63 707.92 2887.91 706.90 zM2703.36 381.03L2700.58 382.47 2688.25 400.44 2687.94 403.56 2689.97 405.94 2692.76 406.23 2694.84 404.91 2707.17 386.94 2707.02 382.85 2703.36 381.03 zM2717.97 366.65L2714.69 369.10 2703.66 395.78 2703.84 398.58 2706.84 400.88 2710.55 399.50 2711.30 402.67 2714.02 404.22 2733.86 401.14 2736.18 397.41 2735.36 395.09 2733.34 393.68 2714.67 396.17 2733.00 388.85 2735.13 385.73 2733.98 382.46 2730.71 381.32 2715.91 387.06 2722.36 371.08 2721.23 367.81 2717.97 366.65 zM2711.64 397.43L2711.64 397.43 zM1045.22 341.65L1042.13 343.82 1042.42 347.90 1063.07 372.54 1065.63 373.67 1068.31 372.84 1069.84 370.11 1069.14 367.39 1048.50 342.76 1045.22 341.65 zM2742.15 342.65L2739.12 344.10 2738.26 347.34 2740.53 351.30 2743.86 352.18 2746.44 350.49 2747.05 347.46 2745.01 343.81 2742.15 342.65 zM1304.86 320.80L1302.62 321.83 1301.40 323.97 1301.84 326.74 1303.65 328.41 1321.34 333.00 1323.77 332.61 1325.51 330.86 1325.72 327.73 1323.61 325.41 1304.86 320.80 zM976.89 280.53L973.70 282.55 973.47 286.00 978.87 296.35 983.13 297.40 985.44 295.28 985.51 292.14 980.34 282.07 976.89 280.53 zM2668.45 219.76L2665.61 220.99 2664.49 223.76 2665.68 226.61 2668.54 227.76 2671.38 226.54 2672.49 223.57 2671.31 220.92 2668.45 219.76 zM439.71 199.02L438.62 198.87 439.71 199.02 zM2221.70 184.33L2218.80 185.63 2217.75 188.43 2219.01 191.25 2221.80 192.33 2224.77 190.96 2225.75 188.14 2224.42 185.35 2221.70 184.33 zM2148.09 158.69L2145.19 159.98 2144.14 162.88 2145.47 165.67 2148.19 166.69 2151.09 165.39 2152.14 162.49 2150.81 159.70 2148.09 158.69 zM1975.02 157.44L1972.12 158.74 1971.07 161.54 1972.33 164.35 1975.12 165.44 1978.09 164.07 1979.07 161.24 1977.74 158.46 1975.02 157.44 zM1298.01 131.10L1295.17 132.33 1294.06 135.30 1295.24 137.95 1298.11 139.10 1300.94 137.88 1302.06 135.10 1300.87 132.25 1298.01 131.10 zM295.05 133.85L295.05 133.85 zM1269.00 124.81L1266.10 126.11 1265.05 128.91 1266.31 131.73 1269.10 132.81 1272.07 131.44 1273.05 128.61 1271.72 125.83 1269.00 124.81 zM1026.60 79.86L1026.60 79.86 zM1309.50 1040.99L1310.88 1042.62 1309.50 1040.99 zM1451.99 1031.49L1450.37 1032.87 1451.99 1031.49 zM1454.99 1029.49L1453.37 1030.87 1454.99 1029.49 zM1458.99 1026.49L1456.37 1028.87 1458.99 1026.49 zM489.08 228.24L489.08 228.24 z" style="stroke-width:1;visibility:hidden;" fill="#ff0000" stroke-linecap="square" stroke-linejoin="bevel" id="a-0-0" class="qa layer-0 level-0" fill-rule="evenodd" data-area="1500558.21" /><path d="M679.37 -77.88L684.62 -76.12 693.37 -75.88 702.62 -69.12 715.37 -66.88 738.62 -57.12 764.62 -48.12 769.37 -47.88 812.62 -36.12 823.37 -34.88 850.62 -26.12 857.37 -25.88 881.37 -20.88 886.50 -17.00 885.12 -14.62 911.62 11.88 953.00 42.50 977.62 56.88 1003.62 69.88 1056.62 91.88 1086.62 101.88 1122.62 110.88 1129.37 111.12 1147.50 115.00 1155.37 115.12 1161.50 117.00 1190.50 117.00 1197.50 119.00 1203.38 118.88 1209.50 117.00 1220.50 117.00 1226.62 115.12 1234.50 115.00 1245.38 112.88 1258.62 109.12 1263.38 108.88 1277.62 102.12 1282.38 101.88 1321.00 80.50 1337.62 67.12 1354.38 61.88 1392.38 42.88 1405.50 35.00 1498.50 35.00 1505.50 37.00 1562.50 37.00 1569.50 35.00 1662.50 35.00 1669.50 33.00 1692.50 31.00 1789.50 31.00 1796.50 29.00 1815.50 29.00 1822.50 27.00 1927.50 27.00 1934.50 25.00 1999.50 25.00 2006.50 23.00 2035.50 23.00 2042.50 21.00 2063.50 21.00 2070.50 19.00 2133.50 19.00 2139.62 17.12 2149.50 17.00 2156.50 15.00 2303.50 15.00 2310.50 17.00 2347.50 17.00 2354.50 15.00 2371.50 15.00 2378.50 13.00 2393.50 13.00 2400.50 11.00 2473.50 11.00 2479.62 9.12 2491.50 9.00 2498.50 7.00 2557.50 7.00 2569.62 3.12 2585.50 3.00 2592.50 1.00 2663.50 1.00 2670.50 3.00 2693.50 3.00 2700.50 5.00 2719.50 5.00 2722.50 6.00 2732.50 5.00 2787.50 5.00 2794.50 7.00 2827.50 7.00 2834.50 5.00 2853.50 5.00 2859.62 6.88 2868.50 7.00 2871.37 8.12 2872.87 10.62 2872.87 14.37 2862.99 58.50 2863.12 88.38 2867.12 104.38 2879.12 129.38 2887.87 138.62 2901.87 157.62 2912.12 190.38 2921.49 209.00 2926.49 215.00 2934.87 228.62 2939.12 249.38 2943.87 260.62 2948.87 278.62 2947.24 280.50 2951.12 296.38 2954.87 305.62 2956.99 316.50 2957.12 324.38 2960.87 337.62 2961.12 342.38 2964.87 351.62 2967.12 372.38 2970.87 379.62 2971.12 384.38 2975.87 399.62 2977.12 408.38 2983.87 427.62 2988.87 449.62 2988.99 460.50 2990.99 467.50 2988.99 475.50 2988.99 494.50 2992.99 513.50 2992.99 524.50 2989.12 538.62 2988.87 547.37 2984.99 557.50 2984.99 578.50 2982.99 585.50 2982.99 606.50 2981.99 609.50 2981.99 629.50 2984.74 635.50 2981.87 648.37 2956.49 694.99 2946.12 705.62 2923.87 734.37 2911.49 746.99 2904.12 758.62 2899.87 769.37 2894.12 777.62 2892.49 781.99 2883.87 793.37 2870.12 806.62 2858.12 828.62 2852.99 852.50 2852.99 879.50 2854.99 886.50 2855.12 900.38 2858.87 909.62 2858.99 923.50 2862.99 942.50 2862.87 962.37 2860.49 967.99 2856.37 970.87 2843.62 967.87 2833.50 963.99 2827.62 964.12 2826.99 969.50 2827.62 970.88 2835.62 974.88 2844.37 976.12 2865.62 983.88 2872.37 985.12 2879.62 988.88 2886.37 989.12 2888.99 990.50 2895.49 1006.00 2911.87 1025.62 2927.87 1057.62 2932.99 1076.50 2932.99 1093.50 2931.87 1096.37 2923.99 1104.49 2890.62 1122.12 2888.12 1125.62 2887.99 1133.50 2890.12 1137.38 2898.62 1145.88 2907.37 1152.12 2939.87 1184.62 2942.87 1189.62 2946.99 1210.50 2946.99 1227.50 2950.99 1246.50 2950.99 1290.50 2949.87 1293.37 2946.37 1295.87 2933.62 1297.12 2927.50 1298.99 2872.50 1298.99 2853.62 1294.87 2840.62 1288.87 2830.62 1281.87 2800.12 1251.37 2793.88 1240.62 2741.38 1188.12 2735.12 1188.62 2734.87 1196.37 2733.49 1198.99 2719.49 1213.99 2693.87 1255.37 2683.37 1262.87 2677.50 1264.99 2667.62 1264.87 2664.12 1262.37 2662.88 1255.62 2658.12 1246.37 2647.12 1218.37 2646.88 1207.62 2641.88 1192.62 2635.88 1182.62 2630.38 1179.12 2625.50 1177.99 2614.62 1178.12 2549.37 1210.87 2536.37 1215.87 2524.37 1218.87 2514.50 1218.99 2496.62 1213.87 2470.00 1198.49 2448.00 1177.49 2430.00 1166.49 2422.00 1159.49 2412.62 1153.87 2382.12 1123.37 2373.50 1111.99 2368.12 1103.37 2365.88 1094.62 2360.88 1083.62 2354.50 1071.99 2351.00 1068.49 2347.50 1066.99 2270.50 1066.99 2256.00 1062.49 2251.12 1057.37 2246.12 1047.37 2239.88 1029.62 2220.12 991.37 2217.88 984.62 2206.88 962.62 2204.38 960.12 2195.62 960.12 2192.62 962.12 2126.37 1027.87 2113.50 1030.99 2078.50 1030.99 2066.62 1027.87 2044.62 1016.87 2017.38 999.12 1995.38 988.12 1976.38 980.12 1962.38 977.12 1945.62 977.12 1918.37 986.87 1887.50 994.99 1873.50 994.99 1865.38 991.12 1853.62 990.87 1848.62 987.87 1837.38 976.12 1825.38 969.12 1799.38 958.12 1789.62 955.87 1739.62 935.87 1705.62 918.87 1675.50 897.99 1668.62 898.12 1665.62 900.12 1656.87 911.37 1644.49 923.99 1630.87 945.37 1623.37 949.87 1618.50 950.99 1606.62 951.12 1597.37 953.87 1589.50 953.99 1567.50 957.99 1558.62 956.87 1554.62 954.87 1544.38 946.12 1537.62 946.12 1509.12 974.62 1496.37 991.87 1481.62 1002.12 1467.12 1016.62 1460.37 1025.87 1445.62 1036.12 1424.99 1058.49 1412.99 1065.49 1394.99 1079.49 1390.49 1083.99 1376.87 1105.37 1370.37 1110.87 1365.62 1111.87 1359.00 1108.49 1347.62 1099.87 1335.12 1085.37 1326.12 1072.37 1324.88 1063.62 1318.50 1055.99 1313.88 1046.62 1309.12 1040.37 1309.12 1037.62 1316.50 1029.00 1339.88 989.38 1341.88 984.38 1342.00 976.50 1334.88 953.62 1326.12 938.37 1326.88 923.62 1319.88 889.62 1316.00 877.50 1316.00 842.50 1314.00 835.50 1313.88 825.62 1312.00 819.50 1312.00 805.50 1310.88 802.62 1308.38 801.12 1290.62 801.12 1274.99 809.49 1247.62 830.12 1236.37 841.87 1230.99 845.49 1191.99 882.49 1173.62 891.12 1152.37 903.87 1148.50 904.99 1136.62 905.12 1125.99 909.49 1118.49 915.99 1114.87 921.37 1094.37 941.87 1085.62 948.12 1074.37 959.87 1057.37 971.87 1031.37 983.87 1014.50 986.99 980.62 986.87 970.62 983.87 947.38 974.12 934.50 970.99 921.62 971.87 919.00 970.49 915.38 966.12 904.62 965.87 888.00 961.49 884.00 955.50 884.00 932.50 885.00 929.50 885.00 918.50 887.88 910.38 889.12 896.62 892.88 888.38 893.12 884.62 901.12 872.62 922.88 851.38 941.50 824.00 949.50 816.00 964.50 792.00 970.50 784.00 978.50 777.00 988.88 757.38 998.88 731.38 1000.00 726.50 1000.00 716.50 998.50 712.99 992.50 709.99 983.50 709.99 976.50 711.99 965.50 711.99 959.38 710.12 952.62 709.87 932.62 701.87 923.12 694.37 913.12 677.37 911.88 668.62 908.12 659.37 907.88 642.62 906.12 637.37 905.88 630.62 902.50 619.99 884.38 608.12 867.62 599.87 839.00 582.49 835.12 577.37 835.88 574.62 830.12 557.37 825.00 534.50 825.12 528.62 829.88 519.38 831.00 508.50 830.38 503.12 827.50 501.99 805.50 501.99 774.62 507.87 769.62 504.87 764.38 499.12 756.00 494.49 750.88 487.62 731.12 468.37 727.12 462.37 724.88 450.62 717.12 437.37 713.88 427.62 706.12 416.37 704.88 410.62 697.88 396.62 690.50 387.99 685.50 377.99 665.12 353.37 664.12 349.62 665.50 347.00 676.88 339.38 676.38 333.12 665.38 329.12 657.50 328.99 640.62 325.87 599.38 298.12 590.62 295.87 580.38 289.12 569.00 284.50 564.25 280.50 568.75 279.50 565.38 277.12 561.38 275.12 554.62 274.87 537.00 263.50 511.00 242.50 501.00 237.50 491.62 230.87 477.00 216.50 466.38 211.12 455.62 208.87 440.38 199.12 428.62 195.87 419.38 191.12 409.38 188.12 400.62 187.87 381.38 182.12 374.62 181.87 349.38 176.12 342.62 175.87 336.50 173.99 326.62 173.87 312.62 170.87 309.50 168.00 305.88 158.62 296.50 146.00 294.12 140.37 294.00 135.50 303.50 122.00 306.00 115.50 306.00 94.50 312.00 67.50 312.00 30.50 310.00 23.50 310.00 16.50 312.12 7.62 316.88 0.38 323.12 -14.38 326.50 -17.00 335.12 -32.38 344.88 -41.62 351.12 -50.38 355.62 -53.88 364.62 -57.88 371.50 -59.00 386.37 -56.88 427.00 -33.50 452.00 -17.50 452.75 -16.50 451.62 -15.12 464.62 -7.12 505.62 13.88 511.37 15.12 523.62 21.88 531.37 23.12 540.62 26.88 564.50 27.00 582.38 21.88 592.38 15.88 602.88 5.38 609.12 -3.38 620.88 -14.62 619.25 -16.50 626.88 -23.62 637.50 -41.00 644.50 -48.00 649.50 -57.00 661.12 -70.38 667.00 -75.50 671.62 -77.88 679.37 -77.88 z" style="stroke-width:1;visibility:hidden;" fill="rgba(255,255,255,0.50)" stroke-linecap="square" stroke-linejoin="bevel" id="a-1-0" class="qa layer-1 level-0" data-area="2248779.22" /><path d="M679.37 -77.88L684.62 -76.12 693.37 -75.88 702.62 -69.12 715.37 -66.88 738.62 -57.12 764.62 -48.12 769.37 -47.88 812.62 -36.12 823.37 -34.88 850.62 -26.12 857.37 -25.88 881.37 -20.88 886.50 -17.00 885.12 -14.62 911.62 11.88 953.00 42.50 977.62 56.88 1003.62 69.88 1056.62 91.88 1086.62 101.88 1122.62 110.88 1129.37 111.12 1147.50 115.00 1155.37 115.12 1161.50 117.00 1190.50 117.00 1197.50 119.00 1203.38 118.88 1209.50 117.00 1220.50 117.00 1226.62 115.12 1234.50 115.00 1245.38 112.88 1258.62 109.12 1263.38 108.88 1277.62 102.12 1282.38 101.88 1321.00 80.50 1337.62 67.12 1354.38 61.88 1392.38 42.88 1405.50 35.00 1498.50 35.00 1505.50 37.00 1562.50 37.00 1569.50 35.00 1662.50 35.00 1669.50 33.00 1692.50 31.00 1789.50 31.00 1796.50 29.00 1815.50 29.00 1822.50 27.00 1927.50 27.00 1934.50 25.00 1999.50 25.00 2006.50 23.00 2035.50 23.00 2042.50 21.00 2063.50 21.00 2070.50 19.00 2133.50 19.00 2139.62 17.12 2149.50 17.00 2156.50 15.00 2303.50 15.00 2310.50 17.00 2347.50 17.00 2354.50 15.00 2371.50 15.00 2378.50 13.00 2393.50 13.00 2400.50 11.00 2473.50 11.00 2479.62 9.12 2491.50 9.00 2498.50 7.00 2557.50 7.00 2569.62 3.12 2585.50 3.00 2592.50 1.00 2663.50 1.00 2670.50 3.00 2693.50 3.00 2700.50 5.00 2719.50 5.00 2722.50 6.00 2732.50 5.00 2787.50 5.00 2794.50 7.00 2827.50 7.00 2834.50 5.00 2853.50 5.00 2859.62 6.88 2868.50 7.00 2871.37 8.12 2872.87 10.62 2872.87 14.37 2862.99 58.50 2863.12 88.38 2867.12 104.38 2879.12 129.38 2887.87 138.62 2901.87 157.62 2912.12 190.38 2921.49 209.00 2926.49 215.00 2934.87 228.62 2939.12 249.38 2943.87 260.62 2948.87 278.62 2947.24 280.50 2951.12 296.38 2954.87 305.62 2956.99 316.50 2957.12 324.38 2960.87 337.62 2961.12 342.38 2964.87 351.62 2967.12 372.38 2970.87 379.62 2971.12 384.38 2975.87 399.62 2977.12 408.38 2983.87 427.62 2988.87 449.62 2988.99 460.50 2990.99 467.50 2988.99 475.50 2988.99 494.50 2992.99 513.50 2992.99 524.50 2989.12 538.62 2988.87 547.37 2984.99 557.50 2984.99 578.50 2982.99 585.50 2982.99 606.50 2981.99 609.50 2981.99 629.50 2984.74 635.50 2981.87 648.37 2956.49 694.99 2946.12 705.62 2923.87 734.37 2911.49 746.99 2904.12 758.62 2899.87 769.37 2894.12 777.62 2892.49 781.99 2883.87 793.37 2870.12 806.62 2858.12 828.62 2852.99 852.50 2852.99 879.50 2854.99 886.50 2855.12 900.38 2858.87 909.62 2858.99 923.50 2862.99 942.50 2862.87 962.37 2860.49 967.99 2856.37 970.87 2843.62 967.87 2833.50 963.99 2827.62 964.12 2826.99 969.50 2827.62 970.88 2835.62 974.88 2844.37 976.12 2865.62 983.88 2872.37 985.12 2879.62 988.88 2886.37 989.12 2888.99 990.50 2895.49 1006.00 2911.87 1025.62 2927.87 1057.62 2932.99 1076.50 2932.99 1093.50 2931.87 1096.37 2923.99 1104.49 2890.62 1122.12 2888.12 1125.62 2887.99 1133.50 2890.12 1137.38 2898.62 1145.88 2907.37 1152.12 2939.87 1184.62 2942.87 1189.62 2946.99 1210.50 2946.99 1227.50 2950.99 1246.50 2950.99 1290.50 2949.87 1293.37 2946.37 1295.87 2933.62 1297.12 2927.50 1298.99 2872.50 1298.99 2853.62 1294.87 2840.62 1288.87 2830.62 1281.87 2800.12 1251.37 2793.88 1240.62 2741.38 1188.12 2735.12 1188.62 2734.87 1196.37 2733.49 1198.99 2719.49 1213.99 2693.87 1255.37 2683.37 1262.87 2677.50 1264.99 2667.62 1264.87 2664.12 1262.37 2662.88 1255.62 2658.12 1246.37 2647.12 1218.37 2646.88 1207.62 2641.88 1192.62 2635.88 1182.62 2630.38 1179.12 2625.50 1177.99 2614.62 1178.12 2549.37 1210.87 2536.37 1215.87 2524.37 1218.87 2514.50 1218.99 2496.62 1213.87 2470.00 1198.49 2448.00 1177.49 2430.00 1166.49 2422.00 1159.49 2412.62 1153.87 2382.12 1123.37 2373.50 1111.99 2368.12 1103.37 2365.88 1094.62 2360.88 1083.62 2354.50 1071.99 2351.00 1068.49 2347.50 1066.99 2270.50 1066.99 2256.00 1062.49 2251.12 1057.37 2246.12 1047.37 2239.88 1029.62 2220.12 991.37 2217.88 984.62 2206.88 962.62 2204.38 960.12 2195.62 960.12 2192.62 962.12 2126.37 1027.87 2113.50 1030.99 2078.50 1030.99 2066.62 1027.87 2044.62 1016.87 2017.38 999.12 1995.38 988.12 1976.38 980.12 1962.38 977.12 1945.62 977.12 1918.37 986.87 1887.50 994.99 1873.50 994.99 1865.38 991.12 1853.62 990.87 1848.62 987.87 1837.38 976.12 1825.38 969.12 1799.38 958.12 1789.62 955.87 1739.62 935.87 1705.62 918.87 1675.50 897.99 1668.62 898.12 1665.62 900.12 1656.87 911.37 1644.49 923.99 1630.87 945.37 1623.37 949.87 1618.50 950.99 1606.62 951.12 1597.37 953.87 1589.50 953.99 1567.50 957.99 1558.62 956.87 1554.62 954.87 1544.38 946.12 1537.62 946.12 1509.12 974.62 1496.37 991.87 1481.62 1002.12 1467.12 1016.62 1460.37 1025.87 1445.62 1036.12 1424.99 1058.49 1412.99 1065.49 1394.99 1079.49 1390.49 1083.99 1376.87 1105.37 1370.37 1110.87 1365.62 1111.87 1359.00 1108.49 1347.62 1099.87 1335.12 1085.37 1326.12 1072.37 1324.88 1063.62 1318.50 1055.99 1313.88 1046.62 1309.12 1040.37 1309.12 1037.62 1316.50 1029.00 1339.88 989.38 1341.88 984.38 1342.00 976.50 1334.88 953.62 1326.12 938.37 1326.88 923.62 1319.88 889.62 1316.00 877.50 1316.00 842.50 1314.00 835.50 1313.88 825.62 1312.00 819.50 1312.00 805.50 1310.88 802.62 1308.38 801.12 1290.62 801.12 1274.99 809.49 1247.62 830.12 1236.37 841.87 1230.99 845.49 1191.99 882.49 1173.62 891.12 1152.37 903.87 1148.50 904.99 1136.62 905.12 1125.99 909.49 1118.49 915.99 1114.87 921.37 1094.37 941.87 1085.62 948.12 1074.37 959.87 1057.37 971.87 1031.37 983.87 1014.50 986.99 980.62 986.87 970.62 983.87 947.38 974.12 934.50 970.99 921.62 971.87 919.00 970.49 915.38 966.12 904.62 965.87 888.00 961.49 884.00 955.50 884.00 932.50 885.00 929.50 885.00 918.50 887.88 910.38 889.12 896.62 892.88 888.38 893.12 884.62 901.12 872.62 922.88 851.38 941.50 824.00 949.50 816.00 964.50 792.00 970.50 784.00 978.50 777.00 988.88 757.38 998.88 731.38 1000.00 726.50 1000.00 716.50 998.50 712.99 992.50 709.99 983.50 709.99 976.50 711.99 965.50 711.99 959.38 710.12 952.62 709.87 932.62 701.87 923.12 694.37 913.12 677.37 911.88 668.62 908.12 659.37 907.88 642.62 906.12 637.37 905.88 630.62 902.50 619.99 884.38 608.12 867.62 599.87 839.00 582.49 835.12 577.37 835.88 574.62 830.12 557.37 825.00 534.50 825.12 528.62 829.88 519.38 831.00 508.50 830.38 503.12 827.50 501.99 805.50 501.99 774.62 507.87 769.62 504.87 764.38 499.12 756.00 494.49 750.88 487.62 731.12 468.37 727.12 462.37 724.88 450.62 717.12 437.37 713.88 427.62 706.12 416.37 704.88 410.62 697.88 396.62 690.50 387.99 685.50 377.99 665.12 353.37 664.12 349.62 665.50 347.00 676.88 339.38 676.38 333.12 665.38 329.12 657.50 328.99 640.62 325.87 599.38 298.12 590.62 295.87 580.38 289.12 569.00 284.50 564.25 280.50 568.75 279.50 565.38 277.12 561.38 275.12 554.62 274.87 537.00 263.50 511.00 242.50 501.00 237.50 491.62 230.87 477.00 216.50 466.38 211.12 455.62 208.87 440.38 199.12 428.62 195.87 419.38 191.12 409.38 188.12 400.62 187.87 381.38 182.12 374.62 181.87 349.38 176.12 342.62 175.87 336.50 173.99 326.62 173.87 312.62 170.87 309.50 168.00 305.88 158.62 296.50 146.00 294.12 140.37 294.00 135.50 303.50 122.00 306.00 115.50 306.00 94.50 312.00 67.50 312.00 30.50 310.00 23.50 310.00 16.50 312.12 7.62 316.88 0.38 323.12 -14.38 326.50 -17.00 335.12 -32.38 344.88 -41.62 351.12 -50.38 355.62 -53.88 364.62 -57.88 371.50 -59.00 386.37 -56.88 427.00 -33.50 452.00 -17.50 452.75 -16.50 451.62 -15.12 464.62 -7.12 505.62 13.88 511.37 15.12 523.62 21.88 531.37 23.12 540.62 26.88 564.50 27.00 582.38 21.88 592.38 15.88 602.88 5.38 609.12 -3.38 620.88 -14.62 619.25 -16.50 626.88 -23.62 637.50 -41.00 644.50 -48.00 649.50 -57.00 661.12 -70.38 667.00 -75.50 671.62 -77.88 679.37 -77.88 z" style="stroke-width:1;visibility:hidden;" fill="rgba(255,255,255,0.50)" stroke-linecap="square" stroke-linejoin="bevel" id="a-2-0" class="qa layer-2 level-0" data-area="2248779.22" /></g></svg>