<svg width="2790.99mm" height="1323.84mm"  viewBox="0 0 2791 1324" xmlns="http://www.w3.org/2000/svg" xmlns:xlink="http://www.w3.org/1999/xlink" version="1.1"><rect x="0" y="0" width="2790.99" height="1323.84" style="stroke-width:1;" fill="#ffffff" stroke="#000000" stroke-linecap="square" stroke-linejoin="bevel" /><g  transform="matrix(1.000000000000000000,0.000000000000000000,0.000000000000000000,1.000000000000000000,-226.000000000000000000,-3.152000000000043656)" ><rect x="226" y="3.152" width="2790.99" height="1323.84" style="stroke-width:1;" fill="#ffffff" stroke-linecap="square" stroke-linejoin="bevel" /><path d="M2673.37 3.28L2687.87 14.78 2694.12 23.53 2698.95 27.60 2696.62 28.88 2703.99 33.50 2716.62 46.88 2723.99 52.50 2729.62 55.88 2735.99 57.50 2742.62 64.88 2747.62 67.88 2752.37 68.12 2773.62 76.88 2788.50 80.00 2823.50 80.00 2830.50 78.00 2840.38 77.88 2851.62 74.12 2860.38 73.88 2878.50 70.00 2917.50 70.00 2931.62 73.88 2936.37 74.12 2957.37 82.12 2976.99 96.50 2982.99 99.50 2992.49 111.00 2996.12 119.38 2999.87 124.62 3012.87 154.62 3014.99 165.50 3014.99 175.50 3016.99 182.50 3016.99 195.50 3015.87 198.37 3005.49 210.00 2997.49 222.00 2992.37 225.87 2982.50 225.99 2974.37 228.87 2966.50 228.99 2955.62 231.12 2940.37 236.87 2933.62 237.12 2922.37 242.87 2891.62 247.12 2878.37 250.87 2873.62 251.12 2864.37 256.87 2837.62 264.12 2832.99 266.50 2825.37 272.87 2817.62 274.12 2805.62 279.12 2808.74 280.50 2798.37 285.87 2793.62 286.12 2786.37 289.87 2777.62 291.12 2727.37 314.87 2723.50 315.99 2705.62 316.12 2694.62 320.12 2662.12 351.62 2660.12 355.62 2659.87 359.37 2655.87 366.37 2649.99 370.49 2643.87 378.37 2633.49 386.99 2615.49 408.99 2606.49 421.99 2601.99 426.49 2590.62 433.12 2573.99 449.49 2571.37 450.87 2566.50 450.99 2561.50 448.99 2550.50 448.99 2539.62 453.12 2507.62 470.12 2501.37 474.87 2486.62 481.12 2471.99 492.49 2465.99 495.49 2453.99 506.49 2436.62 513.12 2427.99 519.49 2425.12 522.62 2422.99 528.50 2422.99 547.50 2424.87 553.62 2425.12 560.38 2429.87 573.62 2430.12 578.38 2445.87 605.62 2451.12 623.38 2454.87 630.62 2458.12 645.38 2464.87 664.62 2468.87 680.62 2470.74 690.50 2469.49 692.99 2463.37 696.87 2439.62 705.12 2391.37 728.87 2384.62 731.12 2366.37 740.87 2336.62 753.12 2311.99 767.49 2297.49 779.99 2286.49 795.99 2280.12 802.62 2273.87 813.37 2266.12 820.62 2251.87 839.37 2238.12 852.62 2231.87 861.37 2213.37 879.87 2204.62 886.12 2195.37 894.87 2174.37 905.87 2168.37 907.87 2163.50 908.99 2149.62 908.87 2145.50 905.99 2134.50 883.99 2126.50 871.99 2119.38 864.12 2104.00 853.49 2090.38 846.12 2072.38 838.12 2058.38 834.12 2036.50 834.99 2023.50 830.99 2006.50 831.03 1996.37 834.91 1976.37 838.91 1955.50 833.03 1948.50 833.03 1944.99 834.54 1938.49 842.04 1934.49 849.99 1929.12 856.66 1920.12 879.62 1915.12 899.62 1914.87 906.37 1909.12 931.62 1908.99 943.50 1906.99 950.50 1906.99 967.50 1904.99 974.50 1904.99 997.50 1906.87 1003.62 1907.12 1010.38 1910.87 1023.62 1911.12 1032.38 1914.87 1043.62 1915.12 1050.38 1918.87 1065.62 1920.12 1076.38 1932.87 1117.62 1932.99 1132.50 1930.37 1135.87 1924.00 1132.49 1914.38 1124.12 1902.62 1119.87 1881.62 1108.87 1864.00 1096.49 1844.62 1081.87 1838.00 1075.49 1832.00 1072.49 1819.50 1059.99 1815.38 1054.12 1782.62 1031.87 1766.00 1015.49 1757.62 1011.87 1748.00 1005.49 1729.00 990.49 1705.62 977.87 1693.38 969.12 1668.38 957.12 1660.62 955.87 1651.38 951.12 1638.62 948.87 1627.38 945.12 1620.62 944.87 1614.50 942.99 1602.62 942.87 1588.50 938.99 1575.50 938.99 1556.50 934.99 1527.50 934.99 1520.50 936.99 1497.50 936.99 1479.37 940.87 1470.62 941.12 1456.62 944.12 1453.37 945.87 1445.62 946.12 1430.37 951.87 1420.62 953.12 1411.37 956.87 1394.52 960.99 1394.62 967.92 1397.50 969.04 1404.80 968.66 1404.48 994.67 1415.99 1007.42 1416.12 1013.42 1422.49 1021.04 1424.87 1025.67 1427.99 1034.54 1427.87 1043.41 1424.99 1045.54 1427.87 1047.67 1427.87 1050.41 1381.50 1051.03 1380.12 1050.41 1380.12 1047.67 1382.88 1046.42 1383.12 1043.67 1386.88 1039.42 1390.00 1027.54 1391.00 1017.54 1390.00 1009.54 1390.00 981.54 1392.00 975.54 1391.38 966.16 1383.62 966.16 1377.37 968.91 1368.62 970.16 1363.37 972.87 1358.62 973.12 1349.37 976.87 1342.62 976.87 1323.62 969.87 1313.38 964.12 1280.62 954.91 1271.38 950.12 1248.62 943.87 1231.38 937.12 1222.62 936.87 1216.50 934.99 1199.50 934.99 1192.50 932.99 1177.50 932.99 1170.50 930.99 1162.62 930.87 1159.38 929.12 1150.62 928.87 1144.50 926.99 1111.50 925.99 1101.62 929.12 1089.37 937.87 1080.99 941.49 1071.37 949.87 1062.62 952.12 1043.43 965.83 1030.62 971.12 1017.37 980.87 1008.00 984.49 991.12 1000.62 984.37 1009.87 976.50 1012.99 965.50 1012.99 958.50 1014.99 942.62 1015.12 933.00 1019.49 905.62 1038.12 887.12 1056.62 880.87 1065.37 873.12 1072.62 863.50 1084.99 849.50 1107.99 839.50 1118.99 833.12 1130.62 832.87 1134.37 826.12 1141.62 816.87 1165.37 812.12 1172.62 802.12 1193.62 801.87 1198.37 796.87 1216.37 792.12 1227.62 791.87 1234.37 789.12 1241.62 786.12 1255.62 785.87 1264.37 783.99 1270.50 783.99 1289.50 780.12 1303.62 779.87 1308.37 776.87 1318.37 771.37 1322.87 766.62 1322.87 755.38 1319.12 738.50 1315.99 724.62 1316.87 713.62 1309.87 705.12 1301.37 698.88 1290.62 687.38 1280.12 669.38 1271.12 643.50 1270.99 632.50 1274.99 603.50 1274.99 594.62 1277.12 537.37 1300.87 523.37 1304.87 512.62 1306.12 499.37 1311.87 485.62 1316.12 463.37 1325.87 458.50 1326.99 443.50 1326.99 437.62 1323.87 432.00 1318.49 423.62 1313.87 388.12 1277.37 386.00 1271.50 387.12 1257.62 393.88 1240.38 401.12 1211.62 411.12 1178.62 420.88 1158.38 422.00 1148.50 419.88 1139.62 411.88 1123.62 401.12 1107.37 393.12 1084.37 391.88 1069.62 388.00 1053.50 388.00 1028.50 386.00 1021.50 386.00 1010.50 389.00 1005.50 399.38 1000.88 417.00 990.50 434.88 973.38 440.88 962.38 444.12 949.62 447.88 942.38 448.12 937.62 451.88 928.38 452.00 916.50 456.00 895.50 456.00 848.50 454.00 841.50 453.88 831.62 450.12 820.37 449.88 813.62 448.00 807.50 447.88 785.62 444.12 778.37 443.88 773.62 435.12 758.37 436.00 745.50 432.88 733.62 423.88 713.62 414.88 699.62 404.38 689.12 389.00 676.49 377.62 668.87 371.00 662.49 355.00 653.49 347.00 646.49 325.62 632.87 315.00 622.49 287.00 607.49 274.50 594.99 268.88 585.62 259.12 578.37 258.25 576.50 260.75 575.50 254.88 568.62 235.50 551.99 229.12 545.37 226.00 539.50 227.88 534.38 228.12 527.62 234.00 509.50 234.00 496.50 232.12 490.37 232.00 484.50 235.88 472.38 236.00 459.50 238.00 452.50 238.00 435.50 234.00 418.50 234.00 367.50 232.00 360.50 232.12 340.62 237.00 334.50 257.38 323.88 270.38 314.88 290.88 294.38 299.88 281.38 326.88 229.38 332.88 210.38 335.12 193.78 346.88 181.53 358.88 163.53 365.88 143.38 366.12 136.62 369.12 124.62 373.88 113.38 376.00 102.50 376.12 94.62 381.62 83.12 384.50 82.00 399.87 82.00 400.26 81.15 418.50 81.15 425.50 79.15 444.50 79.15 455.42 81.15 476.50 81.15 481.00 82.22 479.05 83.53 484.62 85.88 500.50 86.00 507.50 88.00 522.50 88.00 529.50 90.00 603.98 89.15 601.82 94.00 614.50 94.00 621.50 92.00 656.50 92.00 663.50 94.00 702.50 94.00 709.50 96.00 728.50 96.00 735.50 98.00 806.01 98.00 805.29 95.15 834.50 95.15 841.50 97.15 872.50 97.15 881.72 99.15 878.05 102.00 902.53 102.00 902.66 99.15 916.50 99.15 923.50 97.15 953.38 97.15 953.95 100.00 1018.50 100.00 1025.50 102.00 1054.50 102.00 1061.50 100.00 1094.50 100.00 1101.50 102.00 1270.50 102.00 1277.50 104.00 1346.50 104.00 1353.50 106.00 1480.50 106.00 1487.50 104.00 1532.50 104.00 1539.50 106.00 1664.50 106.00 1671.50 108.00 1721.50 108.00 1728.50 110.00 1767.50 110.00 1774.50 108.00 1843.50 108.00 1850.50 106.00 1926.72 106.00 1927.15 103.15 1935.50 103.15 1942.50 101.15 1959.50 101.15 1969.64 103.15 1971.62 105.88 1987.50 106.00 1992.37 108.12 2035.92 139.43 2035.63 136.43 2047.99 143.65 2052.62 148.03 2061.37 152.28 2076.99 164.65 2107.25 181.24 2101.62 182.88 2137.62 192.88 2161.50 193.00 2199.38 183.88 2206.62 179.12 2215.38 175.88 2228.00 168.50 2236.00 161.50 2254.00 149.50 2267.38 138.88 2297.88 108.38 2302.88 101.38 2308.50 88.00 2314.62 83.12 2318.50 82.00 2328.38 81.88 2336.38 79.88 2335.50 79.15 2337.62 78.28 2348.39 77.02 2383.62 67.28 2416.38 63.88 2430.50 60.00 2451.50 60.00 2464.50 64.00 2490.38 61.88 2497.62 59.12 2506.38 57.88 2515.38 53.88 2530.62 40.28 2543.62 34.28 2556.38 32.03 2579.62 25.28 2586.38 25.03 2603.62 19.28 2608.38 19.03 2621.62 15.28 2628.38 15.03 2643.62 9.28 2673.37 3.28 zM2529.86 57.36L2523.07 63.20 2514.16 67.88 2492.07 73.75 2482.84 74.00 2474.57 75.95 2463.88 75.98 2449.15 72.00 2432.84 72.00 2417.03 75.90 2414.95 82.04 2411.88 85.56 2400.82 91.35 2393.46 93.19 2375.26 94.50 2354.88 92.64 2350.06 89.29 2330.07 93.75 2318.87 94.60 2313.68 106.61 2307.08 116.07 2275.86 147.36 2235.07 178.20 2227.55 183.16 2212.79 189.62 2203.16 195.26 2161.50 205.00 2134.40 204.43 2097.38 194.10 2079.82 184.79 2066.19 181.52 2054.45 174.90 2045.18 166.31 2039.05 154.94 2023.15 145.36 1985.17 118.00 1973.02 118.00 1969.51 122.20 1961.30 125.07 1949.37 125.59 1939.99 123.17 1932.02 117.76 1852.85 118.00 1843.50 120.00 1776.85 120.00 1767.50 122.00 1728.50 122.00 1719.15 120.00 1670.88 119.98 1662.15 118.00 1539.50 118.00 1530.15 116.00 1489.85 116.00 1480.50 118.00 1353.50 118.00 1344.15 116.00 1276.88 115.98 1268.15 114.00 1101.50 114.00 1092.15 112.00 1063.85 112.00 1054.50 114.00 1025.50 114.00 1016.15 112.00 951.84 112.00 948.64 116.36 943.90 120.11 938.14 122.71 924.81 124.03 912.81 120.11 906.55 114.00 866.88 113.98 859.04 112.32 844.52 114.95 829.05 114.74 818.66 111.95 815.81 110.00 734.88 109.98 726.15 108.00 707.81 107.88 700.15 106.00 682.51 106.00 676.82 111.58 668.11 117.48 660.15 120.08 652.78 118.88 650.01 116.73 648.12 113.76 647.48 104.00 623.85 104.00 614.50 106.00 584.75 106.00 574.33 108.71 563.85 109.51 555.84 107.80 553.43 103.44 548.15 102.00 528.88 101.98 520.15 100.00 484.88 97.98 472.15 94.00 462.40 94.00 445.06 103.13 436.72 106.22 421.10 108.98 414.98 108.39 407.96 105.71 402.33 101.29 398.93 94.00 389.46 94.00 388.00 97.85 385.43 116.60 380.89 128.07 377.43 146.60 373.70 158.56 374.59 165.87 372.97 175.08 368.62 184.80 362.16 193.78 354.41 200.69 346.00 204.92 344.43 213.60 337.68 234.60 310.17 287.55 300.08 302.07 277.92 324.21 263.55 334.17 244.00 344.47 244.00 358.15 246.00 367.50 246.00 416.15 249.95 434.43 250.00 452.50 248.00 461.85 247.75 474.07 244.00 486.85 245.95 495.43 245.88 511.20 240.00 530.85 239.28 538.06 249.01 548.54 263.40 560.18 270.12 567.83 272.52 573.15 278.21 578.08 283.75 586.57 294.29 597.69 321.84 612.63 334.91 624.48 353.84 636.63 362.01 643.54 377.84 652.63 412.11 679.95 423.40 691.18 434.18 707.47 443.88 728.84 447.75 742.93 447.70 755.31 454.88 768.84 456.00 775.15 459.56 782.88 460.00 805.15 462.00 817.15 465.75 829.93 466.00 839.15 468.00 848.50 467.98 896.13 464.00 918.85 463.43 931.60 452.10 966.62 448.17 975.55 444.08 981.07 424.07 1000.20 398.00 1014.94 399.95 1027.43 400.00 1051.15 403.75 1067.93 404.88 1080.85 412.62 1103.20 422.17 1117.46 430.88 1134.84 434.00 1148.50 432.43 1161.60 422.62 1182.70 405.43 1243.60 398.89 1261.07 398.00 1264.85 398.60 1271.13 432.90 1305.48 441.26 1310.29 446.30 1314.99 456.16 1314.99 508.82 1294.74 520.16 1292.99 533.86 1289.11 591.85 1265.44 602.43 1263.04 630.16 1262.99 642.43 1259.04 670.22 1259.11 677.61 1261.32 698.11 1272.95 708.21 1283.08 714.36 1293.18 727.82 1304.99 740.24 1304.12 766.63 1310.17 771.99 1287.15 772.01 1269.85 776.24 1243.90 779.99 1231.15 780.56 1224.40 785.10 1212.93 790.89 1189.38 801.33 1167.37 805.39 1161.18 815.84 1135.43 821.18 1129.34 829.63 1112.15 839.54 1100.98 853.63 1078.15 863.91 1064.93 878.63 1048.14 898.08 1028.78 909.92 1019.80 926.81 1009.21 940.90 1003.24 956.16 1002.99 963.78 1001.11 977.09 1000.02 987.01 987.51 1001.81 974.21 1011.02 970.53 1024.44 960.83 1037.02 955.53 1056.44 941.83 1065.68 938.99 1073.92 931.80 1083.02 927.53 1095.44 918.83 1110.43 914.04 1145.16 915.01 1179.85 920.99 1193.16 921.01 1201.85 922.99 1217.16 923.01 1225.85 924.99 1233.10 925.24 1292.54 945.29 1312.36 938.38 1324.79 936.39 1352.01 935.55 1366.56 936.84 1377.23 939.83 1394.16 948.99 1417.85 941.44 1427.16 939.99 1442.85 934.44 1450.16 933.99 1467.85 929.44 1476.16 928.99 1496.43 925.04 1518.16 924.99 1527.50 922.99 1558.22 923.11 1577.85 926.99 1590.22 927.11 1605.85 930.99 1616.22 931.11 1630.60 933.56 1654.60 939.56 1664.07 944.10 1673.61 946.32 1699.57 958.84 1721.91 973.48 1735.20 980.22 1755.01 995.54 1763.91 1001.48 1772.84 1005.63 1793.01 1024.54 1823.11 1044.94 1839.29 1062.69 1844.84 1065.63 1871.01 1086.54 1887.90 1098.48 1905.86 1108.01 1918.36 1112.72 1907.44 1075.15 1902.99 1046.84 1899.44 1035.15 1898.99 1026.84 1892.99 997.50 1893.01 973.85 1894.99 965.15 1895.01 949.85 1896.99 941.15 1897.24 929.90 1903.56 896.40 1908.56 876.40 1915.44 856.15 1906.19 834.14 1905.82 828.00 1907.98 822.56 1913.15 816.36 1920.53 810.82 1932.17 805.87 1946.64 804.05 1962.56 805.28 1978.65 809.65 1992.80 816.11 1999.00 820.41 2005.43 819.04 2024.16 819.01 2038.85 822.99 2058.16 822.01 2069.60 824.56 2082.61 829.32 2101.63 838.33 2127.11 854.95 2133.21 861.08 2144.21 876.95 2154.94 896.99 2164.86 896.11 2182.02 888.53 2188.95 884.57 2205.19 870.62 2222.59 853.23 2264.59 805.23 2270.26 795.78 2276.54 788.98 2288.29 772.30 2304.92 757.80 2331.84 742.11 2363.21 728.97 2434.82 694.12 2457.09 686.02 2453.10 668.14 2446.74 649.18 2443.10 634.14 2439.74 627.18 2433.97 608.78 2419.12 583.19 2413.44 563.15 2411.04 548.57 2411.11 526.78 2414.32 517.38 2420.08 510.47 2430.44 502.83 2447.13 496.39 2458.92 485.80 2464.95 482.57 2480.44 470.83 2495.13 464.39 2501.44 459.83 2534.84 442.11 2549.43 437.04 2562.16 437.01 2568.01 438.54 2583.08 423.78 2596.54 414.98 2624.29 379.30 2647.48 357.09 2648.89 351.38 2652.91 343.93 2682.14 314.63 2688.44 309.83 2703.90 304.24 2723.40 303.34 2772.82 280.12 2783.16 277.99 2789.82 274.74 2794.60 273.99 2799.86 268.59 2813.82 262.74 2821.49 261.04 2825.91 256.81 2832.82 253.12 2860.48 245.16 2869.82 239.74 2889.90 235.24 2919.16 230.99 2929.82 225.74 2937.16 224.99 2952.85 219.44 2971.16 216.99 2979.90 214.24 2988.07 213.99 2998.91 198.93 3004.99 192.69 3004.99 184.84 3000.99 157.84 2993.97 139.78 2982.39 117.86 2975.07 108.95 2951.18 92.60 2933.15 86.00 2915.15 82.00 2880.84 82.00 2862.07 85.75 2854.84 86.00 2842.07 89.75 2832.84 90.00 2824.57 91.95 2787.88 91.98 2774.40 89.43 2738.84 76.80 2729.47 67.94 2721.46 65.17 2708.97 56.12 2696.97 43.45 2688.97 38.12 2683.29 32.48 2608.14 49.39 2581.84 53.80 2561.30 56.26 2529.86 57.36 zM2154.04 701.45L2164.51 706.03 2171.59 713.77 2174.37 722.45 2173.90 732.52 2170.96 741.84 2147.36 731.51 2135.62 722.53 2131.85 717.50 2130.08 712.70 2130.40 708.44 2132.80 704.82 2141.86 700.93 2154.04 701.45 zM2351.03 676.18L2387.45 682.42 2389.92 684.34 2390.25 687.46 2388.84 689.48 2386.15 690.27 2349.73 684.04 2347.26 682.11 2346.84 679.34 2348.35 676.98 2351.03 676.18 zM743.96 663.90L747.09 666.03 752.28 678.74 755.97 671.72 759.09 671.43 761.46 673.48 761.73 676.26 758.44 685.07 754.93 688.74 749.42 688.39 744.79 681.77 739.54 667.97 740.70 665.06 743.96 663.90 zM2097.02 665.00L2100.04 665.75 2106.94 670.33 2108.65 672.96 2108.32 675.40 2106.29 677.33 2103.84 677.56 2101.39 676.24 2103.49 682.36 2102.46 684.60 2099.96 685.86 2096.24 684.17 2091.89 674.10 2091.98 667.61 2097.02 665.00 zM659.53 395.37L671.70 402.61 664.36 410.06 651.86 417.00 645.96 418.86 637.00 418.79 634.57 416.83 633.76 412.78 635.55 407.72 639.64 402.44 650.51 395.39 655.45 394.55 659.53 395.37 zM1362.64 400.28L1365.44 401.57 1366.49 404.38 1365.23 407.19 1362.34 408.27 1359.47 406.90 1358.49 404.08 1359.89 401.23 1362.64 400.28 zM435.36 331.51L437.62 332.49 438.94 334.97 439.88 364.52 472.11 360.52 475.64 363.13 474.90 367.15 472.39 368.48 439.88 372.58 436.77 375.25 433.45 374.30 432.10 371.43 430.98 335.26 432.37 332.45 435.36 331.51 zM2559.77 353.63L2562.64 355.00 2563.62 357.83 2562.29 360.61 2559.47 361.63 2556.67 360.33 2555.62 357.53 2556.95 354.65 2559.77 353.63 zM429.92 304.06L432.72 305.35 433.77 308.25 432.44 311.04 429.62 312.05 426.82 310.76 425.77 307.86 427.10 305.07 429.92 304.06 zM2626.60 303.06L2629.47 304.43 2630.45 307.26 2629.12 310.04 2626.30 311.06 2623.50 309.76 2622.45 306.96 2623.78 304.08 2626.60 303.06 zM413.49 274.61L416.30 276.00 430.94 296.92 431.31 300.03 429.32 302.45 426.54 302.80 424.44 301.52 409.80 280.60 409.87 276.51 413.49 274.61 zM2611.79 276.38L2614.10 277.26 2624.08 286.80 2624.74 289.86 2622.98 292.46 2618.59 292.43 2608.32 282.68 2608.00 278.60 2611.79 276.38 zM2665.58 253.81L2668.45 255.18 2669.43 258.01 2668.10 260.79 2665.28 261.81 2662.48 260.51 2661.43 257.71 2662.76 254.83 2665.58 253.81 zM2612.48 220.54L2615.72 222.50 2615.71 226.59 2607.19 236.19 2604.88 237.04 2602.50 236.37 2600.78 233.75 2601.28 231.00 2609.54 221.62 2612.48 220.54 zM645.43 208.03L648.16 209.26 649.28 212.13 648.02 214.95 645.13 216.03 642.33 214.74 641.28 211.93 642.54 209.12 645.43 208.03 zM669.07 198.89L671.87 200.18 672.91 203.08 671.66 205.80 668.77 206.88 665.97 205.59 664.92 202.69 666.25 199.90 669.07 198.89 zM2284.48 169.73L2287.22 170.95 2288.34 173.83 2287.08 176.64 2284.19 177.72 2281.32 176.36 2280.34 173.53 2281.74 170.68 2284.48 169.73 zM2347.43 154.62L2350.23 155.92 2351.28 158.82 2349.95 161.60 2347.13 162.62 2344.26 161.25 2343.28 158.43 2344.61 155.64 2347.43 154.62 z" style="stroke-width:1;" fill="#0000ff" stroke-linecap="square" stroke-linejoin="bevel" id="mergeda-0-4" class="merged qa layer-0 level-4" fill-rule="evenodd" data-area="111511.71" /><path d="M414.07 1006.20L427.92 997.21 444.08 981.07 449.68 972.61 454.13 960.52 481.03 943.31 510.67 930.76 525.80 926.78 541.36 924.29 558.41 923.30 571.29 924.11 583.40 927.06 596.48 932.02 608.08 938.06 618.92 945.45 634.22 959.08 681.10 1008.05 697.36 1021.91 713.60 1033.25 743.91 1048.74 814.37 1076.12 829.22 1083.82 840.75 1091.74 843.39 1094.19 839.54 1100.98 829.63 1112.15 821.18 1129.34 815.84 1135.43 805.39 1161.18 801.33 1167.37 790.89 1189.38 785.10 1212.93 780.56 1224.40 779.99 1231.15 776.24 1243.90 772.01 1269.85 771.99 1287.15 766.63 1310.17 740.24 1304.12 727.82 1304.99 714.36 1293.18 708.21 1283.08 697.26 1272.29 677.61 1261.32 668.50 1258.99 642.43 1259.04 630.16 1262.99 602.43 1263.04 591.85 1265.44 533.86 1289.11 520.16 1292.99 508.82 1294.74 456.16 1314.99 446.30 1314.99 441.26 1310.29 431.77 1304.59 400.36 1273.18 398.00 1269.15 398.89 1261.07 405.43 1243.60 422.62 1182.70 432.10 1162.62 433.98 1154.13 433.75 1145.93 430.88 1134.84 422.17 1117.46 412.62 1103.20 408.65 1093.40 404.00 1077.15 403.75 1067.93 400.00 1051.15 400.00 1029.33 414.07 1006.20 z" style="stroke-width:1;" fill="#00ffff" stroke-linecap="square" stroke-linejoin="bevel" id="mergeda-0-3" class="merged qa layer-0 level-3" data-area="118180.69" /><path d="M1020.22 747.69L1047.42 752.28 1073.19 760.89 1086.33 766.90 1098.63 773.69 1118.89 788.58 1134.92 806.95 1146.12 828.44 1150.58 848.92 1149.36 871.56 1146.61 883.59 1136.92 908.25 1133.17 914.99 1110.43 914.04 1095.44 918.83 1083.02 927.53 1073.92 931.80 1065.68 938.99 1056.44 941.83 1037.02 955.53 1024.44 960.83 1011.02 970.53 1003.82 973.12 997.92 976.80 981.91 992.93 977.09 1000.02 963.78 1001.11 956.16 1002.99 939.85 1003.44 927.44 1008.83 910.81 1019.21 897.14 1029.63 877.91 1048.93 855.26 1075.78 843.39 1094.19 829.22 1083.82 814.37 1076.12 743.91 1048.74 713.60 1033.25 697.36 1021.91 681.10 1008.05 634.22 959.08 618.92 945.45 608.08 938.06 596.48 932.02 583.40 927.06 571.29 924.11 558.41 923.30 535.20 925.28 551.46 912.43 591.26 884.23 640.03 852.56 679.98 829.38 723.86 807.76 765.38 789.85 812.04 772.47 851.88 760.37 894.06 751.05 930.88 746.28 975.09 745.22 1020.22 747.69 zM1985.98 701.17L2000.40 706.07 2012.58 712.80 2023.66 721.93 2032.89 732.85 2039.48 744.58 2042.83 755.02 2044.11 765.60 2043.34 776.75 2040.50 788.65 2030.58 811.46 2025.58 819.17 2005.43 819.04 1999.00 820.41 1992.80 816.11 1978.65 809.65 1962.56 805.28 1946.64 804.05 1932.17 805.87 1920.53 810.82 1913.15 816.36 1907.98 822.56 1905.82 828.00 1906.19 834.14 1908.24 840.08 1899.66 830.24 1891.40 817.50 1885.44 804.49 1881.68 791.16 1880.09 777.08 1880.70 763.28 1883.41 750.89 1888.36 739.48 1895.67 728.68 1904.23 719.88 1915.31 712.08 1928.20 705.70 1941.55 701.43 1956.71 698.93 1970.68 698.58 1985.98 701.17 zM2017.89 831.03L2011.61 830.99 2017.89 831.03 zM570.24 471.70L586.14 477.58 602.91 488.47 615.87 501.91 624.29 516.98 629.63 536.01 632.14 559.00 630.46 579.59 625.08 600.18 615.31 623.18 603.45 642.98 588.63 661.76 575.46 674.80 560.08 686.89 541.83 698.54 522.56 708.47 471.40 728.39 446.05 736.28 439.88 718.84 434.18 707.47 424.21 692.08 412.11 679.95 400.11 669.95 388.01 661.54 377.84 652.63 362.01 643.54 350.02 634.11 353.23 625.54 364.68 601.52 378.17 579.00 395.73 555.07 415.49 532.78 435.90 513.77 455.78 499.21 478.71 486.69 503.36 477.24 528.43 471.37 540.62 469.94 552.03 469.59 570.24 471.70 zM2427.87 519.84L2427.87 519.84 zM2715.51 60.98L2724.39 66.67 2729.47 67.94 2734.97 74.12 2742.39 78.67 2749.17 80.00 2770.40 88.43 2786.81 91.88 2824.57 91.95 2832.84 90.00 2842.07 89.75 2854.84 86.00 2862.07 85.75 2880.84 82.00 2915.15 82.00 2935.29 86.62 2951.18 92.60 2975.07 108.95 2982.39 117.86 2989.97 131.78 3000.99 157.84 3004.99 184.84 3004.99 192.69 2998.91 198.93 2988.07 213.99 2979.90 214.24 2971.16 216.99 2952.85 219.44 2937.16 224.99 2929.82 225.74 2919.16 230.99 2889.90 235.24 2869.82 239.74 2860.48 245.16 2832.82 253.12 2825.91 256.81 2821.49 261.04 2813.82 262.74 2799.86 268.59 2794.60 273.99 2789.82 274.74 2783.16 277.99 2772.82 280.12 2723.40 303.34 2703.90 304.24 2688.44 309.83 2682.14 314.63 2652.91 343.93 2648.89 351.38 2647.48 357.09 2624.29 379.30 2596.54 414.98 2583.08 423.78 2568.01 438.54 2562.16 437.01 2549.43 437.04 2534.84 442.11 2501.44 459.83 2495.13 464.39 2480.44 470.83 2464.95 482.57 2458.92 485.80 2447.13 496.39 2433.84 501.11 2424.92 506.80 2422.98 493.83 2421.31 465.40 2421.88 437.67 2424.74 410.38 2429.86 383.47 2437.86 354.82 2449.18 323.66 2460.08 299.16 2474.90 271.57 2490.00 247.74 2508.55 221.60 2548.59 173.03 2569.25 151.73 2590.77 131.69 2611.88 114.17 2633.59 98.25 2653.98 85.41 2674.35 74.66 2691.48 67.47 2710.11 61.57 2715.51 60.98 zM2480.89 485.03L2479.99 485.49 2480.89 485.03 zM2483.89 483.03L2482.99 483.49 2483.89 483.03 zM2486.89 481.03L2485.99 481.49 2486.89 481.03 zM2559.57 353.63L2556.67 354.93 2555.62 357.73 2556.88 360.54 2559.67 361.63 2562.64 360.26 2563.62 357.43 2562.29 354.65 2559.57 353.63 zM2662.49 351.46L2659.99 356.98 2662.49 351.46 zM2626.40 303.06L2623.50 304.36 2622.45 307.16 2623.71 309.97 2626.50 311.06 2629.47 309.69 2630.45 306.86 2629.12 304.08 2626.40 303.06 zM2611.08 276.41L2608.00 278.60 2608.32 282.68 2618.59 292.43 2620.96 293.10 2623.27 292.25 2624.74 289.86 2624.08 286.80 2614.10 277.26 2611.08 276.41 zM3016.99 195.97L3013.87 201.84 3008.12 207.09 2997.49 222.47 2992.37 226.34 2982.50 226.46 2974.37 229.34 2966.50 229.46 2955.62 231.59 2940.37 237.34 2933.62 237.59 2922.37 243.34 2891.62 247.59 2878.37 251.34 2873.62 251.59 2864.37 257.34 2837.62 264.59 2832.99 266.96 2825.37 273.34 2817.62 274.59 2805.24 279.50 2817.62 274.12 2825.37 272.87 2832.99 266.50 2837.62 264.12 2864.37 256.87 2873.62 251.12 2878.37 250.87 2891.62 247.12 2922.37 242.87 2933.62 237.12 2940.37 236.87 2955.62 231.12 2966.50 228.99 2974.37 228.87 2982.50 225.99 2992.37 225.87 2997.49 222.00 2999.49 218.00 3008.12 206.62 3013.87 201.37 3016.99 195.97 zM2665.38 253.81L2662.48 255.11 2661.43 257.91 2662.69 260.73 2665.48 261.81 2668.45 260.44 2669.43 257.61 2668.10 254.83 2665.38 253.81 zM2611.76 220.57L2609.54 221.62 2601.28 231.00 2600.86 234.10 2602.81 236.56 2607.19 236.19 2615.71 226.59 2615.72 222.50 2611.76 220.57 zM2573.25 122.09L2575.51 123.07 2576.77 125.19 2575.19 129.33 2512.55 173.93 2509.78 174.41 2507.39 172.96 2506.56 169.94 2508.20 167.22 2570.54 122.81 2573.25 122.09 zM2585.50 98.49L2588.30 99.78 2589.35 102.59 2588.09 105.40 2585.20 106.49 2582.33 105.12 2581.35 102.29 2582.68 99.51 2585.50 98.49 z" style="stroke-width:1;" fill="#00ff00" stroke-linecap="square" stroke-linejoin="bevel" id="mergeda-0-2" class="merged qa layer-0 level-2" fill-rule="evenodd" data-area="301859.09" /><path d="M2183.70 355.42L2185.97 356.37 2187.33 358.82 2186.92 361.25 2184.84 363.13 2133.30 377.70 2130.54 377.23 2128.77 375.05 2129.01 371.93 2131.09 370.05 2183.70 355.42 zM2198.78 324.71L2201.59 326.00 2202.64 328.81 2201.38 331.62 2198.49 332.70 2195.62 331.33 2194.64 328.51 2196.04 325.66 2198.78 324.71 zM2353.75 187.12L2357.28 189.74 2356.24 194.05 2296.23 249.75 2293.55 250.58 2290.99 249.46 2289.78 246.56 2291.05 243.66 2350.80 188.19 2353.75 187.12 z" style="stroke-width:1;" fill="#ffff00" stroke-linecap="square" stroke-linejoin="bevel" id="mergeda-0-1" class="merged qa layer-0 level-1" fill-rule="evenodd" data-area="1201.00" /><path d="M2683.67 32.90L2688.97 38.12 2696.97 43.45 2708.18 55.40 2715.05 60.52 2691.48 67.47 2674.35 74.66 2653.98 85.41 2633.59 98.25 2611.88 114.17 2590.77 131.69 2569.25 151.73 2548.59 173.03 2508.55 221.60 2490.00 247.74 2474.90 271.57 2460.08 299.16 2449.18 323.66 2437.86 354.82 2429.86 383.47 2424.74 410.38 2421.88 437.67 2421.31 465.40 2422.98 493.83 2424.98 506.76 2416.29 514.30 2412.89 520.38 2411.01 527.85 2411.04 548.57 2413.44 563.15 2418.74 582.18 2434.34 609.60 2439.74 627.18 2443.10 634.14 2446.74 649.18 2453.10 668.14 2457.09 686.02 2434.82 694.12 2363.21 728.97 2331.84 742.11 2304.92 757.80 2288.29 772.30 2276.54 788.98 2270.26 795.78 2265.48 804.09 2256.91 812.93 2244.54 828.98 2205.19 870.62 2188.95 884.57 2171.21 893.97 2161.16 896.99 2154.94 896.99 2144.80 877.84 2132.40 860.18 2122.84 851.63 2109.57 842.84 2082.61 829.32 2069.60 824.56 2058.16 822.01 2038.85 822.99 2025.58 819.17 2036.28 799.89 2040.50 788.65 2043.34 776.75 2044.11 765.60 2042.83 755.02 2039.48 744.58 2032.89 732.85 2023.66 721.93 2012.58 712.80 2000.40 706.07 1985.98 701.17 1970.68 698.58 1956.71 698.93 1941.55 701.43 1928.20 705.70 1915.31 712.08 1904.23 719.88 1895.67 728.68 1888.36 739.48 1883.41 750.89 1880.70 763.28 1880.09 777.08 1881.68 791.16 1885.44 804.49 1891.40 817.50 1899.66 830.24 1908.25 840.09 1915.44 856.15 1908.56 876.40 1903.56 896.40 1897.24 929.90 1896.99 941.15 1895.01 949.85 1894.99 965.15 1893.01 973.85 1893.04 998.57 1898.99 1026.84 1899.44 1035.15 1902.99 1046.84 1907.44 1075.15 1918.36 1112.72 1905.86 1108.01 1887.90 1098.48 1871.01 1086.54 1844.84 1065.63 1839.29 1062.69 1823.11 1044.94 1793.01 1024.54 1772.84 1005.63 1763.91 1001.48 1755.01 995.54 1735.84 980.63 1721.91 973.48 1698.63 958.33 1672.62 945.89 1664.07 944.10 1654.60 939.56 1629.10 933.24 1615.16 931.01 1605.85 930.99 1590.22 927.11 1577.85 926.99 1557.16 923.01 1527.50 922.99 1518.16 924.99 1496.43 925.04 1476.16 928.99 1467.85 929.44 1450.16 933.99 1442.85 934.44 1427.16 939.99 1417.85 941.44 1394.16 948.99 1377.23 939.83 1366.56 936.84 1352.01 935.55 1324.79 936.39 1312.36 938.38 1292.54 945.29 1233.10 925.24 1225.85 924.99 1217.16 923.01 1201.85 922.99 1193.16 921.01 1179.85 920.99 1146.22 915.11 1133.17 914.99 1142.42 895.93 1146.61 883.59 1150.68 860.02 1149.09 838.57 1146.12 828.44 1134.92 806.95 1118.89 788.58 1098.63 773.69 1086.33 766.90 1073.19 760.89 1047.42 752.28 1020.22 747.69 975.09 745.22 930.88 746.28 894.06 751.05 851.88 760.37 812.04 772.47 765.38 789.85 723.86 807.76 679.98 829.38 640.03 852.56 591.26 884.23 551.46 912.43 535.20 925.28 510.67 930.76 495.74 936.28 481.03 943.31 454.13 960.52 463.43 931.60 464.00 918.85 467.88 897.20 468.00 848.50 466.00 839.15 465.75 829.93 462.00 817.15 460.00 805.15 459.56 782.88 456.00 775.15 454.88 768.84 447.70 755.31 447.95 744.43 446.05 736.28 499.68 718.11 522.56 708.47 541.83 698.54 560.08 686.89 575.46 674.80 588.63 661.76 603.45 642.98 615.31 623.18 625.08 600.18 630.46 579.59 632.14 559.00 629.63 536.01 624.29 516.98 620.55 509.13 609.90 494.89 602.91 488.47 586.14 477.58 570.24 471.70 552.03 469.59 528.43 471.37 503.36 477.24 478.71 486.69 455.78 499.21 435.90 513.77 415.49 532.78 395.73 555.07 378.17 579.00 364.68 601.52 350.02 634.11 334.91 624.48 321.84 612.63 294.29 597.69 283.75 586.57 278.21 578.08 272.52 573.15 270.12 567.83 263.40 560.18 249.01 548.54 239.28 538.06 240.00 530.85 245.88 511.20 245.95 495.43 244.00 486.85 247.75 474.07 248.00 461.85 250.00 452.50 249.95 434.43 246.00 416.15 246.00 367.50 244.00 358.15 244.00 344.47 263.55 334.17 277.92 324.21 300.08 302.07 310.17 287.55 337.68 234.60 344.43 213.60 346.00 204.92 354.41 200.69 362.16 193.78 368.62 184.80 372.97 175.08 374.59 165.87 373.70 158.56 377.43 146.60 380.89 128.07 385.43 116.60 388.00 97.85 389.46 94.00 398.93 94.00 402.33 101.29 407.96 105.71 414.98 108.39 421.10 108.98 436.72 106.22 445.06 103.13 462.40 94.00 472.15 94.00 484.88 97.98 520.15 100.00 528.88 101.98 548.15 102.00 553.43 103.44 555.84 107.80 563.85 109.51 574.33 108.71 584.75 106.00 614.50 106.00 623.85 104.00 647.48 104.00 648.12 113.76 650.01 116.73 652.78 118.88 660.15 120.08 668.11 117.48 676.82 111.58 682.51 106.00 700.15 106.00 707.81 107.88 726.15 108.00 734.88 109.98 815.81 110.00 818.66 111.95 829.05 114.74 844.52 114.95 859.04 112.32 866.88 113.98 906.55 114.00 912.81 120.11 924.81 124.03 938.14 122.71 943.90 120.11 948.64 116.36 951.84 112.00 1016.15 112.00 1025.50 114.00 1055.57 113.95 1063.85 112.00 1092.15 112.00 1101.50 114.00 1268.15 114.00 1276.88 115.98 1344.15 116.00 1353.50 118.00 1480.50 118.00 1489.85 116.00 1530.15 116.00 1539.50 118.00 1662.15 118.00 1670.88 119.98 1719.15 120.00 1728.50 122.00 1767.50 122.00 1776.85 120.00 1843.50 120.00 1852.85 118.00 1932.02 117.76 1939.99 123.17 1949.37 125.59 1961.30 125.07 1969.51 122.20 1973.02 118.00 1985.17 118.00 2023.15 145.36 2039.05 154.94 2045.18 166.31 2054.45 174.90 2066.19 181.52 2079.82 184.79 2097.38 194.10 2134.40 204.43 2161.50 205.00 2203.16 195.26 2212.79 189.62 2227.55 183.16 2235.07 178.20 2275.86 147.36 2307.08 116.07 2313.68 106.61 2318.87 94.60 2330.07 93.75 2350.06 89.29 2354.88 92.64 2375.26 94.50 2393.46 93.19 2400.82 91.35 2411.88 85.56 2414.95 82.04 2417.03 75.90 2432.84 72.00 2449.15 72.00 2463.88 75.98 2474.57 75.95 2482.84 74.00 2492.07 73.75 2514.16 67.88 2523.07 63.20 2530.57 56.63 2561.30 56.26 2581.84 53.80 2608.14 49.39 2683.67 32.90 zM907.00 1037.49L909.62 1035.12 907.00 1037.49 zM400.00 1029.33L398.00 1014.94 413.39 1006.65 400.00 1029.33 zM1043.99 965.49L1045.62 964.12 1043.99 965.49 zM2141.86 700.93L2132.80 704.82 2130.40 708.44 2130.08 712.70 2131.85 717.50 2135.62 722.53 2147.36 731.51 2170.96 741.84 2173.90 732.52 2174.37 722.45 2171.59 713.77 2168.53 709.54 2159.61 703.29 2147.87 700.61 2141.86 700.93 zM2350.32 676.19L2347.82 677.46 2346.76 680.05 2347.66 682.70 2349.73 684.04 2386.15 690.27 2388.84 689.48 2390.25 687.46 2389.92 684.34 2387.45 682.42 2350.32 676.19 zM743.25 663.89L740.46 665.33 739.56 668.33 744.79 681.77 749.42 688.39 754.93 688.74 758.44 685.07 761.73 676.26 761.46 673.48 759.09 671.43 755.97 671.72 752.28 678.74 746.91 665.72 743.25 663.89 zM2096.31 664.98L2091.82 667.92 2091.92 674.28 2096.24 684.17 2100.31 685.81 2102.46 684.60 2103.49 682.36 2101.39 676.24 2103.84 677.56 2106.29 677.33 2108.32 675.40 2108.65 672.96 2107.23 670.54 2100.45 665.99 2096.31 664.98 zM2424.87 523.37L2425.49 521.99 2424.87 523.37 zM2428.62 519.12L2429.99 518.49 2428.62 519.12 zM650.51 395.39L639.64 402.44 635.55 407.72 633.76 412.78 634.57 416.83 637.00 418.79 640.87 419.48 651.86 417.00 664.36 410.06 671.70 402.61 659.53 395.37 655.45 394.55 650.51 395.39 zM1362.44 400.28L1359.47 401.65 1358.49 404.47 1359.82 407.26 1362.54 408.27 1365.44 406.98 1366.49 404.18 1365.23 401.36 1362.44 400.28 zM2182.98 355.43L2131.09 370.05 2129.01 371.93 2128.77 375.05 2130.54 377.23 2133.30 377.70 2184.84 363.13 2186.92 361.25 2187.26 358.47 2185.69 356.15 2182.98 355.43 zM434.64 331.50L432.11 332.70 430.98 335.26 432.10 371.43 433.45 374.30 436.77 375.25 439.88 372.58 472.39 368.48 474.90 367.15 475.64 363.13 472.11 360.52 439.88 364.52 438.94 334.97 437.62 332.49 434.64 331.50 zM2198.59 324.71L2195.62 326.08 2194.64 328.90 2195.97 331.69 2198.69 332.70 2201.59 331.41 2202.64 328.61 2201.38 325.79 2198.59 324.71 zM429.72 304.06L426.89 305.28 425.77 308.15 427.03 310.97 429.82 312.06 432.65 310.83 433.77 308.06 432.58 305.21 429.72 304.06 zM412.78 274.64L409.69 276.82 409.80 280.60 424.44 301.52 426.89 302.87 429.63 302.27 431.39 299.68 430.94 296.92 416.30 276.00 412.78 274.64 zM2353.03 187.15L2291.05 243.66 2289.78 246.56 2290.99 249.46 2293.55 250.58 2296.23 249.75 2356.24 194.05 2357.45 191.85 2357.14 189.41 2355.45 187.61 2353.03 187.15 zM645.23 208.03L642.40 209.26 641.28 212.13 642.47 214.88 645.33 216.03 648.16 214.81 649.28 211.93 648.02 209.12 645.23 208.03 zM668.87 198.88L666.04 200.11 664.92 202.98 666.18 205.80 668.97 206.88 671.80 205.66 672.92 202.88 671.73 200.04 668.87 198.88 zM2284.29 169.73L2281.32 171.10 2280.34 173.93 2281.67 176.71 2284.39 177.73 2287.22 176.50 2288.34 173.63 2287.08 170.81 2284.29 169.73 zM2572.54 122.08L2508.20 167.22 2506.56 169.94 2507.39 172.96 2509.78 174.41 2512.55 173.93 2575.19 129.33 2576.67 127.31 2576.55 124.51 2574.93 122.64 2572.54 122.08 zM2347.23 154.62L2344.26 155.99 2343.28 158.82 2344.61 161.60 2347.33 162.62 2350.23 161.33 2351.28 158.43 2349.95 155.64 2347.23 154.62 zM2585.30 98.49L2582.33 99.86 2581.35 102.69 2582.68 105.47 2585.40 106.49 2588.30 105.19 2589.35 102.39 2588.09 99.57 2585.30 98.49 zM523.37 88.12L524.21 88.62 522.50 88.00 523.37 88.12 zM524.62 1304.12L522.50 1304.99 524.62 1304.12 zM513.50 1305.99L511.37 1306.87 513.50 1305.99 zM516.62 1305.12L517.50 1304.99 514.50 1305.99 516.62 1305.12 zM1807.38 1048.12L1810.00 1050.49 1807.38 1048.12 zM1805.00 1046.49L1806.62 1047.87 1805.00 1046.49 zM1798.00 1042.49L1799.62 1043.87 1798.00 1042.49 zM1794.00 1039.49L1796.62 1041.87 1794.00 1039.49 zM1791.00 1037.49L1792.62 1038.87 1791.00 1037.49 zM1788.00 1035.49L1789.62 1036.87 1788.00 1035.49 zM913.00 1032.49L910.37 1034.87 913.00 1032.49 zM1784.00 1032.49L1786.62 1034.87 1784.00 1032.49 zM917.00 1029.49L914.37 1031.87 917.00 1029.49 zM924.00 1025.49L922.37 1026.87 924.00 1025.49 zM927.00 1023.49L925.37 1024.87 927.00 1023.49 zM1026.99 973.49L1024.37 975.87 1026.99 973.49 zM1029.99 971.49L1028.37 972.87 1029.99 971.49 zM2433.37 515.87L2431.99 516.49 2433.37 515.87 zM2437.37 512.87L2440.37 511.87 2435.99 513.49 2437.37 512.87 z" style="stroke-width:1;" fill="#ff0000" stroke-linecap="square" stroke-linejoin="bevel" id="mergeda-0-0" class="merged qa layer-0 level-0" fill-rule="evenodd" data-area="1519038.50" /><defs><pattern id="pattern-fdiag-ffffff7f"  x="0" y="0" width="10" height="10" patternUnits="userSpaceOnUse" ><g style="fill:none;stroke-width:1;" ><line x1="0" y1="0" x2="10" y2="10"  stroke="#ffffff7f"  /></g></pattern></defs><path d="M2668.37 5.12L2677.37 9.12 2696.62 28.88 2703.99 33.50 2716.62 46.88 2723.99 52.50 2729.62 55.88 2735.99 57.50 2742.62 64.88 2747.62 67.88 2752.37 68.12 2773.62 76.88 2788.50 80.00 2823.50 80.00 2830.50 78.00 2840.38 77.88 2851.62 74.12 2860.38 73.88 2878.50 70.00 2917.50 70.00 2931.62 73.88 2936.37 74.12 2957.37 82.12 2976.99 96.50 2982.99 99.50 2992.49 111.00 2996.12 119.38 2999.87 124.62 3012.87 154.62 3014.99 165.50 3014.99 175.50 3016.99 182.50 3016.99 195.50 3015.87 198.37 3005.49 210.00 2997.49 222.00 2992.37 225.87 2982.50 225.99 2974.37 228.87 2966.50 228.99 2955.62 231.12 2940.37 236.87 2933.62 237.12 2922.37 242.87 2891.62 247.12 2878.37 250.87 2873.62 251.12 2864.37 256.87 2837.62 264.12 2832.99 266.50 2825.37 272.87 2817.62 274.12 2805.62 279.12 2808.74 280.50 2798.37 285.87 2793.62 286.12 2786.37 289.87 2777.62 291.12 2727.37 314.87 2723.50 315.99 2705.62 316.12 2694.62 320.12 2662.12 351.62 2660.12 355.62 2659.87 359.37 2655.87 366.37 2649.99 370.49 2643.87 378.37 2633.49 386.99 2615.49 408.99 2606.49 421.99 2601.99 426.49 2590.62 433.12 2573.99 449.49 2571.37 450.87 2566.50 450.99 2561.50 448.99 2550.50 448.99 2539.62 453.12 2507.62 470.12 2501.37 474.87 2486.62 481.12 2471.99 492.49 2465.99 495.49 2453.99 506.49 2438.62 512.12 2427.99 519.49 2425.12 522.62 2422.99 528.50 2422.99 547.50 2424.87 553.62 2425.12 560.38 2429.87 573.62 2430.12 578.38 2445.87 605.62 2451.12 623.38 2454.87 630.62 2458.12 645.38 2464.87 664.62 2468.87 680.62 2470.74 690.50 2469.49 692.99 2463.37 696.87 2439.62 705.12 2391.37 728.87 2384.62 731.12 2366.37 740.87 2336.62 753.12 2311.99 767.49 2297.49 779.99 2286.49 795.99 2280.12 802.62 2273.87 813.37 2266.12 820.62 2251.87 839.37 2238.12 852.62 2231.87 861.37 2213.37 879.87 2204.62 886.12 2195.37 894.87 2174.37 905.87 2168.37 907.87 2163.50 908.99 2149.62 908.87 2145.50 905.99 2134.50 883.99 2126.50 871.99 2119.38 864.12 2104.00 853.49 2090.38 846.12 2072.38 838.12 2058.38 834.12 2036.50 834.99 2023.50 830.99 2006.50 830.99 2000.37 832.87 1991.62 833.12 1976.50 837.99 1971.62 836.87 1964.38 833.12 1957.50 831.99 1948.62 832.12 1942.62 836.12 1938.12 841.62 1934.49 849.99 1927.12 859.62 1920.12 879.62 1915.12 899.62 1914.87 906.37 1909.12 931.62 1908.99 943.50 1906.99 950.50 1906.99 967.50 1904.99 974.50 1904.99 997.50 1906.87 1003.62 1907.12 1010.38 1910.87 1023.62 1911.12 1032.38 1914.87 1043.62 1915.12 1050.38 1918.87 1065.62 1920.12 1076.38 1932.87 1117.62 1932.99 1132.50 1930.37 1135.87 1924.00 1132.49 1914.38 1124.12 1902.62 1119.87 1881.62 1108.87 1864.00 1096.49 1844.62 1081.87 1838.00 1075.49 1832.00 1072.49 1819.50 1059.99 1815.38 1054.12 1782.62 1031.87 1766.00 1015.49 1757.62 1011.87 1748.00 1005.49 1729.00 990.49 1705.62 977.87 1693.38 969.12 1668.38 957.12 1660.62 955.87 1651.38 951.12 1638.62 948.87 1627.38 945.12 1620.62 944.87 1614.50 942.99 1602.62 942.87 1588.50 938.99 1574.62 938.87 1556.50 934.99 1527.50 934.99 1520.50 936.99 1497.50 936.99 1479.37 940.87 1471.50 940.99 1460.62 943.12 1453.37 945.87 1445.62 946.12 1430.37 951.87 1424.62 952.12 1415.72 955.09 1404.77 951.77 1392.57 952.32 1381.13 956.88 1368.51 965.17 1363.70 970.12 1363.37 972.87 1358.62 973.12 1349.37 976.87 1343.50 976.99 1323.62 969.87 1313.38 964.12 1280.62 954.87 1271.38 950.12 1248.62 943.87 1231.38 937.12 1222.62 936.87 1216.50 934.99 1199.50 934.99 1192.50 932.99 1177.50 932.99 1170.50 930.99 1162.62 930.87 1159.38 929.12 1150.62 928.87 1144.50 926.99 1111.50 925.99 1101.62 929.12 1089.37 937.87 1080.99 941.49 1071.37 949.87 1062.62 952.12 1043.37 965.87 1030.62 971.12 1017.37 980.87 1008.00 984.49 991.12 1000.62 984.37 1009.87 976.50 1012.99 965.50 1012.99 958.50 1014.99 942.62 1015.12 933.00 1019.49 905.62 1038.12 887.12 1056.62 880.87 1065.37 873.12 1072.62 863.50 1084.99 849.50 1107.99 839.50 1118.99 833.12 1130.62 832.87 1134.37 826.12 1141.62 816.87 1165.37 812.12 1172.62 802.12 1193.62 801.87 1198.37 796.87 1216.37 792.12 1227.62 791.87 1234.37 789.12 1241.62 786.12 1255.62 785.87 1264.37 783.99 1270.50 783.99 1289.50 780.12 1303.62 779.87 1308.37 776.87 1318.37 771.37 1322.87 766.62 1322.87 755.38 1319.12 738.50 1315.99 724.62 1316.87 713.62 1309.87 705.12 1301.37 698.88 1290.62 687.38 1280.12 669.38 1271.12 643.50 1270.99 632.50 1274.99 603.50 1274.99 594.62 1277.12 537.37 1300.87 523.37 1304.87 512.62 1306.12 499.37 1311.87 485.62 1316.12 463.37 1325.87 458.50 1326.99 443.50 1326.99 437.62 1323.87 432.00 1318.49 423.62 1313.87 388.12 1277.37 386.00 1271.50 387.12 1257.62 393.88 1240.38 401.12 1211.62 411.12 1178.62 420.88 1158.38 422.00 1148.50 419.88 1139.62 411.88 1123.62 401.12 1107.37 393.12 1084.37 391.88 1069.62 388.00 1053.50 388.00 1028.50 386.00 1021.50 386.00 1010.50 389.00 1005.50 399.38 1000.88 417.00 990.50 434.88 973.38 440.88 962.38 444.12 949.62 447.88 942.38 448.12 937.62 451.88 928.38 452.00 916.50 456.00 895.50 456.00 848.50 454.00 841.50 453.88 831.62 450.12 820.37 449.88 813.62 448.00 807.50 447.88 785.62 444.12 778.37 443.88 773.62 435.12 758.37 436.00 745.50 432.88 733.62 423.88 713.62 414.88 699.62 404.38 689.12 389.00 676.49 377.62 668.87 371.00 662.49 355.00 653.49 347.00 646.49 325.62 632.87 315.00 622.49 287.00 607.49 274.50 594.99 268.88 585.62 259.12 578.37 258.25 576.50 260.75 575.50 254.88 568.62 235.50 551.99 229.12 545.37 226.00 539.50 227.88 534.38 228.12 527.62 234.00 509.50 234.00 496.50 232.12 490.37 232.00 484.50 235.88 472.38 236.00 459.50 238.00 452.50 238.00 435.50 234.00 418.50 234.00 367.50 232.00 360.50 232.12 340.62 237.00 334.50 257.38 323.88 270.38 314.88 290.88 294.38 299.88 281.38 326.88 229.38 333.88 206.38 334.00 198.50 335.12 195.62 346.88 183.38 355.50 172.00 358.88 165.38 364.88 147.38 369.12 124.62 373.88 113.38 376.00 102.50 376.12 94.62 381.62 83.12 384.50 82.00 422.50 82.00 429.50 80.00 450.50 80.00 457.50 82.00 475.37 82.12 485.50 86.00 500.50 86.00 507.50 88.00 522.50 88.00 529.50 90.00 550.50 90.00 556.62 91.88 570.50 92.00 577.50 94.00 614.50 94.00 621.50 92.00 656.50 92.00 663.50 94.00 702.50 94.00 709.50 96.00 728.50 96.00 735.50 98.00 840.50 98.00 846.62 99.88 860.50 100.00 867.50 102.00 924.50 102.00 931.50 100.00 1018.50 100.00 1025.50 102.00 1054.50 102.00 1061.50 100.00 1094.50 100.00 1101.50 102.00 1270.50 102.00 1277.50 104.00 1346.50 104.00 1353.50 106.00 1480.50 106.00 1487.50 104.00 1532.50 104.00 1539.50 106.00 1664.50 106.00 1671.50 108.00 1721.50 108.00 1728.50 110.00 1767.50 110.00 1774.50 108.00 1843.50 108.00 1850.50 106.00 1929.50 106.00 1936.50 104.00 1965.50 104.00 1972.50 106.00 1988.37 106.12 1992.37 108.12 2029.99 135.50 2051.99 148.50 2070.99 164.50 2085.99 174.50 2101.62 182.88 2137.62 192.88 2161.50 193.00 2199.38 183.88 2206.62 179.12 2215.38 175.88 2228.00 168.50 2236.00 161.50 2254.00 149.50 2267.38 138.88 2297.88 108.38 2302.88 101.38 2308.50 88.00 2314.62 83.12 2318.50 82.00 2328.38 81.88 2341.62 78.12 2358.38 75.88 2364.62 73.12 2378.38 70.88 2389.62 66.12 2401.50 66.00 2407.62 64.12 2416.38 63.88 2430.50 60.00 2451.50 60.00 2464.50 64.00 2490.38 61.88 2497.62 59.12 2506.38 57.88 2515.38 53.88 2528.00 42.50 2537.62 38.12 2548.38 35.88 2557.62 32.12 2572.38 29.88 2587.62 25.12 2601.38 22.88 2607.62 20.12 2632.38 15.88 2664.62 5.12 2668.37 5.12 z" style="stroke-width:1;" fill="url(#pattern-fdiag-ffffff7f)" stroke="rgba(255,255,255,0.50)" stroke-linecap="square" stroke-linejoin="bevel" id="mergeda-1-0" class="merged qa layer-1 level-0" data-area="2047521.92" /><defs><pattern id="pattern-bdiag-ffffff7f"  x="0" y="0" width="10" height="10" patternUnits="userSpaceOnUse" ><g style="fill:none;stroke-width:1;" ><line x1="10" y1="0" x2="0" y2="10"  stroke="#ffffff7f"  /></g></pattern></defs><path d="M2668.37 5.12L2677.37 9.12 2696.62 28.88 2703.99 33.50 2716.62 46.88 2723.99 52.50 2729.62 55.88 2735.99 57.50 2742.62 64.88 2747.62 67.88 2752.37 68.12 2773.62 76.88 2788.50 80.00 2823.50 80.00 2830.50 78.00 2840.38 77.88 2851.62 74.12 2860.38 73.88 2878.50 70.00 2917.50 70.00 2931.62 73.88 2936.37 74.12 2957.37 82.12 2976.99 96.50 2982.99 99.50 2992.49 111.00 2996.12 119.38 2999.87 124.62 3012.87 154.62 3014.99 165.50 3014.99 175.50 3016.99 182.50 3016.99 195.50 3015.87 198.37 3005.49 210.00 2997.49 222.00 2992.37 225.87 2982.50 225.99 2974.37 228.87 2966.50 228.99 2955.62 231.12 2940.37 236.87 2933.62 237.12 2922.37 242.87 2891.62 247.12 2878.37 250.87 2873.62 251.12 2864.37 256.87 2837.62 264.12 2832.99 266.50 2825.37 272.87 2817.62 274.12 2805.62 279.12 2808.74 280.50 2798.37 285.87 2793.62 286.12 2786.37 289.87 2777.62 291.12 2727.37 314.87 2723.50 315.99 2705.62 316.12 2694.62 320.12 2662.12 351.62 2660.12 355.62 2659.87 359.37 2655.87 366.37 2649.99 370.49 2643.87 378.37 2633.49 386.99 2615.49 408.99 2606.49 421.99 2601.99 426.49 2590.62 433.12 2573.99 449.49 2571.37 450.87 2566.50 450.99 2561.50 448.99 2550.50 448.99 2539.62 453.12 2507.62 470.12 2501.37 474.87 2486.62 481.12 2471.99 492.49 2465.99 495.49 2453.99 506.49 2438.62 512.12 2427.99 519.49 2425.12 522.62 2422.99 528.50 2422.99 547.50 2424.87 553.62 2425.12 560.38 2429.87 573.62 2430.12 578.38 2445.87 605.62 2451.12 623.38 2454.87 630.62 2458.12 645.38 2464.87 664.62 2468.87 680.62 2470.74 690.50 2469.49 692.99 2463.37 696.87 2439.62 705.12 2391.37 728.87 2384.62 731.12 2366.37 740.87 2336.62 753.12 2311.99 767.49 2297.49 779.99 2286.49 795.99 2280.12 802.62 2273.87 813.37 2266.12 820.62 2251.87 839.37 2238.12 852.62 2231.87 861.37 2213.37 879.87 2204.62 886.12 2195.37 894.87 2174.37 905.87 2168.37 907.87 2163.50 908.99 2149.62 908.87 2145.50 905.99 2134.50 883.99 2126.50 871.99 2119.38 864.12 2104.00 853.49 2090.38 846.12 2072.38 838.12 2058.38 834.12 2036.50 834.99 2023.50 830.99 2006.50 830.99 2000.37 832.87 1991.62 833.12 1976.50 837.99 1971.62 836.87 1964.38 833.12 1957.50 831.99 1948.62 832.12 1942.62 836.12 1938.12 841.62 1934.49 849.99 1927.12 859.62 1920.12 879.62 1915.12 899.62 1914.87 906.37 1909.12 931.62 1908.99 943.50 1906.99 950.50 1906.99 967.50 1904.99 974.50 1904.99 997.50 1906.87 1003.62 1907.12 1010.38 1910.87 1023.62 1911.12 1032.38 1914.87 1043.62 1915.12 1050.38 1918.87 1065.62 1920.12 1076.38 1932.87 1117.62 1932.99 1132.50 1930.37 1135.87 1924.00 1132.49 1914.38 1124.12 1902.62 1119.87 1881.62 1108.87 1864.00 1096.49 1844.62 1081.87 1838.00 1075.49 1832.00 1072.49 1819.50 1059.99 1815.38 1054.12 1782.62 1031.87 1766.00 1015.49 1757.62 1011.87 1748.00 1005.49 1729.00 990.49 1705.62 977.87 1693.38 969.12 1668.38 957.12 1660.62 955.87 1651.38 951.12 1638.62 948.87 1627.38 945.12 1620.62 944.87 1614.50 942.99 1602.62 942.87 1588.50 938.99 1574.62 938.87 1556.50 934.99 1527.50 934.99 1520.50 936.99 1497.50 936.99 1479.37 940.87 1471.50 940.99 1460.62 943.12 1453.37 945.87 1445.62 946.12 1430.37 951.87 1424.62 952.12 1415.72 955.09 1404.77 951.77 1392.57 952.32 1381.13 956.88 1368.51 965.17 1363.70 970.12 1363.37 972.87 1358.62 973.12 1349.37 976.87 1343.50 976.99 1323.62 969.87 1313.38 964.12 1280.62 954.87 1271.38 950.12 1248.62 943.87 1231.38 937.12 1222.62 936.87 1216.50 934.99 1199.50 934.99 1192.50 932.99 1177.50 932.99 1170.50 930.99 1162.62 930.87 1159.38 929.12 1150.62 928.87 1144.50 926.99 1111.50 925.99 1101.62 929.12 1089.37 937.87 1080.99 941.49 1071.37 949.87 1062.62 952.12 1043.37 965.87 1030.62 971.12 1017.37 980.87 1008.00 984.49 991.12 1000.62 984.37 1009.87 976.50 1012.99 965.50 1012.99 958.50 1014.99 942.62 1015.12 933.00 1019.49 905.62 1038.12 887.12 1056.62 880.87 1065.37 873.12 1072.62 863.50 1084.99 849.50 1107.99 839.50 1118.99 833.12 1130.62 832.87 1134.37 826.12 1141.62 816.87 1165.37 812.12 1172.62 802.12 1193.62 801.87 1198.37 796.87 1216.37 792.12 1227.62 791.87 1234.37 789.12 1241.62 786.12 1255.62 785.87 1264.37 783.99 1270.50 783.99 1289.50 780.12 1303.62 779.87 1308.37 776.87 1318.37 771.37 1322.87 766.62 1322.87 755.38 1319.12 738.50 1315.99 724.62 1316.87 713.62 1309.87 705.12 1301.37 698.88 1290.62 687.38 1280.12 669.38 1271.12 643.50 1270.99 632.50 1274.99 603.50 1274.99 594.62 1277.12 537.37 1300.87 523.37 1304.87 512.62 1306.12 499.37 1311.87 485.62 1316.12 463.37 1325.87 458.50 1326.99 443.50 1326.99 437.62 1323.87 432.00 1318.49 423.62 1313.87 388.12 1277.37 386.00 1271.50 387.12 1257.62 393.88 1240.38 401.12 1211.62 411.12 1178.62 420.88 1158.38 422.00 1148.50 419.88 1139.62 411.88 1123.62 401.12 1107.37 393.12 1084.37 391.88 1069.62 388.00 1053.50 388.00 1028.50 386.00 1021.50 386.00 1010.50 389.00 1005.50 399.38 1000.88 417.00 990.50 434.88 973.38 440.88 962.38 444.12 949.62 447.88 942.38 448.12 937.62 451.88 928.38 452.00 916.50 456.00 895.50 456.00 848.50 454.00 841.50 453.88 831.62 450.12 820.37 449.88 813.62 448.00 807.50 447.88 785.62 444.12 778.37 443.88 773.62 435.12 758.37 436.00 745.50 432.88 733.62 423.88 713.62 414.88 699.62 404.38 689.12 389.00 676.49 377.62 668.87 371.00 662.49 355.00 653.49 347.00 646.49 325.62 632.87 315.00 622.49 287.00 607.49 274.50 594.99 268.88 585.62 259.12 578.37 258.25 576.50 260.75 575.50 254.88 568.62 235.50 551.99 229.12 545.37 226.00 539.50 227.88 534.38 228.12 527.62 234.00 509.50 234.00 496.50 232.12 490.37 232.00 484.50 235.88 472.38 236.00 459.50 238.00 452.50 238.00 435.50 234.00 418.50 234.00 367.50 232.00 360.50 232.12 340.62 237.00 334.50 257.38 323.88 270.38 314.88 290.88 294.38 299.88 281.38 326.88 229.38 333.88 206.38 334.00 198.50 335.12 195.62 346.88 183.38 355.50 172.00 358.88 165.38 364.88 147.38 369.12 124.62 373.88 113.38 376.00 102.50 376.12 94.62 381.62 83.12 384.50 82.00 422.50 82.00 429.50 80.00 450.50 80.00 457.50 82.00 475.37 82.12 485.50 86.00 500.50 86.00 507.50 88.00 522.50 88.00 529.50 90.00 550.50 90.00 556.62 91.88 570.50 92.00 577.50 94.00 614.50 94.00 621.50 92.00 656.50 92.00 663.50 94.00 702.50 94.00 709.50 96.00 728.50 96.00 735.50 98.00 840.50 98.00 846.62 99.88 860.50 100.00 867.50 102.00 924.50 102.00 931.50 100.00 1018.50 100.00 1025.50 102.00 1054.50 102.00 1061.50 100.00 1094.50 100.00 1101.50 102.00 1270.50 102.00 1277.50 104.00 1346.50 104.00 1353.50 106.00 1480.50 106.00 1487.50 104.00 1532.50 104.00 1539.50 106.00 1664.50 106.00 1671.50 108.00 1721.50 108.00 1728.50 110.00 1767.50 110.00 1774.50 108.00 1843.50 108.00 1850.50 106.00 1929.50 106.00 1936.50 104.00 1965.50 104.00 1972.50 106.00 1988.37 106.12 1992.37 108.12 2029.99 135.50 2051.99 148.50 2070.99 164.50 2085.99 174.50 2101.62 182.88 2137.62 192.88 2161.50 193.00 2199.38 183.88 2206.62 179.12 2215.38 175.88 2228.00 168.50 2236.00 161.50 2254.00 149.50 2267.38 138.88 2297.88 108.38 2302.88 101.38 2308.50 88.00 2314.62 83.12 2318.50 82.00 2328.38 81.88 2341.62 78.12 2358.38 75.88 2364.62 73.12 2378.38 70.88 2389.62 66.12 2401.50 66.00 2407.62 64.12 2416.38 63.88 2430.50 60.00 2451.50 60.00 2464.50 64.00 2490.38 61.88 2497.62 59.12 2506.38 57.88 2515.38 53.88 2528.00 42.50 2537.62 38.12 2548.38 35.88 2557.62 32.12 2572.38 29.88 2587.62 25.12 2601.38 22.88 2607.62 20.12 2632.38 15.88 2664.62 5.12 2668.37 5.12 z" style="stroke-width:1;" fill="url(#pattern-bdiag-ffffff7f)" stroke="rgba(255,255,255,0.50)" stroke-linecap="square" stroke-linejoin="bevel" id="mergeda-2-0" class="merged qa layer-2 level-0" data-area="2047521.92" /><path d="M2673.37 3.28L2687.87 14.78 2694.12 23.53 2698.95 27.60 2696.62 28.88 2703.99 33.50 2716.62 46.88 2723.99 52.50 2729.62 55.88 2735.99 57.50 2742.62 64.88 2747.62 67.88 2752.37 68.12 2773.62 76.88 2788.50 80.00 2823.50 80.00 2830.50 78.00 2840.38 77.88 2851.62 74.12 2860.38 73.88 2878.50 70.00 2917.50 70.00 2931.62 73.88 2936.37 74.12 2957.37 82.12 2976.99 96.50 2982.99 99.50 2992.49 111.00 2996.12 119.38 2999.87 124.62 3012.87 154.62 3014.99 165.50 3014.99 175.50 3016.99 182.50 3016.99 195.50 3015.87 198.37 3005.49 210.00 2997.49 222.00 2992.37 225.87 2982.50 225.99 2974.37 228.87 2966.50 228.99 2955.62 231.12 2940.37 236.87 2933.62 237.12 2922.37 242.87 2891.62 247.12 2878.37 250.87 2873.62 251.12 2864.37 256.87 2837.62 264.12 2832.99 266.50 2825.37 272.87 2817.62 274.12 2805.62 279.12 2808.74 280.50 2798.37 285.87 2793.62 286.12 2786.37 289.87 2777.62 291.12 2727.37 314.87 2723.50 315.99 2705.62 316.12 2694.62 320.12 2662.12 351.62 2660.12 355.62 2659.87 359.37 2655.87 366.37 2649.99 370.49 2643.87 378.37 2633.49 386.99 2615.49 408.99 2606.49 421.99 2601.99 426.49 2590.62 433.12 2573.99 449.49 2571.37 450.87 2566.50 450.99 2561.50 448.99 2550.50 448.99 2539.62 453.12 2507.62 470.12 2501.37 474.87 2486.62 481.12 2471.99 492.49 2465.99 495.49 2453.99 506.49 2436.62 513.12 2427.99 519.49 2425.12 522.62 2422.99 528.50 2422.99 547.50 2424.87 553.62 2425.12 560.38 2429.87 573.62 2430.12 578.38 2445.87 605.62 2451.12 623.38 2454.87 630.62 2458.12 645.38 2464.87 664.62 2468.87 680.62 2470.74 690.50 2469.49 692.99 2463.37 696.87 2439.62 705.12 2391.37 728.87 2384.62 731.12 2366.37 740.87 2336.62 753.12 2311.99 767.49 2297.49 779.99 2286.49 795.99 2280.12 802.62 2273.87 813.37 2266.12 820.62 2251.87 839.37 2238.12 852.62 2231.87 861.37 2213.37 879.87 2204.62 886.12 2195.37 894.87 2174.37 905.87 2168.37 907.87 2163.50 908.99 2149.62 908.87 2145.50 905.99 2134.50 883.99 2126.50 871.99 2119.38 864.12 2104.00 853.49 2090.38 846.12 2072.38 838.12 2058.38 834.12 2036.50 834.99 2023.50 830.99 2006.50 831.03 1996.37 834.91 1976.37 838.91 1955.50 833.03 1948.50 833.03 1944.99 834.54 1938.49 842.04 1934.49 849.99 1929.12 856.66 1920.12 879.62 1915.12 899.62 1914.87 906.37 1909.12 931.62 1908.99 943.50 1906.99 950.50 1906.99 967.50 1904.99 974.50 1904.99 997.50 1906.87 1003.62 1907.12 1010.38 1910.87 1023.62 1911.12 1032.38 1914.87 1043.62 1915.12 1050.38 1918.87 1065.62 1920.12 1076.38 1932.87 1117.62 1932.99 1132.50 1930.37 1135.87 1924.00 1132.49 1914.38 1124.12 1902.62 1119.87 1881.62 1108.87 1864.00 1096.49 1844.62 1081.87 1838.00 1075.49 1832.00 1072.49 1819.50 1059.99 1815.38 1054.12 1782.62 1031.87 1766.00 1015.49 1757.62 1011.87 1748.00 1005.49 1729.00 990.49 1705.62 977.87 1693.38 969.12 1668.38 957.12 1660.62 955.87 1651.38 951.12 1638.62 948.87 1627.38 945.12 1620.62 944.87 1614.50 942.99 1602.62 942.87 1588.50 938.99 1575.50 938.99 1556.50 934.99 1527.50 934.99 1520.50 936.99 1497.50 936.99 1479.37 940.87 1470.62 941.12 1456.62 944.12 1453.37 945.87 1445.62 946.12 1430.37 951.87 1420.62 953.12 1411.37 956.87 1394.52 960.99 1394.62 967.92 1397.50 969.04 1404.80 968.66 1404.48 994.67 1415.99 1007.42 1416.12 1013.42 1422.49 1021.04 1424.87 1025.67 1427.99 1034.54 1427.87 1043.41 1424.99 1045.54 1427.87 1047.67 1427.87 1050.41 1381.50 1051.03 1380.12 1050.41 1380.12 1047.67 1382.88 1046.42 1383.12 1043.67 1386.88 1039.42 1390.00 1027.54 1391.00 1017.54 1390.00 1009.54 1390.00 981.54 1392.00 975.54 1391.38 966.16 1383.62 966.16 1377.37 968.91 1368.62 970.16 1363.37 972.87 1358.62 973.12 1349.37 976.87 1342.62 976.87 1323.62 969.87 1313.38 964.12 1280.62 954.91 1271.38 950.12 1248.62 943.87 1231.38 937.12 1222.62 936.87 1216.50 934.99 1199.50 934.99 1192.50 932.99 1177.50 932.99 1170.50 930.99 1162.62 930.87 1159.38 929.12 1150.62 928.87 1144.50 926.99 1111.50 925.99 1101.62 929.12 1089.37 937.87 1080.99 941.49 1071.37 949.87 1062.62 952.12 1043.43 965.83 1030.62 971.12 1017.37 980.87 1008.00 984.49 991.12 1000.62 984.37 1009.87 976.50 1012.99 965.50 1012.99 958.50 1014.99 942.62 1015.12 933.00 1019.49 905.62 1038.12 887.12 1056.62 880.87 1065.37 873.12 1072.62 863.50 1084.99 849.50 1107.99 839.50 1118.99 833.12 1130.62 832.87 1134.37 826.12 1141.62 816.87 1165.37 812.12 1172.62 802.12 1193.62 801.87 1198.37 796.87 1216.37 792.12 1227.62 791.87 1234.37 789.12 1241.62 786.12 1255.62 785.87 1264.37 783.99 1270.50 783.99 1289.50 780.12 1303.62 779.87 1308.37 776.87 1318.37 771.37 1322.87 766.62 1322.87 755.38 1319.12 738.50 1315.99 724.62 1316.87 713.62 1309.87 705.12 1301.37 698.88 1290.62 687.38 1280.12 669.38 1271.12 643.50 1270.99 632.50 1274.99 603.50 1274.99 594.62 1277.12 537.37 1300.87 523.37 1304.87 512.62 1306.12 499.37 1311.87 485.62 1316.12 463.37 1325.87 458.50 1326.99 443.50 1326.99 437.62 1323.87 432.00 1318.49 423.62 1313.87 388.12 1277.37 386.00 1271.50 387.12 1257.62 393.88 1240.38 401.12 1211.62 411.12 1178.62 420.88 1158.38 422.00 1148.50 419.88 1139.62 411.88 1123.62 401.12 1107.37 393.12 1084.37 391.88 1069.62 388.00 1053.50 388.00 1028.50 386.00 1021.50 386.00 1010.50 389.00 1005.50 399.38 1000.88 417.00 990.50 434.88 973.38 440.88 962.38 444.12 949.62 447.88 942.38 448.12 937.62 451.88 928.38 452.00 916.50 456.00 895.50 456.00 848.50 454.00 841.50 453.88 831.62 450.12 820.37 449.88 813.62 448.00 807.50 447.88 785.62 444.12 778.37 443.88 773.62 435.12 758.37 436.00 745.50 432.88 733.62 423.88 713.62 414.88 699.62 404.38 689.12 389.00 676.49 377.62 668.87 371.00 662.49 355.00 653.49 347.00 646.49 325.62 632.87 315.00 622.49 287.00 607.49 274.50 594.99 268.88 585.62 259.12 578.37 258.25 576.50 260.75 575.50 254.88 568.62 235.50 551.99 229.12 545.37 226.00 539.50 227.88 534.38 228.12 527.62 234.00 509.50 234.00 496.50 232.12 490.37 232.00 484.50 235.88 472.38 236.00 459.50 238.00 452.50 238.00 435.50 234.00 418.50 234.00 367.50 232.00 360.50 232.12 340.62 237.00 334.50 257.38 323.88 270.38 314.88 290.88 294.38 299.88 281.38 326.88 229.38 332.88 210.38 335.12 193.78 346.88 181.53 358.88 163.53 365.88 143.38 366.12 136.62 369.12 124.62 373.88 113.38 376.00 102.50 376.12 94.62 381.62 83.12 384.50 82.00 399.87 82.00 400.26 81.15 418.50 81.15 425.50 79.15 444.50 79.15 455.42 81.15 476.50 81.15 481.00 82.22 479.05 83.53 484.62 85.88 500.50 86.00 507.50 88.00 522.50 88.00 529.50 90.00 603.98 89.15 601.82 94.00 614.50 94.00 621.50 92.00 656.50 92.00 663.50 94.00 702.50 94.00 709.50 96.00 728.50 96.00 735.50 98.00 806.01 98.00 805.29 95.15 834.50 95.15 841.50 97.15 872.50 97.15 881.72 99.15 878.05 102.00 902.53 102.00 902.66 99.15 916.50 99.15 923.50 97.15 953.38 97.15 953.95 100.00 1018.50 100.00 1025.50 102.00 1054.50 102.00 1061.50 100.00 1094.50 100.00 1101.50 102.00 1270.50 102.00 1277.50 104.00 1346.50 104.00 1353.50 106.00 1480.50 106.00 1487.50 104.00 1532.50 104.00 1539.50 106.00 1664.50 106.00 1671.50 108.00 1721.50 108.00 1728.50 110.00 1767.50 110.00 1774.50 108.00 1843.50 108.00 1850.50 106.00 1926.72 106.00 1927.15 103.15 1935.50 103.15 1942.50 101.15 1959.50 101.15 1969.64 103.15 1971.62 105.88 1987.50 106.00 1992.37 108.12 2035.92 139.43 2035.63 136.43 2047.99 143.65 2052.62 148.03 2061.37 152.28 2076.99 164.65 2107.25 181.24 2101.62 182.88 2137.62 192.88 2161.50 193.00 2199.38 183.88 2206.62 179.12 2215.38 175.88 2228.00 168.50 2236.00 161.50 2254.00 149.50 2267.38 138.88 2297.88 108.38 2302.88 101.38 2308.50 88.00 2314.62 83.12 2318.50 82.00 2328.38 81.88 2336.38 79.88 2335.50 79.15 2337.62 78.28 2348.39 77.02 2383.62 67.28 2416.38 63.88 2430.50 60.00 2451.50 60.00 2464.50 64.00 2490.38 61.88 2497.62 59.12 2506.38 57.88 2515.38 53.88 2530.62 40.28 2543.62 34.28 2556.38 32.03 2579.62 25.28 2586.38 25.03 2603.62 19.28 2608.38 19.03 2621.62 15.28 2628.38 15.03 2643.62 9.28 2673.37 3.28 zM2529.86 57.36L2523.07 63.20 2514.16 67.88 2492.07 73.75 2482.84 74.00 2474.57 75.95 2463.88 75.98 2449.15 72.00 2432.84 72.00 2417.03 75.90 2414.95 82.04 2411.88 85.56 2400.82 91.35 2393.46 93.19 2375.26 94.50 2354.88 92.64 2350.06 89.29 2330.07 93.75 2318.87 94.60 2313.68 106.61 2307.08 116.07 2275.86 147.36 2235.07 178.20 2227.55 183.16 2212.79 189.62 2203.16 195.26 2161.50 205.00 2134.40 204.43 2097.38 194.10 2079.82 184.79 2066.19 181.52 2054.45 174.90 2045.18 166.31 2039.05 154.94 2023.15 145.36 1985.17 118.00 1973.02 118.00 1969.51 122.20 1961.30 125.07 1949.37 125.59 1939.99 123.17 1932.02 117.76 1852.85 118.00 1843.50 120.00 1776.85 120.00 1767.50 122.00 1728.50 122.00 1719.15 120.00 1670.88 119.98 1662.15 118.00 1539.50 118.00 1530.15 116.00 1489.85 116.00 1480.50 118.00 1353.50 118.00 1344.15 116.00 1276.88 115.98 1268.15 114.00 1101.50 114.00 1092.15 112.00 1063.85 112.00 1054.50 114.00 1025.50 114.00 1016.15 112.00 951.84 112.00 948.64 116.36 943.90 120.11 938.14 122.71 924.81 124.03 912.81 120.11 906.55 114.00 866.88 113.98 859.04 112.32 844.52 114.95 829.05 114.74 818.66 111.95 815.81 110.00 734.88 109.98 726.15 108.00 707.81 107.88 700.15 106.00 682.51 106.00 676.82 111.58 668.11 117.48 660.15 120.08 652.78 118.88 650.01 116.73 648.12 113.76 647.48 104.00 623.85 104.00 614.50 106.00 584.75 106.00 574.33 108.71 563.85 109.51 555.84 107.80 553.43 103.44 548.15 102.00 528.88 101.98 520.15 100.00 484.88 97.98 472.15 94.00 462.40 94.00 445.06 103.13 436.72 106.22 421.10 108.98 414.98 108.39 407.96 105.71 402.33 101.29 398.93 94.00 389.46 94.00 388.00 97.85 385.43 116.60 380.89 128.07 377.43 146.60 373.70 158.56 374.59 165.87 372.97 175.08 368.62 184.80 362.16 193.78 354.41 200.69 346.00 204.92 344.43 213.60 337.68 234.60 310.17 287.55 300.08 302.07 277.92 324.21 263.55 334.17 244.00 344.47 244.00 358.15 246.00 367.50 246.00 416.15 249.95 434.43 250.00 452.50 248.00 461.85 247.75 474.07 244.00 486.85 245.95 495.43 245.88 511.20 240.00 530.85 239.28 538.06 249.01 548.54 263.40 560.18 270.12 567.83 272.52 573.15 278.21 578.08 283.75 586.57 294.29 597.69 321.84 612.63 334.91 624.48 353.84 636.63 362.01 643.54 377.84 652.63 412.11 679.95 423.40 691.18 434.18 707.47 443.88 728.84 447.75 742.93 447.70 755.31 454.88 768.84 456.00 775.15 459.56 782.88 460.00 805.15 462.00 817.15 465.75 829.93 466.00 839.15 468.00 848.50 467.98 896.13 464.00 918.85 463.43 931.60 452.10 966.62 448.17 975.55 444.08 981.07 424.07 1000.20 398.00 1014.94 399.95 1027.43 400.00 1051.15 403.75 1067.93 404.88 1080.85 412.62 1103.20 422.17 1117.46 430.88 1134.84 434.00 1148.50 432.43 1161.60 422.62 1182.70 405.43 1243.60 398.89 1261.07 398.00 1264.85 398.60 1271.13 432.90 1305.48 441.26 1310.29 446.30 1314.99 456.16 1314.99 508.82 1294.74 520.16 1292.99 533.86 1289.11 591.85 1265.44 602.43 1263.04 630.16 1262.99 642.43 1259.04 670.22 1259.11 677.61 1261.32 698.11 1272.95 708.21 1283.08 714.36 1293.18 727.82 1304.99 740.24 1304.12 766.63 1310.17 771.99 1287.15 772.01 1269.85 776.24 1243.90 779.99 1231.15 780.56 1224.40 785.10 1212.93 790.89 1189.38 801.33 1167.37 805.39 1161.18 815.84 1135.43 821.18 1129.34 829.63 1112.15 839.54 1100.98 853.63 1078.15 863.91 1064.93 878.63 1048.14 898.08 1028.78 909.92 1019.80 926.81 1009.21 940.90 1003.24 956.16 1002.99 963.78 1001.11 977.09 1000.02 987.01 987.51 1001.81 974.21 1011.02 970.53 1024.44 960.83 1037.02 955.53 1056.44 941.83 1065.68 938.99 1073.92 931.80 1083.02 927.53 1095.44 918.83 1110.43 914.04 1145.16 915.01 1179.85 920.99 1193.16 921.01 1201.85 922.99 1217.16 923.01 1225.85 924.99 1233.10 925.24 1292.54 945.29 1312.36 938.38 1324.79 936.39 1352.01 935.55 1366.56 936.84 1377.23 939.83 1394.16 948.99 1417.85 941.44 1427.16 939.99 1442.85 934.44 1450.16 933.99 1467.85 929.44 1476.16 928.99 1496.43 925.04 1518.16 924.99 1527.50 922.99 1558.22 923.11 1577.85 926.99 1590.22 927.11 1605.85 930.99 1616.22 931.11 1630.60 933.56 1654.60 939.56 1664.07 944.10 1673.61 946.32 1699.57 958.84 1721.91 973.48 1735.20 980.22 1755.01 995.54 1763.91 1001.48 1772.84 1005.63 1793.01 1024.54 1823.11 1044.94 1839.29 1062.69 1844.84 1065.63 1871.01 1086.54 1887.90 1098.48 1905.86 1108.01 1918.36 1112.72 1907.44 1075.15 1902.99 1046.84 1899.44 1035.15 1898.99 1026.84 1892.99 997.50 1893.01 973.85 1894.99 965.15 1895.01 949.85 1896.99 941.15 1897.24 929.90 1903.56 896.40 1908.56 876.40 1915.44 856.15 1906.19 834.14 1905.82 828.00 1907.98 822.56 1913.15 816.36 1920.53 810.82 1932.17 805.87 1946.64 804.05 1962.56 805.28 1978.65 809.65 1992.80 816.11 1999.00 820.41 2005.43 819.04 2024.16 819.01 2038.85 822.99 2058.16 822.01 2069.60 824.56 2082.61 829.32 2101.63 838.33 2127.11 854.95 2133.21 861.08 2144.21 876.95 2154.94 896.99 2164.86 896.11 2182.02 888.53 2188.95 884.57 2205.19 870.62 2222.59 853.23 2264.59 805.23 2270.26 795.78 2276.54 788.98 2288.29 772.30 2304.92 757.80 2331.84 742.11 2363.21 728.97 2434.82 694.12 2457.09 686.02 2453.10 668.14 2446.74 649.18 2443.10 634.14 2439.74 627.18 2433.97 608.78 2419.12 583.19 2413.44 563.15 2411.04 548.57 2411.11 526.78 2414.32 517.38 2420.08 510.47 2430.44 502.83 2447.13 496.39 2458.92 485.80 2464.95 482.57 2480.44 470.83 2495.13 464.39 2501.44 459.83 2534.84 442.11 2549.43 437.04 2562.16 437.01 2568.01 438.54 2583.08 423.78 2596.54 414.98 2624.29 379.30 2647.48 357.09 2648.89 351.38 2652.91 343.93 2682.14 314.63 2688.44 309.83 2703.90 304.24 2723.40 303.34 2772.82 280.12 2783.16 277.99 2789.82 274.74 2794.60 273.99 2799.86 268.59 2813.82 262.74 2821.49 261.04 2825.91 256.81 2832.82 253.12 2860.48 245.16 2869.82 239.74 2889.90 235.24 2919.16 230.99 2929.82 225.74 2937.16 224.99 2952.85 219.44 2971.16 216.99 2979.90 214.24 2988.07 213.99 2998.91 198.93 3004.99 192.69 3004.99 184.84 3000.99 157.84 2993.97 139.78 2982.39 117.86 2975.07 108.95 2951.18 92.60 2933.15 86.00 2915.15 82.00 2880.84 82.00 2862.07 85.75 2854.84 86.00 2842.07 89.75 2832.84 90.00 2824.57 91.95 2787.88 91.98 2774.40 89.43 2738.84 76.80 2729.47 67.94 2721.46 65.17 2708.97 56.12 2696.97 43.45 2688.97 38.12 2683.29 32.48 2608.14 49.39 2581.84 53.80 2561.30 56.26 2529.86 57.36 zM2154.04 701.45L2164.51 706.03 2171.59 713.77 2174.37 722.45 2173.90 732.52 2170.96 741.84 2147.36 731.51 2135.62 722.53 2131.85 717.50 2130.08 712.70 2130.40 708.44 2132.80 704.82 2141.86 700.93 2154.04 701.45 zM2351.03 676.18L2387.45 682.42 2389.92 684.34 2390.25 687.46 2388.84 689.48 2386.15 690.27 2349.73 684.04 2347.26 682.11 2346.84 679.34 2348.35 676.98 2351.03 676.18 zM743.96 663.90L747.09 666.03 752.28 678.74 755.97 671.72 759.09 671.43 761.46 673.48 761.73 676.26 758.44 685.07 754.93 688.74 749.42 688.39 744.79 681.77 739.54 667.97 740.70 665.06 743.96 663.90 zM2097.02 665.00L2100.04 665.75 2106.94 670.33 2108.65 672.96 2108.32 675.40 2106.29 677.33 2103.84 677.56 2101.39 676.24 2103.49 682.36 2102.46 684.60 2099.96 685.86 2096.24 684.17 2091.89 674.10 2091.98 667.61 2097.02 665.00 zM659.53 395.37L671.70 402.61 664.36 410.06 651.86 417.00 645.96 418.86 637.00 418.79 634.57 416.83 633.76 412.78 635.55 407.72 639.64 402.44 650.51 395.39 655.45 394.55 659.53 395.37 zM1362.64 400.28L1365.44 401.57 1366.49 404.38 1365.23 407.19 1362.34 408.27 1359.47 406.90 1358.49 404.08 1359.89 401.23 1362.64 400.28 zM435.36 331.51L437.62 332.49 438.94 334.97 439.88 364.52 472.11 360.52 475.64 363.13 474.90 367.15 472.39 368.48 439.88 372.58 436.77 375.25 433.45 374.30 432.10 371.43 430.98 335.26 432.37 332.45 435.36 331.51 zM2559.77 353.63L2562.64 355.00 2563.62 357.83 2562.29 360.61 2559.47 361.63 2556.67 360.33 2555.62 357.53 2556.95 354.65 2559.77 353.63 zM429.92 304.06L432.72 305.35 433.77 308.25 432.44 311.04 429.62 312.05 426.82 310.76 425.77 307.86 427.10 305.07 429.92 304.06 zM2626.60 303.06L2629.47 304.43 2630.45 307.26 2629.12 310.04 2626.30 311.06 2623.50 309.76 2622.45 306.96 2623.78 304.08 2626.60 303.06 zM413.49 274.61L416.30 276.00 430.94 296.92 431.31 300.03 429.32 302.45 426.54 302.80 424.44 301.52 409.80 280.60 409.87 276.51 413.49 274.61 zM2611.79 276.38L2614.10 277.26 2624.08 286.80 2624.74 289.86 2622.98 292.46 2618.59 292.43 2608.32 282.68 2608.00 278.60 2611.79 276.38 zM2665.58 253.81L2668.45 255.18 2669.43 258.01 2668.10 260.79 2665.28 261.81 2662.48 260.51 2661.43 257.71 2662.76 254.83 2665.58 253.81 zM2612.48 220.54L2615.72 222.50 2615.71 226.59 2607.19 236.19 2604.88 237.04 2602.50 236.37 2600.78 233.75 2601.28 231.00 2609.54 221.62 2612.48 220.54 zM645.43 208.03L648.16 209.26 649.28 212.13 648.02 214.95 645.13 216.03 642.33 214.74 641.28 211.93 642.54 209.12 645.43 208.03 zM669.07 198.89L671.87 200.18 672.91 203.08 671.66 205.80 668.77 206.88 665.97 205.59 664.92 202.69 666.25 199.90 669.07 198.89 zM2284.48 169.73L2287.22 170.95 2288.34 173.83 2287.08 176.64 2284.19 177.72 2281.32 176.36 2280.34 173.53 2281.74 170.68 2284.48 169.73 zM2347.43 154.62L2350.23 155.92 2351.28 158.82 2349.95 161.60 2347.13 162.62 2344.26 161.25 2343.28 158.43 2344.61 155.64 2347.43 154.62 z" style="stroke-width:1;visibility:hidden;" fill="#0000ff" stroke-linecap="square" stroke-linejoin="bevel" id="a-0-4" class="qa layer-0 level-4" fill-rule="evenodd" data-area="111511.71" /><path d="M414.07 1006.20L427.92 997.21 444.08 981.07 449.68 972.61 454.13 960.52 481.03 943.31 510.67 930.76 525.80 926.78 541.36 924.29 558.41 923.30 571.29 924.11 583.40 927.06 596.48 932.02 608.08 938.06 618.92 945.45 634.22 959.08 681.10 1008.05 697.36 1021.91 713.60 1033.25 743.91 1048.74 814.37 1076.12 829.22 1083.82 840.75 1091.74 843.39 1094.19 839.54 1100.98 829.63 1112.15 821.18 1129.34 815.84 1135.43 805.39 1161.18 801.33 1167.37 790.89 1189.38 785.10 1212.93 780.56 1224.40 779.99 1231.15 776.24 1243.90 772.01 1269.85 771.99 1287.15 766.63 1310.17 740.24 1304.12 727.82 1304.99 714.36 1293.18 708.21 1283.08 697.26 1272.29 677.61 1261.32 668.50 1258.99 642.43 1259.04 630.16 1262.99 602.43 1263.04 591.85 1265.44 533.86 1289.11 520.16 1292.99 508.82 1294.74 456.16 1314.99 446.30 1314.99 441.26 1310.29 431.77 1304.59 400.36 1273.18 398.00 1269.15 398.89 1261.07 405.43 1243.60 422.62 1182.70 432.10 1162.62 433.98 1154.13 433.75 1145.93 430.88 1134.84 422.17 1117.46 412.62 1103.20 408.65 1093.40 404.00 1077.15 403.75 1067.93 400.00 1051.15 400.00 1029.33 414.07 1006.20 z" style="stroke-width:1;visibility:hidden;" fill="#00ffff" stroke-linecap="square" stroke-linejoin="bevel" id="a-0-3" class="qa layer-0 level-3" data-area="118180.69" /><path d="M1020.22 747.69L1047.42 752.28 1073.19 760.89 1086.33 766.90 1098.63 773.69 1118.89 788.58 1134.92 806.95 1146.12 828.44 1150.58 848.92 1149.36 871.56 1146.61 883.59 1136.92 908.25 1133.17 914.99 1110.43 914.04 1095.44 918.83 1083.02 927.53 1073.92 931.80 1065.68 938.99 1056.44 941.83 1037.02 955.53 1024.44 960.83 1011.02 970.53 1003.82 973.12 997.92 976.80 981.91 992.93 977.09 1000.02 963.78 1001.11 956.16 1002.99 939.85 1003.44 927.44 1008.83 910.81 1019.21 897.14 1029.63 877.91 1048.93 855.26 1075.78 843.39 1094.19 829.22 1083.82 814.37 1076.12 743.91 1048.74 713.60 1033.25 697.36 1021.91 681.10 1008.05 634.22 959.08 618.92 945.45 608.08 938.06 596.48 932.02 583.40 927.06 571.29 924.11 558.41 923.30 535.20 925.28 551.46 912.43 591.26 884.23 640.03 852.56 679.98 829.38 723.86 807.76 765.38 789.85 812.04 772.47 851.88 760.37 894.06 751.05 930.88 746.28 975.09 745.22 1020.22 747.69 zM1985.98 701.17L2000.40 706.07 2012.58 712.80 2023.66 721.93 2032.89 732.85 2039.48 744.58 2042.83 755.02 2044.11 765.60 2043.34 776.75 2040.50 788.65 2030.58 811.46 2025.58 819.17 2005.43 819.04 1999.00 820.41 1992.80 816.11 1978.65 809.65 1962.56 805.28 1946.64 804.05 1932.17 805.87 1920.53 810.82 1913.15 816.36 1907.98 822.56 1905.82 828.00 1906.19 834.14 1908.24 840.08 1899.66 830.24 1891.40 817.50 1885.44 804.49 1881.68 791.16 1880.09 777.08 1880.70 763.28 1883.41 750.89 1888.36 739.48 1895.67 728.68 1904.23 719.88 1915.31 712.08 1928.20 705.70 1941.55 701.43 1956.71 698.93 1970.68 698.58 1985.98 701.17 zM2017.89 831.03L2011.61 830.99 2017.89 831.03 zM570.24 471.70L586.14 477.58 602.91 488.47 615.87 501.91 624.29 516.98 629.63 536.01 632.14 559.00 630.46 579.59 625.08 600.18 615.31 623.18 603.45 642.98 588.63 661.76 575.46 674.80 560.08 686.89 541.83 698.54 522.56 708.47 471.40 728.39 446.05 736.28 439.88 718.84 434.18 707.47 424.21 692.08 412.11 679.95 400.11 669.95 388.01 661.54 377.84 652.63 362.01 643.54 350.02 634.11 353.23 625.54 364.68 601.52 378.17 579.00 395.73 555.07 415.49 532.78 435.90 513.77 455.78 499.21 478.71 486.69 503.36 477.24 528.43 471.37 540.62 469.94 552.03 469.59 570.24 471.70 zM2427.87 519.84L2427.87 519.84 zM2715.51 60.98L2724.39 66.67 2729.47 67.94 2734.97 74.12 2742.39 78.67 2749.17 80.00 2770.40 88.43 2786.81 91.88 2824.57 91.95 2832.84 90.00 2842.07 89.75 2854.84 86.00 2862.07 85.75 2880.84 82.00 2915.15 82.00 2935.29 86.62 2951.18 92.60 2975.07 108.95 2982.39 117.86 2989.97 131.78 3000.99 157.84 3004.99 184.84 3004.99 192.69 2998.91 198.93 2988.07 213.99 2979.90 214.24 2971.16 216.99 2952.85 219.44 2937.16 224.99 2929.82 225.74 2919.16 230.99 2889.90 235.24 2869.82 239.74 2860.48 245.16 2832.82 253.12 2825.91 256.81 2821.49 261.04 2813.82 262.74 2799.86 268.59 2794.60 273.99 2789.82 274.74 2783.16 277.99 2772.82 280.12 2723.40 303.34 2703.90 304.24 2688.44 309.83 2682.14 314.63 2652.91 343.93 2648.89 351.38 2647.48 357.09 2624.29 379.30 2596.54 414.98 2583.08 423.78 2568.01 438.54 2562.16 437.01 2549.43 437.04 2534.84 442.11 2501.44 459.83 2495.13 464.39 2480.44 470.83 2464.95 482.57 2458.92 485.80 2447.13 496.39 2433.84 501.11 2424.92 506.80 2422.98 493.83 2421.31 465.40 2421.88 437.67 2424.74 410.38 2429.86 383.47 2437.86 354.82 2449.18 323.66 2460.08 299.16 2474.90 271.57 2490.00 247.74 2508.55 221.60 2548.59 173.03 2569.25 151.73 2590.77 131.69 2611.88 114.17 2633.59 98.25 2653.98 85.41 2674.35 74.66 2691.48 67.47 2710.11 61.57 2715.51 60.98 zM2480.89 485.03L2479.99 485.49 2480.89 485.03 zM2483.89 483.03L2482.99 483.49 2483.89 483.03 zM2486.89 481.03L2485.99 481.49 2486.89 481.03 zM2559.57 353.63L2556.67 354.93 2555.62 357.73 2556.88 360.54 2559.67 361.63 2562.64 360.26 2563.62 357.43 2562.29 354.65 2559.57 353.63 zM2662.49 351.46L2659.99 356.98 2662.49 351.46 zM2626.40 303.06L2623.50 304.36 2622.45 307.16 2623.71 309.97 2626.50 311.06 2629.47 309.69 2630.45 306.86 2629.12 304.08 2626.40 303.06 zM2611.08 276.41L2608.00 278.60 2608.32 282.68 2618.59 292.43 2620.96 293.10 2623.27 292.25 2624.74 289.86 2624.08 286.80 2614.10 277.26 2611.08 276.41 zM3016.99 195.97L3013.87 201.84 3008.12 207.09 2997.49 222.47 2992.37 226.34 2982.50 226.46 2974.37 229.34 2966.50 229.46 2955.62 231.59 2940.37 237.34 2933.62 237.59 2922.37 243.34 2891.62 247.59 2878.37 251.34 2873.62 251.59 2864.37 257.34 2837.62 264.59 2832.99 266.96 2825.37 273.34 2817.62 274.59 2805.24 279.50 2817.62 274.12 2825.37 272.87 2832.99 266.50 2837.62 264.12 2864.37 256.87 2873.62 251.12 2878.37 250.87 2891.62 247.12 2922.37 242.87 2933.62 237.12 2940.37 236.87 2955.62 231.12 2966.50 228.99 2974.37 228.87 2982.50 225.99 2992.37 225.87 2997.49 222.00 2999.49 218.00 3008.12 206.62 3013.87 201.37 3016.99 195.97 zM2665.38 253.81L2662.48 255.11 2661.43 257.91 2662.69 260.73 2665.48 261.81 2668.45 260.44 2669.43 257.61 2668.10 254.83 2665.38 253.81 zM2611.76 220.57L2609.54 221.62 2601.28 231.00 2600.86 234.10 2602.81 236.56 2607.19 236.19 2615.71 226.59 2615.72 222.50 2611.76 220.57 zM2573.25 122.09L2575.51 123.07 2576.77 125.19 2575.19 129.33 2512.55 173.93 2509.78 174.41 2507.39 172.96 2506.56 169.94 2508.20 167.22 2570.54 122.81 2573.25 122.09 zM2585.50 98.49L2588.30 99.78 2589.35 102.59 2588.09 105.40 2585.20 106.49 2582.33 105.12 2581.35 102.29 2582.68 99.51 2585.50 98.49 z" style="stroke-width:1;visibility:hidden;" fill="#00ff00" stroke-linecap="square" stroke-linejoin="bevel" id="a-0-2" class="qa layer-0 level-2" fill-rule="evenodd" data-area="301859.09" /><path d="M2183.70 355.42L2185.97 356.37 2187.33 358.82 2186.92 361.25 2184.84 363.13 2133.30 377.70 2130.54 377.23 2128.77 375.05 2129.01 371.93 2131.09 370.05 2183.70 355.42 zM2198.78 324.71L2201.59 326.00 2202.64 328.81 2201.38 331.62 2198.49 332.70 2195.62 331.33 2194.64 328.51 2196.04 325.66 2198.78 324.71 zM2353.75 187.12L2357.28 189.74 2356.24 194.05 2296.23 249.75 2293.55 250.58 2290.99 249.46 2289.78 246.56 2291.05 243.66 2350.80 188.19 2353.75 187.12 z" style="stroke-width:1;visibility:hidden;" fill="#ffff00" stroke-linecap="square" stroke-linejoin="bevel" id="a-0-1" class="qa layer-0 level-1" fill-rule="evenodd" data-area="1201.00" /><path d="M2683.67 32.90L2688.97 38.12 2696.97 43.45 2708.18 55.40 2715.05 60.52 2691.48 67.47 2674.35 74.66 2653.98 85.41 2633.59 98.25 2611.88 114.17 2590.77 131.69 2569.25 151.73 2548.59 173.03 2508.55 221.60 2490.00 247.74 2474.90 271.57 2460.08 299.16 2449.18 323.66 2437.86 354.82 2429.86 383.47 2424.74 410.38 2421.88 437.67 2421.31 465.40 2422.98 493.83 2424.98 506.76 2416.29 514.30 2412.89 520.38 2411.01 527.85 2411.04 548.57 2413.44 563.15 2418.74 582.18 2434.34 609.60 2439.74 627.18 2443.10 634.14 2446.74 649.18 2453.10 668.14 2457.09 686.02 2434.82 694.12 2363.21 728.97 2331.84 742.11 2304.92 757.80 2288.29 772.30 2276.54 788.98 2270.26 795.78 2265.48 804.09 2256.91 812.93 2244.54 828.98 2205.19 870.62 2188.95 884.57 2171.21 893.97 2161.16 896.99 2154.94 896.99 2144.80 877.84 2132.40 860.18 2122.84 851.63 2109.57 842.84 2082.61 829.32 2069.60 824.56 2058.16 822.01 2038.85 822.99 2025.58 819.17 2036.28 799.89 2040.50 788.65 2043.34 776.75 2044.11 765.60 2042.83 755.02 2039.48 744.58 2032.89 732.85 2023.66 721.93 2012.58 712.80 2000.40 706.07 1985.98 701.17 1970.68 698.58 1956.71 698.93 1941.55 701.43 1928.20 705.70 1915.31 712.08 1904.23 719.88 1895.67 728.68 1888.36 739.48 1883.41 750.89 1880.70 763.28 1880.09 777.08 1881.68 791.16 1885.44 804.49 1891.40 817.50 1899.66 830.24 1908.25 840.09 1915.44 856.15 1908.56 876.40 1903.56 896.40 1897.24 929.90 1896.99 941.15 1895.01 949.85 1894.99 965.15 1893.01 973.85 1893.04 998.57 1898.99 1026.84 1899.44 1035.15 1902.99 1046.84 1907.44 1075.15 1918.36 1112.72 1905.86 1108.01 1887.90 1098.48 1871.01 1086.54 1844.84 1065.63 1839.29 1062.69 1823.11 1044.94 1793.01 1024.54 1772.84 1005.63 1763.91 1001.48 1755.01 995.54 1735.84 980.63 1721.91 973.48 1698.63 958.33 1672.62 945.89 1664.07 944.10 1654.60 939.56 1629.10 933.24 1615.16 931.01 1605.85 930.99 1590.22 927.11 1577.85 926.99 1557.16 923.01 1527.50 922.99 1518.16 924.99 1496.43 925.04 1476.16 928.99 1467.85 929.44 1450.16 933.99 1442.85 934.44 1427.16 939.99 1417.85 941.44 1394.16 948.99 1377.23 939.83 1366.56 936.84 1352.01 935.55 1324.79 936.39 1312.36 938.38 1292.54 945.29 1233.10 925.24 1225.85 924.99 1217.16 923.01 1201.85 922.99 1193.16 921.01 1179.85 920.99 1146.22 915.11 1133.17 914.99 1142.42 895.93 1146.61 883.59 1150.68 860.02 1149.09 838.57 1146.12 828.44 1134.92 806.95 1118.89 788.58 1098.63 773.69 1086.33 766.90 1073.19 760.89 1047.42 752.28 1020.22 747.69 975.09 745.22 930.88 746.28 894.06 751.05 851.88 760.37 812.04 772.47 765.38 789.85 723.86 807.76 679.98 829.38 640.03 852.56 591.26 884.23 551.46 912.43 535.20 925.28 510.67 930.76 495.74 936.28 481.03 943.31 454.13 960.52 463.43 931.60 464.00 918.85 467.88 897.20 468.00 848.50 466.00 839.15 465.75 829.93 462.00 817.15 460.00 805.15 459.56 782.88 456.00 775.15 454.88 768.84 447.70 755.31 447.95 744.43 446.05 736.28 499.68 718.11 522.56 708.47 541.83 698.54 560.08 686.89 575.46 674.80 588.63 661.76 603.45 642.98 615.31 623.18 625.08 600.18 630.46 579.59 632.14 559.00 629.63 536.01 624.29 516.98 620.55 509.13 609.90 494.89 602.91 488.47 586.14 477.58 570.24 471.70 552.03 469.59 528.43 471.37 503.36 477.24 478.71 486.69 455.78 499.21 435.90 513.77 415.49 532.78 395.73 555.07 378.17 579.00 364.68 601.52 350.02 634.11 334.91 624.48 321.84 612.63 294.29 597.69 283.75 586.57 278.21 578.08 272.52 573.15 270.12 567.83 263.40 560.18 249.01 548.54 239.28 538.06 240.00 530.85 245.88 511.20 245.95 495.43 244.00 486.85 247.75 474.07 248.00 461.85 250.00 452.50 249.95 434.43 246.00 416.15 246.00 367.50 244.00 358.15 244.00 344.47 263.55 334.17 277.92 324.21 300.08 302.07 310.17 287.55 337.68 234.60 344.43 213.60 346.00 204.92 354.41 200.69 362.16 193.78 368.62 184.80 372.97 175.08 374.59 165.87 373.70 158.56 377.43 146.60 380.89 128.07 385.43 116.60 388.00 97.85 389.46 94.00 398.93 94.00 402.33 101.29 407.96 105.71 414.98 108.39 421.10 108.98 436.72 106.22 445.06 103.13 462.40 94.00 472.15 94.00 484.88 97.98 520.15 100.00 528.88 101.98 548.15 102.00 553.43 103.44 555.84 107.80 563.85 109.51 574.33 108.71 584.75 106.00 614.50 106.00 623.85 104.00 647.48 104.00 648.12 113.76 650.01 116.73 652.78 118.88 660.15 120.08 668.11 117.48 676.82 111.58 682.51 106.00 700.15 106.00 707.81 107.88 726.15 108.00 734.88 109.98 815.81 110.00 818.66 111.95 829.05 114.74 844.52 114.95 859.04 112.32 866.88 113.98 906.55 114.00 912.81 120.11 924.81 124.03 938.14 122.71 943.90 120.11 948.64 116.36 951.84 112.00 1016.15 112.00 1025.50 114.00 1055.57 113.95 1063.85 112.00 1092.15 112.00 1101.50 114.00 1268.15 114.00 1276.88 115.98 1344.15 116.00 1353.50 118.00 1480.50 118.00 1489.85 116.00 1530.15 116.00 1539.50 118.00 1662.15 118.00 1670.88 119.98 1719.15 120.00 1728.50 122.00 1767.50 122.00 1776.85 120.00 1843.50 120.00 1852.85 118.00 1932.02 117.76 1939.99 123.17 1949.37 125.59 1961.30 125.07 1969.51 122.20 1973.02 118.00 1985.17 118.00 2023.15 145.36 2039.05 154.94 2045.18 166.31 2054.45 174.90 2066.19 181.52 2079.82 184.79 2097.38 194.10 2134.40 204.43 2161.50 205.00 2203.16 195.26 2212.79 189.62 2227.55 183.16 2235.07 178.20 2275.86 147.36 2307.08 116.07 2313.68 106.61 2318.87 94.60 2330.07 93.75 2350.06 89.29 2354.88 92.64 2375.26 94.50 2393.46 93.19 2400.82 91.35 2411.88 85.56 2414.95 82.04 2417.03 75.90 2432.84 72.00 2449.15 72.00 2463.88 75.98 2474.57 75.95 2482.84 74.00 2492.07 73.75 2514.16 67.88 2523.07 63.20 2530.57 56.63 2561.30 56.26 2581.84 53.80 2608.14 49.39 2683.67 32.90 zM907.00 1037.49L909.62 1035.12 907.00 1037.49 zM400.00 1029.33L398.00 1014.94 413.39 1006.65 400.00 1029.33 zM1043.99 965.49L1045.62 964.12 1043.99 965.49 zM2141.86 700.93L2132.80 704.82 2130.40 708.44 2130.08 712.70 2131.85 717.50 2135.62 722.53 2147.36 731.51 2170.96 741.84 2173.90 732.52 2174.37 722.45 2171.59 713.77 2168.53 709.54 2159.61 703.29 2147.87 700.61 2141.86 700.93 zM2350.32 676.19L2347.82 677.46 2346.76 680.05 2347.66 682.70 2349.73 684.04 2386.15 690.27 2388.84 689.48 2390.25 687.46 2389.92 684.34 2387.45 682.42 2350.32 676.19 zM743.25 663.89L740.46 665.33 739.56 668.33 744.79 681.77 749.42 688.39 754.93 688.74 758.44 685.07 761.73 676.26 761.46 673.48 759.09 671.43 755.97 671.72 752.28 678.74 746.91 665.72 743.25 663.89 zM2096.31 664.98L2091.82 667.92 2091.92 674.28 2096.24 684.17 2100.31 685.81 2102.46 684.60 2103.49 682.36 2101.39 676.24 2103.84 677.56 2106.29 677.33 2108.32 675.40 2108.65 672.96 2107.23 670.54 2100.45 665.99 2096.31 664.98 zM2424.87 523.37L2425.49 521.99 2424.87 523.37 zM2428.62 519.12L2429.99 518.49 2428.62 519.12 zM650.51 395.39L639.64 402.44 635.55 407.72 633.76 412.78 634.57 416.83 637.00 418.79 640.87 419.48 651.86 417.00 664.36 410.06 671.70 402.61 659.53 395.37 655.45 394.55 650.51 395.39 zM1362.44 400.28L1359.47 401.65 1358.49 404.47 1359.82 407.26 1362.54 408.27 1365.44 406.98 1366.49 404.18 1365.23 401.36 1362.44 400.28 zM2182.98 355.43L2131.09 370.05 2129.01 371.93 2128.77 375.05 2130.54 377.23 2133.30 377.70 2184.84 363.13 2186.92 361.25 2187.26 358.47 2185.69 356.15 2182.98 355.43 zM434.64 331.50L432.11 332.70 430.98 335.26 432.10 371.43 433.45 374.30 436.77 375.25 439.88 372.58 472.39 368.48 474.90 367.15 475.64 363.13 472.11 360.52 439.88 364.52 438.94 334.97 437.62 332.49 434.64 331.50 zM2198.59 324.71L2195.62 326.08 2194.64 328.90 2195.97 331.69 2198.69 332.70 2201.59 331.41 2202.64 328.61 2201.38 325.79 2198.59 324.71 zM429.72 304.06L426.89 305.28 425.77 308.15 427.03 310.97 429.82 312.06 432.65 310.83 433.77 308.06 432.58 305.21 429.72 304.06 zM412.78 274.64L409.69 276.82 409.80 280.60 424.44 301.52 426.89 302.87 429.63 302.27 431.39 299.68 430.94 296.92 416.30 276.00 412.78 274.64 zM2353.03 187.15L2291.05 243.66 2289.78 246.56 2290.99 249.46 2293.55 250.58 2296.23 249.75 2356.24 194.05 2357.45 191.85 2357.14 189.41 2355.45 187.61 2353.03 187.15 zM645.23 208.03L642.40 209.26 641.28 212.13 642.47 214.88 645.33 216.03 648.16 214.81 649.28 211.93 648.02 209.12 645.23 208.03 zM668.87 198.88L666.04 200.11 664.92 202.98 666.18 205.80 668.97 206.88 671.80 205.66 672.92 202.88 671.73 200.04 668.87 198.88 zM2284.29 169.73L2281.32 171.10 2280.34 173.93 2281.67 176.71 2284.39 177.73 2287.22 176.50 2288.34 173.63 2287.08 170.81 2284.29 169.73 zM2572.54 122.08L2508.20 167.22 2506.56 169.94 2507.39 172.96 2509.78 174.41 2512.55 173.93 2575.19 129.33 2576.67 127.31 2576.55 124.51 2574.93 122.64 2572.54 122.08 zM2347.23 154.62L2344.26 155.99 2343.28 158.82 2344.61 161.60 2347.33 162.62 2350.23 161.33 2351.28 158.43 2349.95 155.64 2347.23 154.62 zM2585.30 98.49L2582.33 99.86 2581.35 102.69 2582.68 105.47 2585.40 106.49 2588.30 105.19 2589.35 102.39 2588.09 99.57 2585.30 98.49 zM523.37 88.12L524.21 88.62 522.50 88.00 523.37 88.12 zM524.62 1304.12L522.50 1304.99 524.62 1304.12 zM513.50 1305.99L511.37 1306.87 513.50 1305.99 zM516.62 1305.12L517.50 1304.99 514.50 1305.99 516.62 1305.12 zM1807.38 1048.12L1810.00 1050.49 1807.38 1048.12 zM1805.00 1046.49L1806.62 1047.87 1805.00 1046.49 zM1798.00 1042.49L1799.62 1043.87 1798.00 1042.49 zM1794.00 1039.49L1796.62 1041.87 1794.00 1039.49 zM1791.00 1037.49L1792.62 1038.87 1791.00 1037.49 zM1788.00 1035.49L1789.62 1036.87 1788.00 1035.49 zM913.00 1032.49L910.37 1034.87 913.00 1032.49 zM1784.00 1032.49L1786.62 1034.87 1784.00 1032.49 zM917.00 1029.49L914.37 1031.87 917.00 1029.49 zM924.00 1025.49L922.37 1026.87 924.00 1025.49 zM927.00 1023.49L925.37 1024.87 927.00 1023.49 zM1026.99 973.49L1024.37 975.87 1026.99 973.49 zM1029.99 971.49L1028.37 972.87 1029.99 971.49 zM2433.37 515.87L2431.99 516.49 2433.37 515.87 zM2437.37 512.87L2440.37 511.87 2435.99 513.49 2437.37 512.87 z" style="stroke-width:1;visibility:hidden;" fill="#ff0000" stroke-linecap="square" stroke-linejoin="bevel" id="a-0-0" class="qa layer-0 level-0" fill-rule="evenodd" data-area="1519038.50" /><path d="M2668.37 5.12L2677.37 9.12 2696.62 28.88 2703.99 33.50 2716.62 46.88 2723.99 52.50 2729.62 55.88 2735.99 57.50 2742.62 64.88 2747.62 67.88 2752.37 68.12 2773.62 76.88 2788.50 80.00 2823.50 80.00 2830.50 78.00 2840.38 77.88 2851.62 74.12 2860.38 73.88 2878.50 70.00 2917.50 70.00 2931.62 73.88 2936.37 74.12 2957.37 82.12 2976.99 96.50 2982.99 99.50 2992.49 111.00 2996.12 119.38 2999.87 124.62 3012.87 154.62 3014.99 165.50 3014.99 175.50 3016.99 182.50 3016.99 195.50 3015.87 198.37 3005.49 210.00 2997.49 222.00 2992.37 225.87 2982.50 225.99 2974.37 228.87 2966.50 228.99 2955.62 231.12 2940.37 236.87 2933.62 237.12 2922.37 242.87 2891.62 247.12 2878.37 250.87 2873.62 251.12 2864.37 256.87 2837.62 264.12 2832.99 266.50 2825.37 272.87 2817.62 274.12 2805.62 279.12 2808.74 280.50 2798.37 285.87 2793.62 286.12 2786.37 289.87 2777.62 291.12 2727.37 314.87 2723.50 315.99 2705.62 316.12 2694.62 320.12 2662.12 351.62 2660.12 355.62 2659.87 359.37 2655.87 366.37 2649.99 370.49 2643.87 378.37 2633.49 386.99 2615.49 408.99 2606.49 421.99 2601.99 426.49 2590.62 433.12 2573.99 449.49 2571.37 450.87 2566.50 450.99 2561.50 448.99 2550.50 448.99 2539.62 453.12 2507.62 470.12 2501.37 474.87 2486.62 481.12 2471.99 492.49 2465.99 495.49 2453.99 506.49 2438.62 512.12 2427.99 519.49 2425.12 522.62 2422.99 528.50 2422.99 547.50 2424.87 553.62 2425.12 560.38 2429.87 573.62 2430.12 578.38 2445.87 605.62 2451.12 623.38 2454.87 630.62 2458.12 645.38 2464.87 664.62 2468.87 680.62 2470.74 690.50 2469.49 692.99 2463.37 696.87 2439.62 705.12 2391.37 728.87 2384.62 731.12 2366.37 740.87 2336.62 753.12 2311.99 767.49 2297.49 779.99 2286.49 795.99 2280.12 802.62 2273.87 813.37 2266.12 820.62 2251.87 839.37 2238.12 852.62 2231.87 861.37 2213.37 879.87 2204.62 886.12 2195.37 894.87 2174.37 905.87 2168.37 907.87 2163.50 908.99 2149.62 908.87 2145.50 905.99 2134.50 883.99 2126.50 871.99 2119.38 864.12 2104.00 853.49 2090.38 846.12 2072.38 838.12 2058.38 834.12 2036.50 834.99 2023.50 830.99 2006.50 830.99 2000.37 832.87 1991.62 833.12 1976.50 837.99 1971.62 836.87 1964.38 833.12 1957.50 831.99 1948.62 832.12 1942.62 836.12 1938.12 841.62 1934.49 849.99 1927.12 859.62 1920.12 879.62 1915.12 899.62 1914.87 906.37 1909.12 931.62 1908.99 943.50 1906.99 950.50 1906.99 967.50 1904.99 974.50 1904.99 997.50 1906.87 1003.62 1907.12 1010.38 1910.87 1023.62 1911.12 1032.38 1914.87 1043.62 1915.12 1050.38 1918.87 1065.62 1920.12 1076.38 1932.87 1117.62 1932.99 1132.50 1930.37 1135.87 1924.00 1132.49 1914.38 1124.12 1902.62 1119.87 1881.62 1108.87 1864.00 1096.49 1844.62 1081.87 1838.00 1075.49 1832.00 1072.49 1819.50 1059.99 1815.38 1054.12 1782.62 1031.87 1766.00 1015.49 1757.62 1011.87 1748.00 1005.49 1729.00 990.49 1705.62 977.87 1693.38 969.12 1668.38 957.12 1660.62 955.87 1651.38 951.12 1638.62 948.87 1627.38 945.12 1620.62 944.87 1614.50 942.99 1602.62 942.87 1588.50 938.99 1574.62 938.87 1556.50 934.99 1527.50 934.99 1520.50 936.99 1497.50 936.99 1479.37 940.87 1471.50 940.99 1460.62 943.12 1453.37 945.87 1445.62 946.12 1430.37 951.87 1424.62 952.12 1415.72 955.09 1404.77 951.77 1392.57 952.32 1381.13 956.88 1368.51 965.17 1363.70 970.12 1363.37 972.87 1358.62 973.12 1349.37 976.87 1343.50 976.99 1323.62 969.87 1313.38 964.12 1280.62 954.87 1271.38 950.12 1248.62 943.87 1231.38 937.12 1222.62 936.87 1216.50 934.99 1199.50 934.99 1192.50 932.99 1177.50 932.99 1170.50 930.99 1162.62 930.87 1159.38 929.12 1150.62 928.87 1144.50 926.99 1111.50 925.99 1101.62 929.12 1089.37 937.87 1080.99 941.49 1071.37 949.87 1062.62 952.12 1043.37 965.87 1030.62 971.12 1017.37 980.87 1008.00 984.49 991.12 1000.62 984.37 1009.87 976.50 1012.99 965.50 1012.99 958.50 1014.99 942.62 1015.12 933.00 1019.49 905.62 1038.12 887.12 1056.62 880.87 1065.37 873.12 1072.62 863.50 1084.99 849.50 1107.99 839.50 1118.99 833.12 1130.62 832.87 1134.37 826.12 1141.62 816.87 1165.37 812.12 1172.62 802.12 1193.62 801.87 1198.37 796.87 1216.37 792.12 1227.62 791.87 1234.37 789.12 1241.62 786.12 1255.62 785.87 1264.37 783.99 1270.50 783.99 1289.50 780.12 1303.62 779.87 1308.37 776.87 1318.37 771.37 1322.87 766.62 1322.87 755.38 1319.12 738.50 1315.99 724.62 1316.87 713.62 1309.87 705.12 1301.37 698.88 1290.62 687.38 1280.12 669.38 1271.12 643.50 1270.99 632.50 1274.99 603.50 1274.99 594.62 1277.12 537.37 1300.87 523.37 1304.87 512.62 1306.12 499.37 1311.87 485.62 1316.12 463.37 1325.87 458.50 1326.99 443.50 1326.99 437.62 1323.87 432.00 1318.49 423.62 1313.87 388.12 1277.37 386.00 1271.50 387.12 1257.62 393.88 1240.38 401.12 1211.62 411.12 1178.62 420.88 1158.38 422.00 1148.50 419.88 1139.62 411.88 1123.62 401.12 1107.37 393.12 1084.37 391.88 1069.62 388.00 1053.50 388.00 1028.50 386.00 1021.50 386.00 1010.50 389.00 1005.50 399.38 1000.88 417.00 990.50 434.88 973.38 440.88 962.38 444.12 949.62 447.88 942.38 448.12 937.62 451.88 928.38 452.00 916.50 456.00 895.50 456.00 848.50 454.00 841.50 453.88 831.62 450.12 820.37 449.88 813.62 448.00 807.50 447.88 785.62 444.12 778.37 443.88 773.62 435.12 758.37 436.00 745.50 432.88 733.62 423.88 713.62 414.88 699.62 404.38 689.12 389.00 676.49 377.62 668.87 371.00 662.49 355.00 653.49 347.00 646.49 325.62 632.87 315.00 622.49 287.00 607.49 274.50 594.99 268.88 585.62 259.12 578.37 258.25 576.50 260.75 575.50 254.88 568.62 235.50 551.99 229.12 545.37 226.00 539.50 227.88 534.38 228.12 527.62 234.00 509.50 234.00 496.50 232.12 490.37 232.00 484.50 235.88 472.38 236.00 459.50 238.00 452.50 238.00 435.50 234.00 418.50 234.00 367.50 232.00 360.50 232.12 340.62 237.00 334.50 257.38 323.88 270.38 314.88 290.88 294.38 299.88 281.38 326.88 229.38 333.88 206.38 334.00 198.50 335.12 195.62 346.88 183.38 355.50 172.00 358.88 165.38 364.88 147.38 369.12 124.62 373.88 113.38 376.00 102.50 376.12 94.62 381.62 83.12 384.50 82.00 422.50 82.00 429.50 80.00 450.50 80.00 457.50 82.00 475.37 82.12 485.50 86.00 500.50 86.00 507.50 88.00 522.50 88.00 529.50 90.00 550.50 90.00 556.62 91.88 570.50 92.00 577.50 94.00 614.50 94.00 621.50 92.00 656.50 92.00 663.50 94.00 702.50 94.00 709.50 96.00 728.50 96.00 735.50 98.00 840.50 98.00 846.62 99.88 860.50 100.00 867.50 102.00 924.50 102.00 931.50 100.00 1018.50 100.00 1025.50 102.00 1054.50 102.00 1061.50 100.00 1094.50 100.00 1101.50 102.00 1270.50 102.00 1277.50 104.00 1346.50 104.00 1353.50 106.00 1480.50 106.00 1487.50 104.00 1532.50 104.00 1539.50 106.00 1664.50 106.00 1671.50 108.00 1721.50 108.00 1728.50 110.00 1767.50 110.00 1774.50 108.00 1843.50 108.00 1850.50 106.00 1929.50 106.00 1936.50 104.00 1965.50 104.00 1972.50 106.00 1988.37 106.12 1992.37 108.12 2029.99 135.50 2051.99 148.50 2070.99 164.50 2085.99 174.50 2101.62 182.88 2137.62 192.88 2161.50 193.00 2199.38 183.88 2206.62 179.12 2215.38 175.88 2228.00 168.50 2236.00 161.50 2254.00 149.50 2267.38 138.88 2297.88 108.38 2302.88 101.38 2308.50 88.00 2314.62 83.12 2318.50 82.00 2328.38 81.88 2341.62 78.12 2358.38 75.88 2364.62 73.12 2378.38 70.88 2389.62 66.12 2401.50 66.00 2407.62 64.12 2416.38 63.88 2430.50 60.00 2451.50 60.00 2464.50 64.00 2490.38 61.88 2497.62 59.12 2506.38 57.88 2515.38 53.88 2528.00 42.50 2537.62 38.12 2548.38 35.88 2557.62 32.12 2572.38 29.88 2587.62 25.12 2601.38 22.88 2607.62 20.12 2632.38 15.88 2664.62 5.12 2668.37 5.12 z" style="stroke-width:1;visibility:hidden;" fill="rgba(255,255,255,0.50)" stroke-linecap="square" stroke-linejoin="bevel" id="a-1-0" class="qa layer-1 level-0" data-area="2047521.92" /><path d="M2668.37 5.12L2677.37 9.12 2696.62 28.88 2703.99 33.50 2716.62 46.88 2723.99 52.50 2729.62 55.88 2735.99 57.50 2742.62 64.88 2747.62 67.88 2752.37 68.12 2773.62 76.88 2788.50 80.00 2823.50 80.00 2830.50 78.00 2840.38 77.88 2851.62 74.12 2860.38 73.88 2878.50 70.00 2917.50 70.00 2931.62 73.88 2936.37 74.12 2957.37 82.12 2976.99 96.50 2982.99 99.50 2992.49 111.00 2996.12 119.38 2999.87 124.62 3012.87 154.62 3014.99 165.50 3014.99 175.50 3016.99 182.50 3016.99 195.50 3015.87 198.37 3005.49 210.00 2997.49 222.00 2992.37 225.87 2982.50 225.99 2974.37 228.87 2966.50 228.99 2955.62 231.12 2940.37 236.87 2933.62 237.12 2922.37 242.87 2891.62 247.12 2878.37 250.87 2873.62 251.12 2864.37 256.87 2837.62 264.12 2832.99 266.50 2825.37 272.87 2817.62 274.12 2805.62 279.12 2808.74 280.50 2798.37 285.87 2793.62 286.12 2786.37 289.87 2777.62 291.12 2727.37 314.87 2723.50 315.99 2705.62 316.12 2694.62 320.12 2662.12 351.62 2660.12 355.62 2659.87 359.37 2655.87 366.37 2649.99 370.49 2643.87 378.37 2633.49 386.99 2615.49 408.99 2606.49 421.99 2601.99 426.49 2590.62 433.12 2573.99 449.49 2571.37 450.87 2566.50 450.99 2561.50 448.99 2550.50 448.99 2539.62 453.12 2507.62 470.12 2501.37 474.87 2486.62 481.12 2471.99 492.49 2465.99 495.49 2453.99 506.49 2438.62 512.12 2427.99 519.49 2425.12 522.62 2422.99 528.50 2422.99 547.50 2424.87 553.62 2425.12 560.38 2429.87 573.62 2430.12 578.38 2445.87 605.62 2451.12 623.38 2454.87 630.62 2458.12 645.38 2464.87 664.62 2468.87 680.62 2470.74 690.50 2469.49 692.99 2463.37 696.87 2439.62 705.12 2391.37 728.87 2384.62 731.12 2366.37 740.87 2336.62 753.12 2311.99 767.49 2297.49 779.99 2286.49 795.99 2280.12 802.62 2273.87 813.37 2266.12 820.62 2251.87 839.37 2238.12 852.62 2231.87 861.37 2213.37 879.87 2204.62 886.12 2195.37 894.87 2174.37 905.87 2168.37 907.87 2163.50 908.99 2149.62 908.87 2145.50 905.99 2134.50 883.99 2126.50 871.99 2119.38 864.12 2104.00 853.49 2090.38 846.12 2072.38 838.12 2058.38 834.12 2036.50 834.99 2023.50 830.99 2006.50 830.99 2000.37 832.87 1991.62 833.12 1976.50 837.99 1971.62 836.87 1964.38 833.12 1957.50 831.99 1948.62 832.12 1942.62 836.12 1938.12 841.62 1934.49 849.99 1927.12 859.62 1920.12 879.62 1915.12 899.62 1914.87 906.37 1909.12 931.62 1908.99 943.50 1906.99 950.50 1906.99 967.50 1904.99 974.50 1904.99 997.50 1906.87 1003.62 1907.12 1010.38 1910.87 1023.62 1911.12 1032.38 1914.87 1043.62 1915.12 1050.38 1918.87 1065.62 1920.12 1076.38 1932.87 1117.62 1932.99 1132.50 1930.37 1135.87 1924.00 1132.49 1914.38 1124.12 1902.62 1119.87 1881.62 1108.87 1864.00 1096.49 1844.62 1081.87 1838.00 1075.49 1832.00 1072.49 1819.50 1059.99 1815.38 1054.12 1782.62 1031.87 1766.00 1015.49 1757.62 1011.87 1748.00 1005.49 1729.00 990.49 1705.62 977.87 1693.38 969.12 1668.38 957.12 1660.62 955.87 1651.38 951.12 1638.62 948.87 1627.38 945.12 1620.62 944.87 1614.50 942.99 1602.62 942.87 1588.50 938.99 1574.62 938.87 1556.50 934.99 1527.50 934.99 1520.50 936.99 1497.50 936.99 1479.37 940.87 1471.50 940.99 1460.62 943.12 1453.37 945.87 1445.62 946.12 1430.37 951.87 1424.62 952.12 1415.72 955.09 1404.77 951.77 1392.57 952.32 1381.13 956.88 1368.51 965.17 1363.70 970.12 1363.37 972.87 1358.62 973.12 1349.37 976.87 1343.50 976.99 1323.62 969.87 1313.38 964.12 1280.62 954.87 1271.38 950.12 1248.62 943.87 1231.38 937.12 1222.62 936.87 1216.50 934.99 1199.50 934.99 1192.50 932.99 1177.50 932.99 1170.50 930.99 1162.62 930.87 1159.38 929.12 1150.62 928.87 1144.50 926.99 1111.50 925.99 1101.62 929.12 1089.37 937.87 1080.99 941.49 1071.37 949.87 1062.62 952.12 1043.37 965.87 1030.62 971.12 1017.37 980.87 1008.00 984.49 991.12 1000.62 984.37 1009.87 976.50 1012.99 965.50 1012.99 958.50 1014.99 942.62 1015.12 933.00 1019.49 905.62 1038.12 887.12 1056.62 880.87 1065.37 873.12 1072.62 863.50 1084.99 849.50 1107.99 839.50 1118.99 833.12 1130.62 832.87 1134.37 826.12 1141.62 816.87 1165.37 812.12 1172.62 802.12 1193.62 801.87 1198.37 796.87 1216.37 792.12 1227.62 791.87 1234.37 789.12 1241.62 786.12 1255.62 785.87 1264.37 783.99 1270.50 783.99 1289.50 780.12 1303.62 779.87 1308.37 776.87 1318.37 771.37 1322.87 766.62 1322.87 755.38 1319.12 738.50 1315.99 724.62 1316.87 713.62 1309.87 705.12 1301.37 698.88 1290.62 687.38 1280.12 669.38 1271.12 643.50 1270.99 632.50 1274.99 603.50 1274.99 594.62 1277.12 537.37 1300.87 523.37 1304.87 512.62 1306.12 499.37 1311.87 485.62 1316.12 463.37 1325.87 458.50 1326.99 443.50 1326.99 437.62 1323.87 432.00 1318.49 423.62 1313.87 388.12 1277.37 386.00 1271.50 387.12 1257.62 393.88 1240.38 401.12 1211.62 411.12 1178.62 420.88 1158.38 422.00 1148.50 419.88 1139.62 411.88 1123.62 401.12 1107.37 393.12 1084.37 391.88 1069.62 388.00 1053.50 388.00 1028.50 386.00 1021.50 386.00 1010.50 389.00 1005.50 399.38 1000.88 417.00 990.50 434.88 973.38 440.88 962.38 444.12 949.62 447.88 942.38 448.12 937.62 451.88 928.38 452.00 916.50 456.00 895.50 456.00 848.50 454.00 841.50 453.88 831.62 450.12 820.37 449.88 813.62 448.00 807.50 447.88 785.62 444.12 778.37 443.88 773.62 435.12 758.37 436.00 745.50 432.88 733.62 423.88 713.62 414.88 699.62 404.38 689.12 389.00 676.49 377.62 668.87 371.00 662.49 355.00 653.49 347.00 646.49 325.62 632.87 315.00 622.49 287.00 607.49 274.50 594.99 268.88 585.62 259.12 578.37 258.25 576.50 260.75 575.50 254.88 568.62 235.50 551.99 229.12 545.37 226.00 539.50 227.88 534.38 228.12 527.62 234.00 509.50 234.00 496.50 232.12 490.37 232.00 484.50 235.88 472.38 236.00 459.50 238.00 452.50 238.00 435.50 234.00 418.50 234.00 367.50 232.00 360.50 232.12 340.62 237.00 334.50 257.38 323.88 270.38 314.88 290.88 294.38 299.88 281.38 326.88 229.38 333.88 206.38 334.00 198.50 335.12 195.62 346.88 183.38 355.50 172.00 358.88 165.38 364.88 147.38 369.12 124.62 373.88 113.38 376.00 102.50 376.12 94.62 381.62 83.12 384.50 82.00 422.50 82.00 429.50 80.00 450.50 80.00 457.50 82.00 475.37 82.12 485.50 86.00 500.50 86.00 507.50 88.00 522.50 88.00 529.50 90.00 550.50 90.00 556.62 91.88 570.50 92.00 577.50 94.00 614.50 94.00 621.50 92.00 656.50 92.00 663.50 94.00 702.50 94.00 709.50 96.00 728.50 96.00 735.50 98.00 840.50 98.00 846.62 99.88 860.50 100.00 867.50 102.00 924.50 102.00 931.50 100.00 1018.50 100.00 1025.50 102.00 1054.50 102.00 1061.50 100.00 1094.50 100.00 1101.50 102.00 1270.50 102.00 1277.50 104.00 1346.50 104.00 1353.50 106.00 1480.50 106.00 1487.50 104.00 1532.50 104.00 1539.50 106.00 1664.50 106.00 1671.50 108.00 1721.50 108.00 1728.50 110.00 1767.50 110.00 1774.50 108.00 1843.50 108.00 1850.50 106.00 1929.50 106.00 1936.50 104.00 1965.50 104.00 1972.50 106.00 1988.37 106.12 1992.37 108.12 2029.99 135.50 2051.99 148.50 2070.99 164.50 2085.99 174.50 2101.62 182.88 2137.62 192.88 2161.50 193.00 2199.38 183.88 2206.62 179.12 2215.38 175.88 2228.00 168.50 2236.00 161.50 2254.00 149.50 2267.38 138.88 2297.88 108.38 2302.88 101.38 2308.50 88.00 2314.62 83.12 2318.50 82.00 2328.38 81.88 2341.62 78.12 2358.38 75.88 2364.62 73.12 2378.38 70.88 2389.62 66.12 2401.50 66.00 2407.62 64.12 2416.38 63.88 2430.50 60.00 2451.50 60.00 2464.50 64.00 2490.38 61.88 2497.62 59.12 2506.38 57.88 2515.38 53.88 2528.00 42.50 2537.62 38.12 2548.38 35.88 2557.62 32.12 2572.38 29.88 2587.62 25.12 2601.38 22.88 2607.62 20.12 2632.38 15.88 2664.62 5.12 2668.37 5.12 z" style="stroke-width:1;visibility:hidden;" fill="rgba(255,255,255,0.50)" stroke-linecap="square" stroke-linejoin="bevel" id="a-2-0" class="qa layer-2 level-0" data-area="2047521.92" /></g></svg>