<svg width="2692.99mm" height="1412.99mm"  viewBox="0 0 2693 1413" xmlns="http://www.w3.org/2000/svg" xmlns:xlink="http://www.w3.org/1999/xlink" version="1.1"><rect x="0" y="0" width="2692.99" height="1412.99" style="stroke-width:1;" fill="#ffffff" stroke="#000000" stroke-linecap="square" stroke-linejoin="bevel" /><g  transform="matrix(1.000000000000000000,0.000000000000000000,0.000000000000000000,1.000000000000000000,-278.000000000000000000,152.000000000000000000)" ><rect x="278" y="-152" width="2692.99" height="1412.99" style="stroke-width:1;" fill="#ffffff" stroke-linecap="square" stroke-linejoin="bevel" /><path d="M2578.37 -151.88L2584.50 -150.00 2596.37 -150.25 2604.50 -146.37 2617.50 -146.37 2624.50 -144.37 2638.37 -144.25 2654.37 -140.25 2659.87 -136.75 2662.99 -130.50 2658.49 -118.00 2650.49 -106.00 2641.49 -96.00 2620.49 -62.00 2603.49 -38.00 2578.12 10.62 2575.87 18.37 2560.12 55.62 2555.12 75.62 2554.87 80.37 2550.99 94.50 2551.12 108.38 2554.12 113.38 2558.50 116.00 2576.38 114.88 2585.62 108.12 2594.00 104.50 2612.62 91.12 2624.62 84.12 2629.50 83.00 2643.99 91.50 2651.99 98.50 2663.62 104.88 2675.50 105.00 2678.99 106.50 2694.62 121.88 2710.62 132.88 2729.62 138.88 2741.50 139.00 2748.50 141.00 2767.50 141.00 2788.50 137.00 2801.50 137.00 2808.50 135.00 2818.38 134.88 2831.62 131.12 2843.50 131.00 2850.50 129.00 2872.37 129.12 2882.37 131.12 2891.62 135.88 2899.37 138.12 2909.99 143.50 2920.62 155.88 2933.99 165.50 2952.49 184.00 2955.87 189.62 2960.87 202.62 2961.12 209.38 2964.87 218.62 2965.12 225.38 2966.99 231.50 2967.12 241.38 2970.99 255.50 2970.99 268.50 2966.99 288.50 2966.87 300.37 2963.87 311.37 2955.12 329.62 2954.87 336.37 2952.99 342.50 2952.87 358.37 2948.49 365.99 2939.87 377.37 2927.37 389.87 2882.37 425.87 2878.62 425.87 2867.38 417.12 2842.38 406.12 2818.38 398.12 2808.50 397.99 2804.38 396.12 2798.50 395.99 2783.50 400.99 2766.50 399.99 2763.50 400.99 2749.62 401.12 2721.62 408.12 2708.37 414.87 2688.50 414.99 2681.50 416.99 2667.62 417.12 2653.99 421.49 2642.12 432.62 2629.12 453.62 2625.87 462.37 2602.87 508.37 2597.49 514.99 2594.12 521.62 2590.12 532.62 2583.87 561.37 2576.12 584.62 2571.87 605.37 2569.49 609.99 2562.37 614.87 2543.62 621.12 2514.99 636.49 2484.12 667.62 2475.49 678.99 2466.11 697.68 2463.99 703.50 2464.12 713.67 2476.12 740.67 2482.87 752.92 2482.87 758.37 2480.12 765.62 2476.87 782.37 2471.12 801.62 2470.87 806.37 2464.12 820.62 2461.87 829.37 2444.49 861.99 2438.87 869.37 2435.37 871.87 2430.62 871.87 2424.52 868.80 2421.60 870.93 2397.39 872.38 2363.82 880.97 2344.81 888.47 2341.39 887.92 2339.68 884.55 2341.24 881.46 2361.34 873.36 2377.55 868.43 2396.02 864.49 2413.84 863.39 2376.62 844.87 2366.00 837.49 2356.00 827.49 2338.00 814.49 2333.50 809.99 2319.88 790.62 2307.38 778.12 2296.62 771.87 2291.38 766.12 2281.00 758.49 2266.38 751.12 2252.50 749.99 2245.99 752.49 2238.99 760.49 2230.62 766.12 2224.12 772.62 2217.87 781.37 2196.12 802.62 2189.87 811.37 2184.12 816.62 2170.12 836.62 2168.87 842.37 2165.12 849.62 2161.87 863.37 2158.49 869.99 2151.49 880.99 2145.49 885.99 2139.49 893.99 2132.49 905.99 2126.37 910.87 2112.62 912.12 2100.62 917.12 2082.37 928.87 2068.37 932.87 2063.62 932.87 2056.12 927.37 2049.88 918.62 2029.38 898.12 2020.62 891.87 2012.00 883.49 1995.50 874.99 1989.62 875.12 1979.62 880.12 1964.12 894.62 1955.12 909.62 1949.12 929.62 1948.87 936.37 1940.12 955.62 1937.87 966.37 1928.12 989.62 1924.87 1002.37 1921.12 1011.62 1915.12 1033.62 1913.87 1042.37 1903.87 1069.37 1899.42 1078.11 1905.67 1095.23 1905.40 1098.02 1903.03 1100.07 1899.60 1099.60 1895.99 1092.01 1887.87 1115.37 1880.12 1128.62 1872.49 1146.99 1863.87 1159.37 1843.37 1179.87 1840.50 1180.99 1837.50 1178.99 1834.50 1171.99 1825.38 1165.12 1809.62 1157.87 1802.38 1153.12 1782.00 1146.49 1751.38 1116.12 1738.62 1107.87 1729.38 1098.12 1700.62 1082.87 1697.38 1080.12 1688.29 1080.86 1680.65 1083.64 1671.93 1089.41 1668.17 1089.11 1666.33 1085.81 1667.78 1082.66 1677.22 1076.38 1688.52 1072.81 1673.38 1063.12 1659.38 1056.12 1621.38 1038.12 1604.62 1034.87 1591.38 1029.12 1582.62 1028.87 1566.50 1024.99 1558.62 1024.87 1534.50 1018.99 1519.50 1018.99 1512.50 1016.99 1502.62 1016.87 1487.38 1007.12 1459.62 994.87 1436.38 981.12 1427.62 981.12 1419.62 985.12 1412.37 991.87 1398.99 999.49 1390.99 1006.49 1383.37 1009.87 1329.37 1022.87 1308.62 1022.87 1303.38 1021.12 1296.62 1020.87 1286.50 1016.99 1239.50 1016.99 1232.50 1018.99 1222.62 1019.12 1200.62 1024.12 1193.37 1026.87 1188.62 1027.12 1181.37 1030.87 1146.62 1031.12 1145.73 1031.65 1145.47 1050.29 1081.62 1050.16 1081.50 1048.30 1085.88 1045.67 1087.12 1034.99 1079.50 1034.99 1073.37 1038.16 1061.66 1038.99 1047.37 1045.87 1044.62 1046.12 1045.74 1046.79 1042.37 1050.16 1036.34 1050.29 1007.37 1066.87 989.50 1066.99 982.50 1068.99 965.00 1069.49 960.50 1064.99 953.50 1051.99 946.38 1044.12 921.62 1030.87 913.38 1025.12 902.50 1022.99 883.50 1022.99 869.37 1026.87 864.62 1027.12 860.50 1029.99 855.50 1039.99 848.12 1049.62 847.87 1052.37 844.12 1059.62 843.99 1073.50 842.87 1078.37 820.87 1125.37 815.00 1130.49 799.00 1139.49 789.12 1148.62 782.87 1157.37 766.50 1175.99 757.50 1189.99 742.50 1207.99 734.87 1219.37 712.37 1241.87 703.62 1248.12 696.37 1255.87 692.37 1258.87 686.50 1260.99 669.50 1260.99 656.62 1257.87 643.38 1251.12 636.62 1249.87 626.38 1244.12 617.62 1241.87 607.62 1235.87 597.50 1223.99 591.50 1210.99 588.38 1208.12 582.62 1206.87 577.62 1203.87 553.12 1179.37 547.50 1171.99 544.12 1166.37 543.00 1148.50 545.12 1144.62 554.88 1135.38 554.00 1120.50 556.00 1113.50 556.00 1082.50 554.12 1076.37 552.88 1063.62 549.88 1056.62 546.38 1052.12 533.50 1043.99 527.62 1044.12 522.37 1047.87 516.62 1048.87 503.38 1039.12 496.62 1038.87 488.38 1034.12 463.38 1024.12 450.62 1020.87 441.38 1017.12 433.38 1015.12 426.62 1014.87 419.38 1011.12 414.62 1010.87 405.38 1007.12 399.62 1006.87 397.12 1005.37 396.12 999.62 405.50 981.00 422.38 967.88 430.88 959.38 440.88 944.38 450.88 923.38 452.00 919.50 451.88 847.62 446.12 834.37 444.88 825.62 441.50 819.99 435.12 814.37 430.88 798.62 423.50 785.99 415.50 776.99 402.88 753.62 390.50 740.99 386.50 731.99 381.12 725.37 377.50 716.99 363.12 700.37 357.50 689.99 349.12 680.37 341.50 666.99 328.00 652.49 307.00 636.49 281.00 621.49 278.12 617.37 278.00 613.50 284.88 598.38 286.12 590.62 292.12 573.62 316.88 515.38 324.88 491.38 326.00 486.50 326.00 475.50 328.00 468.50 328.00 454.50 329.88 448.38 330.00 440.50 333.88 422.38 334.12 415.62 335.88 410.38 336.12 401.62 339.88 388.38 342.12 371.62 349.12 351.25 357.12 332.25 368.50 309.63 390.50 279.63 392.75 279.50 391.12 277.62 396.88 272.38 403.12 261.62 406.88 258.38 413.88 248.38 428.88 213.38 430.00 208.50 429.88 192.62 425.12 184.37 419.12 169.37 415.88 155.62 412.12 146.37 408.00 125.50 408.00 84.13 409.50 80.63 412.62 77.75 415.50 76.63 438.50 76.63 451.50 80.63 460.50 80.63 467.50 82.63 484.50 82.63 490.62 84.50 511.37 86.75 514.74 87.66 513.15 89.09 514.62 89.88 519.50 91.00 528.50 91.00 535.50 93.00 550.50 93.00 557.50 95.00 576.50 95.00 583.50 97.00 633.70 97.00 629.54 94.63 690.50 94.63 697.50 92.63 723.54 92.63 712.32 95.00 766.50 95.00 773.50 97.00 838.50 97.00 845.50 95.00 852.50 95.00 859.50 97.00 872.50 97.00 879.50 95.00 910.16 95.00 908.71 92.63 962.50 92.63 968.62 94.50 977.37 95.12 983.50 97.00 993.37 97.12 999.50 99.00 1024.50 99.00 1031.50 101.00 1062.50 101.00 1069.50 99.00 1116.50 99.00 1123.50 101.00 1152.50 101.00 1159.50 103.00 1198.50 103.00 1205.50 105.00 1224.50 105.00 1231.50 107.00 1254.50 107.00 1261.50 109.00 1418.50 109.00 1425.50 111.00 1442.50 111.00 1449.50 113.00 1482.50 113.00 1489.50 115.00 1590.50 115.00 1597.50 113.00 1632.50 113.00 1638.62 111.12 1645.50 113.00 1652.50 113.00 1659.50 111.00 1683.50 111.00 1690.50 109.00 1731.50 109.00 1738.50 107.00 1785.50 107.00 1792.50 105.00 1863.50 105.00 1891.62 115.88 1906.37 120.12 1924.62 127.88 1936.37 130.12 1966.62 146.88 1986.62 155.88 1998.50 159.00 2019.50 159.00 2033.62 155.12 2040.38 154.88 2053.38 149.88 2094.00 126.50 2107.38 115.88 2135.88 87.38 2152.50 59.00 2155.62 56.12 2163.62 53.12 2177.50 53.00 2182.38 51.88 2191.62 48.12 2201.38 45.88 2237.62 30.12 2247.38 27.88 2276.62 14.12 2282.38 12.88 2293.38 7.88 2311.62 -1.88 2333.38 -10.12 2348.62 -19.88 2396.38 -40.12 2432.38 -58.12 2454.00 -72.50 2485.00 -90.50 2501.38 -102.12 2516.00 -114.87 2528.00 -121.87 2542.00 -134.87 2553.38 -141.50 2558.00 -145.87 2569.62 -151.88 2578.37 -151.88 zM1794.16 117.26L1785.50 119.00 1740.85 119.00 1731.50 121.00 1692.85 121.00 1684.57 122.95 1661.85 123.00 1652.50 125.00 1639.00 123.77 1632.50 125.00 1599.85 125.00 1590.50 127.00 1489.50 127.00 1480.15 125.00 1448.88 124.98 1440.15 123.00 1423.81 122.88 1416.15 121.00 1260.88 120.98 1252.15 119.00 1230.88 118.98 1222.15 117.00 1203.81 116.88 1196.15 115.00 1158.88 114.98 1150.15 113.00 1122.88 112.98 1114.15 111.00 1071.85 111.00 1063.57 112.95 1030.88 112.98 1022.15 111.00 997.81 110.88 975.86 107.53 974.80 110.10 969.70 114.59 961.84 118.08 952.26 120.07 942.82 120.16 931.72 117.13 921.87 110.25 919.13 107.00 881.85 107.00 872.50 109.00 858.88 108.98 850.15 107.00 838.50 109.00 772.88 108.98 764.15 107.00 709.85 107.00 700.50 109.00 583.50 109.00 574.15 107.00 556.88 106.98 548.15 105.00 533.81 104.88 501.23 99.80 464.11 127.15 444.58 138.48 425.76 147.61 430.88 165.85 440.88 187.84 442.00 196.30 444.08 200.19 443.86 204.54 439.43 220.60 437.30 227.24 424.17 254.55 411.51 270.91 402.64 286.30 398.68 290.79 398.68 297.31 394.66 307.82 387.88 318.29 366.68 342.45 358.89 361.07 354.00 374.85 351.75 390.07 348.00 404.85 347.75 412.07 340.00 456.85 339.98 469.13 338.00 477.85 337.98 487.13 336.43 494.60 328.10 519.62 303.89 577.07 291.55 613.83 313.84 626.63 335.69 643.28 351.21 659.95 358.70 672.49 367.80 683.84 371.46 691.01 387.21 709.95 400.60 734.13 412.85 746.95 425.46 770.01 433.80 779.84 441.88 793.84 445.68 807.53 451.21 812.95 455.88 820.84 458.65 833.40 463.26 843.84 464.00 919.50 462.10 927.62 451.68 949.61 443.36 962.84 430.86 976.36 415.45 988.02 411.68 996.59 423.62 999.89 429.82 1002.99 444.60 1005.56 467.62 1012.89 493.61 1023.32 499.82 1026.99 508.61 1028.32 518.88 1035.66 526.78 1032.11 538.41 1032.82 554.90 1043.67 560.17 1050.46 564.26 1059.84 568.00 1082.50 567.98 1114.13 566.00 1122.85 566.75 1137.07 564.08 1143.07 555.68 1151.51 556.00 1162.68 562.36 1171.18 585.77 1194.59 594.59 1197.85 600.54 1203.10 607.42 1216.95 615.48 1226.27 640.07 1238.10 647.62 1239.89 660.07 1246.10 671.85 1248.99 686.13 1248.39 704.18 1232.63 727.54 1208.98 747.54 1182.98 757.29 1168.30 780.63 1140.14 791.91 1129.81 807.95 1120.57 811.59 1117.22 831.10 1074.93 832.24 1057.90 837.32 1044.39 845.54 1032.98 851.29 1022.30 859.82 1016.12 883.50 1010.99 903.16 1011.01 916.60 1013.56 954.11 1034.94 963.21 1044.94 969.94 1056.99 980.16 1056.99 988.43 1055.04 1004.16 1054.99 1025.83 1042.12 1052.84 1029.11 1059.15 1027.21 1080.01 1013.42 1092.60 1008.09 1105.01 1004.98 1116.41 1004.22 1126.45 1005.75 1134.42 1009.43 1140.21 1015.18 1142.51 1019.86 1178.16 1018.99 1184.82 1015.74 1209.85 1009.44 1238.43 1005.04 1287.16 1005.01 1299.85 1008.99 1311.85 1010.99 1326.16 1010.99 1371.86 1000.11 1377.12 982.14 1385.28 969.87 1390.86 964.07 1404.60 954.31 1420.42 948.03 1429.61 946.15 1443.39 946.58 1452.56 950.64 1457.55 956.22 1459.52 963.81 1458.61 972.90 1456.70 978.92 1472.86 988.01 1492.63 996.33 1505.82 1004.99 1514.22 1005.11 1521.85 1006.99 1536.22 1007.11 1561.85 1012.99 1593.10 1017.24 1605.70 1022.37 1625.62 1026.89 1679.59 1052.85 1696.84 1063.63 1707.73 1072.94 1725.39 1076.31 1741.71 1081.40 1787.86 1100.41 1789.73 1102.50 1789.78 1105.30 1787.97 1107.44 1785.21 1107.88 1735.60 1087.87 1749.01 1100.54 1759.11 1106.95 1788.88 1136.41 1807.61 1142.32 1816.86 1148.01 1831.59 1154.85 1842.65 1163.17 1856.54 1148.98 1862.48 1140.09 1872.05 1118.61 1847.85 1084.62 1843.00 1073.26 1842.74 1069.01 1843.95 1065.68 1848.65 1062.60 1856.52 1062.40 1869.41 1067.02 1870.06 1060.96 1874.04 1059.10 1877.33 1062.01 1877.34 1071.84 1885.68 1078.72 1888.83 1072.45 1879.78 1047.66 1867.57 1006.28 1867.76 1003.49 1871.48 1001.15 1875.11 1003.64 1887.41 1045.26 1893.53 1062.00 1902.10 1038.92 1906.56 1018.40 1916.89 985.38 1926.10 962.93 1928.89 951.38 1936.99 933.18 1937.56 926.40 1943.89 905.38 1951.63 891.15 1969.08 872.78 1986.85 863.44 1996.16 863.01 2001.61 864.32 2023.11 876.95 2037.90 889.67 2060.52 913.04 2087.48 911.29 2097.84 905.11 2108.82 900.74 2122.53 898.99 2129.64 887.15 2136.29 878.30 2142.04 873.07 2148.54 862.98 2159.32 831.39 2171.64 813.15 2187.63 794.14 2208.59 773.23 2215.63 764.14 2226.14 754.43 2215.10 754.43 2215.58 750.47 2219.72 740.76 2226.54 732.59 2235.58 726.50 2245.79 723.25 2254.68 723.60 2257.79 725.09 2260.86 730.32 2259.80 737.99 2269.60 739.56 2281.57 744.84 2294.84 753.63 2305.91 763.48 2315.11 768.95 2329.21 783.08 2345.01 804.54 2363.69 818.28 2377.01 830.54 2402.86 845.01 2431.61 858.86 2442.48 841.09 2450.01 826.14 2452.89 816.38 2458.99 803.18 2468.28 763.73 2446.86 734.91 2439.89 721.15 2435.92 708.42 2434.56 699.54 2434.98 689.50 2441.25 670.99 2449.65 658.08 2461.13 646.03 2474.06 635.77 2488.76 627.74 2502.52 623.30 2518.13 621.43 2538.84 610.11 2559.69 602.70 2564.56 581.40 2572.10 557.93 2578.56 529.40 2582.89 517.38 2587.21 508.81 2592.41 502.11 2614.01 459.14 2618.32 448.38 2633.63 424.14 2647.81 411.21 2664.85 405.44 2679.16 404.99 2687.43 403.04 2705.16 402.99 2717.82 396.74 2746.85 389.44 2766.50 387.99 2781.16 388.99 2797.43 384.04 2805.22 384.11 2810.82 385.99 2819.22 386.11 2825.60 387.56 2846.62 394.89 2871.99 406.07 2878.33 396.04 2892.52 382.37 2900.88 377.31 2911.20 373.10 2929.80 369.97 2932.54 366.98 2940.99 355.18 2941.01 341.85 2943.56 326.40 2952.37 307.29 2954.99 297.15 2955.11 286.78 2958.99 266.15 2958.99 257.84 2955.24 243.10 2952.99 221.84 2949.44 212.15 2948.34 203.60 2942.57 191.04 2926.08 174.95 2912.18 164.40 2902.70 153.30 2896.14 149.98 2879.17 143.00 2869.15 141.00 2852.84 141.00 2844.57 142.95 2834.84 143.00 2819.20 146.88 2810.84 147.00 2802.57 148.95 2790.84 149.00 2768.57 152.95 2747.88 152.98 2739.15 151.00 2727.93 150.75 2704.46 143.17 2686.97 131.12 2672.68 117.00 2663.88 116.98 2658.39 115.67 2645.16 108.36 2636.97 101.45 2628.25 96.05 2600.17 114.79 2591.98 118.46 2580.16 126.26 2568.57 127.95 2555.93 127.75 2550.84 125.80 2544.78 120.92 2539.44 111.15 2539.01 93.85 2548.89 51.38 2567.32 5.39 2582.33 -24.63 2593.22 -44.20 2610.48 -68.91 2628.51 -97.97 2603.86 -114.97 2597.85 -120.46 2593.74 -125.78 2590.74 -132.76 2590.35 -138.00 2582.81 -138.12 2575.15 -140.00 2570.79 -139.38 2563.03 -133.78 2562.39 -126.18 2558.96 -119.83 2551.68 -112.85 2541.08 -106.63 2529.29 -101.96 2521.34 -103.02 2495.07 -82.80 2439.17 -48.21 2401.16 -29.12 2352.76 -8.38 2346.17 -3.21 2338.16 0.88 2314.78 10.02 2298.16 18.88 2280.60 25.65 2252.16 38.88 2241.15 41.88 2206.16 56.88 2186.16 63.26 2179.20 64.88 2162.78 66.02 2145.08 95.07 2114.92 125.21 2101.07 136.20 2083.55 147.16 2058.16 160.88 2044.16 166.26 2020.57 170.95 1995.93 170.75 1985.38 168.10 1971.39 162.68 1933.14 141.98 1920.38 139.10 1861.15 117.00 1794.16 117.26 zM1087.50 1021.29L1084.80 1022.99 1093.00 1022.99 1092.38 1021.41 1087.50 1021.29 zM1105.31 982.28L1108.11 983.58 1109.16 986.38 1107.83 989.26 1105.01 990.28 1102.21 988.99 1101.16 986.09 1102.49 983.30 1105.31 982.28 zM1242.61 959.68L1246.25 961.51 1249.97 966.47 1248.51 972.13 1245.92 974.51 1238.13 977.29 1233.00 977.43 1225.84 974.56 1224.72 971.88 1225.46 968.49 1228.01 965.12 1240.05 959.12 1242.61 959.68 zM1052.54 944.17L1055.41 945.54 1056.39 948.37 1054.99 951.22 1052.25 952.17 1049.51 950.95 1048.39 948.07 1049.65 945.26 1052.54 944.17 zM1117.28 927.61L1120.08 928.90 1121.13 931.80 1119.80 934.59 1116.98 935.60 1114.18 934.31 1113.13 931.51 1114.46 928.62 1117.28 927.61 zM1469.89 853.64L1467.23 854.51 1464.65 853.43 1463.41 850.91 1464.12 848.20 1479.08 836.04 1485.90 832.64 1487.64 829.74 1491.40 829.36 1496.55 831.84 1499.43 835.11 1499.43 842.25 1495.20 848.08 1490.84 849.38 1488.44 848.81 1485.33 845.09 1485.12 841.95 1469.89 853.64 zM707.67 706.55L719.46 710.01 728.44 715.52 736.08 723.62 741.95 733.71 744.96 742.65 746.05 751.61 745.23 762.35 742.60 770.89 731.81 790.03 721.57 803.02 709.24 809.60 687.70 817.62 676.77 819.42 667.57 819.17 659.29 816.92 651.85 812.62 644.09 803.75 638.57 792.45 635.42 777.90 634.87 762.47 636.82 749.41 640.78 738.69 647.80 728.12 657.32 718.61 667.41 711.91 680.45 707.41 693.91 705.55 707.67 706.55 zM2029.11 693.07L2032.22 694.74 2032.84 698.04 2030.26 703.88 2026.47 705.09 2023.88 703.25 2023.38 700.39 2025.88 694.51 2029.11 693.07 zM1082.47 644.66L1078.90 642.56 1079.05 638.50 1082.08 636.67 1086.70 637.78 1088.51 640.39 1088.01 643.25 1085.52 645.07 1082.47 644.66 zM1147.95 619.77L1151.38 622.53 1151.60 632.59 1145.81 639.92 1142.12 640.72 1139.53 638.41 1139.74 634.91 1137.79 632.93 1137.61 630.12 1140.03 627.55 1143.70 628.00 1144.07 621.82 1147.95 619.77 zM323.46 597.73L326.26 599.02 327.31 601.83 326.05 604.64 323.16 605.72 320.43 604.50 319.31 601.63 320.57 598.81 323.46 597.73 zM2106.25 575.50L2109.05 576.80 2110.10 579.60 2108.77 582.48 2105.95 583.50 2103.15 582.20 2102.10 579.40 2103.43 576.52 2106.25 575.50 zM1660.20 555.26L1665.73 559.17 1665.61 562.34 1663.31 564.39 1660.14 564.16 1656.29 560.62 1656.74 557.02 1660.20 555.26 zM482.60 409.45L485.40 410.75 486.45 413.55 485.19 416.36 482.31 417.45 479.51 416.15 478.46 413.35 479.71 410.53 482.60 409.45 zM2506.79 333.08L2512.51 337.00 2515.77 342.30 2518.83 354.80 2513.90 357.78 2500.67 362.31 2488.61 362.75 2479.73 359.42 2477.08 355.92 2476.12 351.71 2476.95 347.17 2483.71 337.92 2494.54 332.14 2500.07 331.56 2506.79 333.08 zM396.82 308.74L399.80 310.50 400.28 313.96 394.95 330.15 393.17 331.85 390.38 332.12 387.92 330.18 387.62 327.02 392.96 310.83 396.82 308.74 zM514.50 229.90L517.30 231.20 518.35 234.00 517.09 236.81 514.20 237.90 511.47 236.68 510.35 233.80 511.61 230.99 514.50 229.90 z" style="stroke-width:1;" fill="#0000ff" stroke-linecap="square" stroke-linejoin="bevel" id="mergeda-0-4" class="merged qa layer-0 level-4" fill-rule="evenodd" data-area="125680.96" /><path d="M634.87 897.29L653.78 901.16 671.51 908.14 685.51 917.08 696.44 928.09 702.82 940.86 707.03 956.54 708.55 973.31 707.59 992.07 704.18 1012.77 698.85 1033.00 690.53 1056.70 678.73 1085.17 664.34 1116.16 650.95 1141.80 637.54 1163.89 622.45 1185.40 603.88 1208.83 601.21 1203.94 596.69 1199.29 585.77 1194.59 562.36 1171.18 556.00 1162.68 555.68 1151.51 564.08 1143.07 566.51 1138.33 567.00 1128.50 566.00 1122.85 568.00 1113.50 567.95 1081.43 566.00 1073.15 565.75 1065.93 561.88 1053.84 556.21 1045.08 538.41 1032.82 526.78 1032.11 518.88 1035.66 508.61 1028.32 499.82 1026.99 493.61 1023.32 467.62 1012.89 444.60 1005.56 429.80 1002.98 448.16 979.86 464.15 963.92 484.86 946.44 507.03 930.60 528.27 918.04 548.62 908.78 570.57 901.89 593.90 897.33 614.19 895.97 634.87 897.29 z" style="stroke-width:1;" fill="#00ffff" stroke-linecap="square" stroke-linejoin="bevel" id="mergeda-0-3" class="merged qa layer-0 level-3" data-area="44868.68" /><path d="M747.32 775.58L779.25 777.95 819.34 784.43 859.70 794.77 895.08 807.77 911.28 815.32 938.67 831.55 960.22 849.57 969.34 859.61 983.88 881.36 989.53 893.42 996.63 917.34 998.23 940.52 997.04 952.11 990.76 974.58 979.10 997.31 967.71 1012.95 949.07 1031.57 928.01 1020.54 918.61 1014.32 904.22 1011.11 880.90 1011.24 860.82 1015.74 854.08 1019.47 850.63 1023.15 845.54 1032.98 837.32 1044.39 832.24 1057.90 831.10 1074.93 811.59 1117.22 807.95 1120.57 791.91 1129.81 780.63 1140.14 757.29 1168.30 747.54 1182.98 727.54 1208.98 704.18 1232.63 686.13 1248.39 671.85 1248.99 660.07 1246.10 647.62 1239.89 640.07 1238.10 631.61 1233.32 618.90 1228.48 610.42 1220.95 603.62 1208.32 622.45 1185.40 637.54 1163.89 650.95 1141.80 678.73 1085.17 690.53 1056.70 698.85 1033.00 704.18 1012.77 707.59 992.07 708.55 973.31 707.03 956.54 702.82 940.86 696.44 928.09 692.08 922.94 685.51 917.08 671.51 908.14 653.78 901.16 634.87 897.29 614.19 895.97 593.90 897.33 570.57 901.89 548.62 908.78 528.27 918.04 507.03 930.60 484.86 946.44 464.15 963.92 448.16 979.86 429.80 1002.98 423.62 999.89 411.68 996.59 415.45 988.02 430.86 976.36 443.36 962.84 451.68 949.61 461.68 928.61 463.98 920.13 464.00 879.95 474.52 870.07 503.55 846.55 531.83 827.23 557.25 813.26 584.20 801.87 618.50 790.80 637.23 786.25 638.57 792.45 644.09 803.75 651.85 812.62 659.29 816.92 667.57 819.17 676.77 819.42 687.70 817.62 709.24 809.60 721.57 803.02 731.81 790.03 740.27 775.57 747.32 775.58 zM1879.87 1130.37L1880.04 1129.18 1879.87 1130.37 zM939.38 1040.12L938.62 1039.87 939.38 1040.12 zM2574.99 597.42L2573.35 596.24 2574.99 590.50 2574.99 597.42 zM2573.35 596.24L2573.35 596.24 zM2518.83 354.80L2517.93 351.13 2519.83 339.73 2529.47 297.53 2558.09 197.32 2572.10 127.28 2579.13 126.56 2584.55 124.17 2591.98 118.46 2600.17 114.79 2628.25 96.05 2636.97 101.45 2645.16 108.36 2658.39 115.67 2663.88 116.98 2672.68 117.00 2686.97 131.12 2704.46 143.17 2727.93 150.75 2739.15 151.00 2747.88 152.98 2768.57 152.95 2790.84 149.00 2802.57 148.95 2810.84 147.00 2819.20 146.88 2834.84 143.00 2844.57 142.95 2852.84 141.00 2869.15 141.00 2879.17 143.00 2902.70 153.30 2912.18 164.40 2926.08 174.95 2942.57 191.04 2948.34 203.60 2949.44 212.15 2952.99 221.84 2955.24 243.10 2958.99 257.84 2958.99 266.15 2953.10 304.89 2943.24 327.90 2941.01 341.85 2940.99 355.18 2930.59 369.23 2911.20 373.10 2900.88 377.31 2892.52 382.37 2878.33 396.04 2871.99 406.07 2846.62 394.89 2825.60 387.56 2819.22 386.11 2810.82 385.99 2805.22 384.11 2798.50 383.99 2781.16 388.99 2766.50 387.99 2747.90 389.24 2717.82 396.74 2705.16 402.99 2687.43 403.04 2679.16 404.99 2666.78 405.11 2655.82 407.74 2648.44 410.83 2642.14 415.63 2629.21 429.81 2618.32 448.38 2614.01 459.14 2592.41 502.11 2587.21 508.81 2583.32 516.39 2578.56 529.40 2572.10 557.93 2563.07 587.96 2552.46 576.67 2539.21 556.02 2527.57 527.69 2519.04 496.51 2513.94 463.08 2512.12 432.40 2512.53 400.55 2517.16 355.81 2514.20 357.60 2518.83 354.80 zM941.58 283.74L944.93 286.57 943.89 290.57 884.97 348.16 882.32 349.06 879.72 347.99 878.44 345.13 879.64 342.20 938.30 284.85 941.58 283.74 zM2954.99 338.94L2952.99 345.94 2954.99 335.50 2954.99 338.94 zM2968.99 282.94L2966.99 289.94 2968.99 281.50 2968.99 282.94 zM2969.99 272.94L2968.99 275.94 2969.99 272.94 zM2970.99 268.94L2969.99 271.94 2970.99 268.94 z" style="stroke-width:1;" fill="#00ff00" stroke-linecap="square" stroke-linejoin="bevel" id="mergeda-0-2" class="merged qa layer-0 level-2" fill-rule="evenodd" data-area="232541.73" /><path d="" style="stroke-width:1;" fill="#ffff00" stroke-linecap="square" stroke-linejoin="bevel" id="mergeda-0-1" class="merged qa layer-0 level-1" data-area="0.00" /><path d="M2575.38 -139.90L2582.81 -138.12 2590.35 -138.00 2590.74 -132.76 2593.74 -125.78 2597.85 -120.46 2603.86 -114.97 2628.51 -97.97 2610.48 -68.91 2592.84 -43.57 2567.32 5.39 2548.89 51.38 2543.56 72.40 2539.01 93.85 2539.11 109.22 2541.85 116.58 2546.97 123.12 2553.39 127.11 2558.50 128.00 2572.10 127.28 2558.09 197.32 2529.47 297.53 2517.93 351.14 2515.77 342.30 2512.51 337.00 2506.79 333.08 2500.07 331.56 2494.54 332.14 2483.71 337.92 2479.47 342.52 2476.95 347.17 2476.12 351.71 2477.08 355.92 2479.73 359.42 2488.61 362.75 2500.67 362.31 2517.16 355.81 2512.53 400.55 2512.12 432.40 2513.94 463.08 2519.04 496.51 2527.57 527.69 2539.21 556.02 2552.46 576.67 2563.07 587.96 2559.21 602.97 2538.84 610.11 2518.13 621.43 2502.52 623.30 2488.76 627.74 2474.06 635.77 2461.13 646.03 2449.65 658.08 2441.25 670.99 2434.98 689.50 2434.56 699.54 2435.92 708.42 2439.89 721.15 2446.86 734.91 2468.28 763.73 2458.99 803.18 2452.89 816.38 2450.01 826.14 2442.48 841.09 2431.61 858.86 2383.86 835.01 2373.01 827.54 2357.11 812.95 2345.01 804.54 2329.21 783.08 2315.11 768.95 2305.91 763.48 2294.84 753.63 2281.57 744.84 2269.60 739.56 2259.80 737.99 2260.86 730.32 2257.79 725.09 2254.68 723.60 2245.79 723.25 2235.58 726.50 2226.54 732.59 2219.72 740.76 2215.58 750.47 2215.10 754.43 2226.14 754.43 2215.63 764.14 2208.59 773.23 2187.63 794.14 2171.64 813.15 2159.32 831.39 2148.54 862.98 2142.04 873.07 2136.29 878.30 2129.64 887.15 2122.53 898.99 2108.82 900.74 2097.84 905.11 2087.48 911.29 2060.52 913.04 2037.90 889.67 2019.69 874.28 2001.61 864.32 1996.16 863.01 1985.82 863.74 1973.44 869.83 1968.14 873.63 1954.91 886.93 1943.89 905.38 1937.56 926.40 1936.99 933.18 1928.89 951.38 1926.10 962.93 1916.89 985.38 1906.56 1018.40 1902.10 1038.92 1893.53 1062.00 1887.41 1045.26 1875.11 1003.64 1871.48 1001.15 1867.76 1003.49 1867.57 1006.28 1879.78 1047.66 1888.83 1072.45 1885.68 1078.72 1877.34 1071.84 1877.33 1062.01 1874.04 1059.10 1870.06 1060.96 1869.41 1067.02 1856.52 1062.40 1848.65 1062.60 1843.95 1065.68 1842.74 1069.01 1843.00 1073.26 1847.85 1084.62 1872.05 1118.61 1862.48 1140.09 1856.54 1148.98 1842.65 1163.17 1831.59 1154.85 1816.86 1148.01 1807.61 1142.32 1788.88 1136.41 1759.11 1106.95 1749.01 1100.54 1735.60 1087.87 1785.21 1107.88 1787.97 1107.44 1789.78 1105.30 1789.73 1102.50 1787.86 1100.41 1741.71 1081.40 1725.39 1076.31 1707.73 1072.94 1696.84 1063.63 1679.59 1052.85 1625.62 1026.89 1605.70 1022.37 1593.10 1017.24 1561.85 1012.99 1536.22 1007.11 1521.85 1006.99 1514.22 1005.11 1505.82 1004.99 1492.63 996.33 1472.86 988.01 1456.70 978.92 1458.61 972.90 1459.52 963.81 1457.55 956.22 1452.56 950.64 1443.39 946.58 1429.61 946.15 1420.42 948.03 1404.60 954.31 1390.86 964.07 1385.28 969.87 1377.12 982.14 1374.10 990.00 1372.52 999.85 1336.16 1008.99 1326.16 1010.99 1311.85 1010.99 1299.85 1008.99 1287.16 1005.01 1238.43 1005.04 1209.85 1009.44 1184.82 1015.74 1178.16 1018.99 1142.51 1019.86 1140.21 1015.18 1134.42 1009.43 1126.45 1005.75 1116.41 1004.22 1105.01 1004.98 1092.60 1008.09 1080.01 1013.42 1059.15 1027.21 1052.84 1029.11 1025.83 1042.12 1004.16 1054.99 988.43 1055.04 980.16 1056.99 969.94 1056.99 960.21 1041.08 949.07 1031.57 967.71 1012.95 979.10 997.31 985.52 986.08 994.57 963.35 998.23 940.52 996.63 917.34 989.53 893.42 983.88 881.36 969.34 859.61 950.00 840.23 926.02 823.38 911.28 815.32 877.64 800.83 859.70 794.77 819.34 784.43 779.25 777.95 740.27 775.57 745.23 762.35 746.05 751.61 744.96 742.65 741.95 733.71 736.08 723.62 728.44 715.52 719.46 710.01 707.67 706.55 693.91 705.55 680.45 707.41 667.41 711.91 657.32 718.61 647.80 728.12 640.78 738.69 636.82 749.41 634.87 762.47 635.42 777.90 637.23 786.25 618.50 790.80 584.20 801.87 557.25 813.26 531.83 827.23 503.55 846.55 474.52 870.07 464.00 879.95 463.88 846.81 458.65 833.40 456.26 821.84 451.21 812.95 445.68 807.53 440.18 790.47 433.21 778.95 425.46 770.01 416.80 752.84 412.21 746.08 400.60 734.13 387.21 709.95 371.46 691.01 365.21 679.95 358.70 672.49 347.40 655.18 335.69 643.28 313.84 626.63 291.55 613.83 303.89 577.07 328.10 519.62 336.43 494.60 337.98 487.13 338.00 477.85 339.98 469.13 340.00 456.85 347.75 412.07 348.00 404.85 351.75 390.07 354.00 374.85 358.89 361.07 366.68 342.45 387.88 318.29 394.66 307.82 398.68 297.31 398.68 290.79 402.64 286.30 411.51 270.91 424.17 254.55 437.30 227.24 439.43 220.60 443.86 204.54 444.08 200.19 442.00 196.30 440.88 187.84 430.88 165.85 425.76 147.61 444.58 138.48 464.11 127.15 501.23 99.80 533.81 104.88 548.15 105.00 556.88 106.98 574.15 107.00 583.50 109.00 700.50 109.00 709.85 107.00 764.15 107.00 773.50 109.00 838.50 109.00 850.15 107.00 858.88 108.98 872.50 109.00 881.85 107.00 919.13 107.00 921.87 110.25 931.72 117.13 942.82 120.16 952.26 120.07 961.84 118.08 969.70 114.59 974.80 110.10 975.86 107.53 997.81 110.88 1022.15 111.00 1030.88 112.98 1063.57 112.95 1071.85 111.00 1114.15 111.00 1122.88 112.98 1150.15 113.00 1158.88 114.98 1196.15 115.00 1204.88 116.98 1222.15 117.00 1230.88 118.98 1252.15 119.00 1260.88 120.98 1416.15 121.00 1423.81 122.88 1440.15 123.00 1448.88 124.98 1480.15 125.00 1489.50 127.00 1590.50 127.00 1599.85 125.00 1632.50 125.00 1639.00 123.77 1653.57 124.95 1661.85 123.00 1684.57 122.95 1692.85 121.00 1732.57 120.95 1740.85 119.00 1786.57 118.95 1794.85 117.00 1861.15 117.00 1920.38 139.10 1933.14 141.98 1961.41 157.68 1982.38 167.10 1996.81 170.88 2020.57 170.95 2036.85 167.00 2043.13 166.56 2058.16 160.88 2083.55 147.16 2101.07 136.20 2115.86 124.36 2145.08 95.07 2162.30 66.29 2186.16 63.26 2206.16 56.88 2241.15 41.88 2252.16 38.88 2280.60 25.65 2298.16 18.88 2314.78 10.02 2338.16 0.88 2346.17 -3.21 2352.76 -8.38 2401.16 -29.12 2439.17 -48.21 2495.07 -82.80 2521.34 -103.02 2529.29 -101.96 2541.08 -106.63 2551.68 -112.85 2558.96 -119.83 2562.39 -126.18 2563.03 -133.78 2570.79 -139.38 2575.38 -139.90 zM514.00 1047.49L512.38 1046.12 514.00 1047.49 zM1638.00 1046.49L1636.38 1045.12 1638.00 1046.49 zM936.00 1038.49L934.38 1037.12 936.00 1038.49 zM1092.38 1021.41L1093.00 1022.99 1084.80 1022.99 1086.62 1021.41 1092.38 1021.41 zM1105.11 982.28L1102.21 983.58 1101.16 986.48 1102.49 989.26 1105.21 990.28 1108.11 988.99 1109.16 986.18 1107.90 983.37 1105.11 982.28 zM1236.77 960.48L1231.30 962.74 1225.46 968.49 1224.72 971.88 1225.84 974.56 1228.65 976.46 1238.13 977.29 1245.92 974.51 1248.51 972.13 1249.91 969.34 1248.72 963.79 1242.61 959.68 1240.05 959.12 1236.77 960.48 zM1052.34 944.17L1049.51 945.40 1048.39 948.27 1049.65 951.09 1052.44 952.17 1055.41 950.80 1056.39 947.98 1055.06 945.19 1052.34 944.17 zM1117.08 927.61L1114.18 928.90 1113.13 931.71 1114.39 934.52 1117.18 935.61 1120.08 934.31 1121.13 931.41 1119.80 928.62 1117.08 927.61 zM2083.62 928.12L2084.99 927.49 2081.50 928.99 2083.62 928.12 zM1489.65 829.06L1464.59 847.66 1463.40 850.20 1464.40 853.17 1466.87 854.48 1469.30 854.03 1485.12 841.95 1485.49 845.41 1488.75 848.98 1491.19 849.34 1495.76 847.63 1499.31 842.59 1499.86 836.10 1496.26 831.64 1489.65 829.06 zM2028.91 693.06L2025.76 694.66 2023.38 700.39 2023.88 703.25 2026.47 705.09 2030.26 703.88 2032.92 697.65 2031.91 694.36 2028.91 693.06 zM1082.37 636.66L1079.05 638.50 1078.81 642.38 1081.20 644.47 1086.35 644.76 1088.35 642.53 1088.15 639.36 1086.26 637.54 1082.37 636.66 zM1147.24 619.76L1143.91 622.14 1143.70 628.00 1140.03 627.55 1137.56 630.31 1137.87 633.11 1139.74 634.91 1139.53 638.41 1142.46 640.80 1145.81 639.92 1151.69 632.25 1151.38 622.53 1149.94 620.53 1147.24 619.76 zM323.26 597.73L320.43 598.95 319.31 601.83 320.50 604.57 323.36 605.73 326.19 604.50 327.31 601.63 326.12 598.88 323.26 597.73 zM2106.05 575.50L2103.15 576.80 2102.10 579.60 2103.36 582.42 2106.15 583.50 2108.98 582.28 2110.10 579.40 2108.84 576.59 2106.05 575.50 zM1660.01 555.26L1656.74 557.02 1656.29 560.62 1660.14 564.16 1663.40 564.36 1665.61 562.34 1665.73 559.17 1660.01 555.26 zM2596.87 516.37L2593.73 523.60 2597.49 514.99 2596.87 516.37 zM482.41 409.45L479.57 410.67 478.46 413.55 479.71 416.36 482.50 417.45 485.33 416.22 486.45 413.35 485.27 410.60 482.41 409.45 zM940.86 283.71L938.30 284.85 879.64 342.20 878.44 345.13 879.72 347.99 882.32 349.06 884.97 348.16 943.89 290.57 944.82 286.24 943.25 284.33 940.86 283.71 zM396.11 308.74L392.80 311.15 387.52 327.40 387.92 330.18 390.38 332.12 393.17 331.85 394.95 330.15 400.39 313.57 399.59 310.21 396.11 308.74 zM514.30 229.90L511.47 231.12 510.35 234.00 511.54 236.75 514.40 237.90 517.23 236.68 518.35 233.80 517.16 231.05 514.30 229.90 zM517.37 90.12L519.50 91.00 516.50 90.00 517.37 90.12 zM513.37 89.12L515.50 90.00 513.37 89.12 zM1029.99 1053.49L1028.37 1054.87 1029.99 1053.49 zM850.50 1045.99L849.12 1047.62 850.50 1045.99 zM537.00 1046.49L538.62 1047.87 537.00 1046.49 zM519.51 1048.78L524.37 1046.87 527.62 1044.12 524.37 1046.87 518.50 1048.99 519.51 1048.78 zM944.00 1042.49L945.62 1043.87 944.00 1042.49 zM855.50 1039.99L853.12 1042.62 855.50 1039.99 zM506.00 1040.49L507.62 1041.87 506.00 1040.49 zM491.00 1035.49L492.62 1036.87 491.00 1035.49 zM862.00 1028.49L860.12 1030.62 862.00 1028.49 zM919.00 1028.49L921.62 1030.87 919.00 1028.49 zM916.00 1026.49L917.62 1027.87 916.00 1026.49 zM2068.37 932.87L2067.50 932.99 2070.50 931.99 2068.37 932.87 zM2073.62 931.12L2076.50 929.99 2071.50 931.99 2073.62 931.12 zM2079.62 929.12L2080.50 928.99 2077.50 929.99 2079.62 929.12 zM2087.37 925.87L2085.99 926.49 2087.37 925.87 zM2091.37 922.87L2095.99 920.49 2089.99 923.49 2091.37 922.87 zM2599.87 512.37L2599.87 512.37 zM346.03 361.91L346.03 361.91 z" style="stroke-width:1;" fill="#ff0000" stroke-linecap="square" stroke-linejoin="bevel" id="mergeda-0-0" class="merged qa layer-0 level-0" fill-rule="evenodd" data-area="1740103.01" /><defs><pattern id="pattern-fdiag-ffffff7f"  x="0" y="0" width="10" height="10" patternUnits="userSpaceOnUse" ><g style="fill:none;stroke-width:1;" ><line x1="0" y1="0" x2="10" y2="10"  stroke="#ffffff7f"  /></g></pattern></defs><path d="M2578.37 -151.88L2584.50 -150.00 2596.37 -149.88 2603.62 -146.12 2617.50 -146.00 2624.50 -144.00 2637.50 -144.00 2654.37 -139.88 2659.87 -136.38 2662.99 -130.50 2658.49 -118.00 2650.49 -106.00 2641.49 -96.00 2620.49 -62.00 2603.49 -38.00 2578.12 10.62 2575.87 18.37 2560.12 55.62 2555.12 75.62 2554.87 80.37 2550.99 94.50 2551.12 108.38 2554.12 113.38 2558.50 116.00 2576.38 114.88 2585.62 108.12 2594.00 104.50 2612.62 91.12 2624.62 84.12 2629.50 83.00 2643.99 91.50 2651.99 98.50 2663.62 104.88 2675.50 105.00 2678.99 106.50 2694.62 121.88 2710.62 132.88 2729.62 138.88 2741.50 139.00 2748.50 141.00 2767.50 141.00 2788.50 137.00 2801.50 137.00 2808.50 135.00 2818.38 134.88 2831.62 131.12 2843.50 131.00 2850.50 129.00 2872.37 129.12 2882.37 131.12 2891.62 135.88 2899.37 138.12 2909.99 143.50 2920.62 155.88 2933.99 165.50 2952.49 184.00 2955.87 189.62 2960.87 202.62 2961.12 209.38 2964.87 218.62 2965.12 225.38 2966.99 231.50 2967.12 241.38 2970.99 255.50 2970.99 268.50 2966.99 288.50 2966.87 300.37 2963.87 311.37 2955.12 329.62 2954.87 336.37 2952.99 342.50 2952.87 358.37 2948.49 365.99 2939.87 377.37 2927.37 389.87 2882.37 425.87 2878.62 425.87 2867.38 417.12 2842.38 406.12 2818.38 398.12 2808.50 397.99 2804.38 396.12 2798.50 395.99 2783.50 400.99 2766.50 399.99 2763.50 400.99 2749.62 401.12 2721.62 408.12 2708.37 414.87 2688.50 414.99 2681.50 416.99 2667.62 417.12 2653.99 421.49 2642.12 432.62 2629.12 453.62 2625.87 462.37 2602.87 508.37 2597.49 514.99 2594.12 521.62 2590.12 532.62 2583.87 561.37 2576.12 584.62 2571.87 605.37 2569.49 609.99 2562.37 614.87 2543.62 621.12 2514.99 636.49 2484.12 667.62 2475.49 678.99 2466.12 697.62 2463.99 703.50 2463.99 714.50 2465.12 719.38 2471.87 731.62 2482.87 758.37 2480.12 765.62 2476.87 782.37 2471.12 801.62 2470.87 806.37 2464.12 820.62 2461.87 829.37 2444.49 861.99 2438.87 869.37 2435.37 871.87 2430.62 871.87 2376.00 844.49 2366.00 837.49 2349.38 822.12 2338.00 814.49 2333.50 809.99 2319.88 790.62 2307.38 778.12 2296.62 771.87 2291.38 766.12 2275.38 755.12 2262.38 750.12 2252.50 749.99 2245.99 752.49 2238.99 760.49 2230.62 766.12 2224.12 772.62 2217.87 781.37 2196.12 802.62 2189.87 811.37 2184.12 816.62 2170.12 836.62 2168.87 842.37 2165.12 849.62 2161.87 863.37 2158.49 869.99 2151.49 880.99 2145.49 885.99 2139.49 893.99 2132.49 905.99 2126.37 910.87 2112.62 912.12 2100.62 917.12 2082.37 928.87 2068.37 932.87 2063.62 932.87 2056.12 927.37 2049.88 918.62 2029.38 898.12 2020.62 891.87 2012.00 883.49 1995.50 874.99 1989.62 875.12 1979.62 880.12 1964.12 894.62 1955.12 909.62 1949.12 929.62 1948.87 936.37 1940.12 955.62 1937.87 966.37 1928.12 989.62 1918.12 1021.62 1913.87 1042.37 1903.87 1069.37 1896.12 1084.62 1895.87 1094.37 1887.87 1115.37 1880.12 1128.62 1872.87 1146.37 1866.49 1155.99 1843.37 1179.87 1840.50 1180.99 1837.50 1178.99 1834.50 1171.99 1825.38 1165.12 1809.62 1157.87 1802.38 1153.12 1782.00 1146.49 1751.38 1116.12 1738.62 1107.87 1729.38 1098.12 1700.62 1082.87 1690.00 1073.49 1673.38 1063.12 1659.38 1056.12 1621.38 1038.12 1604.62 1034.87 1591.38 1029.12 1582.62 1028.87 1566.50 1024.99 1558.62 1024.87 1534.50 1018.99 1519.50 1018.99 1512.50 1016.99 1502.62 1016.87 1487.38 1007.12 1459.62 994.87 1436.38 981.12 1427.62 981.12 1419.62 985.12 1412.37 991.87 1398.99 999.49 1390.99 1006.49 1383.37 1009.87 1329.37 1022.87 1308.62 1022.87 1303.38 1021.12 1296.62 1020.87 1286.50 1016.99 1239.50 1016.99 1233.37 1018.87 1223.50 1018.99 1212.62 1021.12 1197.37 1025.87 1188.62 1027.12 1180.50 1030.99 1147.50 1030.99 1140.50 1032.99 1123.50 1032.99 1116.50 1034.99 1079.50 1034.99 1057.62 1040.12 1030.62 1053.12 1017.37 1061.87 1007.37 1066.87 989.50 1066.99 982.50 1068.99 965.00 1069.49 960.50 1064.99 953.50 1051.99 946.38 1044.12 921.62 1030.87 913.38 1025.12 902.50 1022.99 883.50 1022.99 869.37 1026.87 864.62 1027.12 860.50 1029.99 855.50 1039.99 848.12 1049.62 847.87 1052.37 844.12 1059.62 843.99 1073.50 842.87 1078.37 820.87 1125.37 815.00 1130.49 799.00 1139.49 789.12 1148.62 782.87 1157.37 766.50 1175.99 757.50 1189.99 742.50 1207.99 734.87 1219.37 712.37 1241.87 703.62 1248.12 696.37 1255.87 692.37 1258.87 686.50 1260.99 669.50 1260.99 656.62 1257.87 643.38 1251.12 636.62 1249.87 626.38 1244.12 617.62 1241.87 607.62 1235.87 597.50 1223.99 591.50 1210.99 588.38 1208.12 582.62 1206.87 577.62 1203.87 553.12 1179.37 547.50 1171.99 544.12 1166.37 543.00 1148.50 545.12 1144.62 554.88 1135.38 554.00 1120.50 556.00 1113.50 556.00 1082.50 554.12 1076.37 552.88 1063.62 549.88 1056.62 546.38 1052.12 533.50 1043.99 527.62 1044.12 522.37 1047.87 516.62 1048.87 503.38 1039.12 496.62 1038.87 488.38 1034.12 463.38 1024.12 450.62 1020.87 441.38 1017.12 433.38 1015.12 426.62 1014.87 419.38 1011.12 414.62 1010.87 405.38 1007.12 399.62 1006.87 397.12 1005.37 396.12 999.62 405.50 981.00 422.38 967.88 430.88 959.38 440.88 944.38 450.88 923.38 452.00 919.50 451.88 847.62 446.12 834.37 444.88 825.62 441.50 819.99 435.12 814.37 430.88 798.62 423.50 785.99 415.50 776.99 402.88 753.62 390.50 740.99 386.50 731.99 381.12 725.37 377.50 716.99 363.12 700.37 357.50 689.99 349.12 680.37 341.50 666.99 328.00 652.49 307.00 636.49 281.00 621.49 278.12 617.37 278.00 613.50 284.88 598.38 286.12 590.62 292.12 573.62 316.88 515.38 324.88 491.38 326.00 486.50 326.00 475.50 328.00 468.50 328.00 454.50 329.88 448.38 330.00 440.50 333.88 422.38 334.12 415.62 335.88 410.38 336.12 401.62 339.88 388.38 342.12 371.62 347.12 357.62 352.88 345.38 357.12 332.62 366.50 314.00 374.50 302.00 392.75 279.50 391.12 277.62 396.88 272.38 403.12 261.62 406.88 258.38 413.88 248.38 426.88 220.38 429.88 209.38 429.88 192.62 425.12 184.37 419.12 169.37 415.88 155.62 412.12 146.37 408.12 126.37 408.00 84.50 410.62 80.12 413.50 79.00 442.50 79.00 456.62 82.88 468.50 83.00 489.50 87.00 500.50 87.00 519.50 91.00 528.50 91.00 535.50 93.00 550.50 93.00 557.50 95.00 576.50 95.00 583.50 97.00 700.50 97.00 707.50 95.00 766.50 95.00 773.50 97.00 838.50 97.00 844.62 95.12 852.50 95.00 859.50 97.00 872.50 97.00 879.50 95.00 976.50 95.00 982.62 96.88 992.50 97.00 999.50 99.00 1024.50 99.00 1031.50 101.00 1062.50 101.00 1069.50 99.00 1116.50 99.00 1123.50 101.00 1152.50 101.00 1159.50 103.00 1198.50 103.00 1205.50 105.00 1224.50 105.00 1231.50 107.00 1254.50 107.00 1261.50 109.00 1418.50 109.00 1425.50 111.00 1442.50 111.00 1449.50 113.00 1482.50 113.00 1489.50 115.00 1590.50 115.00 1597.50 113.00 1632.50 113.00 1638.62 111.12 1645.50 113.00 1652.50 113.00 1659.50 111.00 1683.50 111.00 1690.50 109.00 1731.50 109.00 1738.50 107.00 1785.50 107.00 1792.50 105.00 1863.50 105.00 1891.62 115.88 1906.37 120.12 1924.62 127.88 1936.37 130.12 1966.62 146.88 1986.62 155.88 1998.50 159.00 2019.50 159.00 2033.62 155.12 2040.38 154.88 2053.38 149.88 2094.00 126.50 2107.38 115.88 2135.88 87.38 2152.50 59.00 2155.62 56.12 2163.62 53.12 2177.50 53.00 2182.38 51.88 2191.62 48.12 2201.38 45.88 2237.62 30.12 2247.38 27.88 2276.62 14.12 2282.38 12.88 2293.38 7.88 2311.62 -1.88 2333.38 -10.12 2348.62 -19.88 2396.38 -40.12 2432.38 -58.12 2454.00 -72.50 2485.00 -90.50 2498.00 -99.50 2516.00 -114.50 2528.00 -121.50 2542.00 -134.50 2551.00 -139.50 2564.00 -149.50 2569.62 -151.88 2578.37 -151.88 z" style="stroke-width:1;" fill="url(#pattern-fdiag-ffffff7f)" stroke="rgba(255,255,255,0.50)" stroke-linecap="square" stroke-linejoin="bevel" id="mergeda-1-0" class="merged qa layer-1 level-0" data-area="2140406.17" /><defs><pattern id="pattern-bdiag-ffffff7f"  x="0" y="0" width="10" height="10" patternUnits="userSpaceOnUse" ><g style="fill:none;stroke-width:1;" ><line x1="10" y1="0" x2="0" y2="10"  stroke="#ffffff7f"  /></g></pattern></defs><path d="M2578.37 -151.88L2584.50 -150.00 2596.37 -149.88 2603.62 -146.12 2617.50 -146.00 2624.50 -144.00 2637.50 -144.00 2654.37 -139.88 2659.87 -136.38 2662.99 -130.50 2658.49 -118.00 2650.49 -106.00 2641.49 -96.00 2620.49 -62.00 2603.49 -38.00 2578.12 10.62 2575.87 18.37 2560.12 55.62 2555.12 75.62 2554.87 80.37 2550.99 94.50 2551.12 108.38 2554.12 113.38 2558.50 116.00 2576.38 114.88 2585.62 108.12 2594.00 104.50 2612.62 91.12 2624.62 84.12 2629.50 83.00 2643.99 91.50 2651.99 98.50 2663.62 104.88 2675.50 105.00 2678.99 106.50 2694.62 121.88 2710.62 132.88 2729.62 138.88 2741.50 139.00 2748.50 141.00 2767.50 141.00 2788.50 137.00 2801.50 137.00 2808.50 135.00 2818.38 134.88 2831.62 131.12 2843.50 131.00 2850.50 129.00 2872.37 129.12 2882.37 131.12 2891.62 135.88 2899.37 138.12 2909.99 143.50 2920.62 155.88 2933.99 165.50 2952.49 184.00 2955.87 189.62 2960.87 202.62 2961.12 209.38 2964.87 218.62 2965.12 225.38 2966.99 231.50 2967.12 241.38 2970.99 255.50 2970.99 268.50 2966.99 288.50 2966.87 300.37 2963.87 311.37 2955.12 329.62 2954.87 336.37 2952.99 342.50 2952.87 358.37 2948.49 365.99 2939.87 377.37 2927.37 389.87 2882.37 425.87 2878.62 425.87 2867.38 417.12 2842.38 406.12 2818.38 398.12 2808.50 397.99 2804.38 396.12 2798.50 395.99 2783.50 400.99 2766.50 399.99 2763.50 400.99 2749.62 401.12 2721.62 408.12 2708.37 414.87 2688.50 414.99 2681.50 416.99 2667.62 417.12 2653.99 421.49 2642.12 432.62 2629.12 453.62 2625.87 462.37 2602.87 508.37 2597.49 514.99 2594.12 521.62 2590.12 532.62 2583.87 561.37 2576.12 584.62 2571.87 605.37 2569.49 609.99 2562.37 614.87 2543.62 621.12 2514.99 636.49 2484.12 667.62 2475.49 678.99 2466.12 697.62 2463.99 703.50 2463.99 714.50 2465.12 719.38 2471.87 731.62 2482.87 758.37 2480.12 765.62 2476.87 782.37 2471.12 801.62 2470.87 806.37 2464.12 820.62 2461.87 829.37 2444.49 861.99 2438.87 869.37 2435.37 871.87 2430.62 871.87 2376.00 844.49 2366.00 837.49 2349.38 822.12 2338.00 814.49 2333.50 809.99 2319.88 790.62 2307.38 778.12 2296.62 771.87 2291.38 766.12 2275.38 755.12 2262.38 750.12 2252.50 749.99 2245.99 752.49 2238.99 760.49 2230.62 766.12 2224.12 772.62 2217.87 781.37 2196.12 802.62 2189.87 811.37 2184.12 816.62 2170.12 836.62 2168.87 842.37 2165.12 849.62 2161.87 863.37 2158.49 869.99 2151.49 880.99 2145.49 885.99 2139.49 893.99 2132.49 905.99 2126.37 910.87 2112.62 912.12 2100.62 917.12 2082.37 928.87 2068.37 932.87 2063.62 932.87 2056.12 927.37 2049.88 918.62 2029.38 898.12 2020.62 891.87 2012.00 883.49 1995.50 874.99 1989.62 875.12 1979.62 880.12 1964.12 894.62 1955.12 909.62 1949.12 929.62 1948.87 936.37 1940.12 955.62 1937.87 966.37 1928.12 989.62 1918.12 1021.62 1913.87 1042.37 1903.87 1069.37 1896.12 1084.62 1895.87 1094.37 1887.87 1115.37 1880.12 1128.62 1872.87 1146.37 1866.49 1155.99 1843.37 1179.87 1840.50 1180.99 1837.50 1178.99 1834.50 1171.99 1825.38 1165.12 1809.62 1157.87 1802.38 1153.12 1782.00 1146.49 1751.38 1116.12 1738.62 1107.87 1729.38 1098.12 1700.62 1082.87 1690.00 1073.49 1673.38 1063.12 1659.38 1056.12 1621.38 1038.12 1604.62 1034.87 1591.38 1029.12 1582.62 1028.87 1566.50 1024.99 1558.62 1024.87 1534.50 1018.99 1519.50 1018.99 1512.50 1016.99 1502.62 1016.87 1487.38 1007.12 1459.62 994.87 1436.38 981.12 1427.62 981.12 1419.62 985.12 1412.37 991.87 1398.99 999.49 1390.99 1006.49 1383.37 1009.87 1329.37 1022.87 1308.62 1022.87 1303.38 1021.12 1296.62 1020.87 1286.50 1016.99 1239.50 1016.99 1233.37 1018.87 1223.50 1018.99 1212.62 1021.12 1197.37 1025.87 1188.62 1027.12 1180.50 1030.99 1147.50 1030.99 1140.50 1032.99 1123.50 1032.99 1116.50 1034.99 1079.50 1034.99 1057.62 1040.12 1030.62 1053.12 1017.37 1061.87 1007.37 1066.87 989.50 1066.99 982.50 1068.99 965.00 1069.49 960.50 1064.99 953.50 1051.99 946.38 1044.12 921.62 1030.87 913.38 1025.12 902.50 1022.99 883.50 1022.99 869.37 1026.87 864.62 1027.12 860.50 1029.99 855.50 1039.99 848.12 1049.62 847.87 1052.37 844.12 1059.62 843.99 1073.50 842.87 1078.37 820.87 1125.37 815.00 1130.49 799.00 1139.49 789.12 1148.62 782.87 1157.37 766.50 1175.99 757.50 1189.99 742.50 1207.99 734.87 1219.37 712.37 1241.87 703.62 1248.12 696.37 1255.87 692.37 1258.87 686.50 1260.99 669.50 1260.99 656.62 1257.87 643.38 1251.12 636.62 1249.87 626.38 1244.12 617.62 1241.87 607.62 1235.87 597.50 1223.99 591.50 1210.99 588.38 1208.12 582.62 1206.87 577.62 1203.87 553.12 1179.37 547.50 1171.99 544.12 1166.37 543.00 1148.50 545.12 1144.62 554.88 1135.38 554.00 1120.50 556.00 1113.50 556.00 1082.50 554.12 1076.37 552.88 1063.62 549.88 1056.62 546.38 1052.12 533.50 1043.99 527.62 1044.12 522.37 1047.87 516.62 1048.87 503.38 1039.12 496.62 1038.87 488.38 1034.12 463.38 1024.12 450.62 1020.87 441.38 1017.12 433.38 1015.12 426.62 1014.87 419.38 1011.12 414.62 1010.87 405.38 1007.12 399.62 1006.87 397.12 1005.37 396.12 999.62 405.50 981.00 422.38 967.88 430.88 959.38 440.88 944.38 450.88 923.38 452.00 919.50 451.88 847.62 446.12 834.37 444.88 825.62 441.50 819.99 435.12 814.37 430.88 798.62 423.50 785.99 415.50 776.99 402.88 753.62 390.50 740.99 386.50 731.99 381.12 725.37 377.50 716.99 363.12 700.37 357.50 689.99 349.12 680.37 341.50 666.99 328.00 652.49 307.00 636.49 281.00 621.49 278.12 617.37 278.00 613.50 284.88 598.38 286.12 590.62 292.12 573.62 316.88 515.38 324.88 491.38 326.00 486.50 326.00 475.50 328.00 468.50 328.00 454.50 329.88 448.38 330.00 440.50 333.88 422.38 334.12 415.62 335.88 410.38 336.12 401.62 339.88 388.38 342.12 371.62 347.12 357.62 352.88 345.38 357.12 332.62 366.50 314.00 374.50 302.00 392.75 279.50 391.12 277.62 396.88 272.38 403.12 261.62 406.88 258.38 413.88 248.38 426.88 220.38 429.88 209.38 429.88 192.62 425.12 184.37 419.12 169.37 415.88 155.62 412.12 146.37 408.12 126.37 408.00 84.50 410.62 80.12 413.50 79.00 442.50 79.00 456.62 82.88 468.50 83.00 489.50 87.00 500.50 87.00 519.50 91.00 528.50 91.00 535.50 93.00 550.50 93.00 557.50 95.00 576.50 95.00 583.50 97.00 700.50 97.00 707.50 95.00 766.50 95.00 773.50 97.00 838.50 97.00 844.62 95.12 852.50 95.00 859.50 97.00 872.50 97.00 879.50 95.00 976.50 95.00 982.62 96.88 992.50 97.00 999.50 99.00 1024.50 99.00 1031.50 101.00 1062.50 101.00 1069.50 99.00 1116.50 99.00 1123.50 101.00 1152.50 101.00 1159.50 103.00 1198.50 103.00 1205.50 105.00 1224.50 105.00 1231.50 107.00 1254.50 107.00 1261.50 109.00 1418.50 109.00 1425.50 111.00 1442.50 111.00 1449.50 113.00 1482.50 113.00 1489.50 115.00 1590.50 115.00 1597.50 113.00 1632.50 113.00 1638.62 111.12 1645.50 113.00 1652.50 113.00 1659.50 111.00 1683.50 111.00 1690.50 109.00 1731.50 109.00 1738.50 107.00 1785.50 107.00 1792.50 105.00 1863.50 105.00 1891.62 115.88 1906.37 120.12 1924.62 127.88 1936.37 130.12 1966.62 146.88 1986.62 155.88 1998.50 159.00 2019.50 159.00 2033.62 155.12 2040.38 154.88 2053.38 149.88 2094.00 126.50 2107.38 115.88 2135.88 87.38 2152.50 59.00 2155.62 56.12 2163.62 53.12 2177.50 53.00 2182.38 51.88 2191.62 48.12 2201.38 45.88 2237.62 30.12 2247.38 27.88 2276.62 14.12 2282.38 12.88 2293.38 7.88 2311.62 -1.88 2333.38 -10.12 2348.62 -19.88 2396.38 -40.12 2432.38 -58.12 2454.00 -72.50 2485.00 -90.50 2498.00 -99.50 2516.00 -114.50 2528.00 -121.50 2542.00 -134.50 2551.00 -139.50 2564.00 -149.50 2569.62 -151.88 2578.37 -151.88 z" style="stroke-width:1;" fill="url(#pattern-bdiag-ffffff7f)" stroke="rgba(255,255,255,0.50)" stroke-linecap="square" stroke-linejoin="bevel" id="mergeda-2-0" class="merged qa layer-2 level-0" data-area="2140406.17" /><path d="M2578.37 -151.88L2584.50 -150.00 2596.37 -150.25 2604.50 -146.37 2617.50 -146.37 2624.50 -144.37 2638.37 -144.25 2654.37 -140.25 2659.87 -136.75 2662.99 -130.50 2658.49 -118.00 2650.49 -106.00 2641.49 -96.00 2620.49 -62.00 2603.49 -38.00 2578.12 10.62 2575.87 18.37 2560.12 55.62 2555.12 75.62 2554.87 80.37 2550.99 94.50 2551.12 108.38 2554.12 113.38 2558.50 116.00 2576.38 114.88 2585.62 108.12 2594.00 104.50 2612.62 91.12 2624.62 84.12 2629.50 83.00 2643.99 91.50 2651.99 98.50 2663.62 104.88 2675.50 105.00 2678.99 106.50 2694.62 121.88 2710.62 132.88 2729.62 138.88 2741.50 139.00 2748.50 141.00 2767.50 141.00 2788.50 137.00 2801.50 137.00 2808.50 135.00 2818.38 134.88 2831.62 131.12 2843.50 131.00 2850.50 129.00 2872.37 129.12 2882.37 131.12 2891.62 135.88 2899.37 138.12 2909.99 143.50 2920.62 155.88 2933.99 165.50 2952.49 184.00 2955.87 189.62 2960.87 202.62 2961.12 209.38 2964.87 218.62 2965.12 225.38 2966.99 231.50 2967.12 241.38 2970.99 255.50 2970.99 268.50 2966.99 288.50 2966.87 300.37 2963.87 311.37 2955.12 329.62 2954.87 336.37 2952.99 342.50 2952.87 358.37 2948.49 365.99 2939.87 377.37 2927.37 389.87 2882.37 425.87 2878.62 425.87 2867.38 417.12 2842.38 406.12 2818.38 398.12 2808.50 397.99 2804.38 396.12 2798.50 395.99 2783.50 400.99 2766.50 399.99 2763.50 400.99 2749.62 401.12 2721.62 408.12 2708.37 414.87 2688.50 414.99 2681.50 416.99 2667.62 417.12 2653.99 421.49 2642.12 432.62 2629.12 453.62 2625.87 462.37 2602.87 508.37 2597.49 514.99 2594.12 521.62 2590.12 532.62 2583.87 561.37 2576.12 584.62 2571.87 605.37 2569.49 609.99 2562.37 614.87 2543.62 621.12 2514.99 636.49 2484.12 667.62 2475.49 678.99 2466.11 697.68 2463.99 703.50 2464.12 713.67 2476.12 740.67 2482.87 752.92 2482.87 758.37 2480.12 765.62 2476.87 782.37 2471.12 801.62 2470.87 806.37 2464.12 820.62 2461.87 829.37 2444.49 861.99 2438.87 869.37 2435.37 871.87 2430.62 871.87 2424.52 868.80 2421.60 870.93 2397.39 872.38 2363.82 880.97 2344.81 888.47 2341.39 887.92 2339.68 884.55 2341.24 881.46 2361.34 873.36 2377.55 868.43 2396.02 864.49 2413.84 863.39 2376.62 844.87 2366.00 837.49 2356.00 827.49 2338.00 814.49 2333.50 809.99 2319.88 790.62 2307.38 778.12 2296.62 771.87 2291.38 766.12 2281.00 758.49 2266.38 751.12 2252.50 749.99 2245.99 752.49 2238.99 760.49 2230.62 766.12 2224.12 772.62 2217.87 781.37 2196.12 802.62 2189.87 811.37 2184.12 816.62 2170.12 836.62 2168.87 842.37 2165.12 849.62 2161.87 863.37 2158.49 869.99 2151.49 880.99 2145.49 885.99 2139.49 893.99 2132.49 905.99 2126.37 910.87 2112.62 912.12 2100.62 917.12 2082.37 928.87 2068.37 932.87 2063.62 932.87 2056.12 927.37 2049.88 918.62 2029.38 898.12 2020.62 891.87 2012.00 883.49 1995.50 874.99 1989.62 875.12 1979.62 880.12 1964.12 894.62 1955.12 909.62 1949.12 929.62 1948.87 936.37 1940.12 955.62 1937.87 966.37 1928.12 989.62 1924.87 1002.37 1921.12 1011.62 1915.12 1033.62 1913.87 1042.37 1903.87 1069.37 1899.42 1078.11 1905.67 1095.23 1905.40 1098.02 1903.03 1100.07 1899.60 1099.60 1895.99 1092.01 1887.87 1115.37 1880.12 1128.62 1872.49 1146.99 1863.87 1159.37 1843.37 1179.87 1840.50 1180.99 1837.50 1178.99 1834.50 1171.99 1825.38 1165.12 1809.62 1157.87 1802.38 1153.12 1782.00 1146.49 1751.38 1116.12 1738.62 1107.87 1729.38 1098.12 1700.62 1082.87 1697.38 1080.12 1688.29 1080.86 1680.65 1083.64 1671.93 1089.41 1668.17 1089.11 1666.33 1085.81 1667.78 1082.66 1677.22 1076.38 1688.52 1072.81 1673.38 1063.12 1659.38 1056.12 1621.38 1038.12 1604.62 1034.87 1591.38 1029.12 1582.62 1028.87 1566.50 1024.99 1558.62 1024.87 1534.50 1018.99 1519.50 1018.99 1512.50 1016.99 1502.62 1016.87 1487.38 1007.12 1459.62 994.87 1436.38 981.12 1427.62 981.12 1419.62 985.12 1412.37 991.87 1398.99 999.49 1390.99 1006.49 1383.37 1009.87 1329.37 1022.87 1308.62 1022.87 1303.38 1021.12 1296.62 1020.87 1286.50 1016.99 1239.50 1016.99 1232.50 1018.99 1222.62 1019.12 1200.62 1024.12 1193.37 1026.87 1188.62 1027.12 1181.37 1030.87 1146.62 1031.12 1145.73 1031.65 1145.47 1050.29 1081.62 1050.16 1081.50 1048.30 1085.88 1045.67 1087.12 1034.99 1079.50 1034.99 1073.37 1038.16 1061.66 1038.99 1047.37 1045.87 1044.62 1046.12 1045.74 1046.79 1042.37 1050.16 1036.34 1050.29 1007.37 1066.87 989.50 1066.99 982.50 1068.99 965.00 1069.49 960.50 1064.99 953.50 1051.99 946.38 1044.12 921.62 1030.87 913.38 1025.12 902.50 1022.99 883.50 1022.99 869.37 1026.87 864.62 1027.12 860.50 1029.99 855.50 1039.99 848.12 1049.62 847.87 1052.37 844.12 1059.62 843.99 1073.50 842.87 1078.37 820.87 1125.37 815.00 1130.49 799.00 1139.49 789.12 1148.62 782.87 1157.37 766.50 1175.99 757.50 1189.99 742.50 1207.99 734.87 1219.37 712.37 1241.87 703.62 1248.12 696.37 1255.87 692.37 1258.87 686.50 1260.99 669.50 1260.99 656.62 1257.87 643.38 1251.12 636.62 1249.87 626.38 1244.12 617.62 1241.87 607.62 1235.87 597.50 1223.99 591.50 1210.99 588.38 1208.12 582.62 1206.87 577.62 1203.87 553.12 1179.37 547.50 1171.99 544.12 1166.37 543.00 1148.50 545.12 1144.62 554.88 1135.38 554.00 1120.50 556.00 1113.50 556.00 1082.50 554.12 1076.37 552.88 1063.62 549.88 1056.62 546.38 1052.12 533.50 1043.99 527.62 1044.12 522.37 1047.87 516.62 1048.87 503.38 1039.12 496.62 1038.87 488.38 1034.12 463.38 1024.12 450.62 1020.87 441.38 1017.12 433.38 1015.12 426.62 1014.87 419.38 1011.12 414.62 1010.87 405.38 1007.12 399.62 1006.87 397.12 1005.37 396.12 999.62 405.50 981.00 422.38 967.88 430.88 959.38 440.88 944.38 450.88 923.38 452.00 919.50 451.88 847.62 446.12 834.37 444.88 825.62 441.50 819.99 435.12 814.37 430.88 798.62 423.50 785.99 415.50 776.99 402.88 753.62 390.50 740.99 386.50 731.99 381.12 725.37 377.50 716.99 363.12 700.37 357.50 689.99 349.12 680.37 341.50 666.99 328.00 652.49 307.00 636.49 281.00 621.49 278.12 617.37 278.00 613.50 284.88 598.38 286.12 590.62 292.12 573.62 316.88 515.38 324.88 491.38 326.00 486.50 326.00 475.50 328.00 468.50 328.00 454.50 329.88 448.38 330.00 440.50 333.88 422.38 334.12 415.62 335.88 410.38 336.12 401.62 339.88 388.38 342.12 371.62 349.12 351.25 357.12 332.25 368.50 309.63 390.50 279.63 392.75 279.50 391.12 277.62 396.88 272.38 403.12 261.62 406.88 258.38 413.88 248.38 428.88 213.38 430.00 208.50 429.88 192.62 425.12 184.37 419.12 169.37 415.88 155.62 412.12 146.37 408.00 125.50 408.00 84.13 409.50 80.63 412.62 77.75 415.50 76.63 438.50 76.63 451.50 80.63 460.50 80.63 467.50 82.63 484.50 82.63 490.62 84.50 511.37 86.75 514.74 87.66 513.15 89.09 514.62 89.88 519.50 91.00 528.50 91.00 535.50 93.00 550.50 93.00 557.50 95.00 576.50 95.00 583.50 97.00 633.70 97.00 629.54 94.63 690.50 94.63 697.50 92.63 723.54 92.63 712.32 95.00 766.50 95.00 773.50 97.00 838.50 97.00 845.50 95.00 852.50 95.00 859.50 97.00 872.50 97.00 879.50 95.00 910.16 95.00 908.71 92.63 962.50 92.63 968.62 94.50 977.37 95.12 983.50 97.00 993.37 97.12 999.50 99.00 1024.50 99.00 1031.50 101.00 1062.50 101.00 1069.50 99.00 1116.50 99.00 1123.50 101.00 1152.50 101.00 1159.50 103.00 1198.50 103.00 1205.50 105.00 1224.50 105.00 1231.50 107.00 1254.50 107.00 1261.50 109.00 1418.50 109.00 1425.50 111.00 1442.50 111.00 1449.50 113.00 1482.50 113.00 1489.50 115.00 1590.50 115.00 1597.50 113.00 1632.50 113.00 1638.62 111.12 1645.50 113.00 1652.50 113.00 1659.50 111.00 1683.50 111.00 1690.50 109.00 1731.50 109.00 1738.50 107.00 1785.50 107.00 1792.50 105.00 1863.50 105.00 1891.62 115.88 1906.37 120.12 1924.62 127.88 1936.37 130.12 1966.62 146.88 1986.62 155.88 1998.50 159.00 2019.50 159.00 2033.62 155.12 2040.38 154.88 2053.38 149.88 2094.00 126.50 2107.38 115.88 2135.88 87.38 2152.50 59.00 2155.62 56.12 2163.62 53.12 2177.50 53.00 2182.38 51.88 2191.62 48.12 2201.38 45.88 2237.62 30.12 2247.38 27.88 2276.62 14.12 2282.38 12.88 2293.38 7.88 2311.62 -1.88 2333.38 -10.12 2348.62 -19.88 2396.38 -40.12 2432.38 -58.12 2454.00 -72.50 2485.00 -90.50 2501.38 -102.12 2516.00 -114.87 2528.00 -121.87 2542.00 -134.87 2553.38 -141.50 2558.00 -145.87 2569.62 -151.88 2578.37 -151.88 zM1794.16 117.26L1785.50 119.00 1740.85 119.00 1731.50 121.00 1692.85 121.00 1684.57 122.95 1661.85 123.00 1652.50 125.00 1639.00 123.77 1632.50 125.00 1599.85 125.00 1590.50 127.00 1489.50 127.00 1480.15 125.00 1448.88 124.98 1440.15 123.00 1423.81 122.88 1416.15 121.00 1260.88 120.98 1252.15 119.00 1230.88 118.98 1222.15 117.00 1203.81 116.88 1196.15 115.00 1158.88 114.98 1150.15 113.00 1122.88 112.98 1114.15 111.00 1071.85 111.00 1063.57 112.95 1030.88 112.98 1022.15 111.00 997.81 110.88 975.86 107.53 974.80 110.10 969.70 114.59 961.84 118.08 952.26 120.07 942.82 120.16 931.72 117.13 921.87 110.25 919.13 107.00 881.85 107.00 872.50 109.00 858.88 108.98 850.15 107.00 838.50 109.00 772.88 108.98 764.15 107.00 709.85 107.00 700.50 109.00 583.50 109.00 574.15 107.00 556.88 106.98 548.15 105.00 533.81 104.88 501.23 99.80 464.11 127.15 444.58 138.48 425.76 147.61 430.88 165.85 440.88 187.84 442.00 196.30 444.08 200.19 443.86 204.54 439.43 220.60 437.30 227.24 424.17 254.55 411.51 270.91 402.64 286.30 398.68 290.79 398.68 297.31 394.66 307.82 387.88 318.29 366.68 342.45 358.89 361.07 354.00 374.85 351.75 390.07 348.00 404.85 347.75 412.07 340.00 456.85 339.98 469.13 338.00 477.85 337.98 487.13 336.43 494.60 328.10 519.62 303.89 577.07 291.55 613.83 313.84 626.63 335.69 643.28 351.21 659.95 358.70 672.49 367.80 683.84 371.46 691.01 387.21 709.95 400.60 734.13 412.85 746.95 425.46 770.01 433.80 779.84 441.88 793.84 445.68 807.53 451.21 812.95 455.88 820.84 458.65 833.40 463.26 843.84 464.00 919.50 462.10 927.62 451.68 949.61 443.36 962.84 430.86 976.36 415.45 988.02 411.68 996.59 423.62 999.89 429.82 1002.99 444.60 1005.56 467.62 1012.89 493.61 1023.32 499.82 1026.99 508.61 1028.32 518.88 1035.66 526.78 1032.11 538.41 1032.82 554.90 1043.67 560.17 1050.46 564.26 1059.84 568.00 1082.50 567.98 1114.13 566.00 1122.85 566.75 1137.07 564.08 1143.07 555.68 1151.51 556.00 1162.68 562.36 1171.18 585.77 1194.59 594.59 1197.85 600.54 1203.10 607.42 1216.95 615.48 1226.27 640.07 1238.10 647.62 1239.89 660.07 1246.10 671.85 1248.99 686.13 1248.39 704.18 1232.63 727.54 1208.98 747.54 1182.98 757.29 1168.30 780.63 1140.14 791.91 1129.81 807.95 1120.57 811.59 1117.22 831.10 1074.93 832.24 1057.90 837.32 1044.39 845.54 1032.98 851.29 1022.30 859.82 1016.12 883.50 1010.99 903.16 1011.01 916.60 1013.56 954.11 1034.94 963.21 1044.94 969.94 1056.99 980.16 1056.99 988.43 1055.04 1004.16 1054.99 1025.83 1042.12 1052.84 1029.11 1059.15 1027.21 1080.01 1013.42 1092.60 1008.09 1105.01 1004.98 1116.41 1004.22 1126.45 1005.75 1134.42 1009.43 1140.21 1015.18 1142.51 1019.86 1178.16 1018.99 1184.82 1015.74 1209.85 1009.44 1238.43 1005.04 1287.16 1005.01 1299.85 1008.99 1311.85 1010.99 1326.16 1010.99 1371.86 1000.11 1377.12 982.14 1385.28 969.87 1390.86 964.07 1404.60 954.31 1420.42 948.03 1429.61 946.15 1443.39 946.58 1452.56 950.64 1457.55 956.22 1459.52 963.81 1458.61 972.90 1456.70 978.92 1472.86 988.01 1492.63 996.33 1505.82 1004.99 1514.22 1005.11 1521.85 1006.99 1536.22 1007.11 1561.85 1012.99 1593.10 1017.24 1605.70 1022.37 1625.62 1026.89 1679.59 1052.85 1696.84 1063.63 1707.73 1072.94 1725.39 1076.31 1741.71 1081.40 1787.86 1100.41 1789.73 1102.50 1789.78 1105.30 1787.97 1107.44 1785.21 1107.88 1735.60 1087.87 1749.01 1100.54 1759.11 1106.95 1788.88 1136.41 1807.61 1142.32 1816.86 1148.01 1831.59 1154.85 1842.65 1163.17 1856.54 1148.98 1862.48 1140.09 1872.05 1118.61 1847.85 1084.62 1843.00 1073.26 1842.74 1069.01 1843.95 1065.68 1848.65 1062.60 1856.52 1062.40 1869.41 1067.02 1870.06 1060.96 1874.04 1059.10 1877.33 1062.01 1877.34 1071.84 1885.68 1078.72 1888.83 1072.45 1879.78 1047.66 1867.57 1006.28 1867.76 1003.49 1871.48 1001.15 1875.11 1003.64 1887.41 1045.26 1893.53 1062.00 1902.10 1038.92 1906.56 1018.40 1916.89 985.38 1926.10 962.93 1928.89 951.38 1936.99 933.18 1937.56 926.40 1943.89 905.38 1951.63 891.15 1969.08 872.78 1986.85 863.44 1996.16 863.01 2001.61 864.32 2023.11 876.95 2037.90 889.67 2060.52 913.04 2087.48 911.29 2097.84 905.11 2108.82 900.74 2122.53 898.99 2129.64 887.15 2136.29 878.30 2142.04 873.07 2148.54 862.98 2159.32 831.39 2171.64 813.15 2187.63 794.14 2208.59 773.23 2215.63 764.14 2226.14 754.43 2215.10 754.43 2215.58 750.47 2219.72 740.76 2226.54 732.59 2235.58 726.50 2245.79 723.25 2254.68 723.60 2257.79 725.09 2260.86 730.32 2259.80 737.99 2269.60 739.56 2281.57 744.84 2294.84 753.63 2305.91 763.48 2315.11 768.95 2329.21 783.08 2345.01 804.54 2363.69 818.28 2377.01 830.54 2402.86 845.01 2431.61 858.86 2442.48 841.09 2450.01 826.14 2452.89 816.38 2458.99 803.18 2468.28 763.73 2446.86 734.91 2439.89 721.15 2435.92 708.42 2434.56 699.54 2434.98 689.50 2441.25 670.99 2449.65 658.08 2461.13 646.03 2474.06 635.77 2488.76 627.74 2502.52 623.30 2518.13 621.43 2538.84 610.11 2559.69 602.70 2564.56 581.40 2572.10 557.93 2578.56 529.40 2582.89 517.38 2587.21 508.81 2592.41 502.11 2614.01 459.14 2618.32 448.38 2633.63 424.14 2647.81 411.21 2664.85 405.44 2679.16 404.99 2687.43 403.04 2705.16 402.99 2717.82 396.74 2746.85 389.44 2766.50 387.99 2781.16 388.99 2797.43 384.04 2805.22 384.11 2810.82 385.99 2819.22 386.11 2825.60 387.56 2846.62 394.89 2871.99 406.07 2878.33 396.04 2892.52 382.37 2900.88 377.31 2911.20 373.10 2929.80 369.97 2932.54 366.98 2940.99 355.18 2941.01 341.85 2943.56 326.40 2952.37 307.29 2954.99 297.15 2955.11 286.78 2958.99 266.15 2958.99 257.84 2955.24 243.10 2952.99 221.84 2949.44 212.15 2948.34 203.60 2942.57 191.04 2926.08 174.95 2912.18 164.40 2902.70 153.30 2896.14 149.98 2879.17 143.00 2869.15 141.00 2852.84 141.00 2844.57 142.95 2834.84 143.00 2819.20 146.88 2810.84 147.00 2802.57 148.95 2790.84 149.00 2768.57 152.95 2747.88 152.98 2739.15 151.00 2727.93 150.75 2704.46 143.17 2686.97 131.12 2672.68 117.00 2663.88 116.98 2658.39 115.67 2645.16 108.36 2636.97 101.45 2628.25 96.05 2600.17 114.79 2591.98 118.46 2580.16 126.26 2568.57 127.95 2555.93 127.75 2550.84 125.80 2544.78 120.92 2539.44 111.15 2539.01 93.85 2548.89 51.38 2567.32 5.39 2582.33 -24.63 2593.22 -44.20 2610.48 -68.91 2628.51 -97.97 2603.86 -114.97 2597.85 -120.46 2593.74 -125.78 2590.74 -132.76 2590.35 -138.00 2582.81 -138.12 2575.15 -140.00 2570.79 -139.38 2563.03 -133.78 2562.39 -126.18 2558.96 -119.83 2551.68 -112.85 2541.08 -106.63 2529.29 -101.96 2521.34 -103.02 2495.07 -82.80 2439.17 -48.21 2401.16 -29.12 2352.76 -8.38 2346.17 -3.21 2338.16 0.88 2314.78 10.02 2298.16 18.88 2280.60 25.65 2252.16 38.88 2241.15 41.88 2206.16 56.88 2186.16 63.26 2179.20 64.88 2162.78 66.02 2145.08 95.07 2114.92 125.21 2101.07 136.20 2083.55 147.16 2058.16 160.88 2044.16 166.26 2020.57 170.95 1995.93 170.75 1985.38 168.10 1971.39 162.68 1933.14 141.98 1920.38 139.10 1861.15 117.00 1794.16 117.26 zM1087.50 1021.29L1084.80 1022.99 1093.00 1022.99 1092.38 1021.41 1087.50 1021.29 zM1105.31 982.28L1108.11 983.58 1109.16 986.38 1107.83 989.26 1105.01 990.28 1102.21 988.99 1101.16 986.09 1102.49 983.30 1105.31 982.28 zM1242.61 959.68L1246.25 961.51 1249.97 966.47 1248.51 972.13 1245.92 974.51 1238.13 977.29 1233.00 977.43 1225.84 974.56 1224.72 971.88 1225.46 968.49 1228.01 965.12 1240.05 959.12 1242.61 959.68 zM1052.54 944.17L1055.41 945.54 1056.39 948.37 1054.99 951.22 1052.25 952.17 1049.51 950.95 1048.39 948.07 1049.65 945.26 1052.54 944.17 zM1117.28 927.61L1120.08 928.90 1121.13 931.80 1119.80 934.59 1116.98 935.60 1114.18 934.31 1113.13 931.51 1114.46 928.62 1117.28 927.61 zM1469.89 853.64L1467.23 854.51 1464.65 853.43 1463.41 850.91 1464.12 848.20 1479.08 836.04 1485.90 832.64 1487.64 829.74 1491.40 829.36 1496.55 831.84 1499.43 835.11 1499.43 842.25 1495.20 848.08 1490.84 849.38 1488.44 848.81 1485.33 845.09 1485.12 841.95 1469.89 853.64 zM707.67 706.55L719.46 710.01 728.44 715.52 736.08 723.62 741.95 733.71 744.96 742.65 746.05 751.61 745.23 762.35 742.60 770.89 731.81 790.03 721.57 803.02 709.24 809.60 687.70 817.62 676.77 819.42 667.57 819.17 659.29 816.92 651.85 812.62 644.09 803.75 638.57 792.45 635.42 777.90 634.87 762.47 636.82 749.41 640.78 738.69 647.80 728.12 657.32 718.61 667.41 711.91 680.45 707.41 693.91 705.55 707.67 706.55 zM2029.11 693.07L2032.22 694.74 2032.84 698.04 2030.26 703.88 2026.47 705.09 2023.88 703.25 2023.38 700.39 2025.88 694.51 2029.11 693.07 zM1082.47 644.66L1078.90 642.56 1079.05 638.50 1082.08 636.67 1086.70 637.78 1088.51 640.39 1088.01 643.25 1085.52 645.07 1082.47 644.66 zM1147.95 619.77L1151.38 622.53 1151.60 632.59 1145.81 639.92 1142.12 640.72 1139.53 638.41 1139.74 634.91 1137.79 632.93 1137.61 630.12 1140.03 627.55 1143.70 628.00 1144.07 621.82 1147.95 619.77 zM323.46 597.73L326.26 599.02 327.31 601.83 326.05 604.64 323.16 605.72 320.43 604.50 319.31 601.63 320.57 598.81 323.46 597.73 zM2106.25 575.50L2109.05 576.80 2110.10 579.60 2108.77 582.48 2105.95 583.50 2103.15 582.20 2102.10 579.40 2103.43 576.52 2106.25 575.50 zM1660.20 555.26L1665.73 559.17 1665.61 562.34 1663.31 564.39 1660.14 564.16 1656.29 560.62 1656.74 557.02 1660.20 555.26 zM482.60 409.45L485.40 410.75 486.45 413.55 485.19 416.36 482.31 417.45 479.51 416.15 478.46 413.35 479.71 410.53 482.60 409.45 zM2506.79 333.08L2512.51 337.00 2515.77 342.30 2518.83 354.80 2513.90 357.78 2500.67 362.31 2488.61 362.75 2479.73 359.42 2477.08 355.92 2476.12 351.71 2476.95 347.17 2483.71 337.92 2494.54 332.14 2500.07 331.56 2506.79 333.08 zM396.82 308.74L399.80 310.50 400.28 313.96 394.95 330.15 393.17 331.85 390.38 332.12 387.92 330.18 387.62 327.02 392.96 310.83 396.82 308.74 zM514.50 229.90L517.30 231.20 518.35 234.00 517.09 236.81 514.20 237.90 511.47 236.68 510.35 233.80 511.61 230.99 514.50 229.90 z" style="stroke-width:1;visibility:hidden;" fill="#0000ff" stroke-linecap="square" stroke-linejoin="bevel" id="a-0-4" class="qa layer-0 level-4" fill-rule="evenodd" data-area="125680.96" /><path d="M634.87 897.29L653.78 901.16 671.51 908.14 685.51 917.08 696.44 928.09 702.82 940.86 707.03 956.54 708.55 973.31 707.59 992.07 704.18 1012.77 698.85 1033.00 690.53 1056.70 678.73 1085.17 664.34 1116.16 650.95 1141.80 637.54 1163.89 622.45 1185.40 603.88 1208.83 601.21 1203.94 596.69 1199.29 585.77 1194.59 562.36 1171.18 556.00 1162.68 555.68 1151.51 564.08 1143.07 566.51 1138.33 567.00 1128.50 566.00 1122.85 568.00 1113.50 567.95 1081.43 566.00 1073.15 565.75 1065.93 561.88 1053.84 556.21 1045.08 538.41 1032.82 526.78 1032.11 518.88 1035.66 508.61 1028.32 499.82 1026.99 493.61 1023.32 467.62 1012.89 444.60 1005.56 429.80 1002.98 448.16 979.86 464.15 963.92 484.86 946.44 507.03 930.60 528.27 918.04 548.62 908.78 570.57 901.89 593.90 897.33 614.19 895.97 634.87 897.29 z" style="stroke-width:1;visibility:hidden;" fill="#00ffff" stroke-linecap="square" stroke-linejoin="bevel" id="a-0-3" class="qa layer-0 level-3" data-area="44868.68" /><path d="M747.32 775.58L779.25 777.95 819.34 784.43 859.70 794.77 895.08 807.77 911.28 815.32 938.67 831.55 960.22 849.57 969.34 859.61 983.88 881.36 989.53 893.42 996.63 917.34 998.23 940.52 997.04 952.11 990.76 974.58 979.10 997.31 967.71 1012.95 949.07 1031.57 928.01 1020.54 918.61 1014.32 904.22 1011.11 880.90 1011.24 860.82 1015.74 854.08 1019.47 850.63 1023.15 845.54 1032.98 837.32 1044.39 832.24 1057.90 831.10 1074.93 811.59 1117.22 807.95 1120.57 791.91 1129.81 780.63 1140.14 757.29 1168.30 747.54 1182.98 727.54 1208.98 704.18 1232.63 686.13 1248.39 671.85 1248.99 660.07 1246.10 647.62 1239.89 640.07 1238.10 631.61 1233.32 618.90 1228.48 610.42 1220.95 603.62 1208.32 622.45 1185.40 637.54 1163.89 650.95 1141.80 678.73 1085.17 690.53 1056.70 698.85 1033.00 704.18 1012.77 707.59 992.07 708.55 973.31 707.03 956.54 702.82 940.86 696.44 928.09 692.08 922.94 685.51 917.08 671.51 908.14 653.78 901.16 634.87 897.29 614.19 895.97 593.90 897.33 570.57 901.89 548.62 908.78 528.27 918.04 507.03 930.60 484.86 946.44 464.15 963.92 448.16 979.86 429.80 1002.98 423.62 999.89 411.68 996.59 415.45 988.02 430.86 976.36 443.36 962.84 451.68 949.61 461.68 928.61 463.98 920.13 464.00 879.95 474.52 870.07 503.55 846.55 531.83 827.23 557.25 813.26 584.20 801.87 618.50 790.80 637.23 786.25 638.57 792.45 644.09 803.75 651.85 812.62 659.29 816.92 667.57 819.17 676.77 819.42 687.70 817.62 709.24 809.60 721.57 803.02 731.81 790.03 740.27 775.57 747.32 775.58 zM1879.87 1130.37L1880.04 1129.18 1879.87 1130.37 zM939.38 1040.12L938.62 1039.87 939.38 1040.12 zM2574.99 597.42L2573.35 596.24 2574.99 590.50 2574.99 597.42 zM2573.35 596.24L2573.35 596.24 zM2518.83 354.80L2517.93 351.13 2519.83 339.73 2529.47 297.53 2558.09 197.32 2572.10 127.28 2579.13 126.56 2584.55 124.17 2591.98 118.46 2600.17 114.79 2628.25 96.05 2636.97 101.45 2645.16 108.36 2658.39 115.67 2663.88 116.98 2672.68 117.00 2686.97 131.12 2704.46 143.17 2727.93 150.75 2739.15 151.00 2747.88 152.98 2768.57 152.95 2790.84 149.00 2802.57 148.95 2810.84 147.00 2819.20 146.88 2834.84 143.00 2844.57 142.95 2852.84 141.00 2869.15 141.00 2879.17 143.00 2902.70 153.30 2912.18 164.40 2926.08 174.95 2942.57 191.04 2948.34 203.60 2949.44 212.15 2952.99 221.84 2955.24 243.10 2958.99 257.84 2958.99 266.15 2953.10 304.89 2943.24 327.90 2941.01 341.85 2940.99 355.18 2930.59 369.23 2911.20 373.10 2900.88 377.31 2892.52 382.37 2878.33 396.04 2871.99 406.07 2846.62 394.89 2825.60 387.56 2819.22 386.11 2810.82 385.99 2805.22 384.11 2798.50 383.99 2781.16 388.99 2766.50 387.99 2747.90 389.24 2717.82 396.74 2705.16 402.99 2687.43 403.04 2679.16 404.99 2666.78 405.11 2655.82 407.74 2648.44 410.83 2642.14 415.63 2629.21 429.81 2618.32 448.38 2614.01 459.14 2592.41 502.11 2587.21 508.81 2583.32 516.39 2578.56 529.40 2572.10 557.93 2563.07 587.96 2552.46 576.67 2539.21 556.02 2527.57 527.69 2519.04 496.51 2513.94 463.08 2512.12 432.40 2512.53 400.55 2517.16 355.81 2514.20 357.60 2518.83 354.80 zM941.58 283.74L944.93 286.57 943.89 290.57 884.97 348.16 882.32 349.06 879.72 347.99 878.44 345.13 879.64 342.20 938.30 284.85 941.58 283.74 zM2954.99 338.94L2952.99 345.94 2954.99 335.50 2954.99 338.94 zM2968.99 282.94L2966.99 289.94 2968.99 281.50 2968.99 282.94 zM2969.99 272.94L2968.99 275.94 2969.99 272.94 zM2970.99 268.94L2969.99 271.94 2970.99 268.94 z" style="stroke-width:1;visibility:hidden;" fill="#00ff00" stroke-linecap="square" stroke-linejoin="bevel" id="a-0-2" class="qa layer-0 level-2" fill-rule="evenodd" data-area="232541.73" /><path d="" style="stroke-width:1;visibility:hidden;" fill="#ffff00" stroke-linecap="square" stroke-linejoin="bevel" id="a-0-1" class="qa layer-0 level-1" data-area="0.00" /><path d="M2575.38 -139.90L2582.81 -138.12 2590.35 -138.00 2590.74 -132.76 2593.74 -125.78 2597.85 -120.46 2603.86 -114.97 2628.51 -97.97 2610.48 -68.91 2592.84 -43.57 2567.32 5.39 2548.89 51.38 2543.56 72.40 2539.01 93.85 2539.11 109.22 2541.85 116.58 2546.97 123.12 2553.39 127.11 2558.50 128.00 2572.10 127.28 2558.09 197.32 2529.47 297.53 2517.93 351.14 2515.77 342.30 2512.51 337.00 2506.79 333.08 2500.07 331.56 2494.54 332.14 2483.71 337.92 2479.47 342.52 2476.95 347.17 2476.12 351.71 2477.08 355.92 2479.73 359.42 2488.61 362.75 2500.67 362.31 2517.16 355.81 2512.53 400.55 2512.12 432.40 2513.94 463.08 2519.04 496.51 2527.57 527.69 2539.21 556.02 2552.46 576.67 2563.07 587.96 2559.21 602.97 2538.84 610.11 2518.13 621.43 2502.52 623.30 2488.76 627.74 2474.06 635.77 2461.13 646.03 2449.65 658.08 2441.25 670.99 2434.98 689.50 2434.56 699.54 2435.92 708.42 2439.89 721.15 2446.86 734.91 2468.28 763.73 2458.99 803.18 2452.89 816.38 2450.01 826.14 2442.48 841.09 2431.61 858.86 2383.86 835.01 2373.01 827.54 2357.11 812.95 2345.01 804.54 2329.21 783.08 2315.11 768.95 2305.91 763.48 2294.84 753.63 2281.57 744.84 2269.60 739.56 2259.80 737.99 2260.86 730.32 2257.79 725.09 2254.68 723.60 2245.79 723.25 2235.58 726.50 2226.54 732.59 2219.72 740.76 2215.58 750.47 2215.10 754.43 2226.14 754.43 2215.63 764.14 2208.59 773.23 2187.63 794.14 2171.64 813.15 2159.32 831.39 2148.54 862.98 2142.04 873.07 2136.29 878.30 2129.64 887.15 2122.53 898.99 2108.82 900.74 2097.84 905.11 2087.48 911.29 2060.52 913.04 2037.90 889.67 2019.69 874.28 2001.61 864.32 1996.16 863.01 1985.82 863.74 1973.44 869.83 1968.14 873.63 1954.91 886.93 1943.89 905.38 1937.56 926.40 1936.99 933.18 1928.89 951.38 1926.10 962.93 1916.89 985.38 1906.56 1018.40 1902.10 1038.92 1893.53 1062.00 1887.41 1045.26 1875.11 1003.64 1871.48 1001.15 1867.76 1003.49 1867.57 1006.28 1879.78 1047.66 1888.83 1072.45 1885.68 1078.72 1877.34 1071.84 1877.33 1062.01 1874.04 1059.10 1870.06 1060.96 1869.41 1067.02 1856.52 1062.40 1848.65 1062.60 1843.95 1065.68 1842.74 1069.01 1843.00 1073.26 1847.85 1084.62 1872.05 1118.61 1862.48 1140.09 1856.54 1148.98 1842.65 1163.17 1831.59 1154.85 1816.86 1148.01 1807.61 1142.32 1788.88 1136.41 1759.11 1106.95 1749.01 1100.54 1735.60 1087.87 1785.21 1107.88 1787.97 1107.44 1789.78 1105.30 1789.73 1102.50 1787.86 1100.41 1741.71 1081.40 1725.39 1076.31 1707.73 1072.94 1696.84 1063.63 1679.59 1052.85 1625.62 1026.89 1605.70 1022.37 1593.10 1017.24 1561.85 1012.99 1536.22 1007.11 1521.85 1006.99 1514.22 1005.11 1505.82 1004.99 1492.63 996.33 1472.86 988.01 1456.70 978.92 1458.61 972.90 1459.52 963.81 1457.55 956.22 1452.56 950.64 1443.39 946.58 1429.61 946.15 1420.42 948.03 1404.60 954.31 1390.86 964.07 1385.28 969.87 1377.12 982.14 1374.10 990.00 1372.52 999.85 1336.16 1008.99 1326.16 1010.99 1311.85 1010.99 1299.85 1008.99 1287.16 1005.01 1238.43 1005.04 1209.85 1009.44 1184.82 1015.74 1178.16 1018.99 1142.51 1019.86 1140.21 1015.18 1134.42 1009.43 1126.45 1005.75 1116.41 1004.22 1105.01 1004.98 1092.60 1008.09 1080.01 1013.42 1059.15 1027.21 1052.84 1029.11 1025.83 1042.12 1004.16 1054.99 988.43 1055.04 980.16 1056.99 969.94 1056.99 960.21 1041.08 949.07 1031.57 967.71 1012.95 979.10 997.31 985.52 986.08 994.57 963.35 998.23 940.52 996.63 917.34 989.53 893.42 983.88 881.36 969.34 859.61 950.00 840.23 926.02 823.38 911.28 815.32 877.64 800.83 859.70 794.77 819.34 784.43 779.25 777.95 740.27 775.57 745.23 762.35 746.05 751.61 744.96 742.65 741.95 733.71 736.08 723.62 728.44 715.52 719.46 710.01 707.67 706.55 693.91 705.55 680.45 707.41 667.41 711.91 657.32 718.61 647.80 728.12 640.78 738.69 636.82 749.41 634.87 762.47 635.42 777.90 637.23 786.25 618.50 790.80 584.20 801.87 557.25 813.26 531.83 827.23 503.55 846.55 474.52 870.07 464.00 879.95 463.88 846.81 458.65 833.40 456.26 821.84 451.21 812.95 445.68 807.53 440.18 790.47 433.21 778.95 425.46 770.01 416.80 752.84 412.21 746.08 400.60 734.13 387.21 709.95 371.46 691.01 365.21 679.95 358.70 672.49 347.40 655.18 335.69 643.28 313.84 626.63 291.55 613.83 303.89 577.07 328.10 519.62 336.43 494.60 337.98 487.13 338.00 477.85 339.98 469.13 340.00 456.85 347.75 412.07 348.00 404.85 351.75 390.07 354.00 374.85 358.89 361.07 366.68 342.45 387.88 318.29 394.66 307.82 398.68 297.31 398.68 290.79 402.64 286.30 411.51 270.91 424.17 254.55 437.30 227.24 439.43 220.60 443.86 204.54 444.08 200.19 442.00 196.30 440.88 187.84 430.88 165.85 425.76 147.61 444.58 138.48 464.11 127.15 501.23 99.80 533.81 104.88 548.15 105.00 556.88 106.98 574.15 107.00 583.50 109.00 700.50 109.00 709.85 107.00 764.15 107.00 773.50 109.00 838.50 109.00 850.15 107.00 858.88 108.98 872.50 109.00 881.85 107.00 919.13 107.00 921.87 110.25 931.72 117.13 942.82 120.16 952.26 120.07 961.84 118.08 969.70 114.59 974.80 110.10 975.86 107.53 997.81 110.88 1022.15 111.00 1030.88 112.98 1063.57 112.95 1071.85 111.00 1114.15 111.00 1122.88 112.98 1150.15 113.00 1158.88 114.98 1196.15 115.00 1204.88 116.98 1222.15 117.00 1230.88 118.98 1252.15 119.00 1260.88 120.98 1416.15 121.00 1423.81 122.88 1440.15 123.00 1448.88 124.98 1480.15 125.00 1489.50 127.00 1590.50 127.00 1599.85 125.00 1632.50 125.00 1639.00 123.77 1653.57 124.95 1661.85 123.00 1684.57 122.95 1692.85 121.00 1732.57 120.95 1740.85 119.00 1786.57 118.95 1794.85 117.00 1861.15 117.00 1920.38 139.10 1933.14 141.98 1961.41 157.68 1982.38 167.10 1996.81 170.88 2020.57 170.95 2036.85 167.00 2043.13 166.56 2058.16 160.88 2083.55 147.16 2101.07 136.20 2115.86 124.36 2145.08 95.07 2162.30 66.29 2186.16 63.26 2206.16 56.88 2241.15 41.88 2252.16 38.88 2280.60 25.65 2298.16 18.88 2314.78 10.02 2338.16 0.88 2346.17 -3.21 2352.76 -8.38 2401.16 -29.12 2439.17 -48.21 2495.07 -82.80 2521.34 -103.02 2529.29 -101.96 2541.08 -106.63 2551.68 -112.85 2558.96 -119.83 2562.39 -126.18 2563.03 -133.78 2570.79 -139.38 2575.38 -139.90 zM514.00 1047.49L512.38 1046.12 514.00 1047.49 zM1638.00 1046.49L1636.38 1045.12 1638.00 1046.49 zM936.00 1038.49L934.38 1037.12 936.00 1038.49 zM1092.38 1021.41L1093.00 1022.99 1084.80 1022.99 1086.62 1021.41 1092.38 1021.41 zM1105.11 982.28L1102.21 983.58 1101.16 986.48 1102.49 989.26 1105.21 990.28 1108.11 988.99 1109.16 986.18 1107.90 983.37 1105.11 982.28 zM1236.77 960.48L1231.30 962.74 1225.46 968.49 1224.72 971.88 1225.84 974.56 1228.65 976.46 1238.13 977.29 1245.92 974.51 1248.51 972.13 1249.91 969.34 1248.72 963.79 1242.61 959.68 1240.05 959.12 1236.77 960.48 zM1052.34 944.17L1049.51 945.40 1048.39 948.27 1049.65 951.09 1052.44 952.17 1055.41 950.80 1056.39 947.98 1055.06 945.19 1052.34 944.17 zM1117.08 927.61L1114.18 928.90 1113.13 931.71 1114.39 934.52 1117.18 935.61 1120.08 934.31 1121.13 931.41 1119.80 928.62 1117.08 927.61 zM2083.62 928.12L2084.99 927.49 2081.50 928.99 2083.62 928.12 zM1489.65 829.06L1464.59 847.66 1463.40 850.20 1464.40 853.17 1466.87 854.48 1469.30 854.03 1485.12 841.95 1485.49 845.41 1488.75 848.98 1491.19 849.34 1495.76 847.63 1499.31 842.59 1499.86 836.10 1496.26 831.64 1489.65 829.06 zM2028.91 693.06L2025.76 694.66 2023.38 700.39 2023.88 703.25 2026.47 705.09 2030.26 703.88 2032.92 697.65 2031.91 694.36 2028.91 693.06 zM1082.37 636.66L1079.05 638.50 1078.81 642.38 1081.20 644.47 1086.35 644.76 1088.35 642.53 1088.15 639.36 1086.26 637.54 1082.37 636.66 zM1147.24 619.76L1143.91 622.14 1143.70 628.00 1140.03 627.55 1137.56 630.31 1137.87 633.11 1139.74 634.91 1139.53 638.41 1142.46 640.80 1145.81 639.92 1151.69 632.25 1151.38 622.53 1149.94 620.53 1147.24 619.76 zM323.26 597.73L320.43 598.95 319.31 601.83 320.50 604.57 323.36 605.73 326.19 604.50 327.31 601.63 326.12 598.88 323.26 597.73 zM2106.05 575.50L2103.15 576.80 2102.10 579.60 2103.36 582.42 2106.15 583.50 2108.98 582.28 2110.10 579.40 2108.84 576.59 2106.05 575.50 zM1660.01 555.26L1656.74 557.02 1656.29 560.62 1660.14 564.16 1663.40 564.36 1665.61 562.34 1665.73 559.17 1660.01 555.26 zM2596.87 516.37L2593.73 523.60 2597.49 514.99 2596.87 516.37 zM482.41 409.45L479.57 410.67 478.46 413.55 479.71 416.36 482.50 417.45 485.33 416.22 486.45 413.35 485.27 410.60 482.41 409.45 zM940.86 283.71L938.30 284.85 879.64 342.20 878.44 345.13 879.72 347.99 882.32 349.06 884.97 348.16 943.89 290.57 944.82 286.24 943.25 284.33 940.86 283.71 zM396.11 308.74L392.80 311.15 387.52 327.40 387.92 330.18 390.38 332.12 393.17 331.85 394.95 330.15 400.39 313.57 399.59 310.21 396.11 308.74 zM514.30 229.90L511.47 231.12 510.35 234.00 511.54 236.75 514.40 237.90 517.23 236.68 518.35 233.80 517.16 231.05 514.30 229.90 zM517.37 90.12L519.50 91.00 516.50 90.00 517.37 90.12 zM513.37 89.12L515.50 90.00 513.37 89.12 zM1029.99 1053.49L1028.37 1054.87 1029.99 1053.49 zM850.50 1045.99L849.12 1047.62 850.50 1045.99 zM537.00 1046.49L538.62 1047.87 537.00 1046.49 zM519.51 1048.78L524.37 1046.87 527.62 1044.12 524.37 1046.87 518.50 1048.99 519.51 1048.78 zM944.00 1042.49L945.62 1043.87 944.00 1042.49 zM855.50 1039.99L853.12 1042.62 855.50 1039.99 zM506.00 1040.49L507.62 1041.87 506.00 1040.49 zM491.00 1035.49L492.62 1036.87 491.00 1035.49 zM862.00 1028.49L860.12 1030.62 862.00 1028.49 zM919.00 1028.49L921.62 1030.87 919.00 1028.49 zM916.00 1026.49L917.62 1027.87 916.00 1026.49 zM2068.37 932.87L2067.50 932.99 2070.50 931.99 2068.37 932.87 zM2073.62 931.12L2076.50 929.99 2071.50 931.99 2073.62 931.12 zM2079.62 929.12L2080.50 928.99 2077.50 929.99 2079.62 929.12 zM2087.37 925.87L2085.99 926.49 2087.37 925.87 zM2091.37 922.87L2095.99 920.49 2089.99 923.49 2091.37 922.87 zM2599.87 512.37L2599.87 512.37 zM346.03 361.91L346.03 361.91 z" style="stroke-width:1;visibility:hidden;" fill="#ff0000" stroke-linecap="square" stroke-linejoin="bevel" id="a-0-0" class="qa layer-0 level-0" fill-rule="evenodd" data-area="1740103.01" /><path d="M2578.37 -151.88L2584.50 -150.00 2596.37 -149.88 2603.62 -146.12 2617.50 -146.00 2624.50 -144.00 2637.50 -144.00 2654.37 -139.88 2659.87 -136.38 2662.99 -130.50 2658.49 -118.00 2650.49 -106.00 2641.49 -96.00 2620.49 -62.00 2603.49 -38.00 2578.12 10.62 2575.87 18.37 2560.12 55.62 2555.12 75.62 2554.87 80.37 2550.99 94.50 2551.12 108.38 2554.12 113.38 2558.50 116.00 2576.38 114.88 2585.62 108.12 2594.00 104.50 2612.62 91.12 2624.62 84.12 2629.50 83.00 2643.99 91.50 2651.99 98.50 2663.62 104.88 2675.50 105.00 2678.99 106.50 2694.62 121.88 2710.62 132.88 2729.62 138.88 2741.50 139.00 2748.50 141.00 2767.50 141.00 2788.50 137.00 2801.50 137.00 2808.50 135.00 2818.38 134.88 2831.62 131.12 2843.50 131.00 2850.50 129.00 2872.37 129.12 2882.37 131.12 2891.62 135.88 2899.37 138.12 2909.99 143.50 2920.62 155.88 2933.99 165.50 2952.49 184.00 2955.87 189.62 2960.87 202.62 2961.12 209.38 2964.87 218.62 2965.12 225.38 2966.99 231.50 2967.12 241.38 2970.99 255.50 2970.99 268.50 2966.99 288.50 2966.87 300.37 2963.87 311.37 2955.12 329.62 2954.87 336.37 2952.99 342.50 2952.87 358.37 2948.49 365.99 2939.87 377.37 2927.37 389.87 2882.37 425.87 2878.62 425.87 2867.38 417.12 2842.38 406.12 2818.38 398.12 2808.50 397.99 2804.38 396.12 2798.50 395.99 2783.50 400.99 2766.50 399.99 2763.50 400.99 2749.62 401.12 2721.62 408.12 2708.37 414.87 2688.50 414.99 2681.50 416.99 2667.62 417.12 2653.99 421.49 2642.12 432.62 2629.12 453.62 2625.87 462.37 2602.87 508.37 2597.49 514.99 2594.12 521.62 2590.12 532.62 2583.87 561.37 2576.12 584.62 2571.87 605.37 2569.49 609.99 2562.37 614.87 2543.62 621.12 2514.99 636.49 2484.12 667.62 2475.49 678.99 2466.12 697.62 2463.99 703.50 2463.99 714.50 2465.12 719.38 2471.87 731.62 2482.87 758.37 2480.12 765.62 2476.87 782.37 2471.12 801.62 2470.87 806.37 2464.12 820.62 2461.87 829.37 2444.49 861.99 2438.87 869.37 2435.37 871.87 2430.62 871.87 2376.00 844.49 2366.00 837.49 2349.38 822.12 2338.00 814.49 2333.50 809.99 2319.88 790.62 2307.38 778.12 2296.62 771.87 2291.38 766.12 2275.38 755.12 2262.38 750.12 2252.50 749.99 2245.99 752.49 2238.99 760.49 2230.62 766.12 2224.12 772.62 2217.87 781.37 2196.12 802.62 2189.87 811.37 2184.12 816.62 2170.12 836.62 2168.87 842.37 2165.12 849.62 2161.87 863.37 2158.49 869.99 2151.49 880.99 2145.49 885.99 2139.49 893.99 2132.49 905.99 2126.37 910.87 2112.62 912.12 2100.62 917.12 2082.37 928.87 2068.37 932.87 2063.62 932.87 2056.12 927.37 2049.88 918.62 2029.38 898.12 2020.62 891.87 2012.00 883.49 1995.50 874.99 1989.62 875.12 1979.62 880.12 1964.12 894.62 1955.12 909.62 1949.12 929.62 1948.87 936.37 1940.12 955.62 1937.87 966.37 1928.12 989.62 1918.12 1021.62 1913.87 1042.37 1903.87 1069.37 1896.12 1084.62 1895.87 1094.37 1887.87 1115.37 1880.12 1128.62 1872.87 1146.37 1866.49 1155.99 1843.37 1179.87 1840.50 1180.99 1837.50 1178.99 1834.50 1171.99 1825.38 1165.12 1809.62 1157.87 1802.38 1153.12 1782.00 1146.49 1751.38 1116.12 1738.62 1107.87 1729.38 1098.12 1700.62 1082.87 1690.00 1073.49 1673.38 1063.12 1659.38 1056.12 1621.38 1038.12 1604.62 1034.87 1591.38 1029.12 1582.62 1028.87 1566.50 1024.99 1558.62 1024.87 1534.50 1018.99 1519.50 1018.99 1512.50 1016.99 1502.62 1016.87 1487.38 1007.12 1459.62 994.87 1436.38 981.12 1427.62 981.12 1419.62 985.12 1412.37 991.87 1398.99 999.49 1390.99 1006.49 1383.37 1009.87 1329.37 1022.87 1308.62 1022.87 1303.38 1021.12 1296.62 1020.87 1286.50 1016.99 1239.50 1016.99 1233.37 1018.87 1223.50 1018.99 1212.62 1021.12 1197.37 1025.87 1188.62 1027.12 1180.50 1030.99 1147.50 1030.99 1140.50 1032.99 1123.50 1032.99 1116.50 1034.99 1079.50 1034.99 1057.62 1040.12 1030.62 1053.12 1017.37 1061.87 1007.37 1066.87 989.50 1066.99 982.50 1068.99 965.00 1069.49 960.50 1064.99 953.50 1051.99 946.38 1044.12 921.62 1030.87 913.38 1025.12 902.50 1022.99 883.50 1022.99 869.37 1026.87 864.62 1027.12 860.50 1029.99 855.50 1039.99 848.12 1049.62 847.87 1052.37 844.12 1059.62 843.99 1073.50 842.87 1078.37 820.87 1125.37 815.00 1130.49 799.00 1139.49 789.12 1148.62 782.87 1157.37 766.50 1175.99 757.50 1189.99 742.50 1207.99 734.87 1219.37 712.37 1241.87 703.62 1248.12 696.37 1255.87 692.37 1258.87 686.50 1260.99 669.50 1260.99 656.62 1257.87 643.38 1251.12 636.62 1249.87 626.38 1244.12 617.62 1241.87 607.62 1235.87 597.50 1223.99 591.50 1210.99 588.38 1208.12 582.62 1206.87 577.62 1203.87 553.12 1179.37 547.50 1171.99 544.12 1166.37 543.00 1148.50 545.12 1144.62 554.88 1135.38 554.00 1120.50 556.00 1113.50 556.00 1082.50 554.12 1076.37 552.88 1063.62 549.88 1056.62 546.38 1052.12 533.50 1043.99 527.62 1044.12 522.37 1047.87 516.62 1048.87 503.38 1039.12 496.62 1038.87 488.38 1034.12 463.38 1024.12 450.62 1020.87 441.38 1017.12 433.38 1015.12 426.62 1014.87 419.38 1011.12 414.62 1010.87 405.38 1007.12 399.62 1006.87 397.12 1005.37 396.12 999.62 405.50 981.00 422.38 967.88 430.88 959.38 440.88 944.38 450.88 923.38 452.00 919.50 451.88 847.62 446.12 834.37 444.88 825.62 441.50 819.99 435.12 814.37 430.88 798.62 423.50 785.99 415.50 776.99 402.88 753.62 390.50 740.99 386.50 731.99 381.12 725.37 377.50 716.99 363.12 700.37 357.50 689.99 349.12 680.37 341.50 666.99 328.00 652.49 307.00 636.49 281.00 621.49 278.12 617.37 278.00 613.50 284.88 598.38 286.12 590.62 292.12 573.62 316.88 515.38 324.88 491.38 326.00 486.50 326.00 475.50 328.00 468.50 328.00 454.50 329.88 448.38 330.00 440.50 333.88 422.38 334.12 415.62 335.88 410.38 336.12 401.62 339.88 388.38 342.12 371.62 347.12 357.62 352.88 345.38 357.12 332.62 366.50 314.00 374.50 302.00 392.75 279.50 391.12 277.62 396.88 272.38 403.12 261.62 406.88 258.38 413.88 248.38 426.88 220.38 429.88 209.38 429.88 192.62 425.12 184.37 419.12 169.37 415.88 155.62 412.12 146.37 408.12 126.37 408.00 84.50 410.62 80.12 413.50 79.00 442.50 79.00 456.62 82.88 468.50 83.00 489.50 87.00 500.50 87.00 519.50 91.00 528.50 91.00 535.50 93.00 550.50 93.00 557.50 95.00 576.50 95.00 583.50 97.00 700.50 97.00 707.50 95.00 766.50 95.00 773.50 97.00 838.50 97.00 844.62 95.12 852.50 95.00 859.50 97.00 872.50 97.00 879.50 95.00 976.50 95.00 982.62 96.88 992.50 97.00 999.50 99.00 1024.50 99.00 1031.50 101.00 1062.50 101.00 1069.50 99.00 1116.50 99.00 1123.50 101.00 1152.50 101.00 1159.50 103.00 1198.50 103.00 1205.50 105.00 1224.50 105.00 1231.50 107.00 1254.50 107.00 1261.50 109.00 1418.50 109.00 1425.50 111.00 1442.50 111.00 1449.50 113.00 1482.50 113.00 1489.50 115.00 1590.50 115.00 1597.50 113.00 1632.50 113.00 1638.62 111.12 1645.50 113.00 1652.50 113.00 1659.50 111.00 1683.50 111.00 1690.50 109.00 1731.50 109.00 1738.50 107.00 1785.50 107.00 1792.50 105.00 1863.50 105.00 1891.62 115.88 1906.37 120.12 1924.62 127.88 1936.37 130.12 1966.62 146.88 1986.62 155.88 1998.50 159.00 2019.50 159.00 2033.62 155.12 2040.38 154.88 2053.38 149.88 2094.00 126.50 2107.38 115.88 2135.88 87.38 2152.50 59.00 2155.62 56.12 2163.62 53.12 2177.50 53.00 2182.38 51.88 2191.62 48.12 2201.38 45.88 2237.62 30.12 2247.38 27.88 2276.62 14.12 2282.38 12.88 2293.38 7.88 2311.62 -1.88 2333.38 -10.12 2348.62 -19.88 2396.38 -40.12 2432.38 -58.12 2454.00 -72.50 2485.00 -90.50 2498.00 -99.50 2516.00 -114.50 2528.00 -121.50 2542.00 -134.50 2551.00 -139.50 2564.00 -149.50 2569.62 -151.88 2578.37 -151.88 z" style="stroke-width:1;visibility:hidden;" fill="rgba(255,255,255,0.50)" stroke-linecap="square" stroke-linejoin="bevel" id="a-1-0" class="qa layer-1 level-0" data-area="2140406.17" /><path d="M2578.37 -151.88L2584.50 -150.00 2596.37 -149.88 2603.62 -146.12 2617.50 -146.00 2624.50 -144.00 2637.50 -144.00 2654.37 -139.88 2659.87 -136.38 2662.99 -130.50 2658.49 -118.00 2650.49 -106.00 2641.49 -96.00 2620.49 -62.00 2603.49 -38.00 2578.12 10.62 2575.87 18.37 2560.12 55.62 2555.12 75.62 2554.87 80.37 2550.99 94.50 2551.12 108.38 2554.12 113.38 2558.50 116.00 2576.38 114.88 2585.62 108.12 2594.00 104.50 2612.62 91.12 2624.62 84.12 2629.50 83.00 2643.99 91.50 2651.99 98.50 2663.62 104.88 2675.50 105.00 2678.99 106.50 2694.62 121.88 2710.62 132.88 2729.62 138.88 2741.50 139.00 2748.50 141.00 2767.50 141.00 2788.50 137.00 2801.50 137.00 2808.50 135.00 2818.38 134.88 2831.62 131.12 2843.50 131.00 2850.50 129.00 2872.37 129.12 2882.37 131.12 2891.62 135.88 2899.37 138.12 2909.99 143.50 2920.62 155.88 2933.99 165.50 2952.49 184.00 2955.87 189.62 2960.87 202.62 2961.12 209.38 2964.87 218.62 2965.12 225.38 2966.99 231.50 2967.12 241.38 2970.99 255.50 2970.99 268.50 2966.99 288.50 2966.87 300.37 2963.87 311.37 2955.12 329.62 2954.87 336.37 2952.99 342.50 2952.87 358.37 2948.49 365.99 2939.87 377.37 2927.37 389.87 2882.37 425.87 2878.62 425.87 2867.38 417.12 2842.38 406.12 2818.38 398.12 2808.50 397.99 2804.38 396.12 2798.50 395.99 2783.50 400.99 2766.50 399.99 2763.50 400.99 2749.62 401.12 2721.62 408.12 2708.37 414.87 2688.50 414.99 2681.50 416.99 2667.62 417.12 2653.99 421.49 2642.12 432.62 2629.12 453.62 2625.87 462.37 2602.87 508.37 2597.49 514.99 2594.12 521.62 2590.12 532.62 2583.87 561.37 2576.12 584.62 2571.87 605.37 2569.49 609.99 2562.37 614.87 2543.62 621.12 2514.99 636.49 2484.12 667.62 2475.49 678.99 2466.12 697.62 2463.99 703.50 2463.99 714.50 2465.12 719.38 2471.87 731.62 2482.87 758.37 2480.12 765.62 2476.87 782.37 2471.12 801.62 2470.87 806.37 2464.12 820.62 2461.87 829.37 2444.49 861.99 2438.87 869.37 2435.37 871.87 2430.62 871.87 2376.00 844.49 2366.00 837.49 2349.38 822.12 2338.00 814.49 2333.50 809.99 2319.88 790.62 2307.38 778.12 2296.62 771.87 2291.38 766.12 2275.38 755.12 2262.38 750.12 2252.50 749.99 2245.99 752.49 2238.99 760.49 2230.62 766.12 2224.12 772.62 2217.87 781.37 2196.12 802.62 2189.87 811.37 2184.12 816.62 2170.12 836.62 2168.87 842.37 2165.12 849.62 2161.87 863.37 2158.49 869.99 2151.49 880.99 2145.49 885.99 2139.49 893.99 2132.49 905.99 2126.37 910.87 2112.62 912.12 2100.62 917.12 2082.37 928.87 2068.37 932.87 2063.62 932.87 2056.12 927.37 2049.88 918.62 2029.38 898.12 2020.62 891.87 2012.00 883.49 1995.50 874.99 1989.62 875.12 1979.62 880.12 1964.12 894.62 1955.12 909.62 1949.12 929.62 1948.87 936.37 1940.12 955.62 1937.87 966.37 1928.12 989.62 1918.12 1021.62 1913.87 1042.37 1903.87 1069.37 1896.12 1084.62 1895.87 1094.37 1887.87 1115.37 1880.12 1128.62 1872.87 1146.37 1866.49 1155.99 1843.37 1179.87 1840.50 1180.99 1837.50 1178.99 1834.50 1171.99 1825.38 1165.12 1809.62 1157.87 1802.38 1153.12 1782.00 1146.49 1751.38 1116.12 1738.62 1107.87 1729.38 1098.12 1700.62 1082.87 1690.00 1073.49 1673.38 1063.12 1659.38 1056.12 1621.38 1038.12 1604.62 1034.87 1591.38 1029.12 1582.62 1028.87 1566.50 1024.99 1558.62 1024.87 1534.50 1018.99 1519.50 1018.99 1512.50 1016.99 1502.62 1016.87 1487.38 1007.12 1459.62 994.87 1436.38 981.12 1427.62 981.12 1419.62 985.12 1412.37 991.87 1398.99 999.49 1390.99 1006.49 1383.37 1009.87 1329.37 1022.87 1308.62 1022.87 1303.38 1021.12 1296.62 1020.87 1286.50 1016.99 1239.50 1016.99 1233.37 1018.87 1223.50 1018.99 1212.62 1021.12 1197.37 1025.87 1188.62 1027.12 1180.50 1030.99 1147.50 1030.99 1140.50 1032.99 1123.50 1032.99 1116.50 1034.99 1079.50 1034.99 1057.62 1040.12 1030.62 1053.12 1017.37 1061.87 1007.37 1066.87 989.50 1066.99 982.50 1068.99 965.00 1069.49 960.50 1064.99 953.50 1051.99 946.38 1044.12 921.62 1030.87 913.38 1025.12 902.50 1022.99 883.50 1022.99 869.37 1026.87 864.62 1027.12 860.50 1029.99 855.50 1039.99 848.12 1049.62 847.87 1052.37 844.12 1059.62 843.99 1073.50 842.87 1078.37 820.87 1125.37 815.00 1130.49 799.00 1139.49 789.12 1148.62 782.87 1157.37 766.50 1175.99 757.50 1189.99 742.50 1207.99 734.87 1219.37 712.37 1241.87 703.62 1248.12 696.37 1255.87 692.37 1258.87 686.50 1260.99 669.50 1260.99 656.62 1257.87 643.38 1251.12 636.62 1249.87 626.38 1244.12 617.62 1241.87 607.62 1235.87 597.50 1223.99 591.50 1210.99 588.38 1208.12 582.62 1206.87 577.62 1203.87 553.12 1179.37 547.50 1171.99 544.12 1166.37 543.00 1148.50 545.12 1144.62 554.88 1135.38 554.00 1120.50 556.00 1113.50 556.00 1082.50 554.12 1076.37 552.88 1063.62 549.88 1056.62 546.38 1052.12 533.50 1043.99 527.62 1044.12 522.37 1047.87 516.62 1048.87 503.38 1039.12 496.62 1038.87 488.38 1034.12 463.38 1024.12 450.62 1020.87 441.38 1017.12 433.38 1015.12 426.62 1014.87 419.38 1011.12 414.62 1010.87 405.38 1007.12 399.62 1006.87 397.12 1005.37 396.12 999.62 405.50 981.00 422.38 967.88 430.88 959.38 440.88 944.38 450.88 923.38 452.00 919.50 451.88 847.62 446.12 834.37 444.88 825.62 441.50 819.99 435.12 814.37 430.88 798.62 423.50 785.99 415.50 776.99 402.88 753.62 390.50 740.99 386.50 731.99 381.12 725.37 377.50 716.99 363.12 700.37 357.50 689.99 349.12 680.37 341.50 666.99 328.00 652.49 307.00 636.49 281.00 621.49 278.12 617.37 278.00 613.50 284.88 598.38 286.12 590.62 292.12 573.62 316.88 515.38 324.88 491.38 326.00 486.50 326.00 475.50 328.00 468.50 328.00 454.50 329.88 448.38 330.00 440.50 333.88 422.38 334.12 415.62 335.88 410.38 336.12 401.62 339.88 388.38 342.12 371.62 347.12 357.62 352.88 345.38 357.12 332.62 366.50 314.00 374.50 302.00 392.75 279.50 391.12 277.62 396.88 272.38 403.12 261.62 406.88 258.38 413.88 248.38 426.88 220.38 429.88 209.38 429.88 192.62 425.12 184.37 419.12 169.37 415.88 155.62 412.12 146.37 408.12 126.37 408.00 84.50 410.62 80.12 413.50 79.00 442.50 79.00 456.62 82.88 468.50 83.00 489.50 87.00 500.50 87.00 519.50 91.00 528.50 91.00 535.50 93.00 550.50 93.00 557.50 95.00 576.50 95.00 583.50 97.00 700.50 97.00 707.50 95.00 766.50 95.00 773.50 97.00 838.50 97.00 844.62 95.12 852.50 95.00 859.50 97.00 872.50 97.00 879.50 95.00 976.50 95.00 982.62 96.88 992.50 97.00 999.50 99.00 1024.50 99.00 1031.50 101.00 1062.50 101.00 1069.50 99.00 1116.50 99.00 1123.50 101.00 1152.50 101.00 1159.50 103.00 1198.50 103.00 1205.50 105.00 1224.50 105.00 1231.50 107.00 1254.50 107.00 1261.50 109.00 1418.50 109.00 1425.50 111.00 1442.50 111.00 1449.50 113.00 1482.50 113.00 1489.50 115.00 1590.50 115.00 1597.50 113.00 1632.50 113.00 1638.62 111.12 1645.50 113.00 1652.50 113.00 1659.50 111.00 1683.50 111.00 1690.50 109.00 1731.50 109.00 1738.50 107.00 1785.50 107.00 1792.50 105.00 1863.50 105.00 1891.62 115.88 1906.37 120.12 1924.62 127.88 1936.37 130.12 1966.62 146.88 1986.62 155.88 1998.50 159.00 2019.50 159.00 2033.62 155.12 2040.38 154.88 2053.38 149.88 2094.00 126.50 2107.38 115.88 2135.88 87.38 2152.50 59.00 2155.62 56.12 2163.62 53.12 2177.50 53.00 2182.38 51.88 2191.62 48.12 2201.38 45.88 2237.62 30.12 2247.38 27.88 2276.62 14.12 2282.38 12.88 2293.38 7.88 2311.62 -1.88 2333.38 -10.12 2348.62 -19.88 2396.38 -40.12 2432.38 -58.12 2454.00 -72.50 2485.00 -90.50 2498.00 -99.50 2516.00 -114.50 2528.00 -121.50 2542.00 -134.50 2551.00 -139.50 2564.00 -149.50 2569.62 -151.88 2578.37 -151.88 z" style="stroke-width:1;visibility:hidden;" fill="rgba(255,255,255,0.50)" stroke-linecap="square" stroke-linejoin="bevel" id="a-2-0" class="qa layer-2 level-0" data-area="2140406.17" /></g></svg>