<svg width="2824.99mm" height="1262.99mm"  viewBox="0 0 2825 1263" xmlns="http://www.w3.org/2000/svg" xmlns:xlink="http://www.w3.org/1999/xlink" version="1.1"><rect x="0" y="0" width="2824.99" height="1262.99" style="stroke-width:1;" fill="#ffffff" stroke="#000000" stroke-linecap="square" stroke-linejoin="bevel" /><g  transform="matrix(1.000000000000000000,0.000000000000000000,0.000000000000000000,1.000000000000000000,-282.000000000000000000,8.000000000000000000)" ><rect x="282" y="-8" width="2824.99" height="1262.99" style="stroke-width:1;" fill="#ffffff" stroke-linecap="square" stroke-linejoin="bevel" /><path d="M2675.37 -7.88L2677.87 -6.38 2678.99 -3.50 2677.99 10.50 2678.99 13.50 2678.99 30.50 2680.87 36.62 2681.12 45.38 2683.87 52.62 2685.12 61.38 2688.49 67.00 2705.62 82.88 2722.37 87.12 2734.62 92.88 2753.37 99.12 2768.62 106.88 2776.37 109.12 2784.62 115.88 2799.62 122.88 2812.37 124.12 2821.62 127.88 2839.62 131.88 2852.37 132.12 2865.62 138.88 2887.37 144.12 2893.99 150.50 2902.62 155.88 2923.37 163.12 2933.62 169.88 2946.37 171.12 2952.50 173.00 2981.50 173.00 2988.50 171.00 2998.38 170.88 3007.62 167.12 3014.38 166.88 3021.62 162.12 3036.38 158.88 3039.62 157.12 3048.38 156.88 3062.50 153.00 3068.50 154.00 3092.37 154.12 3098.99 156.50 3100.12 160.38 3101.50 161.00 3103.62 158.12 3106.37 158.12 3106.99 267.50 3106.37 268.87 3103.62 269.87 3102.50 266.25 3100.12 267.62 3099.37 270.87 3089.50 272.99 3081.62 273.12 3075.37 275.87 3067.50 276.99 3051.62 277.12 3047.24 278.50 3050.37 279.87 3044.37 281.87 3032.37 284.87 3025.62 285.12 3011.50 289.74 3003.62 289.12 2978.37 294.87 2971.62 295.12 2947.62 301.12 2938.37 305.87 2919.62 311.12 2910.37 316.87 2903.62 318.12 2892.37 322.87 2883.62 324.12 2874.37 327.87 2867.62 329.12 2848.37 337.87 2839.62 340.12 2828.37 346.87 2822.62 348.12 2805.62 356.12 2791.99 366.49 2772.62 378.12 2761.99 388.49 2735.99 407.49 2723.99 420.49 2706.62 434.12 2687.37 453.87 2675.99 461.49 2666.99 470.49 2656.37 473.87 2643.62 474.12 2637.99 476.49 2633.49 480.99 2629.12 492.62 2628.87 501.37 2626.99 507.50 2626.99 524.50 2624.99 531.50 2625.12 551.38 2629.12 569.38 2633.87 578.15 2634.99 584.03 2634.99 597.03 2638.12 613.38 2649.87 638.62 2662.99 678.50 2661.49 682.99 2655.49 688.99 2653.12 694.62 2652.99 704.50 2650.99 711.50 2650.99 738.50 2648.99 745.50 2648.99 789.50 2641.12 821.62 2640.99 835.50 2639.12 841.62 2638.87 848.37 2635.87 853.37 2632.37 855.87 2623.62 857.12 2614.37 860.87 2599.62 863.12 2584.37 868.87 2574.50 868.99 2569.62 867.87 2562.62 864.87 2559.50 861.99 2553.50 853.99 2544.50 837.99 2534.00 825.49 2502.00 808.49 2452.38 775.12 2441.62 770.87 2416.38 756.12 2407.50 753.99 2400.50 753.99 2393.50 755.99 2381.62 756.12 2348.37 769.87 2339.62 771.12 2328.37 774.87 2288.50 774.99 2281.99 777.49 2279.12 780.62 2270.12 798.62 2268.87 804.37 2262.12 816.62 2257.87 829.37 2242.49 857.99 2231.37 869.87 2214.37 882.87 2203.76 877.35 2201.47 879.00 2198.36 878.58 2196.62 876.39 2196.32 872.69 2177.85 863.40 2168.37 863.83 2166.13 862.15 2165.66 858.88 2164.38 858.12 2150.38 854.12 2142.62 853.87 2136.38 851.12 2100.50 850.99 2093.62 852.87 2071.50 846.99 2050.50 846.99 2038.99 850.49 2031.49 857.99 2026.12 869.62 2021.87 888.37 2014.12 909.62 2008.87 932.37 2005.12 939.62 2003.87 946.37 1998.12 959.62 1996.87 966.37 1984.87 989.37 1974.49 1005.99 1967.49 1013.99 1959.87 1025.37 1949.37 1035.87 1937.99 1044.49 1904.37 1057.87 1886.37 1062.87 1879.62 1062.87 1861.62 1055.87 1852.38 1050.12 1844.62 1046.87 1827.38 1035.12 1817.00 1031.49 1809.88 1018.62 1787.38 996.12 1778.12 989.37 1774.12 982.37 1773.88 979.62 1764.88 958.62 1760.38 955.12 1751.62 955.12 1735.37 961.87 1725.62 964.12 1712.37 969.87 1697.62 974.12 1679.37 981.87 1654.50 988.99 1637.38 985.12 1614.62 982.87 1608.50 980.99 1599.50 980.99 1592.50 978.99 1579.50 978.99 1572.50 976.99 1499.50 976.99 1492.50 978.99 1471.50 978.99 1465.37 980.87 1456.62 981.12 1420.62 988.12 1411.37 991.87 1401.62 994.12 1377.62 1005.12 1360.99 1015.49 1356.37 1019.87 1347.99 1024.49 1328.99 1038.49 1309.99 1049.49 1288.99 1064.49 1268.99 1075.49 1263.37 1079.87 1246.62 1086.12 1237.37 1091.87 1221.62 1099.12 1209.37 1106.87 1202.62 1108.12 1189.37 1114.87 1181.62 1117.12 1166.37 1128.87 1158.62 1130.12 1155.62 1132.12 1142.99 1145.49 1140.37 1146.87 1134.62 1146.87 1114.62 1140.87 1097.62 1132.87 1091.12 1127.37 1082.12 1113.37 1075.12 1097.37 1066.12 1074.37 1061.38 1055.12 1055.62 1055.12 1053.12 1059.62 1047.12 1077.62 1044.87 1090.37 1040.87 1097.37 1030.99 1106.49 1024.99 1109.49 1011.00 1120.49 997.37 1126.87 991.62 1123.87 982.88 1112.62 968.38 1098.12 956.38 1090.12 931.38 1080.12 915.38 1075.12 893.50 1074.99 888.62 1076.12 881.62 1080.12 876.12 1087.62 875.99 1107.50 873.99 1114.50 873.99 1123.50 871.99 1130.50 871.87 1138.37 865.87 1160.37 854.87 1192.37 840.87 1221.37 835.00 1226.49 829.37 1228.87 824.62 1228.87 815.62 1225.87 809.00 1222.49 790.38 1209.12 765.38 1198.12 760.50 1196.99 733.50 1196.99 715.62 1202.12 690.37 1217.87 676.37 1223.87 663.37 1227.87 658.50 1228.99 641.50 1228.99 634.50 1230.99 623.50 1230.99 615.37 1234.87 603.50 1234.99 597.37 1236.87 588.62 1237.12 551.37 1254.87 533.50 1254.99 527.62 1251.87 517.62 1243.87 512.38 1238.12 497.00 1227.49 490.38 1224.12 484.62 1222.87 481.12 1220.37 480.00 1217.50 479.88 1203.62 470.12 1170.37 466.88 1135.62 462.88 1123.62 454.12 1104.37 453.88 1097.62 451.88 1089.62 447.12 1081.37 440.88 1065.62 435.12 1057.37 434.12 1053.62 438.88 1042.38 444.12 1021.62 447.88 1014.38 448.00 988.50 453.12 971.62 464.88 951.38 472.88 933.38 476.12 922.62 490.88 907.38 501.50 894.00 512.88 870.38 520.00 843.50 519.88 811.62 513.88 787.62 511.50 781.99 466.88 723.62 456.38 713.12 447.62 706.87 440.50 698.99 434.12 685.37 433.88 680.62 430.12 673.37 428.88 661.62 421.50 650.99 384.38 613.12 363.00 601.49 356.12 594.37 349.25 575.50 352.75 574.50 351.88 572.62 324.12 530.37 315.12 513.37 306.88 490.62 300.12 479.37 290.12 450.37 291.00 442.50 289.88 429.62 285.12 416.37 282.00 399.50 282.00 377.50 290.50 362.00 299.88 349.38 303.12 340.62 316.88 315.38 318.12 309.62 322.88 301.38 339.12 263.62 354.88 231.38 359.12 213.62 372.88 187.38 374.12 181.62 378.88 172.38 383.12 152.62 387.12 139.62 390.88 132.38 395.88 115.38 396.00 105.50 398.00 98.50 398.00 77.50 396.00 70.50 396.00 59.50 398.62 55.12 401.50 54.00 438.48 54.00 439.84 51.08 450.50 51.08 457.50 49.08 492.80 49.08 491.96 52.00 497.37 52.12 503.50 54.00 522.50 54.00 539.50 58.00 604.50 58.00 610.62 56.12 620.50 56.00 627.50 54.00 659.38 53.88 702.62 44.12 725.38 41.88 726.31 41.31 723.79 38.08 739.50 35.08 756.50 35.08 763.50 33.08 798.50 33.08 804.62 31.20 814.50 32.08 820.45 31.08 819.91 36.00 842.50 36.00 849.50 34.00 884.50 34.00 891.50 32.00 1012.50 32.00 1019.50 34.00 1038.50 34.00 1045.50 32.00 1052.50 32.00 1059.50 34.00 1070.50 34.00 1077.50 32.00 1092.50 32.00 1099.50 34.00 1134.50 34.00 1154.50 32.00 1161.50 34.00 1167.38 33.88 1172.62 32.12 1179.50 34.00 1284.50 34.00 1291.50 36.00 1326.50 36.00 1333.50 38.00 1610.50 38.00 1617.50 40.00 1630.50 40.00 1636.62 41.88 1646.50 42.00 1653.50 44.00 1680.37 44.12 1692.62 50.88 1700.37 52.12 1722.62 62.88 1779.37 87.12 1816.37 105.12 1822.62 109.88 1865.37 132.12 1870.62 135.88 1908.62 152.88 1928.37 158.12 1937.62 161.88 1950.37 164.12 1955.62 166.88 1972.50 169.00 2007.50 169.00 2016.38 166.88 2021.62 164.12 2026.38 163.88 2048.38 157.88 2062.62 151.12 2071.38 148.88 2108.00 129.50 2133.38 110.88 2136.62 107.12 2147.38 100.88 2181.88 66.38 2190.50 52.00 2199.62 44.12 2229.50 44.00 2250.50 40.00 2268.50 40.00 2279.62 34.12 2288.38 33.88 2294.50 32.00 2307.50 32.00 2328.50 28.00 2340.38 27.88 2342.29 27.03 2343.62 24.20 2348.50 23.08 2361.50 23.08 2368.50 25.08 2383.50 25.08 2390.50 23.08 2393.80 23.08 2391.84 24.95 2403.50 24.00 2431.62 18.12 2440.38 17.88 2446.50 16.00 2458.26 16.00 2468.50 13.08 2485.50 13.08 2492.50 11.08 2498.37 11.20 2504.50 13.08 2510.38 12.95 2517.44 11.08 2517.50 14.00 2538.50 10.00 2556.38 9.88 2586.50 2.00 2605.50 2.00 2612.50 0.00 2633.50 0.00 2647.62 -4.88 2661.62 -7.88 2675.37 -7.88 zM1079.16 44.26L1070.50 46.00 1057.81 45.88 1050.15 44.00 1039.57 45.95 1019.50 46.00 1010.15 44.00 893.85 44.00 885.57 45.95 851.85 46.00 843.57 47.95 813.00 48.00 809.14 52.49 798.06 59.69 783.82 64.38 768.91 65.68 754.28 63.49 745.84 60.20 735.40 52.00 705.85 56.00 660.20 65.88 629.85 66.00 605.57 69.95 538.88 69.98 520.15 66.00 502.88 65.98 494.15 64.00 485.04 64.00 473.64 75.45 463.70 81.75 454.04 85.50 446.14 86.08 441.00 83.87 437.49 79.04 435.73 71.70 435.92 66.00 408.00 66.00 409.95 76.43 410.00 98.50 408.00 107.85 407.75 117.07 403.10 133.62 394.89 156.07 390.10 176.62 385.89 185.07 383.68 192.60 370.98 216.86 366.10 235.62 329.98 312.86 327.68 320.61 314.60 344.81 310.17 355.55 300.45 369.02 294.00 380.82 294.00 397.15 296.88 412.85 301.75 427.93 302.81 449.69 311.83 475.47 317.88 485.84 326.65 509.40 334.46 524.01 362.88 567.83 364.67 573.14 363.68 579.45 366.60 588.13 370.01 591.54 386.57 599.84 392.11 603.95 428.21 640.08 439.88 656.84 441.75 662.93 442.00 670.15 450.60 692.13 476.21 716.08 521.21 774.95 525.26 783.84 532.00 812.50 531.88 845.20 526.43 867.60 521.67 880.61 511.36 900.84 500.08 915.07 486.58 928.89 484.10 937.62 475.68 956.61 464.98 974.86 460.00 990.85 459.43 1017.60 455.89 1025.07 450.43 1045.60 447.11 1053.64 451.88 1060.83 462.88 1084.84 466.00 1101.15 473.88 1118.84 478.26 1131.84 479.95 1139.43 480.00 1153.15 481.75 1159.93 482.00 1167.15 491.56 1200.88 492.00 1212.06 502.58 1216.85 515.84 1225.63 536.30 1242.99 550.40 1242.34 585.85 1225.44 602.43 1223.04 612.16 1222.99 621.78 1219.11 659.86 1216.11 672.40 1212.34 687.21 1205.97 702.80 1195.22 710.84 1191.11 732.43 1185.04 761.16 1185.01 769.62 1186.89 796.59 1198.85 816.86 1213.01 824.07 1216.10 828.13 1216.39 833.01 1211.14 843.10 1188.93 853.37 1159.29 859.99 1135.15 862.11 1112.78 863.99 1105.15 864.36 1085.36 860.44 1074.53 859.94 1065.11 862.64 1057.15 864.98 1054.38 873.77 1050.64 887.70 1051.51 900.70 1057.59 906.58 1062.99 916.22 1063.11 922.60 1064.56 963.64 1080.34 976.90 1089.67 991.40 1104.18 998.49 1113.29 1023.95 1096.57 1032.48 1088.09 1039.89 1060.38 1046.63 1047.14 1052.85 1043.44 1064.39 1043.50 1069.11 1045.94 1072.88 1050.84 1078.65 1073.40 1086.65 1093.40 1092.62 1107.20 1101.65 1120.46 1121.33 1117.99 1143.08 1119.21 1150.17 1121.41 1154.82 1118.74 1160.53 1117.99 1167.91 1111.81 1178.84 1105.11 1186.21 1102.97 1198.82 1096.74 1206.21 1094.97 1215.43 1088.84 1230.21 1081.97 1237.83 1077.12 1257.48 1069.16 1322.02 1028.53 1353.92 1005.80 1371.44 994.83 1396.84 983.11 1416.82 976.74 1469.78 967.11 1490.16 966.99 1499.50 964.99 1573.16 965.01 1581.85 966.99 1593.16 967.01 1601.85 968.99 1610.22 969.11 1653.95 976.42 1672.40 971.34 1747.82 943.74 1759.50 942.99 1767.63 945.33 1773.54 950.11 1776.88 955.84 1786.46 980.01 1795.90 987.67 1818.40 1010.18 1825.12 1021.46 1833.57 1024.84 1850.81 1036.39 1864.86 1044.01 1883.16 1050.99 1900.86 1046.11 1931.13 1034.39 1941.19 1026.62 1950.59 1017.23 1968.48 993.09 1985.10 962.93 1993.89 935.38 1997.10 928.93 2002.56 906.40 2010.10 884.93 2012.05 875.02 2005.54 867.45 2003.49 862.66 2002.97 857.78 2005.45 849.72 2011.94 842.06 2021.98 835.46 2033.32 831.47 2043.67 830.58 2054.02 832.32 2060.21 834.99 2074.10 835.24 2094.00 840.23 2100.50 838.99 2138.10 839.24 2145.84 841.99 2152.10 842.24 2161.60 844.56 2174.62 848.89 2197.43 858.02 2213.18 868.63 2223.19 860.62 2232.54 850.98 2246.01 826.14 2250.89 812.38 2257.01 801.14 2260.85 790.41 2253.40 780.75 2250.05 774.00 2248.81 768.24 2249.60 762.82 2252.42 758.06 2261.49 751.22 2274.29 746.90 2287.85 746.02 2301.42 748.61 2312.93 754.05 2322.03 762.99 2325.16 762.99 2344.86 758.11 2378.85 744.44 2407.50 741.99 2419.60 744.56 2448.86 761.01 2458.57 764.84 2508.91 798.48 2527.04 808.09 2529.60 797.89 2535.42 783.21 2543.56 769.14 2554.19 756.25 2566.53 745.68 2580.06 737.73 2593.98 733.00 2608.36 731.73 2621.12 734.38 2630.13 738.84 2621.41 729.54 2616.26 722.00 2613.42 715.11 2612.97 709.03 2615.00 703.86 2619.54 699.97 2626.54 697.47 2640.99 696.82 2643.32 686.39 2650.20 677.32 2636.34 637.60 2626.74 617.18 2623.24 601.10 2622.99 593.97 2616.47 586.89 2613.50 580.41 2613.20 574.17 2616.38 567.84 2612.99 550.50 2613.01 530.85 2614.99 522.15 2615.11 505.78 2618.89 484.38 2623.21 474.81 2629.51 468.01 2640.85 462.44 2653.16 461.99 2660.47 460.16 2668.08 452.47 2679.19 444.62 2699.08 424.78 2716.95 410.57 2728.08 398.47 2754.95 378.57 2765.08 368.78 2784.95 356.57 2799.44 345.83 2817.84 337.11 2824.47 335.16 2834.82 329.12 2849.40 324.34 2860.84 318.73 2906.47 305.16 2914.82 300.12 2934.86 294.11 2944.85 289.44 2968.85 283.44 3001.90 277.24 3010.91 277.08 3022.85 273.44 3029.16 272.99 3038.20 270.63 3042.82 267.12 3048.85 265.44 3065.16 264.99 3072.16 263.99 3079.90 261.24 3087.16 260.99 3090.76 260.12 3094.99 256.53 3094.99 171.46 3089.61 166.18 3064.01 165.31 3050.07 168.75 3042.85 169.00 3025.52 173.83 3018.16 178.26 3010.84 179.00 2999.20 182.88 2990.84 183.00 2981.50 185.00 2950.81 184.88 2929.38 181.10 2917.78 174.23 2896.46 166.17 2887.16 160.36 2882.66 155.86 2861.38 150.10 2851.18 144.60 2837.93 143.75 2818.40 139.43 2809.15 136.00 2795.38 134.10 2778.46 126.17 2770.46 119.83 2763.39 117.67 2750.14 110.98 2718.92 98.89 2700.41 93.68 2694.97 90.12 2680.01 75.48 2674.12 66.19 2669.44 48.15 2667.04 31.57 2665.99 4.00 2651.15 6.88 2636.07 11.75 2614.84 12.00 2606.57 13.95 2588.84 14.00 2558.07 21.75 2540.84 22.00 2534.07 23.75 2513.34 26.00 2509.07 32.61 2502.69 38.77 2494.84 43.17 2488.11 44.94 2481.71 45.12 2475.86 43.71 2470.78 40.73 2467.23 37.08 2462.69 28.00 2448.84 28.00 2405.20 35.88 2396.84 36.00 2388.57 37.95 2378.03 38.00 2365.18 46.38 2353.14 49.75 2348.26 49.19 2344.32 47.09 2341.53 43.35 2340.75 39.93 2330.84 40.00 2309.20 43.88 2296.84 44.00 2289.20 45.88 2282.84 46.00 2274.16 50.88 2270.20 51.88 2252.84 52.00 2230.57 55.95 2203.47 56.00 2200.45 59.02 2191.08 74.07 2155.86 109.36 2145.98 115.46 2114.17 139.79 2076.16 159.88 2066.60 162.65 2053.16 168.88 2007.50 181.00 1971.88 180.98 1953.93 178.75 1946.92 175.89 1934.40 173.43 1904.38 164.10 1865.41 146.68 1816.46 120.17 1809.14 114.98 1776.14 98.98 1697.17 64.00 1687.39 61.67 1677.17 56.00 1652.88 55.98 1628.15 52.00 1615.81 51.88 1608.15 50.00 1333.50 50.00 1324.15 48.00 1290.88 47.98 1282.15 46.00 1179.50 46.00 1173.00 44.77 1161.50 46.00 1153.01 44.31 1134.50 46.00 1099.50 46.00 1090.15 44.00 1079.16 44.26 zM1236.41 942.42L1243.95 945.54 1244.87 948.29 1243.39 951.20 1239.94 951.98 1233.12 948.90 1232.65 944.70 1236.41 942.42 zM718.26 914.67L721.04 916.39 723.55 922.25 721.60 931.37 716.08 940.56 711.09 945.11 705.94 947.24 701.59 946.57 698.42 943.21 696.24 936.09 696.81 921.58 707.28 915.46 714.80 914.00 718.26 914.67 zM1109.52 884.95L1112.75 886.91 1112.94 890.62 1118.96 892.01 1119.92 895.70 1118.26 902.13 1114.95 907.87 1110.06 912.10 1103.33 913.78 1097.67 911.09 1095.42 904.21 1097.35 897.58 1102.68 892.10 1106.33 886.28 1109.52 884.95 zM1567.31 847.06L1586.76 848.81 1591.89 851.90 1592.96 858.14 1588.03 863.04 1581.06 863.39 1577.87 860.77 1575.74 855.72 1566.35 854.99 1563.92 853.59 1563.45 849.22 1567.31 847.06 zM2494.79 677.21L2548.12 701.69 2549.90 703.85 2549.68 706.98 2547.61 708.87 2544.80 708.93 2492.53 684.66 2490.74 682.50 2490.70 680.04 2492.40 677.81 2494.79 677.21 zM2538.07 549.66L2540.37 550.54 2541.72 552.61 2540.36 556.78 2525.81 564.45 2521.58 563.26 2520.62 560.27 2522.11 557.51 2538.07 549.66 zM1383.65 50.60L1390.39 51.97 1402.75 61.99 1399.13 69.82 1390.14 78.57 1378.64 84.39 1369.04 85.11 1359.62 82.00 1354.34 76.42 1353.44 69.68 1355.58 62.61 1361.38 56.59 1371.80 51.94 1383.65 50.60 z" style="stroke-width:1;" fill="#0000ff" stroke-linecap="square" stroke-linejoin="bevel" id="mergeda-0-4" class="merged qa layer-0 level-4" fill-rule="evenodd" data-area="116101.62" /><path d="M498.11 1026.09L505.23 1027.93 520.14 1034.89 535.83 1045.86 547.74 1056.79 569.04 1079.71 581.00 1089.90 596.30 1099.87 613.46 1108.53 632.66 1115.53 652.48 1119.86 674.14 1122.31 715.21 1124.52 735.82 1127.60 758.15 1135.47 766.92 1140.28 774.19 1145.76 781.68 1154.16 786.86 1163.93 789.57 1174.71 789.61 1195.32 775.66 1188.91 763.10 1185.24 730.90 1185.24 710.84 1191.11 702.80 1195.22 687.21 1205.97 672.40 1212.34 659.86 1216.11 621.78 1219.11 612.16 1222.99 602.43 1223.04 585.85 1225.44 550.40 1242.34 536.30 1242.99 515.84 1225.63 502.58 1216.85 492.00 1212.06 491.56 1200.88 482.00 1167.15 481.75 1159.93 480.00 1153.15 479.95 1139.43 478.26 1131.84 473.88 1118.84 466.00 1101.15 462.88 1084.84 451.88 1060.83 447.11 1053.64 451.83 1039.50 460.93 1033.49 476.85 1027.24 491.31 1025.39 498.11 1026.09 zM2049.55 702.07L2061.86 706.32 2072.74 712.67 2081.60 720.72 2089.33 731.23 2098.18 748.35 2106.19 769.53 2111.95 790.87 2114.91 810.30 2115.11 825.92 2113.21 838.99 2099.43 839.04 2094.00 840.23 2074.10 835.24 2060.21 834.99 2054.02 832.32 2043.67 830.58 2033.32 831.47 2021.98 835.46 2013.88 840.78 1994.81 825.23 1985.43 814.67 1978.63 804.41 1973.28 791.97 1970.18 778.29 1969.61 764.49 1971.53 750.89 1975.75 738.58 1982.30 727.32 1990.84 717.56 2001.15 709.65 2012.63 704.05 2025.46 700.75 2036.93 700.16 2049.55 702.07 z" style="stroke-width:1;" fill="#00ffff" stroke-linecap="square" stroke-linejoin="bevel" id="mergeda-0-3" class="merged qa layer-0 level-3" fill-rule="evenodd" data-area="52717.34" /><path d="M723.65 818.26L755.59 824.57 788.91 834.48 808.88 842.57 848.16 862.36 866.95 873.43 903.33 898.78 932.44 923.75 956.17 949.76 966.11 963.20 981.15 989.66 986.54 1003.26 992.08 1024.28 993.78 1043.19 991.60 1059.49 985.44 1074.80 976.11 1088.95 960.62 1078.89 922.60 1064.56 916.22 1063.11 906.58 1062.99 900.70 1057.59 887.70 1051.51 873.77 1050.64 864.98 1054.38 862.64 1057.15 859.94 1065.11 860.44 1074.53 864.36 1085.36 863.99 1105.15 862.11 1112.78 859.99 1135.15 853.37 1159.29 843.10 1188.93 832.48 1212.09 826.99 1216.69 815.90 1212.48 797.84 1199.63 789.06 1195.09 790.01 1187.29 789.57 1174.71 786.86 1163.93 781.68 1154.16 774.19 1145.76 758.15 1135.47 735.82 1127.60 715.21 1124.52 674.14 1122.31 652.48 1119.86 632.66 1115.53 613.46 1108.53 596.30 1099.87 581.00 1089.90 569.04 1079.71 547.74 1056.79 535.83 1045.86 520.14 1034.89 505.23 1027.93 491.31 1025.39 476.85 1027.24 460.93 1033.49 451.83 1039.50 455.89 1025.07 459.75 1016.07 460.00 990.85 464.98 974.86 475.68 956.61 484.10 937.62 486.58 928.89 500.08 915.07 512.16 899.55 522.10 879.62 528.05 860.74 546.10 849.49 575.27 835.19 601.66 826.05 633.39 818.87 661.01 815.31 691.68 815.18 723.65 818.26 zM1620.34 788.99L1699.43 794.80 1751.63 801.98 1771.53 808.01 1822.10 830.08 1902.46 857.33 2008.24 889.90 2002.56 906.40 1997.10 928.93 1993.89 935.38 1985.01 963.14 1974.48 983.09 1964.54 998.98 1952.54 1014.98 1938.95 1028.57 1931.13 1034.39 1926.40 1036.34 1900.86 1046.11 1883.16 1050.99 1864.86 1044.01 1850.81 1036.39 1833.57 1024.84 1825.12 1021.46 1818.40 1010.18 1795.90 987.67 1786.46 980.01 1776.88 955.84 1772.98 949.51 1769.20 946.22 1763.60 943.56 1751.43 943.04 1693.82 962.74 1672.40 971.34 1653.95 976.42 1610.22 969.11 1601.85 968.99 1593.16 967.01 1581.85 966.99 1573.16 965.01 1499.50 964.99 1490.16 966.99 1469.78 967.11 1416.82 976.74 1396.84 983.11 1371.44 994.83 1353.92 1005.80 1322.02 1028.53 1257.48 1069.16 1237.83 1077.12 1230.21 1081.97 1215.43 1088.84 1206.21 1094.97 1198.82 1096.74 1186.21 1102.97 1178.84 1105.11 1167.91 1111.81 1160.53 1117.99 1154.82 1118.74 1150.17 1121.41 1143.08 1119.21 1121.33 1117.99 1101.65 1120.46 1092.62 1107.20 1086.65 1093.40 1078.65 1073.40 1072.41 1049.88 1068.26 1045.29 1062.22 1043.11 1051.82 1043.74 1045.91 1047.93 1039.89 1060.38 1032.48 1088.09 1023.95 1096.57 1017.91 1099.81 1003.95 1110.57 998.49 1113.29 984.04 1096.89 1072.97 1001.04 1107.54 967.03 1134.19 945.40 1158.07 929.02 1181.28 916.36 1242.04 894.45 1271.91 879.42 1276.90 875.30 1283.42 865.91 1305.73 840.97 1328.03 820.99 1346.67 807.54 1358.48 802.08 1372.36 797.72 1411.64 790.81 1433.73 789.08 1620.34 788.99 zM975.82 1105.93L975.82 1105.93 zM968.38 1098.12L967.62 1097.87 968.38 1098.12 zM1236.21 942.42L1232.65 944.70 1233.12 948.90 1239.94 951.98 1243.39 951.20 1244.87 948.29 1243.89 945.46 1236.21 942.42 zM707.28 915.46L696.81 921.58 695.94 926.87 696.24 936.09 698.42 943.21 701.59 946.57 705.94 947.24 711.09 945.11 716.08 940.56 721.60 931.37 723.55 922.25 721.04 916.39 718.26 914.67 714.80 914.00 707.28 915.46 zM1566.55 847.07L1563.30 849.55 1563.92 853.59 1566.35 854.99 1575.74 855.72 1577.87 860.77 1581.06 863.39 1588.03 863.04 1592.96 858.14 1591.89 851.90 1586.38 848.65 1566.55 847.07 zM2701.14 93.98L2718.92 98.89 2750.14 110.98 2763.39 117.67 2770.46 119.83 2778.46 126.17 2795.38 134.10 2809.15 136.00 2818.40 139.43 2837.93 143.75 2849.15 144.00 2861.38 150.10 2882.66 155.86 2887.16 160.36 2897.41 166.68 2917.78 174.23 2929.38 181.10 2935.93 182.75 2943.15 183.00 2951.88 184.98 2982.57 184.95 2990.84 183.00 3000.07 182.75 3010.84 179.00 3017.13 178.56 3025.52 173.83 3042.85 169.00 3050.07 168.75 3064.01 165.31 3089.61 166.18 3094.99 171.46 3094.99 256.53 3090.76 260.12 3087.16 260.99 3079.90 261.24 3072.16 263.99 3065.16 264.99 3048.85 265.44 3042.82 267.12 3038.20 270.63 3029.16 272.99 3022.85 273.44 3010.91 277.08 3001.90 277.24 2968.85 283.44 2944.85 289.44 2934.86 294.11 2914.82 300.12 2906.47 305.16 2860.84 318.73 2849.40 324.34 2834.82 329.12 2824.47 335.16 2817.84 337.11 2799.44 345.83 2784.95 356.57 2765.08 368.78 2754.95 378.57 2728.08 398.47 2716.95 410.57 2699.08 424.78 2679.19 444.62 2668.08 452.47 2660.47 460.16 2636.84 463.73 2630.92 466.80 2625.01 472.51 2618.56 485.40 2615.11 505.78 2614.99 522.15 2613.01 530.85 2612.99 550.50 2616.38 567.84 2613.20 574.17 2613.50 580.41 2616.47 586.89 2622.99 593.97 2623.24 601.10 2626.74 617.18 2636.34 637.60 2650.20 677.32 2643.32 686.39 2640.99 696.82 2626.54 697.47 2619.54 699.97 2615.00 703.86 2612.97 709.03 2613.42 715.11 2616.26 722.00 2621.41 729.54 2630.13 738.84 2621.12 734.38 2608.36 731.73 2593.98 733.00 2580.06 737.73 2566.53 745.68 2554.19 756.25 2543.56 769.14 2535.42 783.21 2529.60 797.89 2527.04 808.09 2508.91 798.48 2458.57 764.84 2448.86 761.01 2420.62 744.89 2409.22 742.11 2399.43 742.04 2391.16 743.99 2378.85 744.44 2362.86 751.11 2366.03 698.31 2369.48 675.77 2375.13 653.06 2395.16 592.74 2411.49 551.36 2421.60 513.72 2434.53 478.31 2445.09 455.76 2448.57 384.51 2450.18 382.65 2452.94 382.14 2455.12 383.29 2456.24 385.86 2453.96 436.84 2476.57 388.57 2495.05 354.21 2522.96 309.61 2552.58 268.47 2570.59 245.84 2510.74 254.50 2507.12 252.60 2507.06 248.51 2509.95 246.55 2577.87 236.70 2585.25 227.43 2491.09 237.55 2487.54 235.52 2487.45 231.75 2490.59 229.57 2592.26 218.63 2620.51 183.14 2667.02 129.02 2701.14 93.98 zM2363.05 763.46L2363.05 763.46 zM2494.08 677.22L2491.83 678.24 2490.61 680.38 2490.88 682.83 2492.53 684.66 2544.80 708.93 2547.61 708.87 2549.68 706.98 2549.90 703.85 2548.12 701.69 2494.08 677.22 zM2537.35 549.69L2522.11 557.51 2520.62 560.27 2521.58 563.26 2525.81 564.45 2540.36 556.78 2541.71 554.73 2541.61 552.27 2540.08 550.33 2537.35 549.69 zM2470.80 113.31L2473.60 114.71 2474.53 117.75 2447.29 360.75 2445.75 363.48 2442.72 364.26 2440.05 362.61 2439.34 359.86 2466.57 116.86 2467.84 114.36 2470.80 113.31 zM500.70 349.94L539.50 352.52 542.15 354.18 542.80 357.25 541.33 359.63 539.01 360.47 499.81 357.88 497.37 356.50 496.46 353.51 497.98 350.77 500.70 349.94 z" style="stroke-width:1;" fill="#00ff00" stroke-linecap="square" stroke-linejoin="bevel" id="mergeda-0-2" class="merged qa layer-0 level-2" fill-rule="evenodd" data-area="476790.03" /><path d="" style="stroke-width:1;" fill="#ffff00" stroke-linecap="square" stroke-linejoin="bevel" id="mergeda-0-1" class="merged qa layer-0 level-1" data-area="0.00" /><path d="M1023.37 1111.12L1025.62 1109.12 1023.37 1111.12 zM2665.99 10.50L2667.04 31.57 2668.99 39.84 2669.11 46.22 2674.12 66.19 2680.01 75.48 2694.97 90.12 2700.62 93.77 2667.02 129.02 2620.51 183.14 2592.26 218.63 2490.59 229.57 2487.30 232.07 2487.73 235.83 2491.09 237.55 2585.25 227.43 2577.87 236.70 2509.95 246.55 2507.06 248.51 2507.12 252.60 2510.74 254.50 2570.59 245.84 2552.58 268.47 2522.96 309.61 2495.05 354.21 2476.57 388.57 2453.96 436.84 2456.24 385.86 2455.12 383.29 2452.94 382.14 2450.18 382.65 2448.57 384.51 2445.09 455.76 2434.53 478.31 2421.60 513.72 2411.49 551.36 2395.16 592.74 2375.13 653.06 2369.48 675.77 2366.03 698.31 2363.50 750.86 2344.86 758.11 2325.16 762.99 2322.03 762.99 2312.93 754.05 2301.42 748.61 2287.85 746.02 2274.29 746.90 2261.49 751.22 2256.37 754.38 2252.42 758.06 2249.60 762.82 2248.81 768.24 2250.05 774.00 2253.40 780.75 2260.85 790.41 2257.10 800.93 2251.32 811.39 2246.01 826.14 2232.54 850.98 2223.19 860.62 2213.18 868.63 2197.11 857.87 2161.60 844.56 2152.10 842.24 2145.84 841.99 2137.22 839.11 2113.21 838.99 2115.11 825.92 2114.91 810.30 2111.95 790.87 2106.19 769.53 2098.18 748.35 2089.33 731.23 2081.60 720.72 2072.74 712.67 2061.86 706.32 2049.55 702.07 2036.93 700.16 2025.46 700.75 2012.63 704.05 2001.15 709.65 1990.84 717.56 1982.30 727.32 1975.75 738.58 1971.53 750.89 1969.61 764.49 1970.18 778.29 1973.28 791.97 1978.63 804.41 1985.43 814.67 1994.81 825.23 2013.88 840.78 2005.45 849.72 2002.97 857.78 2005.54 867.45 2012.05 875.02 2008.21 890.08 1902.46 857.33 1822.10 830.08 1771.53 808.01 1751.63 801.98 1730.26 798.32 1654.11 790.79 1620.34 788.99 1461.43 788.40 1433.73 789.08 1390.75 793.83 1372.36 797.72 1358.48 802.08 1338.78 812.58 1305.73 840.97 1283.42 865.91 1276.90 875.30 1271.91 879.42 1242.04 894.45 1181.28 916.36 1158.07 929.02 1134.19 945.40 1107.54 967.03 1072.97 1001.04 984.04 1096.89 975.96 1088.82 985.44 1074.80 991.60 1059.49 993.78 1043.19 992.08 1024.28 986.54 1003.26 981.15 989.66 966.11 963.20 956.17 949.76 932.44 923.75 903.33 898.78 866.95 873.43 827.13 851.23 788.91 834.48 755.59 824.57 723.65 818.26 691.68 815.18 661.01 815.31 633.39 818.87 601.66 826.05 575.27 835.19 546.10 849.49 528.05 860.74 531.98 844.13 531.95 811.43 525.56 784.88 522.18 776.47 476.21 716.08 450.60 692.13 442.00 670.15 441.75 662.93 439.88 656.84 428.21 640.08 392.11 603.95 386.57 599.84 370.01 591.54 366.60 588.13 363.68 579.45 364.75 574.21 363.50 569.16 359.80 561.84 340.46 534.01 328.02 512.21 317.88 485.84 311.83 475.47 302.81 449.69 301.75 427.93 296.88 412.85 294.00 397.15 294.00 380.82 300.45 369.02 310.17 355.55 314.60 344.81 327.68 320.61 329.98 312.86 366.10 235.62 370.98 216.86 383.68 192.60 385.89 185.07 390.10 176.62 394.89 156.07 403.10 133.62 407.75 117.07 408.00 107.85 410.00 98.50 409.95 76.43 408.00 66.00 435.92 66.00 435.73 71.70 437.49 79.04 441.00 83.87 446.14 86.08 454.04 85.50 463.70 81.75 473.64 75.45 485.04 64.00 494.15 64.00 502.88 65.98 520.15 66.00 538.88 69.98 605.57 69.95 629.85 66.00 660.20 65.88 705.85 56.00 735.40 52.00 745.84 60.20 754.28 63.49 768.91 65.68 783.82 64.38 798.06 59.69 809.14 52.49 813.00 48.00 843.57 47.95 851.85 46.00 885.57 45.95 893.85 44.00 1010.15 44.00 1019.50 46.00 1039.57 45.95 1047.85 44.00 1059.50 46.00 1071.57 45.95 1079.85 44.00 1090.15 44.00 1099.50 46.00 1134.50 46.00 1153.01 44.31 1161.50 46.00 1173.00 44.77 1179.50 46.00 1282.15 46.00 1290.88 47.98 1324.15 48.00 1333.50 50.00 1608.15 50.00 1615.81 51.88 1628.15 52.00 1652.88 55.98 1677.17 56.00 1687.39 61.67 1697.17 64.00 1776.14 98.98 1809.14 114.98 1816.46 120.17 1865.41 146.68 1908.40 165.43 1934.40 173.43 1946.92 175.89 1953.93 178.75 1971.88 180.98 2007.50 181.00 2053.16 168.88 2066.60 162.65 2076.16 159.88 2114.17 139.79 2145.98 115.46 2155.86 109.36 2191.08 74.07 2200.45 59.02 2203.47 56.00 2230.57 55.95 2252.84 52.00 2270.20 51.88 2274.16 50.88 2282.84 46.00 2289.20 45.88 2296.84 44.00 2309.20 43.88 2330.84 40.00 2340.75 39.93 2341.53 43.35 2344.32 47.09 2348.26 49.19 2353.14 49.75 2365.18 46.38 2378.03 38.00 2388.57 37.95 2396.84 36.00 2405.20 35.88 2448.84 28.00 2462.69 28.00 2467.23 37.08 2470.78 40.73 2475.86 43.71 2481.71 45.12 2488.11 44.94 2494.84 43.17 2502.69 38.77 2509.07 32.61 2513.34 26.00 2534.07 23.75 2540.84 22.00 2558.07 21.75 2588.84 14.00 2606.57 13.95 2614.84 12.00 2636.07 11.75 2651.15 6.88 2664.84 4.00 2665.99 4.00 2665.99 10.50 zM1937.99 1044.49L1940.62 1042.12 1937.99 1044.49 zM1108.81 884.98L1106.33 886.28 1102.68 892.10 1097.13 897.89 1095.42 904.21 1097.67 911.09 1103.33 913.78 1110.06 912.10 1114.95 907.87 1118.26 902.13 1120.00 895.31 1118.71 891.76 1112.94 890.62 1112.56 886.61 1108.81 884.98 zM2095.62 852.12L2096.50 851.99 2094.37 852.87 2095.62 852.12 zM2470.08 113.33L2467.84 114.36 2466.57 116.86 2439.34 359.86 2440.05 362.61 2442.72 364.26 2445.75 363.48 2447.29 360.75 2474.53 117.75 2473.36 114.45 2470.08 113.33 zM499.94 349.96L497.46 351.25 496.44 353.86 497.37 356.50 499.81 357.88 539.01 360.47 541.33 359.63 542.80 357.25 542.15 354.18 539.50 352.52 499.94 349.96 zM1371.80 51.94L1361.38 56.59 1355.58 62.61 1353.44 69.68 1354.34 76.42 1359.62 82.00 1363.56 83.94 1374.06 85.28 1378.64 84.39 1390.14 78.57 1399.13 69.82 1402.75 61.99 1390.39 51.97 1382.49 50.37 1371.80 51.94 zM523.37 54.12L524.21 54.62 522.50 54.00 523.37 54.12 zM1032.99 1104.49L1030.37 1106.87 1032.99 1104.49 zM1042.49 1094.99L1041.12 1096.62 1042.49 1094.99 zM1843.00 1045.49L1844.62 1046.87 1843.00 1045.49 zM1318.99 1044.49L1317.37 1045.87 1318.99 1044.49 zM1840.00 1043.49L1841.62 1044.87 1840.00 1043.49 zM1322.99 1041.49L1320.37 1043.87 1322.99 1041.49 zM1837.00 1041.49L1838.62 1042.87 1837.00 1041.49 zM1943.99 1039.49L1941.37 1041.87 1943.99 1039.49 zM1834.00 1039.49L1835.62 1040.87 1834.00 1039.49 zM1329.99 1037.49L1328.37 1038.87 1329.99 1037.49 zM1831.00 1037.49L1832.62 1038.87 1831.00 1037.49 zM1947.99 1036.49L1945.37 1038.87 1947.99 1036.49 zM1332.99 1035.49L1331.37 1036.87 1332.99 1035.49 zM1828.00 1035.49L1829.62 1036.87 1828.00 1035.49 zM1335.99 1033.49L1334.37 1034.87 1335.99 1033.49 zM1338.99 1031.49L1337.37 1032.87 1338.99 1031.49 zM1815.50 1029.99L1817.62 1031.87 1815.50 1029.99 zM1342.99 1028.49L1340.37 1030.87 1342.99 1028.49 zM1347.99 1024.49L1346.37 1025.87 1347.99 1024.49 zM2048.37 847.87L2047.50 847.99 2050.50 846.99 2048.37 847.87 zM320.12 522.37L319.50 520.99 321.12 524.37 320.12 522.37 zM317.88 518.62L315.12 513.37 318.50 519.99 317.88 518.62 z" style="stroke-width:1;" fill="#ff0000" stroke-linecap="square" stroke-linejoin="bevel" id="mergeda-0-0" class="merged qa layer-0 level-0" fill-rule="evenodd" data-area="1608007.45" /><defs><pattern id="pattern-fdiag-ffffff7f"  x="0" y="0" width="10" height="10" patternUnits="userSpaceOnUse" ><g style="fill:none;stroke-width:1;" ><line x1="0" y1="0" x2="10" y2="10"  stroke="#ffffff7f"  /></g></pattern></defs><path d="M2675.37 -7.88L2677.87 -6.38 2678.99 -3.50 2677.99 10.50 2678.99 13.50 2678.99 30.50 2680.87 36.62 2681.12 45.38 2683.87 52.62 2685.12 61.38 2688.49 67.00 2705.62 82.88 2722.37 87.12 2734.62 92.88 2753.37 99.12 2768.62 106.88 2776.37 109.12 2784.62 115.88 2799.62 122.88 2812.37 124.12 2821.62 127.88 2839.62 131.88 2852.37 132.12 2865.62 138.88 2887.37 144.12 2893.99 150.50 2902.62 155.88 2923.37 163.12 2933.62 169.88 2946.37 171.12 2952.50 173.00 2981.50 173.00 2988.50 171.00 2998.38 170.88 3007.62 167.12 3014.38 166.88 3021.62 162.12 3036.38 158.88 3039.62 157.12 3048.38 156.88 3062.50 153.00 3068.50 154.00 3092.37 154.12 3098.99 156.50 3100.12 160.38 3101.50 161.00 3103.62 158.12 3106.37 158.12 3106.99 267.50 3106.37 268.87 3103.62 269.87 3102.50 266.25 3100.12 267.62 3099.37 270.87 3089.50 272.99 3081.62 273.12 3075.37 275.87 3067.50 276.99 3051.62 277.12 3047.24 278.50 3050.37 279.87 3044.37 281.87 3032.37 284.87 3025.62 285.12 3011.50 289.74 3003.62 289.12 2978.37 294.87 2971.62 295.12 2947.62 301.12 2938.37 305.87 2919.62 311.12 2910.37 316.87 2903.62 318.12 2892.37 322.87 2883.62 324.12 2874.37 327.87 2867.62 329.12 2848.37 337.87 2839.62 340.12 2828.37 346.87 2822.62 348.12 2805.62 356.12 2791.99 366.49 2772.62 378.12 2761.99 388.49 2735.99 407.49 2723.99 420.49 2706.62 434.12 2687.37 453.87 2675.99 461.49 2666.99 470.49 2656.37 473.87 2643.62 474.12 2637.99 476.49 2633.49 480.99 2629.12 492.62 2628.87 501.37 2626.99 507.50 2626.99 524.50 2624.99 531.50 2625.12 551.38 2630.87 573.62 2629.24 575.50 2634.87 586.62 2634.99 598.50 2638.12 613.38 2649.87 638.62 2662.99 678.50 2661.49 682.99 2655.49 688.99 2653.12 694.62 2652.99 704.50 2650.99 711.50 2650.99 738.50 2648.99 745.50 2648.99 789.50 2641.12 821.62 2640.99 835.50 2639.12 841.62 2638.87 848.37 2635.87 853.37 2632.37 855.87 2623.62 857.12 2614.37 860.87 2599.62 863.12 2584.37 868.87 2574.50 868.99 2569.62 867.87 2562.62 864.87 2559.50 861.99 2553.50 853.99 2544.50 837.99 2534.00 825.49 2502.00 808.49 2452.38 775.12 2441.62 770.87 2416.38 756.12 2407.50 753.99 2400.50 753.99 2393.50 755.99 2381.62 756.12 2348.37 769.87 2339.62 771.12 2328.37 774.87 2288.50 774.99 2281.99 777.49 2279.12 780.62 2270.12 798.62 2268.87 804.37 2262.12 816.62 2257.87 829.37 2242.49 857.99 2231.37 869.87 2214.37 882.87 2190.38 869.12 2175.38 862.12 2158.38 856.12 2149.50 853.99 2142.62 853.87 2136.38 851.12 2100.50 850.99 2093.62 852.87 2071.50 846.99 2050.50 846.99 2038.99 850.49 2031.49 857.99 2026.12 869.62 2021.87 888.37 2014.12 909.62 2008.87 932.37 2005.12 939.62 2003.87 946.37 1998.12 959.62 1996.87 966.37 1984.87 989.37 1974.49 1005.99 1967.49 1013.99 1959.87 1025.37 1949.37 1035.87 1937.99 1044.49 1904.37 1057.87 1886.37 1062.87 1879.62 1062.87 1861.62 1055.87 1852.38 1050.12 1844.62 1046.87 1827.38 1035.12 1817.00 1031.49 1809.88 1018.62 1787.38 996.12 1778.12 989.37 1774.12 982.37 1773.88 979.62 1764.88 958.62 1760.38 955.12 1751.62 955.12 1735.37 961.87 1725.62 964.12 1712.37 969.87 1697.62 974.12 1679.37 981.87 1654.50 988.99 1637.38 985.12 1614.62 982.87 1608.50 980.99 1599.50 980.99 1592.50 978.99 1579.50 978.99 1572.50 976.99 1499.50 976.99 1492.50 978.99 1471.50 978.99 1465.37 980.87 1456.62 981.12 1420.62 988.12 1411.37 991.87 1401.62 994.12 1377.62 1005.12 1360.99 1015.49 1356.37 1019.87 1347.99 1024.49 1328.99 1038.49 1309.99 1049.49 1288.99 1064.49 1268.99 1075.49 1263.37 1079.87 1246.62 1086.12 1237.37 1091.87 1221.62 1099.12 1209.37 1106.87 1202.62 1108.12 1189.37 1114.87 1181.62 1117.12 1166.37 1128.87 1158.62 1130.12 1155.62 1132.12 1142.99 1145.49 1140.37 1146.87 1134.62 1146.87 1114.62 1140.87 1097.62 1132.87 1091.12 1127.37 1082.12 1113.37 1075.12 1097.37 1066.12 1074.37 1061.38 1055.12 1055.62 1055.12 1053.12 1059.62 1047.12 1077.62 1044.87 1090.37 1040.87 1097.37 1030.99 1106.49 1024.99 1109.49 1011.00 1120.49 997.37 1126.87 991.62 1123.87 982.88 1112.62 968.38 1098.12 956.38 1090.12 931.38 1080.12 915.38 1075.12 893.50 1074.99 888.62 1076.12 881.62 1080.12 876.12 1087.62 875.99 1107.50 873.99 1114.50 873.99 1123.50 871.99 1130.50 871.87 1138.37 865.87 1160.37 854.87 1192.37 840.87 1221.37 835.00 1226.49 829.37 1228.87 824.62 1228.87 815.62 1225.87 809.00 1222.49 790.38 1209.12 765.38 1198.12 760.50 1196.99 733.50 1196.99 715.62 1202.12 690.37 1217.87 676.37 1223.87 663.37 1227.87 658.50 1228.99 641.50 1228.99 634.50 1230.99 623.50 1230.99 615.37 1234.87 603.50 1234.99 597.37 1236.87 588.62 1237.12 551.37 1254.87 533.50 1254.99 527.62 1251.87 517.62 1243.87 512.38 1238.12 497.00 1227.49 490.38 1224.12 484.62 1222.87 481.12 1220.37 480.00 1217.50 479.88 1203.62 470.12 1170.37 466.88 1135.62 462.88 1123.62 454.12 1104.37 453.88 1097.62 451.88 1089.62 447.12 1081.37 440.88 1065.62 435.12 1057.37 434.12 1053.62 438.88 1042.38 444.12 1021.62 447.88 1014.38 448.00 988.50 453.12 971.62 464.88 951.38 472.88 933.38 476.12 922.62 490.88 907.38 501.50 894.00 512.88 870.38 520.00 843.50 519.88 811.62 513.88 787.62 511.50 781.99 466.88 723.62 456.38 713.12 447.62 706.87 440.50 698.99 434.12 685.37 433.88 680.62 430.12 673.37 428.88 661.62 421.50 650.99 384.38 613.12 363.00 601.49 356.12 594.37 349.25 575.50 352.75 574.50 351.88 572.62 324.12 530.37 315.12 513.37 306.88 490.62 300.12 479.37 290.12 450.37 291.00 442.50 289.88 429.62 285.12 416.37 282.00 399.50 282.00 377.50 290.50 362.00 299.88 349.38 303.12 340.62 316.88 315.38 318.12 309.62 322.88 301.38 339.12 263.62 354.88 231.38 359.12 213.62 372.88 187.38 374.12 181.62 378.88 172.38 383.12 152.62 387.12 139.62 390.88 132.38 395.88 115.38 396.00 105.50 398.00 98.50 398.00 77.50 396.00 70.50 396.00 59.50 398.62 55.12 401.50 54.00 452.50 54.00 459.50 52.00 496.50 52.00 503.50 54.00 522.50 54.00 539.50 58.00 604.50 58.00 610.62 56.12 620.50 56.00 627.50 54.00 658.50 54.00 672.62 50.12 689.38 47.88 702.62 44.12 724.50 42.00 731.50 40.00 738.50 40.00 745.50 38.00 756.50 38.00 763.50 36.00 842.50 36.00 849.50 34.00 884.50 34.00 891.50 32.00 1012.50 32.00 1019.50 34.00 1038.50 34.00 1045.50 32.00 1052.50 32.00 1059.50 34.00 1070.50 34.00 1077.50 32.00 1092.50 32.00 1099.50 34.00 1134.50 34.00 1154.50 32.00 1160.62 33.88 1166.50 34.00 1173.37 32.12 1179.50 34.00 1284.50 34.00 1291.50 36.00 1326.50 36.00 1333.50 38.00 1610.50 38.00 1617.50 40.00 1630.50 40.00 1636.62 41.88 1646.50 42.00 1653.50 44.00 1680.37 44.12 1692.62 50.88 1700.37 52.12 1722.62 62.88 1779.37 87.12 1816.37 105.12 1822.62 109.88 1865.37 132.12 1870.62 135.88 1908.62 152.88 1928.37 158.12 1937.62 161.88 1950.37 164.12 1955.62 166.88 1972.50 169.00 2007.50 169.00 2016.38 166.88 2021.62 164.12 2026.38 163.88 2048.38 157.88 2062.62 151.12 2071.38 148.88 2108.00 129.50 2133.38 110.88 2136.62 107.12 2147.38 100.88 2181.88 66.38 2190.50 52.00 2199.62 44.12 2229.50 44.00 2250.50 40.00 2268.50 40.00 2279.62 34.12 2288.38 33.88 2294.50 32.00 2307.50 32.00 2328.50 28.00 2340.38 27.88 2346.50 26.00 2387.50 26.00 2393.62 24.12 2404.38 23.88 2409.62 22.12 2416.38 21.88 2431.62 18.12 2440.38 17.88 2446.50 16.00 2473.50 16.00 2480.50 14.00 2517.50 14.00 2538.50 10.00 2555.50 10.00 2578.38 4.88 2585.62 2.12 2605.50 2.00 2612.50 0.00 2633.50 0.00 2647.62 -4.88 2661.62 -7.88 2675.37 -7.88 z" style="stroke-width:1;" fill="url(#pattern-fdiag-ffffff7f)" stroke="rgba(255,255,255,0.50)" stroke-linecap="square" stroke-linejoin="bevel" id="mergeda-1-0" class="merged qa layer-1 level-0" data-area="2252849.22" /><defs><pattern id="pattern-bdiag-ffffff7f"  x="0" y="0" width="10" height="10" patternUnits="userSpaceOnUse" ><g style="fill:none;stroke-width:1;" ><line x1="10" y1="0" x2="0" y2="10"  stroke="#ffffff7f"  /></g></pattern></defs><path d="M2675.37 -7.88L2677.87 -6.38 2678.99 -3.50 2677.99 10.50 2678.99 13.50 2678.99 30.50 2680.87 36.62 2681.12 45.38 2683.87 52.62 2685.12 61.38 2688.49 67.00 2705.62 82.88 2722.37 87.12 2734.62 92.88 2753.37 99.12 2768.62 106.88 2776.37 109.12 2784.62 115.88 2799.62 122.88 2812.37 124.12 2821.62 127.88 2839.62 131.88 2852.37 132.12 2865.62 138.88 2887.37 144.12 2893.99 150.50 2902.62 155.88 2923.37 163.12 2933.62 169.88 2946.37 171.12 2952.50 173.00 2981.50 173.00 2988.50 171.00 2998.38 170.88 3007.62 167.12 3014.38 166.88 3021.62 162.12 3036.38 158.88 3039.62 157.12 3048.38 156.88 3062.50 153.00 3068.50 154.00 3092.37 154.12 3098.99 156.50 3100.12 160.38 3101.50 161.00 3103.62 158.12 3106.37 158.12 3106.99 267.50 3106.37 268.87 3103.62 269.87 3102.50 266.25 3100.12 267.62 3099.37 270.87 3089.50 272.99 3081.62 273.12 3075.37 275.87 3067.50 276.99 3051.62 277.12 3047.24 278.50 3050.37 279.87 3044.37 281.87 3032.37 284.87 3025.62 285.12 3011.50 289.74 3003.62 289.12 2978.37 294.87 2971.62 295.12 2947.62 301.12 2938.37 305.87 2919.62 311.12 2910.37 316.87 2903.62 318.12 2892.37 322.87 2883.62 324.12 2874.37 327.87 2867.62 329.12 2848.37 337.87 2839.62 340.12 2828.37 346.87 2822.62 348.12 2805.62 356.12 2791.99 366.49 2772.62 378.12 2761.99 388.49 2735.99 407.49 2723.99 420.49 2706.62 434.12 2687.37 453.87 2675.99 461.49 2666.99 470.49 2656.37 473.87 2643.62 474.12 2637.99 476.49 2633.49 480.99 2629.12 492.62 2628.87 501.37 2626.99 507.50 2626.99 524.50 2624.99 531.50 2625.12 551.38 2630.87 573.62 2629.24 575.50 2634.87 586.62 2634.99 598.50 2638.12 613.38 2649.87 638.62 2662.99 678.50 2661.49 682.99 2655.49 688.99 2653.12 694.62 2652.99 704.50 2650.99 711.50 2650.99 738.50 2648.99 745.50 2648.99 789.50 2641.12 821.62 2640.99 835.50 2639.12 841.62 2638.87 848.37 2635.87 853.37 2632.37 855.87 2623.62 857.12 2614.37 860.87 2599.62 863.12 2584.37 868.87 2574.50 868.99 2569.62 867.87 2562.62 864.87 2559.50 861.99 2553.50 853.99 2544.50 837.99 2534.00 825.49 2502.00 808.49 2452.38 775.12 2441.62 770.87 2416.38 756.12 2407.50 753.99 2400.50 753.99 2393.50 755.99 2381.62 756.12 2348.37 769.87 2339.62 771.12 2328.37 774.87 2288.50 774.99 2281.99 777.49 2279.12 780.62 2270.12 798.62 2268.87 804.37 2262.12 816.62 2257.87 829.37 2242.49 857.99 2231.37 869.87 2214.37 882.87 2190.38 869.12 2175.38 862.12 2158.38 856.12 2149.50 853.99 2142.62 853.87 2136.38 851.12 2100.50 850.99 2093.62 852.87 2071.50 846.99 2050.50 846.99 2038.99 850.49 2031.49 857.99 2026.12 869.62 2021.87 888.37 2014.12 909.62 2008.87 932.37 2005.12 939.62 2003.87 946.37 1998.12 959.62 1996.87 966.37 1984.87 989.37 1974.49 1005.99 1967.49 1013.99 1959.87 1025.37 1949.37 1035.87 1937.99 1044.49 1904.37 1057.87 1886.37 1062.87 1879.62 1062.87 1861.62 1055.87 1852.38 1050.12 1844.62 1046.87 1827.38 1035.12 1817.00 1031.49 1809.88 1018.62 1787.38 996.12 1778.12 989.37 1774.12 982.37 1773.88 979.62 1764.88 958.62 1760.38 955.12 1751.62 955.12 1735.37 961.87 1725.62 964.12 1712.37 969.87 1697.62 974.12 1679.37 981.87 1654.50 988.99 1637.38 985.12 1614.62 982.87 1608.50 980.99 1599.50 980.99 1592.50 978.99 1579.50 978.99 1572.50 976.99 1499.50 976.99 1492.50 978.99 1471.50 978.99 1465.37 980.87 1456.62 981.12 1420.62 988.12 1411.37 991.87 1401.62 994.12 1377.62 1005.12 1360.99 1015.49 1356.37 1019.87 1347.99 1024.49 1328.99 1038.49 1309.99 1049.49 1288.99 1064.49 1268.99 1075.49 1263.37 1079.87 1246.62 1086.12 1237.37 1091.87 1221.62 1099.12 1209.37 1106.87 1202.62 1108.12 1189.37 1114.87 1181.62 1117.12 1166.37 1128.87 1158.62 1130.12 1155.62 1132.12 1142.99 1145.49 1140.37 1146.87 1134.62 1146.87 1114.62 1140.87 1097.62 1132.87 1091.12 1127.37 1082.12 1113.37 1075.12 1097.37 1066.12 1074.37 1061.38 1055.12 1055.62 1055.12 1053.12 1059.62 1047.12 1077.62 1044.87 1090.37 1040.87 1097.37 1030.99 1106.49 1024.99 1109.49 1011.00 1120.49 997.37 1126.87 991.62 1123.87 982.88 1112.62 968.38 1098.12 956.38 1090.12 931.38 1080.12 915.38 1075.12 893.50 1074.99 888.62 1076.12 881.62 1080.12 876.12 1087.62 875.99 1107.50 873.99 1114.50 873.99 1123.50 871.99 1130.50 871.87 1138.37 865.87 1160.37 854.87 1192.37 840.87 1221.37 835.00 1226.49 829.37 1228.87 824.62 1228.87 815.62 1225.87 809.00 1222.49 790.38 1209.12 765.38 1198.12 760.50 1196.99 733.50 1196.99 715.62 1202.12 690.37 1217.87 676.37 1223.87 663.37 1227.87 658.50 1228.99 641.50 1228.99 634.50 1230.99 623.50 1230.99 615.37 1234.87 603.50 1234.99 597.37 1236.87 588.62 1237.12 551.37 1254.87 533.50 1254.99 527.62 1251.87 517.62 1243.87 512.38 1238.12 497.00 1227.49 490.38 1224.12 484.62 1222.87 481.12 1220.37 480.00 1217.50 479.88 1203.62 470.12 1170.37 466.88 1135.62 462.88 1123.62 454.12 1104.37 453.88 1097.62 451.88 1089.62 447.12 1081.37 440.88 1065.62 435.12 1057.37 434.12 1053.62 438.88 1042.38 444.12 1021.62 447.88 1014.38 448.00 988.50 453.12 971.62 464.88 951.38 472.88 933.38 476.12 922.62 490.88 907.38 501.50 894.00 512.88 870.38 520.00 843.50 519.88 811.62 513.88 787.62 511.50 781.99 466.88 723.62 456.38 713.12 447.62 706.87 440.50 698.99 434.12 685.37 433.88 680.62 430.12 673.37 428.88 661.62 421.50 650.99 384.38 613.12 363.00 601.49 356.12 594.37 349.25 575.50 352.75 574.50 351.88 572.62 324.12 530.37 315.12 513.37 306.88 490.62 300.12 479.37 290.12 450.37 291.00 442.50 289.88 429.62 285.12 416.37 282.00 399.50 282.00 377.50 290.50 362.00 299.88 349.38 303.12 340.62 316.88 315.38 318.12 309.62 322.88 301.38 339.12 263.62 354.88 231.38 359.12 213.62 372.88 187.38 374.12 181.62 378.88 172.38 383.12 152.62 387.12 139.62 390.88 132.38 395.88 115.38 396.00 105.50 398.00 98.50 398.00 77.50 396.00 70.50 396.00 59.50 398.62 55.12 401.50 54.00 452.50 54.00 459.50 52.00 496.50 52.00 503.50 54.00 522.50 54.00 539.50 58.00 604.50 58.00 610.62 56.12 620.50 56.00 627.50 54.00 658.50 54.00 672.62 50.12 689.38 47.88 702.62 44.12 724.50 42.00 731.50 40.00 738.50 40.00 745.50 38.00 756.50 38.00 763.50 36.00 842.50 36.00 849.50 34.00 884.50 34.00 891.50 32.00 1012.50 32.00 1019.50 34.00 1038.50 34.00 1045.50 32.00 1052.50 32.00 1059.50 34.00 1070.50 34.00 1077.50 32.00 1092.50 32.00 1099.50 34.00 1134.50 34.00 1154.50 32.00 1160.62 33.88 1166.50 34.00 1173.37 32.12 1179.50 34.00 1284.50 34.00 1291.50 36.00 1326.50 36.00 1333.50 38.00 1610.50 38.00 1617.50 40.00 1630.50 40.00 1636.62 41.88 1646.50 42.00 1653.50 44.00 1680.37 44.12 1692.62 50.88 1700.37 52.12 1722.62 62.88 1779.37 87.12 1816.37 105.12 1822.62 109.88 1865.37 132.12 1870.62 135.88 1908.62 152.88 1928.37 158.12 1937.62 161.88 1950.37 164.12 1955.62 166.88 1972.50 169.00 2007.50 169.00 2016.38 166.88 2021.62 164.12 2026.38 163.88 2048.38 157.88 2062.62 151.12 2071.38 148.88 2108.00 129.50 2133.38 110.88 2136.62 107.12 2147.38 100.88 2181.88 66.38 2190.50 52.00 2199.62 44.12 2229.50 44.00 2250.50 40.00 2268.50 40.00 2279.62 34.12 2288.38 33.88 2294.50 32.00 2307.50 32.00 2328.50 28.00 2340.38 27.88 2346.50 26.00 2387.50 26.00 2393.62 24.12 2404.38 23.88 2409.62 22.12 2416.38 21.88 2431.62 18.12 2440.38 17.88 2446.50 16.00 2473.50 16.00 2480.50 14.00 2517.50 14.00 2538.50 10.00 2555.50 10.00 2578.38 4.88 2585.62 2.12 2605.50 2.00 2612.50 0.00 2633.50 0.00 2647.62 -4.88 2661.62 -7.88 2675.37 -7.88 z" style="stroke-width:1;" fill="url(#pattern-bdiag-ffffff7f)" stroke="rgba(255,255,255,0.50)" stroke-linecap="square" stroke-linejoin="bevel" id="mergeda-2-0" class="merged qa layer-2 level-0" data-area="2252849.22" /><path d="M2675.37 -7.88L2677.87 -6.38 2678.99 -3.50 2677.99 10.50 2678.99 13.50 2678.99 30.50 2680.87 36.62 2681.12 45.38 2683.87 52.62 2685.12 61.38 2688.49 67.00 2705.62 82.88 2722.37 87.12 2734.62 92.88 2753.37 99.12 2768.62 106.88 2776.37 109.12 2784.62 115.88 2799.62 122.88 2812.37 124.12 2821.62 127.88 2839.62 131.88 2852.37 132.12 2865.62 138.88 2887.37 144.12 2893.99 150.50 2902.62 155.88 2923.37 163.12 2933.62 169.88 2946.37 171.12 2952.50 173.00 2981.50 173.00 2988.50 171.00 2998.38 170.88 3007.62 167.12 3014.38 166.88 3021.62 162.12 3036.38 158.88 3039.62 157.12 3048.38 156.88 3062.50 153.00 3068.50 154.00 3092.37 154.12 3098.99 156.50 3100.12 160.38 3101.50 161.00 3103.62 158.12 3106.37 158.12 3106.99 267.50 3106.37 268.87 3103.62 269.87 3102.50 266.25 3100.12 267.62 3099.37 270.87 3089.50 272.99 3081.62 273.12 3075.37 275.87 3067.50 276.99 3051.62 277.12 3047.24 278.50 3050.37 279.87 3044.37 281.87 3032.37 284.87 3025.62 285.12 3011.50 289.74 3003.62 289.12 2978.37 294.87 2971.62 295.12 2947.62 301.12 2938.37 305.87 2919.62 311.12 2910.37 316.87 2903.62 318.12 2892.37 322.87 2883.62 324.12 2874.37 327.87 2867.62 329.12 2848.37 337.87 2839.62 340.12 2828.37 346.87 2822.62 348.12 2805.62 356.12 2791.99 366.49 2772.62 378.12 2761.99 388.49 2735.99 407.49 2723.99 420.49 2706.62 434.12 2687.37 453.87 2675.99 461.49 2666.99 470.49 2656.37 473.87 2643.62 474.12 2637.99 476.49 2633.49 480.99 2629.12 492.62 2628.87 501.37 2626.99 507.50 2626.99 524.50 2624.99 531.50 2625.12 551.38 2629.12 569.38 2633.87 578.15 2634.99 584.03 2634.99 597.03 2638.12 613.38 2649.87 638.62 2662.99 678.50 2661.49 682.99 2655.49 688.99 2653.12 694.62 2652.99 704.50 2650.99 711.50 2650.99 738.50 2648.99 745.50 2648.99 789.50 2641.12 821.62 2640.99 835.50 2639.12 841.62 2638.87 848.37 2635.87 853.37 2632.37 855.87 2623.62 857.12 2614.37 860.87 2599.62 863.12 2584.37 868.87 2574.50 868.99 2569.62 867.87 2562.62 864.87 2559.50 861.99 2553.50 853.99 2544.50 837.99 2534.00 825.49 2502.00 808.49 2452.38 775.12 2441.62 770.87 2416.38 756.12 2407.50 753.99 2400.50 753.99 2393.50 755.99 2381.62 756.12 2348.37 769.87 2339.62 771.12 2328.37 774.87 2288.50 774.99 2281.99 777.49 2279.12 780.62 2270.12 798.62 2268.87 804.37 2262.12 816.62 2257.87 829.37 2242.49 857.99 2231.37 869.87 2214.37 882.87 2203.76 877.35 2201.47 879.00 2198.36 878.58 2196.62 876.39 2196.32 872.69 2177.85 863.40 2168.37 863.83 2166.13 862.15 2165.66 858.88 2164.38 858.12 2150.38 854.12 2142.62 853.87 2136.38 851.12 2100.50 850.99 2093.62 852.87 2071.50 846.99 2050.50 846.99 2038.99 850.49 2031.49 857.99 2026.12 869.62 2021.87 888.37 2014.12 909.62 2008.87 932.37 2005.12 939.62 2003.87 946.37 1998.12 959.62 1996.87 966.37 1984.87 989.37 1974.49 1005.99 1967.49 1013.99 1959.87 1025.37 1949.37 1035.87 1937.99 1044.49 1904.37 1057.87 1886.37 1062.87 1879.62 1062.87 1861.62 1055.87 1852.38 1050.12 1844.62 1046.87 1827.38 1035.12 1817.00 1031.49 1809.88 1018.62 1787.38 996.12 1778.12 989.37 1774.12 982.37 1773.88 979.62 1764.88 958.62 1760.38 955.12 1751.62 955.12 1735.37 961.87 1725.62 964.12 1712.37 969.87 1697.62 974.12 1679.37 981.87 1654.50 988.99 1637.38 985.12 1614.62 982.87 1608.50 980.99 1599.50 980.99 1592.50 978.99 1579.50 978.99 1572.50 976.99 1499.50 976.99 1492.50 978.99 1471.50 978.99 1465.37 980.87 1456.62 981.12 1420.62 988.12 1411.37 991.87 1401.62 994.12 1377.62 1005.12 1360.99 1015.49 1356.37 1019.87 1347.99 1024.49 1328.99 1038.49 1309.99 1049.49 1288.99 1064.49 1268.99 1075.49 1263.37 1079.87 1246.62 1086.12 1237.37 1091.87 1221.62 1099.12 1209.37 1106.87 1202.62 1108.12 1189.37 1114.87 1181.62 1117.12 1166.37 1128.87 1158.62 1130.12 1155.62 1132.12 1142.99 1145.49 1140.37 1146.87 1134.62 1146.87 1114.62 1140.87 1097.62 1132.87 1091.12 1127.37 1082.12 1113.37 1075.12 1097.37 1066.12 1074.37 1061.38 1055.12 1055.62 1055.12 1053.12 1059.62 1047.12 1077.62 1044.87 1090.37 1040.87 1097.37 1030.99 1106.49 1024.99 1109.49 1011.00 1120.49 997.37 1126.87 991.62 1123.87 982.88 1112.62 968.38 1098.12 956.38 1090.12 931.38 1080.12 915.38 1075.12 893.50 1074.99 888.62 1076.12 881.62 1080.12 876.12 1087.62 875.99 1107.50 873.99 1114.50 873.99 1123.50 871.99 1130.50 871.87 1138.37 865.87 1160.37 854.87 1192.37 840.87 1221.37 835.00 1226.49 829.37 1228.87 824.62 1228.87 815.62 1225.87 809.00 1222.49 790.38 1209.12 765.38 1198.12 760.50 1196.99 733.50 1196.99 715.62 1202.12 690.37 1217.87 676.37 1223.87 663.37 1227.87 658.50 1228.99 641.50 1228.99 634.50 1230.99 623.50 1230.99 615.37 1234.87 603.50 1234.99 597.37 1236.87 588.62 1237.12 551.37 1254.87 533.50 1254.99 527.62 1251.87 517.62 1243.87 512.38 1238.12 497.00 1227.49 490.38 1224.12 484.62 1222.87 481.12 1220.37 480.00 1217.50 479.88 1203.62 470.12 1170.37 466.88 1135.62 462.88 1123.62 454.12 1104.37 453.88 1097.62 451.88 1089.62 447.12 1081.37 440.88 1065.62 435.12 1057.37 434.12 1053.62 438.88 1042.38 444.12 1021.62 447.88 1014.38 448.00 988.50 453.12 971.62 464.88 951.38 472.88 933.38 476.12 922.62 490.88 907.38 501.50 894.00 512.88 870.38 520.00 843.50 519.88 811.62 513.88 787.62 511.50 781.99 466.88 723.62 456.38 713.12 447.62 706.87 440.50 698.99 434.12 685.37 433.88 680.62 430.12 673.37 428.88 661.62 421.50 650.99 384.38 613.12 363.00 601.49 356.12 594.37 349.25 575.50 352.75 574.50 351.88 572.62 324.12 530.37 315.12 513.37 306.88 490.62 300.12 479.37 290.12 450.37 291.00 442.50 289.88 429.62 285.12 416.37 282.00 399.50 282.00 377.50 290.50 362.00 299.88 349.38 303.12 340.62 316.88 315.38 318.12 309.62 322.88 301.38 339.12 263.62 354.88 231.38 359.12 213.62 372.88 187.38 374.12 181.62 378.88 172.38 383.12 152.62 387.12 139.62 390.88 132.38 395.88 115.38 396.00 105.50 398.00 98.50 398.00 77.50 396.00 70.50 396.00 59.50 398.62 55.12 401.50 54.00 438.48 54.00 439.84 51.08 450.50 51.08 457.50 49.08 492.80 49.08 491.96 52.00 497.37 52.12 503.50 54.00 522.50 54.00 539.50 58.00 604.50 58.00 610.62 56.12 620.50 56.00 627.50 54.00 659.38 53.88 702.62 44.12 725.38 41.88 726.31 41.31 723.79 38.08 739.50 35.08 756.50 35.08 763.50 33.08 798.50 33.08 804.62 31.20 814.50 32.08 820.45 31.08 819.91 36.00 842.50 36.00 849.50 34.00 884.50 34.00 891.50 32.00 1012.50 32.00 1019.50 34.00 1038.50 34.00 1045.50 32.00 1052.50 32.00 1059.50 34.00 1070.50 34.00 1077.50 32.00 1092.50 32.00 1099.50 34.00 1134.50 34.00 1154.50 32.00 1161.50 34.00 1167.38 33.88 1172.62 32.12 1179.50 34.00 1284.50 34.00 1291.50 36.00 1326.50 36.00 1333.50 38.00 1610.50 38.00 1617.50 40.00 1630.50 40.00 1636.62 41.88 1646.50 42.00 1653.50 44.00 1680.37 44.12 1692.62 50.88 1700.37 52.12 1722.62 62.88 1779.37 87.12 1816.37 105.12 1822.62 109.88 1865.37 132.12 1870.62 135.88 1908.62 152.88 1928.37 158.12 1937.62 161.88 1950.37 164.12 1955.62 166.88 1972.50 169.00 2007.50 169.00 2016.38 166.88 2021.62 164.12 2026.38 163.88 2048.38 157.88 2062.62 151.12 2071.38 148.88 2108.00 129.50 2133.38 110.88 2136.62 107.12 2147.38 100.88 2181.88 66.38 2190.50 52.00 2199.62 44.12 2229.50 44.00 2250.50 40.00 2268.50 40.00 2279.62 34.12 2288.38 33.88 2294.50 32.00 2307.50 32.00 2328.50 28.00 2340.38 27.88 2342.29 27.03 2343.62 24.20 2348.50 23.08 2361.50 23.08 2368.50 25.08 2383.50 25.08 2390.50 23.08 2393.80 23.08 2391.84 24.95 2403.50 24.00 2431.62 18.12 2440.38 17.88 2446.50 16.00 2458.26 16.00 2468.50 13.08 2485.50 13.08 2492.50 11.08 2498.37 11.20 2504.50 13.08 2510.38 12.95 2517.44 11.08 2517.50 14.00 2538.50 10.00 2556.38 9.88 2586.50 2.00 2605.50 2.00 2612.50 0.00 2633.50 0.00 2647.62 -4.88 2661.62 -7.88 2675.37 -7.88 zM1079.16 44.26L1070.50 46.00 1057.81 45.88 1050.15 44.00 1039.57 45.95 1019.50 46.00 1010.15 44.00 893.85 44.00 885.57 45.95 851.85 46.00 843.57 47.95 813.00 48.00 809.14 52.49 798.06 59.69 783.82 64.38 768.91 65.68 754.28 63.49 745.84 60.20 735.40 52.00 705.85 56.00 660.20 65.88 629.85 66.00 605.57 69.95 538.88 69.98 520.15 66.00 502.88 65.98 494.15 64.00 485.04 64.00 473.64 75.45 463.70 81.75 454.04 85.50 446.14 86.08 441.00 83.87 437.49 79.04 435.73 71.70 435.92 66.00 408.00 66.00 409.95 76.43 410.00 98.50 408.00 107.85 407.75 117.07 403.10 133.62 394.89 156.07 390.10 176.62 385.89 185.07 383.68 192.60 370.98 216.86 366.10 235.62 329.98 312.86 327.68 320.61 314.60 344.81 310.17 355.55 300.45 369.02 294.00 380.82 294.00 397.15 296.88 412.85 301.75 427.93 302.81 449.69 311.83 475.47 317.88 485.84 326.65 509.40 334.46 524.01 362.88 567.83 364.67 573.14 363.68 579.45 366.60 588.13 370.01 591.54 386.57 599.84 392.11 603.95 428.21 640.08 439.88 656.84 441.75 662.93 442.00 670.15 450.60 692.13 476.21 716.08 521.21 774.95 525.26 783.84 532.00 812.50 531.88 845.20 526.43 867.60 521.67 880.61 511.36 900.84 500.08 915.07 486.58 928.89 484.10 937.62 475.68 956.61 464.98 974.86 460.00 990.85 459.43 1017.60 455.89 1025.07 450.43 1045.60 447.11 1053.64 451.88 1060.83 462.88 1084.84 466.00 1101.15 473.88 1118.84 478.26 1131.84 479.95 1139.43 480.00 1153.15 481.75 1159.93 482.00 1167.15 491.56 1200.88 492.00 1212.06 502.58 1216.85 515.84 1225.63 536.30 1242.99 550.40 1242.34 585.85 1225.44 602.43 1223.04 612.16 1222.99 621.78 1219.11 659.86 1216.11 672.40 1212.34 687.21 1205.97 702.80 1195.22 710.84 1191.11 732.43 1185.04 761.16 1185.01 769.62 1186.89 796.59 1198.85 816.86 1213.01 824.07 1216.10 828.13 1216.39 833.01 1211.14 843.10 1188.93 853.37 1159.29 859.99 1135.15 862.11 1112.78 863.99 1105.15 864.36 1085.36 860.44 1074.53 859.94 1065.11 862.64 1057.15 864.98 1054.38 873.77 1050.64 887.70 1051.51 900.70 1057.59 906.58 1062.99 916.22 1063.11 922.60 1064.56 963.64 1080.34 976.90 1089.67 991.40 1104.18 998.49 1113.29 1023.95 1096.57 1032.48 1088.09 1039.89 1060.38 1046.63 1047.14 1052.85 1043.44 1064.39 1043.50 1069.11 1045.94 1072.88 1050.84 1078.65 1073.40 1086.65 1093.40 1092.62 1107.20 1101.65 1120.46 1121.33 1117.99 1143.08 1119.21 1150.17 1121.41 1154.82 1118.74 1160.53 1117.99 1167.91 1111.81 1178.84 1105.11 1186.21 1102.97 1198.82 1096.74 1206.21 1094.97 1215.43 1088.84 1230.21 1081.97 1237.83 1077.12 1257.48 1069.16 1322.02 1028.53 1353.92 1005.80 1371.44 994.83 1396.84 983.11 1416.82 976.74 1469.78 967.11 1490.16 966.99 1499.50 964.99 1573.16 965.01 1581.85 966.99 1593.16 967.01 1601.85 968.99 1610.22 969.11 1653.95 976.42 1672.40 971.34 1747.82 943.74 1759.50 942.99 1767.63 945.33 1773.54 950.11 1776.88 955.84 1786.46 980.01 1795.90 987.67 1818.40 1010.18 1825.12 1021.46 1833.57 1024.84 1850.81 1036.39 1864.86 1044.01 1883.16 1050.99 1900.86 1046.11 1931.13 1034.39 1941.19 1026.62 1950.59 1017.23 1968.48 993.09 1985.10 962.93 1993.89 935.38 1997.10 928.93 2002.56 906.40 2010.10 884.93 2012.05 875.02 2005.54 867.45 2003.49 862.66 2002.97 857.78 2005.45 849.72 2011.94 842.06 2021.98 835.46 2033.32 831.47 2043.67 830.58 2054.02 832.32 2060.21 834.99 2074.10 835.24 2094.00 840.23 2100.50 838.99 2138.10 839.24 2145.84 841.99 2152.10 842.24 2161.60 844.56 2174.62 848.89 2197.43 858.02 2213.18 868.63 2223.19 860.62 2232.54 850.98 2246.01 826.14 2250.89 812.38 2257.01 801.14 2260.85 790.41 2253.40 780.75 2250.05 774.00 2248.81 768.24 2249.60 762.82 2252.42 758.06 2261.49 751.22 2274.29 746.90 2287.85 746.02 2301.42 748.61 2312.93 754.05 2322.03 762.99 2325.16 762.99 2344.86 758.11 2378.85 744.44 2407.50 741.99 2419.60 744.56 2448.86 761.01 2458.57 764.84 2508.91 798.48 2527.04 808.09 2529.60 797.89 2535.42 783.21 2543.56 769.14 2554.19 756.25 2566.53 745.68 2580.06 737.73 2593.98 733.00 2608.36 731.73 2621.12 734.38 2630.13 738.84 2621.41 729.54 2616.26 722.00 2613.42 715.11 2612.97 709.03 2615.00 703.86 2619.54 699.97 2626.54 697.47 2640.99 696.82 2643.32 686.39 2650.20 677.32 2636.34 637.60 2626.74 617.18 2623.24 601.10 2622.99 593.97 2616.47 586.89 2613.50 580.41 2613.20 574.17 2616.38 567.84 2612.99 550.50 2613.01 530.85 2614.99 522.15 2615.11 505.78 2618.89 484.38 2623.21 474.81 2629.51 468.01 2640.85 462.44 2653.16 461.99 2660.47 460.16 2668.08 452.47 2679.19 444.62 2699.08 424.78 2716.95 410.57 2728.08 398.47 2754.95 378.57 2765.08 368.78 2784.95 356.57 2799.44 345.83 2817.84 337.11 2824.47 335.16 2834.82 329.12 2849.40 324.34 2860.84 318.73 2906.47 305.16 2914.82 300.12 2934.86 294.11 2944.85 289.44 2968.85 283.44 3001.90 277.24 3010.91 277.08 3022.85 273.44 3029.16 272.99 3038.20 270.63 3042.82 267.12 3048.85 265.44 3065.16 264.99 3072.16 263.99 3079.90 261.24 3087.16 260.99 3090.76 260.12 3094.99 256.53 3094.99 171.46 3089.61 166.18 3064.01 165.31 3050.07 168.75 3042.85 169.00 3025.52 173.83 3018.16 178.26 3010.84 179.00 2999.20 182.88 2990.84 183.00 2981.50 185.00 2950.81 184.88 2929.38 181.10 2917.78 174.23 2896.46 166.17 2887.16 160.36 2882.66 155.86 2861.38 150.10 2851.18 144.60 2837.93 143.75 2818.40 139.43 2809.15 136.00 2795.38 134.10 2778.46 126.17 2770.46 119.83 2763.39 117.67 2750.14 110.98 2718.92 98.89 2700.41 93.68 2694.97 90.12 2680.01 75.48 2674.12 66.19 2669.44 48.15 2667.04 31.57 2665.99 4.00 2651.15 6.88 2636.07 11.75 2614.84 12.00 2606.57 13.95 2588.84 14.00 2558.07 21.75 2540.84 22.00 2534.07 23.75 2513.34 26.00 2509.07 32.61 2502.69 38.77 2494.84 43.17 2488.11 44.94 2481.71 45.12 2475.86 43.71 2470.78 40.73 2467.23 37.08 2462.69 28.00 2448.84 28.00 2405.20 35.88 2396.84 36.00 2388.57 37.95 2378.03 38.00 2365.18 46.38 2353.14 49.75 2348.26 49.19 2344.32 47.09 2341.53 43.35 2340.75 39.93 2330.84 40.00 2309.20 43.88 2296.84 44.00 2289.20 45.88 2282.84 46.00 2274.16 50.88 2270.20 51.88 2252.84 52.00 2230.57 55.95 2203.47 56.00 2200.45 59.02 2191.08 74.07 2155.86 109.36 2145.98 115.46 2114.17 139.79 2076.16 159.88 2066.60 162.65 2053.16 168.88 2007.50 181.00 1971.88 180.98 1953.93 178.75 1946.92 175.89 1934.40 173.43 1904.38 164.10 1865.41 146.68 1816.46 120.17 1809.14 114.98 1776.14 98.98 1697.17 64.00 1687.39 61.67 1677.17 56.00 1652.88 55.98 1628.15 52.00 1615.81 51.88 1608.15 50.00 1333.50 50.00 1324.15 48.00 1290.88 47.98 1282.15 46.00 1179.50 46.00 1173.00 44.77 1161.50 46.00 1153.01 44.31 1134.50 46.00 1099.50 46.00 1090.15 44.00 1079.16 44.26 zM1236.41 942.42L1243.95 945.54 1244.87 948.29 1243.39 951.20 1239.94 951.98 1233.12 948.90 1232.65 944.70 1236.41 942.42 zM718.26 914.67L721.04 916.39 723.55 922.25 721.60 931.37 716.08 940.56 711.09 945.11 705.94 947.24 701.59 946.57 698.42 943.21 696.24 936.09 696.81 921.58 707.28 915.46 714.80 914.00 718.26 914.67 zM1109.52 884.95L1112.75 886.91 1112.94 890.62 1118.96 892.01 1119.92 895.70 1118.26 902.13 1114.95 907.87 1110.06 912.10 1103.33 913.78 1097.67 911.09 1095.42 904.21 1097.35 897.58 1102.68 892.10 1106.33 886.28 1109.52 884.95 zM1567.31 847.06L1586.76 848.81 1591.89 851.90 1592.96 858.14 1588.03 863.04 1581.06 863.39 1577.87 860.77 1575.74 855.72 1566.35 854.99 1563.92 853.59 1563.45 849.22 1567.31 847.06 zM2494.79 677.21L2548.12 701.69 2549.90 703.85 2549.68 706.98 2547.61 708.87 2544.80 708.93 2492.53 684.66 2490.74 682.50 2490.70 680.04 2492.40 677.81 2494.79 677.21 zM2538.07 549.66L2540.37 550.54 2541.72 552.61 2540.36 556.78 2525.81 564.45 2521.58 563.26 2520.62 560.27 2522.11 557.51 2538.07 549.66 zM1383.65 50.60L1390.39 51.97 1402.75 61.99 1399.13 69.82 1390.14 78.57 1378.64 84.39 1369.04 85.11 1359.62 82.00 1354.34 76.42 1353.44 69.68 1355.58 62.61 1361.38 56.59 1371.80 51.94 1383.65 50.60 z" style="stroke-width:1;visibility:hidden;" fill="#0000ff" stroke-linecap="square" stroke-linejoin="bevel" id="a-0-4" class="qa layer-0 level-4" fill-rule="evenodd" data-area="116101.62" /><path d="M498.11 1026.09L505.23 1027.93 520.14 1034.89 535.83 1045.86 547.74 1056.79 569.04 1079.71 581.00 1089.90 596.30 1099.87 613.46 1108.53 632.66 1115.53 652.48 1119.86 674.14 1122.31 715.21 1124.52 735.82 1127.60 758.15 1135.47 766.92 1140.28 774.19 1145.76 781.68 1154.16 786.86 1163.93 789.57 1174.71 789.61 1195.32 775.66 1188.91 763.10 1185.24 730.90 1185.24 710.84 1191.11 702.80 1195.22 687.21 1205.97 672.40 1212.34 659.86 1216.11 621.78 1219.11 612.16 1222.99 602.43 1223.04 585.85 1225.44 550.40 1242.34 536.30 1242.99 515.84 1225.63 502.58 1216.85 492.00 1212.06 491.56 1200.88 482.00 1167.15 481.75 1159.93 480.00 1153.15 479.95 1139.43 478.26 1131.84 473.88 1118.84 466.00 1101.15 462.88 1084.84 451.88 1060.83 447.11 1053.64 451.83 1039.50 460.93 1033.49 476.85 1027.24 491.31 1025.39 498.11 1026.09 zM2049.55 702.07L2061.86 706.32 2072.74 712.67 2081.60 720.72 2089.33 731.23 2098.18 748.35 2106.19 769.53 2111.95 790.87 2114.91 810.30 2115.11 825.92 2113.21 838.99 2099.43 839.04 2094.00 840.23 2074.10 835.24 2060.21 834.99 2054.02 832.32 2043.67 830.58 2033.32 831.47 2021.98 835.46 2013.88 840.78 1994.81 825.23 1985.43 814.67 1978.63 804.41 1973.28 791.97 1970.18 778.29 1969.61 764.49 1971.53 750.89 1975.75 738.58 1982.30 727.32 1990.84 717.56 2001.15 709.65 2012.63 704.05 2025.46 700.75 2036.93 700.16 2049.55 702.07 z" style="stroke-width:1;visibility:hidden;" fill="#00ffff" stroke-linecap="square" stroke-linejoin="bevel" id="a-0-3" class="qa layer-0 level-3" fill-rule="evenodd" data-area="52717.34" /><path d="M723.65 818.26L755.59 824.57 788.91 834.48 808.88 842.57 848.16 862.36 866.95 873.43 903.33 898.78 932.44 923.75 956.17 949.76 966.11 963.20 981.15 989.66 986.54 1003.26 992.08 1024.28 993.78 1043.19 991.60 1059.49 985.44 1074.80 976.11 1088.95 960.62 1078.89 922.60 1064.56 916.22 1063.11 906.58 1062.99 900.70 1057.59 887.70 1051.51 873.77 1050.64 864.98 1054.38 862.64 1057.15 859.94 1065.11 860.44 1074.53 864.36 1085.36 863.99 1105.15 862.11 1112.78 859.99 1135.15 853.37 1159.29 843.10 1188.93 832.48 1212.09 826.99 1216.69 815.90 1212.48 797.84 1199.63 789.06 1195.09 790.01 1187.29 789.57 1174.71 786.86 1163.93 781.68 1154.16 774.19 1145.76 758.15 1135.47 735.82 1127.60 715.21 1124.52 674.14 1122.31 652.48 1119.86 632.66 1115.53 613.46 1108.53 596.30 1099.87 581.00 1089.90 569.04 1079.71 547.74 1056.79 535.83 1045.86 520.14 1034.89 505.23 1027.93 491.31 1025.39 476.85 1027.24 460.93 1033.49 451.83 1039.50 455.89 1025.07 459.75 1016.07 460.00 990.85 464.98 974.86 475.68 956.61 484.10 937.62 486.58 928.89 500.08 915.07 512.16 899.55 522.10 879.62 528.05 860.74 546.10 849.49 575.27 835.19 601.66 826.05 633.39 818.87 661.01 815.31 691.68 815.18 723.65 818.26 zM1620.34 788.99L1699.43 794.80 1751.63 801.98 1771.53 808.01 1822.10 830.08 1902.46 857.33 2008.24 889.90 2002.56 906.40 1997.10 928.93 1993.89 935.38 1985.01 963.14 1974.48 983.09 1964.54 998.98 1952.54 1014.98 1938.95 1028.57 1931.13 1034.39 1926.40 1036.34 1900.86 1046.11 1883.16 1050.99 1864.86 1044.01 1850.81 1036.39 1833.57 1024.84 1825.12 1021.46 1818.40 1010.18 1795.90 987.67 1786.46 980.01 1776.88 955.84 1772.98 949.51 1769.20 946.22 1763.60 943.56 1751.43 943.04 1693.82 962.74 1672.40 971.34 1653.95 976.42 1610.22 969.11 1601.85 968.99 1593.16 967.01 1581.85 966.99 1573.16 965.01 1499.50 964.99 1490.16 966.99 1469.78 967.11 1416.82 976.74 1396.84 983.11 1371.44 994.83 1353.92 1005.80 1322.02 1028.53 1257.48 1069.16 1237.83 1077.12 1230.21 1081.97 1215.43 1088.84 1206.21 1094.97 1198.82 1096.74 1186.21 1102.97 1178.84 1105.11 1167.91 1111.81 1160.53 1117.99 1154.82 1118.74 1150.17 1121.41 1143.08 1119.21 1121.33 1117.99 1101.65 1120.46 1092.62 1107.20 1086.65 1093.40 1078.65 1073.40 1072.41 1049.88 1068.26 1045.29 1062.22 1043.11 1051.82 1043.74 1045.91 1047.93 1039.89 1060.38 1032.48 1088.09 1023.95 1096.57 1017.91 1099.81 1003.95 1110.57 998.49 1113.29 984.04 1096.89 1072.97 1001.04 1107.54 967.03 1134.19 945.40 1158.07 929.02 1181.28 916.36 1242.04 894.45 1271.91 879.42 1276.90 875.30 1283.42 865.91 1305.73 840.97 1328.03 820.99 1346.67 807.54 1358.48 802.08 1372.36 797.72 1411.64 790.81 1433.73 789.08 1620.34 788.99 zM975.82 1105.93L975.82 1105.93 zM968.38 1098.12L967.62 1097.87 968.38 1098.12 zM1236.21 942.42L1232.65 944.70 1233.12 948.90 1239.94 951.98 1243.39 951.20 1244.87 948.29 1243.89 945.46 1236.21 942.42 zM707.28 915.46L696.81 921.58 695.94 926.87 696.24 936.09 698.42 943.21 701.59 946.57 705.94 947.24 711.09 945.11 716.08 940.56 721.60 931.37 723.55 922.25 721.04 916.39 718.26 914.67 714.80 914.00 707.28 915.46 zM1566.55 847.07L1563.30 849.55 1563.92 853.59 1566.35 854.99 1575.74 855.72 1577.87 860.77 1581.06 863.39 1588.03 863.04 1592.96 858.14 1591.89 851.90 1586.38 848.65 1566.55 847.07 zM2701.14 93.98L2718.92 98.89 2750.14 110.98 2763.39 117.67 2770.46 119.83 2778.46 126.17 2795.38 134.10 2809.15 136.00 2818.40 139.43 2837.93 143.75 2849.15 144.00 2861.38 150.10 2882.66 155.86 2887.16 160.36 2897.41 166.68 2917.78 174.23 2929.38 181.10 2935.93 182.75 2943.15 183.00 2951.88 184.98 2982.57 184.95 2990.84 183.00 3000.07 182.75 3010.84 179.00 3017.13 178.56 3025.52 173.83 3042.85 169.00 3050.07 168.75 3064.01 165.31 3089.61 166.18 3094.99 171.46 3094.99 256.53 3090.76 260.12 3087.16 260.99 3079.90 261.24 3072.16 263.99 3065.16 264.99 3048.85 265.44 3042.82 267.12 3038.20 270.63 3029.16 272.99 3022.85 273.44 3010.91 277.08 3001.90 277.24 2968.85 283.44 2944.85 289.44 2934.86 294.11 2914.82 300.12 2906.47 305.16 2860.84 318.73 2849.40 324.34 2834.82 329.12 2824.47 335.16 2817.84 337.11 2799.44 345.83 2784.95 356.57 2765.08 368.78 2754.95 378.57 2728.08 398.47 2716.95 410.57 2699.08 424.78 2679.19 444.62 2668.08 452.47 2660.47 460.16 2636.84 463.73 2630.92 466.80 2625.01 472.51 2618.56 485.40 2615.11 505.78 2614.99 522.15 2613.01 530.85 2612.99 550.50 2616.38 567.84 2613.20 574.17 2613.50 580.41 2616.47 586.89 2622.99 593.97 2623.24 601.10 2626.74 617.18 2636.34 637.60 2650.20 677.32 2643.32 686.39 2640.99 696.82 2626.54 697.47 2619.54 699.97 2615.00 703.86 2612.97 709.03 2613.42 715.11 2616.26 722.00 2621.41 729.54 2630.13 738.84 2621.12 734.38 2608.36 731.73 2593.98 733.00 2580.06 737.73 2566.53 745.68 2554.19 756.25 2543.56 769.14 2535.42 783.21 2529.60 797.89 2527.04 808.09 2508.91 798.48 2458.57 764.84 2448.86 761.01 2420.62 744.89 2409.22 742.11 2399.43 742.04 2391.16 743.99 2378.85 744.44 2362.86 751.11 2366.03 698.31 2369.48 675.77 2375.13 653.06 2395.16 592.74 2411.49 551.36 2421.60 513.72 2434.53 478.31 2445.09 455.76 2448.57 384.51 2450.18 382.65 2452.94 382.14 2455.12 383.29 2456.24 385.86 2453.96 436.84 2476.57 388.57 2495.05 354.21 2522.96 309.61 2552.58 268.47 2570.59 245.84 2510.74 254.50 2507.12 252.60 2507.06 248.51 2509.95 246.55 2577.87 236.70 2585.25 227.43 2491.09 237.55 2487.54 235.52 2487.45 231.75 2490.59 229.57 2592.26 218.63 2620.51 183.14 2667.02 129.02 2701.14 93.98 zM2363.05 763.46L2363.05 763.46 zM2494.08 677.22L2491.83 678.24 2490.61 680.38 2490.88 682.83 2492.53 684.66 2544.80 708.93 2547.61 708.87 2549.68 706.98 2549.90 703.85 2548.12 701.69 2494.08 677.22 zM2537.35 549.69L2522.11 557.51 2520.62 560.27 2521.58 563.26 2525.81 564.45 2540.36 556.78 2541.71 554.73 2541.61 552.27 2540.08 550.33 2537.35 549.69 zM2470.80 113.31L2473.60 114.71 2474.53 117.75 2447.29 360.75 2445.75 363.48 2442.72 364.26 2440.05 362.61 2439.34 359.86 2466.57 116.86 2467.84 114.36 2470.80 113.31 zM500.70 349.94L539.50 352.52 542.15 354.18 542.80 357.25 541.33 359.63 539.01 360.47 499.81 357.88 497.37 356.50 496.46 353.51 497.98 350.77 500.70 349.94 z" style="stroke-width:1;visibility:hidden;" fill="#00ff00" stroke-linecap="square" stroke-linejoin="bevel" id="a-0-2" class="qa layer-0 level-2" fill-rule="evenodd" data-area="476790.03" /><path d="" style="stroke-width:1;visibility:hidden;" fill="#ffff00" stroke-linecap="square" stroke-linejoin="bevel" id="a-0-1" class="qa layer-0 level-1" data-area="0.00" /><path d="M1023.37 1111.12L1025.62 1109.12 1023.37 1111.12 zM2665.99 10.50L2667.04 31.57 2668.99 39.84 2669.11 46.22 2674.12 66.19 2680.01 75.48 2694.97 90.12 2700.62 93.77 2667.02 129.02 2620.51 183.14 2592.26 218.63 2490.59 229.57 2487.30 232.07 2487.73 235.83 2491.09 237.55 2585.25 227.43 2577.87 236.70 2509.95 246.55 2507.06 248.51 2507.12 252.60 2510.74 254.50 2570.59 245.84 2552.58 268.47 2522.96 309.61 2495.05 354.21 2476.57 388.57 2453.96 436.84 2456.24 385.86 2455.12 383.29 2452.94 382.14 2450.18 382.65 2448.57 384.51 2445.09 455.76 2434.53 478.31 2421.60 513.72 2411.49 551.36 2395.16 592.74 2375.13 653.06 2369.48 675.77 2366.03 698.31 2363.50 750.86 2344.86 758.11 2325.16 762.99 2322.03 762.99 2312.93 754.05 2301.42 748.61 2287.85 746.02 2274.29 746.90 2261.49 751.22 2256.37 754.38 2252.42 758.06 2249.60 762.82 2248.81 768.24 2250.05 774.00 2253.40 780.75 2260.85 790.41 2257.10 800.93 2251.32 811.39 2246.01 826.14 2232.54 850.98 2223.19 860.62 2213.18 868.63 2197.11 857.87 2161.60 844.56 2152.10 842.24 2145.84 841.99 2137.22 839.11 2113.21 838.99 2115.11 825.92 2114.91 810.30 2111.95 790.87 2106.19 769.53 2098.18 748.35 2089.33 731.23 2081.60 720.72 2072.74 712.67 2061.86 706.32 2049.55 702.07 2036.93 700.16 2025.46 700.75 2012.63 704.05 2001.15 709.65 1990.84 717.56 1982.30 727.32 1975.75 738.58 1971.53 750.89 1969.61 764.49 1970.18 778.29 1973.28 791.97 1978.63 804.41 1985.43 814.67 1994.81 825.23 2013.88 840.78 2005.45 849.72 2002.97 857.78 2005.54 867.45 2012.05 875.02 2008.21 890.08 1902.46 857.33 1822.10 830.08 1771.53 808.01 1751.63 801.98 1730.26 798.32 1654.11 790.79 1620.34 788.99 1461.43 788.40 1433.73 789.08 1390.75 793.83 1372.36 797.72 1358.48 802.08 1338.78 812.58 1305.73 840.97 1283.42 865.91 1276.90 875.30 1271.91 879.42 1242.04 894.45 1181.28 916.36 1158.07 929.02 1134.19 945.40 1107.54 967.03 1072.97 1001.04 984.04 1096.89 975.96 1088.82 985.44 1074.80 991.60 1059.49 993.78 1043.19 992.08 1024.28 986.54 1003.26 981.15 989.66 966.11 963.20 956.17 949.76 932.44 923.75 903.33 898.78 866.95 873.43 827.13 851.23 788.91 834.48 755.59 824.57 723.65 818.26 691.68 815.18 661.01 815.31 633.39 818.87 601.66 826.05 575.27 835.19 546.10 849.49 528.05 860.74 531.98 844.13 531.95 811.43 525.56 784.88 522.18 776.47 476.21 716.08 450.60 692.13 442.00 670.15 441.75 662.93 439.88 656.84 428.21 640.08 392.11 603.95 386.57 599.84 370.01 591.54 366.60 588.13 363.68 579.45 364.75 574.21 363.50 569.16 359.80 561.84 340.46 534.01 328.02 512.21 317.88 485.84 311.83 475.47 302.81 449.69 301.75 427.93 296.88 412.85 294.00 397.15 294.00 380.82 300.45 369.02 310.17 355.55 314.60 344.81 327.68 320.61 329.98 312.86 366.10 235.62 370.98 216.86 383.68 192.60 385.89 185.07 390.10 176.62 394.89 156.07 403.10 133.62 407.75 117.07 408.00 107.85 410.00 98.50 409.95 76.43 408.00 66.00 435.92 66.00 435.73 71.70 437.49 79.04 441.00 83.87 446.14 86.08 454.04 85.50 463.70 81.75 473.64 75.45 485.04 64.00 494.15 64.00 502.88 65.98 520.15 66.00 538.88 69.98 605.57 69.95 629.85 66.00 660.20 65.88 705.85 56.00 735.40 52.00 745.84 60.20 754.28 63.49 768.91 65.68 783.82 64.38 798.06 59.69 809.14 52.49 813.00 48.00 843.57 47.95 851.85 46.00 885.57 45.95 893.85 44.00 1010.15 44.00 1019.50 46.00 1039.57 45.95 1047.85 44.00 1059.50 46.00 1071.57 45.95 1079.85 44.00 1090.15 44.00 1099.50 46.00 1134.50 46.00 1153.01 44.31 1161.50 46.00 1173.00 44.77 1179.50 46.00 1282.15 46.00 1290.88 47.98 1324.15 48.00 1333.50 50.00 1608.15 50.00 1615.81 51.88 1628.15 52.00 1652.88 55.98 1677.17 56.00 1687.39 61.67 1697.17 64.00 1776.14 98.98 1809.14 114.98 1816.46 120.17 1865.41 146.68 1908.40 165.43 1934.40 173.43 1946.92 175.89 1953.93 178.75 1971.88 180.98 2007.50 181.00 2053.16 168.88 2066.60 162.65 2076.16 159.88 2114.17 139.79 2145.98 115.46 2155.86 109.36 2191.08 74.07 2200.45 59.02 2203.47 56.00 2230.57 55.95 2252.84 52.00 2270.20 51.88 2274.16 50.88 2282.84 46.00 2289.20 45.88 2296.84 44.00 2309.20 43.88 2330.84 40.00 2340.75 39.93 2341.53 43.35 2344.32 47.09 2348.26 49.19 2353.14 49.75 2365.18 46.38 2378.03 38.00 2388.57 37.95 2396.84 36.00 2405.20 35.88 2448.84 28.00 2462.69 28.00 2467.23 37.08 2470.78 40.73 2475.86 43.71 2481.71 45.12 2488.11 44.94 2494.84 43.17 2502.69 38.77 2509.07 32.61 2513.34 26.00 2534.07 23.75 2540.84 22.00 2558.07 21.75 2588.84 14.00 2606.57 13.95 2614.84 12.00 2636.07 11.75 2651.15 6.88 2664.84 4.00 2665.99 4.00 2665.99 10.50 zM1937.99 1044.49L1940.62 1042.12 1937.99 1044.49 zM1108.81 884.98L1106.33 886.28 1102.68 892.10 1097.13 897.89 1095.42 904.21 1097.67 911.09 1103.33 913.78 1110.06 912.10 1114.95 907.87 1118.26 902.13 1120.00 895.31 1118.71 891.76 1112.94 890.62 1112.56 886.61 1108.81 884.98 zM2095.62 852.12L2096.50 851.99 2094.37 852.87 2095.62 852.12 zM2470.08 113.33L2467.84 114.36 2466.57 116.86 2439.34 359.86 2440.05 362.61 2442.72 364.26 2445.75 363.48 2447.29 360.75 2474.53 117.75 2473.36 114.45 2470.08 113.33 zM499.94 349.96L497.46 351.25 496.44 353.86 497.37 356.50 499.81 357.88 539.01 360.47 541.33 359.63 542.80 357.25 542.15 354.18 539.50 352.52 499.94 349.96 zM1371.80 51.94L1361.38 56.59 1355.58 62.61 1353.44 69.68 1354.34 76.42 1359.62 82.00 1363.56 83.94 1374.06 85.28 1378.64 84.39 1390.14 78.57 1399.13 69.82 1402.75 61.99 1390.39 51.97 1382.49 50.37 1371.80 51.94 zM523.37 54.12L524.21 54.62 522.50 54.00 523.37 54.12 zM1032.99 1104.49L1030.37 1106.87 1032.99 1104.49 zM1042.49 1094.99L1041.12 1096.62 1042.49 1094.99 zM1843.00 1045.49L1844.62 1046.87 1843.00 1045.49 zM1318.99 1044.49L1317.37 1045.87 1318.99 1044.49 zM1840.00 1043.49L1841.62 1044.87 1840.00 1043.49 zM1322.99 1041.49L1320.37 1043.87 1322.99 1041.49 zM1837.00 1041.49L1838.62 1042.87 1837.00 1041.49 zM1943.99 1039.49L1941.37 1041.87 1943.99 1039.49 zM1834.00 1039.49L1835.62 1040.87 1834.00 1039.49 zM1329.99 1037.49L1328.37 1038.87 1329.99 1037.49 zM1831.00 1037.49L1832.62 1038.87 1831.00 1037.49 zM1947.99 1036.49L1945.37 1038.87 1947.99 1036.49 zM1332.99 1035.49L1331.37 1036.87 1332.99 1035.49 zM1828.00 1035.49L1829.62 1036.87 1828.00 1035.49 zM1335.99 1033.49L1334.37 1034.87 1335.99 1033.49 zM1338.99 1031.49L1337.37 1032.87 1338.99 1031.49 zM1815.50 1029.99L1817.62 1031.87 1815.50 1029.99 zM1342.99 1028.49L1340.37 1030.87 1342.99 1028.49 zM1347.99 1024.49L1346.37 1025.87 1347.99 1024.49 zM2048.37 847.87L2047.50 847.99 2050.50 846.99 2048.37 847.87 zM320.12 522.37L319.50 520.99 321.12 524.37 320.12 522.37 zM317.88 518.62L315.12 513.37 318.50 519.99 317.88 518.62 z" style="stroke-width:1;visibility:hidden;" fill="#ff0000" stroke-linecap="square" stroke-linejoin="bevel" id="a-0-0" class="qa layer-0 level-0" fill-rule="evenodd" data-area="1608007.45" /><path d="M2675.37 -7.88L2677.87 -6.38 2678.99 -3.50 2677.99 10.50 2678.99 13.50 2678.99 30.50 2680.87 36.62 2681.12 45.38 2683.87 52.62 2685.12 61.38 2688.49 67.00 2705.62 82.88 2722.37 87.12 2734.62 92.88 2753.37 99.12 2768.62 106.88 2776.37 109.12 2784.62 115.88 2799.62 122.88 2812.37 124.12 2821.62 127.88 2839.62 131.88 2852.37 132.12 2865.62 138.88 2887.37 144.12 2893.99 150.50 2902.62 155.88 2923.37 163.12 2933.62 169.88 2946.37 171.12 2952.50 173.00 2981.50 173.00 2988.50 171.00 2998.38 170.88 3007.62 167.12 3014.38 166.88 3021.62 162.12 3036.38 158.88 3039.62 157.12 3048.38 156.88 3062.50 153.00 3068.50 154.00 3092.37 154.12 3098.99 156.50 3100.12 160.38 3101.50 161.00 3103.62 158.12 3106.37 158.12 3106.99 267.50 3106.37 268.87 3103.62 269.87 3102.50 266.25 3100.12 267.62 3099.37 270.87 3089.50 272.99 3081.62 273.12 3075.37 275.87 3067.50 276.99 3051.62 277.12 3047.24 278.50 3050.37 279.87 3044.37 281.87 3032.37 284.87 3025.62 285.12 3011.50 289.74 3003.62 289.12 2978.37 294.87 2971.62 295.12 2947.62 301.12 2938.37 305.87 2919.62 311.12 2910.37 316.87 2903.62 318.12 2892.37 322.87 2883.62 324.12 2874.37 327.87 2867.62 329.12 2848.37 337.87 2839.62 340.12 2828.37 346.87 2822.62 348.12 2805.62 356.12 2791.99 366.49 2772.62 378.12 2761.99 388.49 2735.99 407.49 2723.99 420.49 2706.62 434.12 2687.37 453.87 2675.99 461.49 2666.99 470.49 2656.37 473.87 2643.62 474.12 2637.99 476.49 2633.49 480.99 2629.12 492.62 2628.87 501.37 2626.99 507.50 2626.99 524.50 2624.99 531.50 2625.12 551.38 2630.87 573.62 2629.24 575.50 2634.87 586.62 2634.99 598.50 2638.12 613.38 2649.87 638.62 2662.99 678.50 2661.49 682.99 2655.49 688.99 2653.12 694.62 2652.99 704.50 2650.99 711.50 2650.99 738.50 2648.99 745.50 2648.99 789.50 2641.12 821.62 2640.99 835.50 2639.12 841.62 2638.87 848.37 2635.87 853.37 2632.37 855.87 2623.62 857.12 2614.37 860.87 2599.62 863.12 2584.37 868.87 2574.50 868.99 2569.62 867.87 2562.62 864.87 2559.50 861.99 2553.50 853.99 2544.50 837.99 2534.00 825.49 2502.00 808.49 2452.38 775.12 2441.62 770.87 2416.38 756.12 2407.50 753.99 2400.50 753.99 2393.50 755.99 2381.62 756.12 2348.37 769.87 2339.62 771.12 2328.37 774.87 2288.50 774.99 2281.99 777.49 2279.12 780.62 2270.12 798.62 2268.87 804.37 2262.12 816.62 2257.87 829.37 2242.49 857.99 2231.37 869.87 2214.37 882.87 2190.38 869.12 2175.38 862.12 2158.38 856.12 2149.50 853.99 2142.62 853.87 2136.38 851.12 2100.50 850.99 2093.62 852.87 2071.50 846.99 2050.50 846.99 2038.99 850.49 2031.49 857.99 2026.12 869.62 2021.87 888.37 2014.12 909.62 2008.87 932.37 2005.12 939.62 2003.87 946.37 1998.12 959.62 1996.87 966.37 1984.87 989.37 1974.49 1005.99 1967.49 1013.99 1959.87 1025.37 1949.37 1035.87 1937.99 1044.49 1904.37 1057.87 1886.37 1062.87 1879.62 1062.87 1861.62 1055.87 1852.38 1050.12 1844.62 1046.87 1827.38 1035.12 1817.00 1031.49 1809.88 1018.62 1787.38 996.12 1778.12 989.37 1774.12 982.37 1773.88 979.62 1764.88 958.62 1760.38 955.12 1751.62 955.12 1735.37 961.87 1725.62 964.12 1712.37 969.87 1697.62 974.12 1679.37 981.87 1654.50 988.99 1637.38 985.12 1614.62 982.87 1608.50 980.99 1599.50 980.99 1592.50 978.99 1579.50 978.99 1572.50 976.99 1499.50 976.99 1492.50 978.99 1471.50 978.99 1465.37 980.87 1456.62 981.12 1420.62 988.12 1411.37 991.87 1401.62 994.12 1377.62 1005.12 1360.99 1015.49 1356.37 1019.87 1347.99 1024.49 1328.99 1038.49 1309.99 1049.49 1288.99 1064.49 1268.99 1075.49 1263.37 1079.87 1246.62 1086.12 1237.37 1091.87 1221.62 1099.12 1209.37 1106.87 1202.62 1108.12 1189.37 1114.87 1181.62 1117.12 1166.37 1128.87 1158.62 1130.12 1155.62 1132.12 1142.99 1145.49 1140.37 1146.87 1134.62 1146.87 1114.62 1140.87 1097.62 1132.87 1091.12 1127.37 1082.12 1113.37 1075.12 1097.37 1066.12 1074.37 1061.38 1055.12 1055.62 1055.12 1053.12 1059.62 1047.12 1077.62 1044.87 1090.37 1040.87 1097.37 1030.99 1106.49 1024.99 1109.49 1011.00 1120.49 997.37 1126.87 991.62 1123.87 982.88 1112.62 968.38 1098.12 956.38 1090.12 931.38 1080.12 915.38 1075.12 893.50 1074.99 888.62 1076.12 881.62 1080.12 876.12 1087.62 875.99 1107.50 873.99 1114.50 873.99 1123.50 871.99 1130.50 871.87 1138.37 865.87 1160.37 854.87 1192.37 840.87 1221.37 835.00 1226.49 829.37 1228.87 824.62 1228.87 815.62 1225.87 809.00 1222.49 790.38 1209.12 765.38 1198.12 760.50 1196.99 733.50 1196.99 715.62 1202.12 690.37 1217.87 676.37 1223.87 663.37 1227.87 658.50 1228.99 641.50 1228.99 634.50 1230.99 623.50 1230.99 615.37 1234.87 603.50 1234.99 597.37 1236.87 588.62 1237.12 551.37 1254.87 533.50 1254.99 527.62 1251.87 517.62 1243.87 512.38 1238.12 497.00 1227.49 490.38 1224.12 484.62 1222.87 481.12 1220.37 480.00 1217.50 479.88 1203.62 470.12 1170.37 466.88 1135.62 462.88 1123.62 454.12 1104.37 453.88 1097.62 451.88 1089.62 447.12 1081.37 440.88 1065.62 435.12 1057.37 434.12 1053.62 438.88 1042.38 444.12 1021.62 447.88 1014.38 448.00 988.50 453.12 971.62 464.88 951.38 472.88 933.38 476.12 922.62 490.88 907.38 501.50 894.00 512.88 870.38 520.00 843.50 519.88 811.62 513.88 787.62 511.50 781.99 466.88 723.62 456.38 713.12 447.62 706.87 440.50 698.99 434.12 685.37 433.88 680.62 430.12 673.37 428.88 661.62 421.50 650.99 384.38 613.12 363.00 601.49 356.12 594.37 349.25 575.50 352.75 574.50 351.88 572.62 324.12 530.37 315.12 513.37 306.88 490.62 300.12 479.37 290.12 450.37 291.00 442.50 289.88 429.62 285.12 416.37 282.00 399.50 282.00 377.50 290.50 362.00 299.88 349.38 303.12 340.62 316.88 315.38 318.12 309.62 322.88 301.38 339.12 263.62 354.88 231.38 359.12 213.62 372.88 187.38 374.12 181.62 378.88 172.38 383.12 152.62 387.12 139.62 390.88 132.38 395.88 115.38 396.00 105.50 398.00 98.50 398.00 77.50 396.00 70.50 396.00 59.50 398.62 55.12 401.50 54.00 452.50 54.00 459.50 52.00 496.50 52.00 503.50 54.00 522.50 54.00 539.50 58.00 604.50 58.00 610.62 56.12 620.50 56.00 627.50 54.00 658.50 54.00 672.62 50.12 689.38 47.88 702.62 44.12 724.50 42.00 731.50 40.00 738.50 40.00 745.50 38.00 756.50 38.00 763.50 36.00 842.50 36.00 849.50 34.00 884.50 34.00 891.50 32.00 1012.50 32.00 1019.50 34.00 1038.50 34.00 1045.50 32.00 1052.50 32.00 1059.50 34.00 1070.50 34.00 1077.50 32.00 1092.50 32.00 1099.50 34.00 1134.50 34.00 1154.50 32.00 1160.62 33.88 1166.50 34.00 1173.37 32.12 1179.50 34.00 1284.50 34.00 1291.50 36.00 1326.50 36.00 1333.50 38.00 1610.50 38.00 1617.50 40.00 1630.50 40.00 1636.62 41.88 1646.50 42.00 1653.50 44.00 1680.37 44.12 1692.62 50.88 1700.37 52.12 1722.62 62.88 1779.37 87.12 1816.37 105.12 1822.62 109.88 1865.37 132.12 1870.62 135.88 1908.62 152.88 1928.37 158.12 1937.62 161.88 1950.37 164.12 1955.62 166.88 1972.50 169.00 2007.50 169.00 2016.38 166.88 2021.62 164.12 2026.38 163.88 2048.38 157.88 2062.62 151.12 2071.38 148.88 2108.00 129.50 2133.38 110.88 2136.62 107.12 2147.38 100.88 2181.88 66.38 2190.50 52.00 2199.62 44.12 2229.50 44.00 2250.50 40.00 2268.50 40.00 2279.62 34.12 2288.38 33.88 2294.50 32.00 2307.50 32.00 2328.50 28.00 2340.38 27.88 2346.50 26.00 2387.50 26.00 2393.62 24.12 2404.38 23.88 2409.62 22.12 2416.38 21.88 2431.62 18.12 2440.38 17.88 2446.50 16.00 2473.50 16.00 2480.50 14.00 2517.50 14.00 2538.50 10.00 2555.50 10.00 2578.38 4.88 2585.62 2.12 2605.50 2.00 2612.50 0.00 2633.50 0.00 2647.62 -4.88 2661.62 -7.88 2675.37 -7.88 z" style="stroke-width:1;visibility:hidden;" fill="rgba(255,255,255,0.50)" stroke-linecap="square" stroke-linejoin="bevel" id="a-1-0" class="qa layer-1 level-0" data-area="2252849.22" /><path d="M2675.37 -7.88L2677.87 -6.38 2678.99 -3.50 2677.99 10.50 2678.99 13.50 2678.99 30.50 2680.87 36.62 2681.12 45.38 2683.87 52.62 2685.12 61.38 2688.49 67.00 2705.62 82.88 2722.37 87.12 2734.62 92.88 2753.37 99.12 2768.62 106.88 2776.37 109.12 2784.62 115.88 2799.62 122.88 2812.37 124.12 2821.62 127.88 2839.62 131.88 2852.37 132.12 2865.62 138.88 2887.37 144.12 2893.99 150.50 2902.62 155.88 2923.37 163.12 2933.62 169.88 2946.37 171.12 2952.50 173.00 2981.50 173.00 2988.50 171.00 2998.38 170.88 3007.62 167.12 3014.38 166.88 3021.62 162.12 3036.38 158.88 3039.62 157.12 3048.38 156.88 3062.50 153.00 3068.50 154.00 3092.37 154.12 3098.99 156.50 3100.12 160.38 3101.50 161.00 3103.62 158.12 3106.37 158.12 3106.99 267.50 3106.37 268.87 3103.62 269.87 3102.50 266.25 3100.12 267.62 3099.37 270.87 3089.50 272.99 3081.62 273.12 3075.37 275.87 3067.50 276.99 3051.62 277.12 3047.24 278.50 3050.37 279.87 3044.37 281.87 3032.37 284.87 3025.62 285.12 3011.50 289.74 3003.62 289.12 2978.37 294.87 2971.62 295.12 2947.62 301.12 2938.37 305.87 2919.62 311.12 2910.37 316.87 2903.62 318.12 2892.37 322.87 2883.62 324.12 2874.37 327.87 2867.62 329.12 2848.37 337.87 2839.62 340.12 2828.37 346.87 2822.62 348.12 2805.62 356.12 2791.99 366.49 2772.62 378.12 2761.99 388.49 2735.99 407.49 2723.99 420.49 2706.62 434.12 2687.37 453.87 2675.99 461.49 2666.99 470.49 2656.37 473.87 2643.62 474.12 2637.99 476.49 2633.49 480.99 2629.12 492.62 2628.87 501.37 2626.99 507.50 2626.99 524.50 2624.99 531.50 2625.12 551.38 2630.87 573.62 2629.24 575.50 2634.87 586.62 2634.99 598.50 2638.12 613.38 2649.87 638.62 2662.99 678.50 2661.49 682.99 2655.49 688.99 2653.12 694.62 2652.99 704.50 2650.99 711.50 2650.99 738.50 2648.99 745.50 2648.99 789.50 2641.12 821.62 2640.99 835.50 2639.12 841.62 2638.87 848.37 2635.87 853.37 2632.37 855.87 2623.62 857.12 2614.37 860.87 2599.62 863.12 2584.37 868.87 2574.50 868.99 2569.62 867.87 2562.62 864.87 2559.50 861.99 2553.50 853.99 2544.50 837.99 2534.00 825.49 2502.00 808.49 2452.38 775.12 2441.62 770.87 2416.38 756.12 2407.50 753.99 2400.50 753.99 2393.50 755.99 2381.62 756.12 2348.37 769.87 2339.62 771.12 2328.37 774.87 2288.50 774.99 2281.99 777.49 2279.12 780.62 2270.12 798.62 2268.87 804.37 2262.12 816.62 2257.87 829.37 2242.49 857.99 2231.37 869.87 2214.37 882.87 2190.38 869.12 2175.38 862.12 2158.38 856.12 2149.50 853.99 2142.62 853.87 2136.38 851.12 2100.50 850.99 2093.62 852.87 2071.50 846.99 2050.50 846.99 2038.99 850.49 2031.49 857.99 2026.12 869.62 2021.87 888.37 2014.12 909.62 2008.87 932.37 2005.12 939.62 2003.87 946.37 1998.12 959.62 1996.87 966.37 1984.87 989.37 1974.49 1005.99 1967.49 1013.99 1959.87 1025.37 1949.37 1035.87 1937.99 1044.49 1904.37 1057.87 1886.37 1062.87 1879.62 1062.87 1861.62 1055.87 1852.38 1050.12 1844.62 1046.87 1827.38 1035.12 1817.00 1031.49 1809.88 1018.62 1787.38 996.12 1778.12 989.37 1774.12 982.37 1773.88 979.62 1764.88 958.62 1760.38 955.12 1751.62 955.12 1735.37 961.87 1725.62 964.12 1712.37 969.87 1697.62 974.12 1679.37 981.87 1654.50 988.99 1637.38 985.12 1614.62 982.87 1608.50 980.99 1599.50 980.99 1592.50 978.99 1579.50 978.99 1572.50 976.99 1499.50 976.99 1492.50 978.99 1471.50 978.99 1465.37 980.87 1456.62 981.12 1420.62 988.12 1411.37 991.87 1401.62 994.12 1377.62 1005.12 1360.99 1015.49 1356.37 1019.87 1347.99 1024.49 1328.99 1038.49 1309.99 1049.49 1288.99 1064.49 1268.99 1075.49 1263.37 1079.87 1246.62 1086.12 1237.37 1091.87 1221.62 1099.12 1209.37 1106.87 1202.62 1108.12 1189.37 1114.87 1181.62 1117.12 1166.37 1128.87 1158.62 1130.12 1155.62 1132.12 1142.99 1145.49 1140.37 1146.87 1134.62 1146.87 1114.62 1140.87 1097.62 1132.87 1091.12 1127.37 1082.12 1113.37 1075.12 1097.37 1066.12 1074.37 1061.38 1055.12 1055.62 1055.12 1053.12 1059.62 1047.12 1077.62 1044.87 1090.37 1040.87 1097.37 1030.99 1106.49 1024.99 1109.49 1011.00 1120.49 997.37 1126.87 991.62 1123.87 982.88 1112.62 968.38 1098.12 956.38 1090.12 931.38 1080.12 915.38 1075.12 893.50 1074.99 888.62 1076.12 881.62 1080.12 876.12 1087.62 875.99 1107.50 873.99 1114.50 873.99 1123.50 871.99 1130.50 871.87 1138.37 865.87 1160.37 854.87 1192.37 840.87 1221.37 835.00 1226.49 829.37 1228.87 824.62 1228.87 815.62 1225.87 809.00 1222.49 790.38 1209.12 765.38 1198.12 760.50 1196.99 733.50 1196.99 715.62 1202.12 690.37 1217.87 676.37 1223.87 663.37 1227.87 658.50 1228.99 641.50 1228.99 634.50 1230.99 623.50 1230.99 615.37 1234.87 603.50 1234.99 597.37 1236.87 588.62 1237.12 551.37 1254.87 533.50 1254.99 527.62 1251.87 517.62 1243.87 512.38 1238.12 497.00 1227.49 490.38 1224.12 484.62 1222.87 481.12 1220.37 480.00 1217.50 479.88 1203.62 470.12 1170.37 466.88 1135.62 462.88 1123.62 454.12 1104.37 453.88 1097.62 451.88 1089.62 447.12 1081.37 440.88 1065.62 435.12 1057.37 434.12 1053.62 438.88 1042.38 444.12 1021.62 447.88 1014.38 448.00 988.50 453.12 971.62 464.88 951.38 472.88 933.38 476.12 922.62 490.88 907.38 501.50 894.00 512.88 870.38 520.00 843.50 519.88 811.62 513.88 787.62 511.50 781.99 466.88 723.62 456.38 713.12 447.62 706.87 440.50 698.99 434.12 685.37 433.88 680.62 430.12 673.37 428.88 661.62 421.50 650.99 384.38 613.12 363.00 601.49 356.12 594.37 349.25 575.50 352.75 574.50 351.88 572.62 324.12 530.37 315.12 513.37 306.88 490.62 300.12 479.37 290.12 450.37 291.00 442.50 289.88 429.62 285.12 416.37 282.00 399.50 282.00 377.50 290.50 362.00 299.88 349.38 303.12 340.62 316.88 315.38 318.12 309.62 322.88 301.38 339.12 263.62 354.88 231.38 359.12 213.62 372.88 187.38 374.12 181.62 378.88 172.38 383.12 152.62 387.12 139.62 390.88 132.38 395.88 115.38 396.00 105.50 398.00 98.50 398.00 77.50 396.00 70.50 396.00 59.50 398.62 55.12 401.50 54.00 452.50 54.00 459.50 52.00 496.50 52.00 503.50 54.00 522.50 54.00 539.50 58.00 604.50 58.00 610.62 56.12 620.50 56.00 627.50 54.00 658.50 54.00 672.62 50.12 689.38 47.88 702.62 44.12 724.50 42.00 731.50 40.00 738.50 40.00 745.50 38.00 756.50 38.00 763.50 36.00 842.50 36.00 849.50 34.00 884.50 34.00 891.50 32.00 1012.50 32.00 1019.50 34.00 1038.50 34.00 1045.50 32.00 1052.50 32.00 1059.50 34.00 1070.50 34.00 1077.50 32.00 1092.50 32.00 1099.50 34.00 1134.50 34.00 1154.50 32.00 1160.62 33.88 1166.50 34.00 1173.37 32.12 1179.50 34.00 1284.50 34.00 1291.50 36.00 1326.50 36.00 1333.50 38.00 1610.50 38.00 1617.50 40.00 1630.50 40.00 1636.62 41.88 1646.50 42.00 1653.50 44.00 1680.37 44.12 1692.62 50.88 1700.37 52.12 1722.62 62.88 1779.37 87.12 1816.37 105.12 1822.62 109.88 1865.37 132.12 1870.62 135.88 1908.62 152.88 1928.37 158.12 1937.62 161.88 1950.37 164.12 1955.62 166.88 1972.50 169.00 2007.50 169.00 2016.38 166.88 2021.62 164.12 2026.38 163.88 2048.38 157.88 2062.62 151.12 2071.38 148.88 2108.00 129.50 2133.38 110.88 2136.62 107.12 2147.38 100.88 2181.88 66.38 2190.50 52.00 2199.62 44.12 2229.50 44.00 2250.50 40.00 2268.50 40.00 2279.62 34.12 2288.38 33.88 2294.50 32.00 2307.50 32.00 2328.50 28.00 2340.38 27.88 2346.50 26.00 2387.50 26.00 2393.62 24.12 2404.38 23.88 2409.62 22.12 2416.38 21.88 2431.62 18.12 2440.38 17.88 2446.50 16.00 2473.50 16.00 2480.50 14.00 2517.50 14.00 2538.50 10.00 2555.50 10.00 2578.38 4.88 2585.62 2.12 2605.50 2.00 2612.50 0.00 2633.50 0.00 2647.62 -4.88 2661.62 -7.88 2675.37 -7.88 z" style="stroke-width:1;visibility:hidden;" fill="rgba(255,255,255,0.50)" stroke-linecap="square" stroke-linejoin="bevel" id="a-2-0" class="qa layer-2 level-0" data-area="2252849.22" /></g></svg>